<?xml version="1.0" encoding="utf-8"?>
<svg version="1.1" xmlns:xlink="http://www.w3.org/1999/xlink" width="338px" height="204px" xmlns="http://www.w3.org/2000/svg">
  <defs>
    <filter x="17px" y="1481px" width="338px" height="204px" filterUnits="userSpaceOnUse" id="filter11005">
      <feOffset dx="1" dy="1" in="SourceAlpha" result="shadowOffsetInner" />
      <feGaussianBlur stdDeviation="2" in="shadowOffsetInner" result="shadowGaussian" />
      <feComposite in2="shadowGaussian" operator="atop" in="SourceAlpha" result="shadowComposite" />
      <feColorMatrix type="matrix" values="0 0 0 0 0  0 0 0 0 0.301960784313725  0 0 0 0 0.454901960784314  0 0 0 0.0588235294117647 0  " in="shadowComposite" />
    </filter>
    <g id="widget11006">
      <path d="M 22 1494  A 8 8 0 0 1 30 1486 L 340 1486  A 8 8 0 0 1 348 1494 L 348 1670  A 8 8 0 0 1 340 1678 L 30 1678  A 8 8 0 0 1 22 1670 L 22 1494  Z " fill-rule="nonzero" fill="#ffffff" stroke="none" fill-opacity="0.6" />
      <path d="M 21 1494  A 9 9 0 0 1 30 1485 L 340 1485  A 9 9 0 0 1 349 1494 L 349 1670  A 9 9 0 0 1 340 1679 L 30 1679  A 9 9 0 0 1 21 1670 L 21 1494  Z " stroke-width="2" stroke="#ffffff" fill="none" stroke-opacity="0.898039215686275" />
    </g>
  </defs>
  <g transform="matrix(1 0 0 1 -17 -1481 )">
    <use xlink:href="#widget11006" filter="url(#filter11005)" />
    <use xlink:href="#widget11006" />
  </g>
</svg>