<?xml version="1.0" encoding="utf-8"?>
<svg version="1.1" xmlns:xlink="http://www.w3.org/1999/xlink" width="676px" height="132px" xmlns="http://www.w3.org/2000/svg">
  <defs>
    <filter x="39px" y="1386px" width="676px" height="132px" filterUnits="userSpaceOnUse" id="filter10923">
      <feOffset dx="1" dy="1" in="SourceAlpha" result="shadowOffsetInner" />
      <feGaussianBlur stdDeviation="2" in="shadowOffsetInner" result="shadowGaussian" />
      <feComposite in2="shadowGaussian" operator="atop" in="SourceAlpha" result="shadowComposite" />
      <feColorMatrix type="matrix" values="0 0 0 0 0  0 0 0 0 0.301960784313725  0 0 0 0 0.454901960784314  0 0 0 0.0588235294117647 0  " in="shadowComposite" />
    </filter>
    <g id="widget10924">
      <path d="M 44 1399  A 8 8 0 0 1 52 1391 L 700 1391  A 8 8 0 0 1 708 1399 L 708 1503  A 8 8 0 0 1 700 1511 L 52 1511  A 8 8 0 0 1 44 1503 L 44 1399  Z " fill-rule="nonzero" fill="#ffffff" stroke="none" fill-opacity="0.6" />
      <path d="M 43 1399  A 9 9 0 0 1 52 1390 L 700 1390  A 9 9 0 0 1 709 1399 L 709 1503  A 9 9 0 0 1 700 1512 L 52 1512  A 9 9 0 0 1 43 1503 L 43 1399  Z " stroke-width="2" stroke="#ffffff" fill="none" stroke-opacity="0.898039215686275" />
    </g>
  </defs>
  <g transform="matrix(1 0 0 1 -39 -1386 )">
    <use xlink:href="#widget10924" filter="url(#filter10923)" />
    <use xlink:href="#widget10924" />
  </g>
</svg>