<?xml version="1.0" encoding="utf-8"?>
<svg version="1.1" xmlns:xlink="http://www.w3.org/1999/xlink" width="478px" height="132px" xmlns="http://www.w3.org/2000/svg">
  <defs>
    <filter x="47px" y="1211px" width="478px" height="132px" filterUnits="userSpaceOnUse" id="filter1977">
      <feOffset dx="1" dy="1" in="SourceAlpha" result="shadowOffsetInner" />
      <feGaussianBlur stdDeviation="2" in="shadowOffsetInner" result="shadowGaussian" />
      <feComposite in2="shadowGaussian" operator="atop" in="SourceAlpha" result="shadowComposite" />
      <feColorMatrix type="matrix" values="0 0 0 0 0  0 0 0 0 0.301960784313725  0 0 0 0 0.454901960784314  0 0 0 0.0588235294117647 0  " in="shadowComposite" />
    </filter>
    <g id="widget1978">
      <path d="M 52 1224  A 8 8 0 0 1 60 1216 L 510 1216  A 8 8 0 0 1 518 1224 L 518 1328  A 8 8 0 0 1 510 1336 L 60 1336  A 8 8 0 0 1 52 1328 L 52 1224  Z " fill-rule="nonzero" fill="#ffffff" stroke="none" fill-opacity="0.6" />
      <path d="M 51 1224  A 9 9 0 0 1 60 1215 L 510 1215  A 9 9 0 0 1 519 1224 L 519 1328  A 9 9 0 0 1 510 1337 L 60 1337  A 9 9 0 0 1 51 1328 L 51 1224  Z " stroke-width="2" stroke="#ffffff" fill="none" stroke-opacity="0.898039215686275" />
    </g>
  </defs>
  <g transform="matrix(1 0 0 1 -47 -1211 )">
    <use xlink:href="#widget1978" filter="url(#filter1977)" />
    <use xlink:href="#widget1978" />
  </g>
</svg>