<?xml version="1.0" encoding="utf-8"?>
<svg version="1.1" xmlns:xlink="http://www.w3.org/1999/xlink" width="338px" height="168px" xmlns="http://www.w3.org/2000/svg">
  <defs>
    <filter x="17px" y="1285px" width="338px" height="168px" filterUnits="userSpaceOnUse" id="filter11003">
      <feOffset dx="1" dy="1" in="SourceAlpha" result="shadowOffsetInner" />
      <feGaussianBlur stdDeviation="2" in="shadowOffsetInner" result="shadowGaussian" />
      <feComposite in2="shadowGaussian" operator="atop" in="SourceAlpha" result="shadowComposite" />
      <feColorMatrix type="matrix" values="0 0 0 0 0  0 0 0 0 0.301960784313725  0 0 0 0 0.454901960784314  0 0 0 0.0588235294117647 0  " in="shadowComposite" />
    </filter>
    <g id="widget11004">
      <path d="M 22 1298  A 8 8 0 0 1 30 1290 L 340 1290  A 8 8 0 0 1 348 1298 L 348 1438  A 8 8 0 0 1 340 1446 L 30 1446  A 8 8 0 0 1 22 1438 L 22 1298  Z " fill-rule="nonzero" fill="#ffffff" stroke="none" fill-opacity="0.6" />
      <path d="M 21 1298  A 9 9 0 0 1 30 1289 L 340 1289  A 9 9 0 0 1 349 1298 L 349 1438  A 9 9 0 0 1 340 1447 L 30 1447  A 9 9 0 0 1 21 1438 L 21 1298  Z " stroke-width="2" stroke="#ffffff" fill="none" stroke-opacity="0.898039215686275" />
    </g>
  </defs>
  <g transform="matrix(1 0 0 1 -17 -1285 )">
    <use xlink:href="#widget11004" filter="url(#filter11003)" />
    <use xlink:href="#widget11004" />
  </g>
</svg>