<?xml version="1.0" encoding="utf-8"?>
<svg version="1.1" xmlns:xlink="http://www.w3.org/1999/xlink" width="478px" height="132px" xmlns="http://www.w3.org/2000/svg">
  <defs>
    <filter x="47px" y="1209px" width="478px" height="132px" filterUnits="userSpaceOnUse" id="filter17639">
      <feOffset dx="1" dy="1" in="SourceAlpha" result="shadowOffsetInner" />
      <feGaussianBlur stdDeviation="2" in="shadowOffsetInner" result="shadowGaussian" />
      <feComposite in2="shadowGaussian" operator="atop" in="SourceAlpha" result="shadowComposite" />
      <feColorMatrix type="matrix" values="0 0 0 0 0  0 0 0 0 0.301960784313725  0 0 0 0 0.454901960784314  0 0 0 0.0588235294117647 0  " in="shadowComposite" />
    </filter>
    <g id="widget17640">
      <path d="M 52 1222  A 8 8 0 0 1 60 1214 L 510 1214  A 8 8 0 0 1 518 1222 L 518 1326  A 8 8 0 0 1 510 1334 L 60 1334  A 8 8 0 0 1 52 1326 L 52 1222  Z " fill-rule="nonzero" fill="#ffffff" stroke="none" fill-opacity="0.6" />
      <path d="M 51 1222  A 9 9 0 0 1 60 1213 L 510 1213  A 9 9 0 0 1 519 1222 L 519 1326  A 9 9 0 0 1 510 1335 L 60 1335  A 9 9 0 0 1 51 1326 L 51 1222  Z " stroke-width="2" stroke="#ffffff" fill="none" stroke-opacity="0.898039215686275" />
    </g>
  </defs>
  <g transform="matrix(1 0 0 1 -47 -1209 )">
    <use xlink:href="#widget17640" filter="url(#filter17639)" />
    <use xlink:href="#widget17640" />
  </g>
</svg>