<?xml version="1.0" encoding="utf-8"?>
<svg version="1.1" xmlns:xlink="http://www.w3.org/1999/xlink" width="388px" height="156px" xmlns="http://www.w3.org/2000/svg">
  <defs>
    <filter x="47px" y="1468px" width="388px" height="156px" filterUnits="userSpaceOnUse" id="filter10955">
      <feOffset dx="1" dy="1" in="SourceAlpha" result="shadowOffsetInner" />
      <feGaussianBlur stdDeviation="2" in="shadowOffsetInner" result="shadowGaussian" />
      <feComposite in2="shadowGaussian" operator="atop" in="SourceAlpha" result="shadowComposite" />
      <feColorMatrix type="matrix" values="0 0 0 0 0  0 0 0 0 0.301960784313725  0 0 0 0 0.454901960784314  0 0 0 0.0588235294117647 0  " in="shadowComposite" />
    </filter>
    <g id="widget10956">
      <path d="M 52 1481  A 8 8 0 0 1 60 1473 L 420 1473  A 8 8 0 0 1 428 1481 L 428 1609  A 8 8 0 0 1 420 1617 L 60 1617  A 8 8 0 0 1 52 1609 L 52 1481  Z " fill-rule="nonzero" fill="#ffffff" stroke="none" fill-opacity="0.6" />
      <path d="M 51 1481  A 9 9 0 0 1 60 1472 L 420 1472  A 9 9 0 0 1 429 1481 L 429 1609  A 9 9 0 0 1 420 1618 L 60 1618  A 9 9 0 0 1 51 1609 L 51 1481  Z " stroke-width="2" stroke="#ffffff" fill="none" stroke-opacity="0.898039215686275" />
    </g>
  </defs>
  <g transform="matrix(1 0 0 1 -47 -1468 )">
    <use xlink:href="#widget10956" filter="url(#filter10955)" />
    <use xlink:href="#widget10956" />
  </g>
</svg>