<?xml version="1.0" encoding="utf-8"?>
<svg version="1.1" xmlns:xlink="http://www.w3.org/1999/xlink" width="338px" height="206px" xmlns="http://www.w3.org/2000/svg">
  <defs>
    <filter x="17px" y="1291px" width="338px" height="206px" filterUnits="userSpaceOnUse" id="filter17773">
      <feOffset dx="1" dy="1" in="SourceAlpha" result="shadowOffsetInner" />
      <feGaussianBlur stdDeviation="2" in="shadowOffsetInner" result="shadowGaussian" />
      <feComposite in2="shadowGaussian" operator="atop" in="SourceAlpha" result="shadowComposite" />
      <feColorMatrix type="matrix" values="0 0 0 0 0  0 0 0 0 0.301960784313725  0 0 0 0 0.454901960784314  0 0 0 0.0588235294117647 0  " in="shadowComposite" />
    </filter>
    <g id="widget17774">
      <path d="M 22 1304  A 8 8 0 0 1 30 1296 L 340 1296  A 8 8 0 0 1 348 1304 L 348 1482  A 8 8 0 0 1 340 1490 L 30 1490  A 8 8 0 0 1 22 1482 L 22 1304  Z " fill-rule="nonzero" fill="#ffffff" stroke="none" fill-opacity="0.6" />
      <path d="M 21 1304  A 9 9 0 0 1 30 1295 L 340 1295  A 9 9 0 0 1 349 1304 L 349 1482  A 9 9 0 0 1 340 1491 L 30 1491  A 9 9 0 0 1 21 1482 L 21 1304  Z " stroke-width="2" stroke="#ffffff" fill="none" stroke-opacity="0.898039215686275" />
    </g>
  </defs>
  <g transform="matrix(1 0 0 1 -17 -1291 )">
    <use xlink:href="#widget17774" filter="url(#filter17773)" />
    <use xlink:href="#widget17774" />
  </g>
</svg>