<?xml version="1.0" encoding="utf-8"?>
<svg version="1.1" xmlns:xlink="http://www.w3.org/1999/xlink" width="388px" height="528px" xmlns="http://www.w3.org/2000/svg">
  <defs>
    <filter x="47px" y="2440px" width="388px" height="528px" filterUnits="userSpaceOnUse" id="filter2071">
      <feOffset dx="1" dy="1" in="SourceAlpha" result="shadowOffsetInner" />
      <feGaussianBlur stdDeviation="2" in="shadowOffsetInner" result="shadowGaussian" />
      <feComposite in2="shadowGaussian" operator="atop" in="SourceAlpha" result="shadowComposite" />
      <feColorMatrix type="matrix" values="0 0 0 0 0  0 0 0 0 0.301960784313725  0 0 0 0 0.454901960784314  0 0 0 0.0588235294117647 0  " in="shadowComposite" />
    </filter>
    <g id="widget2072">
      <path d="M 52 2453  A 8 8 0 0 1 60 2445 L 420 2445  A 8 8 0 0 1 428 2453 L 428 2953  A 8 8 0 0 1 420 2961 L 60 2961  A 8 8 0 0 1 52 2953 L 52 2453  Z " fill-rule="nonzero" fill="#ffffff" stroke="none" fill-opacity="0.6" />
      <path d="M 51 2453  A 9 9 0 0 1 60 2444 L 420 2444  A 9 9 0 0 1 429 2453 L 429 2953  A 9 9 0 0 1 420 2962 L 60 2962  A 9 9 0 0 1 51 2953 L 51 2453  Z " stroke-width="2" stroke="#ffffff" fill="none" stroke-opacity="0.898039215686275" />
    </g>
  </defs>
  <g transform="matrix(1 0 0 1 -47 -2440 )">
    <use xlink:href="#widget2072" filter="url(#filter2071)" />
    <use xlink:href="#widget2072" />
  </g>
</svg>