<?xml version="1.0" encoding="utf-8"?>
<svg version="1.1" xmlns:xlink="http://www.w3.org/1999/xlink" width="338px" height="563px" xmlns="http://www.w3.org/2000/svg">
  <defs>
    <filter x="17px" y="2516px" width="338px" height="563px" filterUnits="userSpaceOnUse" id="filter7611">
      <feOffset dx="1" dy="1" in="SourceAlpha" result="shadowOffsetInner" />
      <feGaussianBlur stdDeviation="2" in="shadowOffsetInner" result="shadowGaussian" />
      <feComposite in2="shadowGaussian" operator="atop" in="SourceAlpha" result="shadowComposite" />
      <feColorMatrix type="matrix" values="0 0 0 0 0  0 0 0 0 0.301960784313725  0 0 0 0 0.454901960784314  0 0 0 0.0588235294117647 0  " in="shadowComposite" />
    </filter>
    <g id="widget7612">
      <path d="M 22 2529  A 8 8 0 0 1 30 2521 L 340 2521  A 8 8 0 0 1 348 2529 L 348 3064  A 8 8 0 0 1 340 3072 L 30 3072  A 8 8 0 0 1 22 3064 L 22 2529  Z " fill-rule="nonzero" fill="#ffffff" stroke="none" fill-opacity="0.6" />
      <path d="M 21 2529  A 9 9 0 0 1 30 2520 L 340 2520  A 9 9 0 0 1 349 2529 L 349 3064  A 9 9 0 0 1 340 3073 L 30 3073  A 9 9 0 0 1 21 3064 L 21 2529  Z " stroke-width="2" stroke="#ffffff" fill="none" stroke-opacity="0.898039215686275" />
    </g>
  </defs>
  <g transform="matrix(1 0 0 1 -17 -2516 )">
    <use xlink:href="#widget7612" filter="url(#filter7611)" />
    <use xlink:href="#widget7612" />
  </g>
</svg>