<?xml version="1.0" encoding="utf-8"?>
<svg version="1.1" xmlns:xlink="http://www.w3.org/1999/xlink" width="676px" height="588px" xmlns="http://www.w3.org/2000/svg">
  <defs>
    <filter x="47px" y="2235px" width="676px" height="588px" filterUnits="userSpaceOnUse" id="filter7542">
      <feOffset dx="1" dy="1" in="SourceAlpha" result="shadowOffsetInner" />
      <feGaussianBlur stdDeviation="2" in="shadowOffsetInner" result="shadowGaussian" />
      <feComposite in2="shadowGaussian" operator="atop" in="SourceAlpha" result="shadowComposite" />
      <feColorMatrix type="matrix" values="0 0 0 0 0  0 0 0 0 0.301960784313725  0 0 0 0 0.454901960784314  0 0 0 0.0588235294117647 0  " in="shadowComposite" />
    </filter>
    <g id="widget7543">
      <path d="M 52 2248  A 8 8 0 0 1 60 2240 L 708 2240  A 8 8 0 0 1 716 2248 L 716 2808  A 8 8 0 0 1 708 2816 L 60 2816  A 8 8 0 0 1 52 2808 L 52 2248  Z " fill-rule="nonzero" fill="#ffffff" stroke="none" fill-opacity="0.6" />
      <path d="M 51 2248  A 9 9 0 0 1 60 2239 L 708 2239  A 9 9 0 0 1 717 2248 L 717 2808  A 9 9 0 0 1 708 2817 L 60 2817  A 9 9 0 0 1 51 2808 L 51 2248  Z " stroke-width="2" stroke="#ffffff" fill="none" stroke-opacity="0.898039215686275" />
    </g>
  </defs>
  <g transform="matrix(1 0 0 1 -47 -2235 )">
    <use xlink:href="#widget7543" filter="url(#filter7542)" />
    <use xlink:href="#widget7543" />
  </g>
</svg>