<?xml version="1.0" encoding="utf-8"?>
<svg version="1.1" xmlns:xlink="http://www.w3.org/1999/xlink" width="676px" height="568px" xmlns="http://www.w3.org/2000/svg">
  <defs>
    <filter x="47px" y="2195px" width="676px" height="568px" filterUnits="userSpaceOnUse" id="filter2223">
      <feOffset dx="1" dy="1" in="SourceAlpha" result="shadowOffsetInner" />
      <feGaussianBlur stdDeviation="2" in="shadowOffsetInner" result="shadowGaussian" />
      <feComposite in2="shadowGaussian" operator="atop" in="SourceAlpha" result="shadowComposite" />
      <feColorMatrix type="matrix" values="0 0 0 0 0  0 0 0 0 0.301960784313725  0 0 0 0 0.454901960784314  0 0 0 0.0588235294117647 0  " in="shadowComposite" />
    </filter>
    <g id="widget2224">
      <path d="M 52 2208  A 8 8 0 0 1 60 2200 L 708 2200  A 8 8 0 0 1 716 2208 L 716 2748  A 8 8 0 0 1 708 2756 L 60 2756  A 8 8 0 0 1 52 2748 L 52 2208  Z " fill-rule="nonzero" fill="#ffffff" stroke="none" fill-opacity="0.6" />
      <path d="M 51 2208  A 9 9 0 0 1 60 2199 L 708 2199  A 9 9 0 0 1 717 2208 L 717 2748  A 9 9 0 0 1 708 2757 L 60 2757  A 9 9 0 0 1 51 2748 L 51 2208  Z " stroke-width="2" stroke="#ffffff" fill="none" stroke-opacity="0.898039215686275" />
    </g>
  </defs>
  <g transform="matrix(1 0 0 1 -47 -2195 )">
    <use xlink:href="#widget2224" filter="url(#filter2223)" />
    <use xlink:href="#widget2224" />
  </g>
</svg>