<?xml version="1.0" encoding="utf-8"?>
<svg version="1.1" xmlns:xlink="http://www.w3.org/1999/xlink" width="900px" height="648px" xmlns="http://www.w3.org/2000/svg">
  <defs>
    <filter x="47px" y="1989px" width="900px" height="648px" filterUnits="userSpaceOnUse" id="filter578">
      <feOffset dx="1" dy="1" in="SourceAlpha" result="shadowOffsetInner" />
      <feGaussianBlur stdDeviation="2" in="shadowOffsetInner" result="shadowGaussian" />
      <feComposite in2="shadowGaussian" operator="atop" in="SourceAlpha" result="shadowComposite" />
      <feColorMatrix type="matrix" values="0 0 0 0 0  0 0 0 0 0.301960784313725  0 0 0 0 0.454901960784314  0 0 0 0.0588235294117647 0  " in="shadowComposite" />
    </filter>
    <g id="widget579">
      <path d="M 52 2002  A 8 8 0 0 1 60 1994 L 932 1994  A 8 8 0 0 1 940 2002 L 940 2622  A 8 8 0 0 1 932 2630 L 60 2630  A 8 8 0 0 1 52 2622 L 52 2002  Z " fill-rule="nonzero" fill="#ffffff" stroke="none" fill-opacity="0.6" />
      <path d="M 51 2002  A 9 9 0 0 1 60 1993 L 932 1993  A 9 9 0 0 1 941 2002 L 941 2622  A 9 9 0 0 1 932 2631 L 60 2631  A 9 9 0 0 1 51 2622 L 51 2002  Z " stroke-width="2" stroke="#ffffff" fill="none" stroke-opacity="0.898039215686275" />
    </g>
  </defs>
  <g transform="matrix(1 0 0 1 -47 -1989 )">
    <use xlink:href="#widget579" filter="url(#filter578)" />
    <use xlink:href="#widget579" />
  </g>
</svg>