<?xml version="1.0" encoding="utf-8"?>
<svg version="1.1" xmlns:xlink="http://www.w3.org/1999/xlink" width="676px" height="588px" xmlns="http://www.w3.org/2000/svg">
  <defs>
    <filter x="45px" y="2245px" width="676px" height="588px" filterUnits="userSpaceOnUse" id="filter63">
      <feOffset dx="1" dy="1" in="SourceAlpha" result="shadowOffsetInner" />
      <feGaussianBlur stdDeviation="2" in="shadowOffsetInner" result="shadowGaussian" />
      <feComposite in2="shadowGaussian" operator="atop" in="SourceAlpha" result="shadowComposite" />
      <feColorMatrix type="matrix" values="0 0 0 0 0  0 0 0 0 0.301960784313725  0 0 0 0 0.454901960784314  0 0 0 0.0588235294117647 0  " in="shadowComposite" />
    </filter>
    <g id="widget64">
      <path d="M 50 2258  A 8 8 0 0 1 58 2250 L 706 2250  A 8 8 0 0 1 714 2258 L 714 2818  A 8 8 0 0 1 706 2826 L 58 2826  A 8 8 0 0 1 50 2818 L 50 2258  Z " fill-rule="nonzero" fill="#ffffff" stroke="none" fill-opacity="0.6" />
      <path d="M 49 2258  A 9 9 0 0 1 58 2249 L 706 2249  A 9 9 0 0 1 715 2258 L 715 2818  A 9 9 0 0 1 706 2827 L 58 2827  A 9 9 0 0 1 49 2818 L 49 2258  Z " stroke-width="2" stroke="#ffffff" fill="none" stroke-opacity="0.898039215686275" />
    </g>
  </defs>
  <g transform="matrix(1 0 0 1 -45 -2245 )">
    <use xlink:href="#widget64" filter="url(#filter63)" />
    <use xlink:href="#widget64" />
  </g>
</svg>