<?xml version="1.0" encoding="utf-8"?>
<svg version="1.1" xmlns:xlink="http://www.w3.org/1999/xlink" width="908px" height="668px" xmlns="http://www.w3.org/2000/svg">
  <defs>
    <filter x="47px" y="1989px" width="908px" height="668px" filterUnits="userSpaceOnUse" id="filter661">
      <feOffset dx="1" dy="1" in="SourceAlpha" result="shadowOffsetInner" />
      <feGaussianBlur stdDeviation="2" in="shadowOffsetInner" result="shadowGaussian" />
      <feComposite in2="shadowGaussian" operator="atop" in="SourceAlpha" result="shadowComposite" />
      <feColorMatrix type="matrix" values="0 0 0 0 0  0 0 0 0 0.301960784313725  0 0 0 0 0.454901960784314  0 0 0 0.0588235294117647 0  " in="shadowComposite" />
    </filter>
    <g id="widget662">
      <path d="M 52 2002  A 8 8 0 0 1 60 1994 L 940 1994  A 8 8 0 0 1 948 2002 L 948 2642  A 8 8 0 0 1 940 2650 L 60 2650  A 8 8 0 0 1 52 2642 L 52 2002  Z " fill-rule="nonzero" fill="#ffffff" stroke="none" fill-opacity="0.6" />
      <path d="M 51 2002  A 9 9 0 0 1 60 1993 L 940 1993  A 9 9 0 0 1 949 2002 L 949 2642  A 9 9 0 0 1 940 2651 L 60 2651  A 9 9 0 0 1 51 2642 L 51 2002  Z " stroke-width="2" stroke="#ffffff" fill="none" stroke-opacity="0.898039215686275" />
    </g>
  </defs>
  <g transform="matrix(1 0 0 1 -47 -1989 )">
    <use xlink:href="#widget662" filter="url(#filter661)" />
    <use xlink:href="#widget662" />
  </g>
</svg>