<?xml version="1.0" encoding="utf-8"?>
<svg version="1.1" xmlns:xlink="http://www.w3.org/1999/xlink" width="338px" height="538px" xmlns="http://www.w3.org/2000/svg">
  <defs>
    <filter x="17px" y="2526px" width="338px" height="538px" filterUnits="userSpaceOnUse" id="filter10984">
      <feOffset dx="1" dy="1" in="SourceAlpha" result="shadowOffsetInner" />
      <feGaussianBlur stdDeviation="2" in="shadowOffsetInner" result="shadowGaussian" />
      <feComposite in2="shadowGaussian" operator="atop" in="SourceAlpha" result="shadowComposite" />
      <feColorMatrix type="matrix" values="0 0 0 0 0  0 0 0 0 0.301960784313725  0 0 0 0 0.454901960784314  0 0 0 0.0588235294117647 0  " in="shadowComposite" />
    </filter>
    <g id="widget10985">
      <path d="M 22 2539  A 8 8 0 0 1 30 2531 L 340 2531  A 8 8 0 0 1 348 2539 L 348 3049  A 8 8 0 0 1 340 3057 L 30 3057  A 8 8 0 0 1 22 3049 L 22 2539  Z " fill-rule="nonzero" fill="#ffffff" stroke="none" fill-opacity="0.6" />
      <path d="M 21 2539  A 9 9 0 0 1 30 2530 L 340 2530  A 9 9 0 0 1 349 2539 L 349 3049  A 9 9 0 0 1 340 3058 L 30 3058  A 9 9 0 0 1 21 3049 L 21 2539  Z " stroke-width="2" stroke="#ffffff" fill="none" stroke-opacity="0.898039215686275" />
    </g>
  </defs>
  <g transform="matrix(1 0 0 1 -17 -2526 )">
    <use xlink:href="#widget10985" filter="url(#filter10984)" />
    <use xlink:href="#widget10985" />
  </g>
</svg>