<?xml version="1.0" encoding="utf-8"?>
<svg version="1.1" xmlns:xlink="http://www.w3.org/1999/xlink" width="1108px" height="753px" xmlns="http://www.w3.org/2000/svg">
  <defs>
    <filter x="47px" y="2026px" width="1108px" height="753px" filterUnits="userSpaceOnUse" id="filter10847">
      <feOffset dx="1" dy="1" in="SourceAlpha" result="shadowOffsetInner" />
      <feGaussianBlur stdDeviation="2" in="shadowOffsetInner" result="shadowGaussian" />
      <feComposite in2="shadowGaussian" operator="atop" in="SourceAlpha" result="shadowComposite" />
      <feColorMatrix type="matrix" values="0 0 0 0 0  0 0 0 0 0.301960784313725  0 0 0 0 0.454901960784314  0 0 0 0.0588235294117647 0  " in="shadowComposite" />
    </filter>
    <g id="widget10848">
      <path d="M 52 2039  A 8 8 0 0 1 60 2031 L 1140 2031  A 8 8 0 0 1 1148 2039 L 1148 2764  A 8 8 0 0 1 1140 2772 L 60 2772  A 8 8 0 0 1 52 2764 L 52 2039  Z " fill-rule="nonzero" fill="#ffffff" stroke="none" fill-opacity="0.6" />
      <path d="M 51 2039  A 9 9 0 0 1 60 2030 L 1140 2030  A 9 9 0 0 1 1149 2039 L 1149 2764  A 9 9 0 0 1 1140 2773 L 60 2773  A 9 9 0 0 1 51 2764 L 51 2039  Z " stroke-width="2" stroke="#ffffff" fill="none" stroke-opacity="0.898039215686275" />
    </g>
  </defs>
  <g transform="matrix(1 0 0 1 -47 -2026 )">
    <use xlink:href="#widget10848" filter="url(#filter10847)" />
    <use xlink:href="#widget10848" />
  </g>
</svg>