<?xml version="1.0" encoding="utf-8"?>
<svg version="1.1" xmlns:xlink="http://www.w3.org/1999/xlink" width="676px" height="707px" xmlns="http://www.w3.org/2000/svg">
  <defs>
    <filter x="45px" y="2785px" width="676px" height="707px" filterUnits="userSpaceOnUse" id="filter2929">
      <feOffset dx="1" dy="1" in="SourceAlpha" result="shadowOffsetInner" />
      <feGaussianBlur stdDeviation="2" in="shadowOffsetInner" result="shadowGaussian" />
      <feComposite in2="shadowGaussian" operator="atop" in="SourceAlpha" result="shadowComposite" />
      <feColorMatrix type="matrix" values="0 0 0 0 0  0 0 0 0 0.301960784313725  0 0 0 0 0.454901960784314  0 0 0 0.0588235294117647 0  " in="shadowComposite" />
    </filter>
    <g id="widget2930">
      <path d="M 50 2798  A 8 8 0 0 1 58 2790 L 706 2790  A 8 8 0 0 1 714 2798 L 714 3477  A 8 8 0 0 1 706 3485 L 58 3485  A 8 8 0 0 1 50 3477 L 50 2798  Z " fill-rule="nonzero" fill="#ffffff" stroke="none" fill-opacity="0.6" />
      <path d="M 49 2798  A 9 9 0 0 1 58 2789 L 706 2789  A 9 9 0 0 1 715 2798 L 715 3477  A 9 9 0 0 1 706 3486 L 58 3486  A 9 9 0 0 1 49 3477 L 49 2798  Z " stroke-width="2" stroke="#ffffff" fill="none" stroke-opacity="0.898039215686275" />
    </g>
  </defs>
  <g transform="matrix(1 0 0 1 -45 -2785 )">
    <use xlink:href="#widget2930" filter="url(#filter2929)" />
    <use xlink:href="#widget2930" />
  </g>
</svg>