<?xml version="1.0" encoding="utf-8"?>
<svg version="1.1" xmlns:xlink="http://www.w3.org/1999/xlink" width="676px" height="707px" xmlns="http://www.w3.org/2000/svg">
  <defs>
    <filter x="45px" y="2855px" width="676px" height="707px" filterUnits="userSpaceOnUse" id="filter17698">
      <feOffset dx="1" dy="1" in="SourceAlpha" result="shadowOffsetInner" />
      <feGaussianBlur stdDeviation="2" in="shadowOffsetInner" result="shadowGaussian" />
      <feComposite in2="shadowGaussian" operator="atop" in="SourceAlpha" result="shadowComposite" />
      <feColorMatrix type="matrix" values="0 0 0 0 0  0 0 0 0 0.301960784313725  0 0 0 0 0.454901960784314  0 0 0 0.0588235294117647 0  " in="shadowComposite" />
    </filter>
    <g id="widget17699">
      <path d="M 50 2868  A 8 8 0 0 1 58 2860 L 706 2860  A 8 8 0 0 1 714 2868 L 714 3547  A 8 8 0 0 1 706 3555 L 58 3555  A 8 8 0 0 1 50 3547 L 50 2868  Z " fill-rule="nonzero" fill="#ffffff" stroke="none" fill-opacity="0.6" />
      <path d="M 49 2868  A 9 9 0 0 1 58 2859 L 706 2859  A 9 9 0 0 1 715 2868 L 715 3547  A 9 9 0 0 1 706 3556 L 58 3556  A 9 9 0 0 1 49 3547 L 49 2868  Z " stroke-width="2" stroke="#ffffff" fill="none" stroke-opacity="0.898039215686275" />
    </g>
  </defs>
  <g transform="matrix(1 0 0 1 -45 -2855 )">
    <use xlink:href="#widget17699" filter="url(#filter17698)" />
    <use xlink:href="#widget17699" />
  </g>
</svg>