<?xml version="1.0" encoding="utf-8"?>
<svg version="1.1" xmlns:xlink="http://www.w3.org/1999/xlink" width="388px" height="688px" xmlns="http://www.w3.org/2000/svg">
  <defs>
    <filter x="47px" y="2981px" width="388px" height="688px" filterUnits="userSpaceOnUse" id="filter12653">
      <feOffset dx="1" dy="1" in="SourceAlpha" result="shadowOffsetInner" />
      <feGaussianBlur stdDeviation="2" in="shadowOffsetInner" result="shadowGaussian" />
      <feComposite in2="shadowGaussian" operator="atop" in="SourceAlpha" result="shadowComposite" />
      <feColorMatrix type="matrix" values="0 0 0 0 0  0 0 0 0 0.301960784313725  0 0 0 0 0.454901960784314  0 0 0 0.0588235294117647 0  " in="shadowComposite" />
    </filter>
    <g id="widget12654">
      <path d="M 52 2994  A 8 8 0 0 1 60 2986 L 420 2986  A 8 8 0 0 1 428 2994 L 428 3654  A 8 8 0 0 1 420 3662 L 60 3662  A 8 8 0 0 1 52 3654 L 52 2994  Z " fill-rule="nonzero" fill="#ffffff" stroke="none" fill-opacity="0.6" />
      <path d="M 51 2994  A 9 9 0 0 1 60 2985 L 420 2985  A 9 9 0 0 1 429 2994 L 429 3654  A 9 9 0 0 1 420 3663 L 60 3663  A 9 9 0 0 1 51 3654 L 51 2994  Z " stroke-width="2" stroke="#ffffff" fill="none" stroke-opacity="0.898039215686275" />
    </g>
  </defs>
  <g transform="matrix(1 0 0 1 -47 -2981 )">
    <use xlink:href="#widget12654" filter="url(#filter12653)" />
    <use xlink:href="#widget12654" />
  </g>
</svg>