<?xml version="1.0" encoding="utf-8"?>
<svg version="1.1" xmlns:xlink="http://www.w3.org/1999/xlink" width="900px" height="392px" xmlns="http://www.w3.org/2000/svg">
  <defs>
    <filter x="47px" y="2679px" width="900px" height="392px" filterUnits="userSpaceOnUse" id="filter17666">
      <feOffset dx="1" dy="1" in="SourceAlpha" result="shadowOffsetInner" />
      <feGaussianBlur stdDeviation="2" in="shadowOffsetInner" result="shadowGaussian" />
      <feComposite in2="shadowGaussian" operator="atop" in="SourceAlpha" result="shadowComposite" />
      <feColorMatrix type="matrix" values="0 0 0 0 0  0 0 0 0 0.301960784313725  0 0 0 0 0.454901960784314  0 0 0 0.0588235294117647 0  " in="shadowComposite" />
    </filter>
    <g id="widget17667">
      <path d="M 52 2692  A 8 8 0 0 1 60 2684 L 932 2684  A 8 8 0 0 1 940 2692 L 940 3056  A 8 8 0 0 1 932 3064 L 60 3064  A 8 8 0 0 1 52 3056 L 52 2692  Z " fill-rule="nonzero" fill="#ffffff" stroke="none" fill-opacity="0.6" />
      <path d="M 51 2692  A 9 9 0 0 1 60 2683 L 932 2683  A 9 9 0 0 1 941 2692 L 941 3056  A 9 9 0 0 1 932 3065 L 60 3065  A 9 9 0 0 1 51 3056 L 51 2692  Z " stroke-width="2" stroke="#ffffff" fill="none" stroke-opacity="0.898039215686275" />
    </g>
  </defs>
  <g transform="matrix(1 0 0 1 -47 -2679 )">
    <use xlink:href="#widget17667" filter="url(#filter17666)" />
    <use xlink:href="#widget17667" />
  </g>
</svg>