<?xml version="1.0" encoding="utf-8"?>
<svg version="1.1" xmlns:xlink="http://www.w3.org/1999/xlink" width="338px" height="703px" xmlns="http://www.w3.org/2000/svg">
  <defs>
    <filter x="17px" y="3144px" width="338px" height="703px" filterUnits="userSpaceOnUse" id="filter746">
      <feOffset dx="1" dy="1" in="SourceAlpha" result="shadowOffsetInner" />
      <feGaussianBlur stdDeviation="2" in="shadowOffsetInner" result="shadowGaussian" />
      <feComposite in2="shadowGaussian" operator="atop" in="SourceAlpha" result="shadowComposite" />
      <feColorMatrix type="matrix" values="0 0 0 0 0  0 0 0 0 0.301960784313725  0 0 0 0 0.454901960784314  0 0 0 0.0588235294117647 0  " in="shadowComposite" />
    </filter>
    <g id="widget747">
      <path d="M 22 3157  A 8 8 0 0 1 30 3149 L 340 3149  A 8 8 0 0 1 348 3157 L 348 3832  A 8 8 0 0 1 340 3840 L 30 3840  A 8 8 0 0 1 22 3832 L 22 3157  Z " fill-rule="nonzero" fill="#ffffff" stroke="none" fill-opacity="0.6" />
      <path d="M 21 3157  A 9 9 0 0 1 30 3148 L 340 3148  A 9 9 0 0 1 349 3157 L 349 3832  A 9 9 0 0 1 340 3841 L 30 3841  A 9 9 0 0 1 21 3832 L 21 3157  Z " stroke-width="2" stroke="#ffffff" fill="none" stroke-opacity="0.898039215686275" />
    </g>
  </defs>
  <g transform="matrix(1 0 0 1 -17 -3144 )">
    <use xlink:href="#widget747" filter="url(#filter746)" />
    <use xlink:href="#widget747" />
  </g>
</svg>