<?xml version="1.0" encoding="utf-8"?>
<svg version="1.1" xmlns:xlink="http://www.w3.org/1999/xlink" width="1108px" height="421px" xmlns="http://www.w3.org/2000/svg">
  <defs>
    <filter x="47px" y="2831px" width="1108px" height="421px" filterUnits="userSpaceOnUse" id="filter17633">
      <feOffset dx="1" dy="1" in="SourceAlpha" result="shadowOffsetInner" />
      <feGaussianBlur stdDeviation="2" in="shadowOffsetInner" result="shadowGaussian" />
      <feComposite in2="shadowGaussian" operator="atop" in="SourceAlpha" result="shadowComposite" />
      <feColorMatrix type="matrix" values="0 0 0 0 0  0 0 0 0 0.301960784313725  0 0 0 0 0.454901960784314  0 0 0 0.0588235294117647 0  " in="shadowComposite" />
    </filter>
    <g id="widget17634">
      <path d="M 52 2844  A 8 8 0 0 1 60 2836 L 1140 2836  A 8 8 0 0 1 1148 2844 L 1148 3237  A 8 8 0 0 1 1140 3245 L 60 3245  A 8 8 0 0 1 52 3237 L 52 2844  Z " fill-rule="nonzero" fill="#ffffff" stroke="none" fill-opacity="0.6" />
      <path d="M 51 2844  A 9 9 0 0 1 60 2835 L 1140 2835  A 9 9 0 0 1 1149 2844 L 1149 3237  A 9 9 0 0 1 1140 3246 L 60 3246  A 9 9 0 0 1 51 3237 L 51 2844  Z " stroke-width="2" stroke="#ffffff" fill="none" stroke-opacity="0.898039215686275" />
    </g>
  </defs>
  <g transform="matrix(1 0 0 1 -47 -2831 )">
    <use xlink:href="#widget17634" filter="url(#filter17633)" />
    <use xlink:href="#widget17634" />
  </g>
</svg>