<?xml version="1.0" encoding="utf-8"?>
<svg version="1.1" xmlns:xlink="http://www.w3.org/1999/xlink" width="338px" height="738px" xmlns="http://www.w3.org/2000/svg">
  <defs>
    <filter x="17px" y="3101px" width="338px" height="738px" filterUnits="userSpaceOnUse" id="filter399">
      <feOffset dx="1" dy="1" in="SourceAlpha" result="shadowOffsetInner" />
      <feGaussianBlur stdDeviation="2" in="shadowOffsetInner" result="shadowGaussian" />
      <feComposite in2="shadowGaussian" operator="atop" in="SourceAlpha" result="shadowComposite" />
      <feColorMatrix type="matrix" values="0 0 0 0 0  0 0 0 0 0.301960784313725  0 0 0 0 0.454901960784314  0 0 0 0.0588235294117647 0  " in="shadowComposite" />
    </filter>
    <g id="widget400">
      <path d="M 22 3114  A 8 8 0 0 1 30 3106 L 340 3106  A 8 8 0 0 1 348 3114 L 348 3824  A 8 8 0 0 1 340 3832 L 30 3832  A 8 8 0 0 1 22 3824 L 22 3114  Z " fill-rule="nonzero" fill="#ffffff" stroke="none" fill-opacity="0.6" />
      <path d="M 21 3114  A 9 9 0 0 1 30 3105 L 340 3105  A 9 9 0 0 1 349 3114 L 349 3824  A 9 9 0 0 1 340 3833 L 30 3833  A 9 9 0 0 1 21 3824 L 21 3114  Z " stroke-width="2" stroke="#ffffff" fill="none" stroke-opacity="0.898039215686275" />
    </g>
  </defs>
  <g transform="matrix(1 0 0 1 -17 -3101 )">
    <use xlink:href="#widget400" filter="url(#filter399)" />
    <use xlink:href="#widget400" />
  </g>
</svg>