<?xml version="1.0" encoding="utf-8"?>
<svg version="1.1" xmlns:xlink="http://www.w3.org/1999/xlink" width="1108px" height="421px" xmlns="http://www.w3.org/2000/svg">
  <defs>
    <filter x="47px" y="2811px" width="1108px" height="421px" filterUnits="userSpaceOnUse" id="filter12553">
      <feOffset dx="1" dy="1" in="SourceAlpha" result="shadowOffsetInner" />
      <feGaussianBlur stdDeviation="2" in="shadowOffsetInner" result="shadowGaussian" />
      <feComposite in2="shadowGaussian" operator="atop" in="SourceAlpha" result="shadowComposite" />
      <feColorMatrix type="matrix" values="0 0 0 0 0  0 0 0 0 0.301960784313725  0 0 0 0 0.454901960784314  0 0 0 0.0588235294117647 0  " in="shadowComposite" />
    </filter>
    <g id="widget12554">
      <path d="M 52 2824  A 8 8 0 0 1 60 2816 L 1140 2816  A 8 8 0 0 1 1148 2824 L 1148 3217  A 8 8 0 0 1 1140 3225 L 60 3225  A 8 8 0 0 1 52 3217 L 52 2824  Z " fill-rule="nonzero" fill="#ffffff" stroke="none" fill-opacity="0.6" />
      <path d="M 51 2824  A 9 9 0 0 1 60 2815 L 1140 2815  A 9 9 0 0 1 1149 2824 L 1149 3217  A 9 9 0 0 1 1140 3226 L 60 3226  A 9 9 0 0 1 51 3217 L 51 2824  Z " stroke-width="2" stroke="#ffffff" fill="none" stroke-opacity="0.898039215686275" />
    </g>
  </defs>
  <g transform="matrix(1 0 0 1 -47 -2811 )">
    <use xlink:href="#widget12554" filter="url(#filter12553)" />
    <use xlink:href="#widget12554" />
  </g>
</svg>