<?xml version="1.0" encoding="utf-8"?>
<svg version="1.1" xmlns:xlink="http://www.w3.org/1999/xlink" width="388px" height="680px" xmlns="http://www.w3.org/2000/svg">
  <defs>
    <filter x="47px" y="3071px" width="388px" height="680px" filterUnits="userSpaceOnUse" id="filter717">
      <feOffset dx="1" dy="1" in="SourceAlpha" result="shadowOffsetInner" />
      <feGaussianBlur stdDeviation="2" in="shadowOffsetInner" result="shadowGaussian" />
      <feComposite in2="shadowGaussian" operator="atop" in="SourceAlpha" result="shadowComposite" />
      <feColorMatrix type="matrix" values="0 0 0 0 0  0 0 0 0 0.301960784313725  0 0 0 0 0.454901960784314  0 0 0 0.0588235294117647 0  " in="shadowComposite" />
    </filter>
    <g id="widget718">
      <path d="M 52 3084  A 8 8 0 0 1 60 3076 L 420 3076  A 8 8 0 0 1 428 3084 L 428 3736  A 8 8 0 0 1 420 3744 L 60 3744  A 8 8 0 0 1 52 3736 L 52 3084  Z " fill-rule="nonzero" fill="#ffffff" stroke="none" fill-opacity="0.6" />
      <path d="M 51 3084  A 9 9 0 0 1 60 3075 L 420 3075  A 9 9 0 0 1 429 3084 L 429 3736  A 9 9 0 0 1 420 3745 L 60 3745  A 9 9 0 0 1 51 3736 L 51 3084  Z " stroke-width="2" stroke="#ffffff" fill="none" stroke-opacity="0.898039215686275" />
    </g>
  </defs>
  <g transform="matrix(1 0 0 1 -47 -3071 )">
    <use xlink:href="#widget718" filter="url(#filter717)" />
    <use xlink:href="#widget718" />
  </g>
</svg>