<?xml version="1.0" encoding="utf-8"?>
<svg version="1.1" xmlns:xlink="http://www.w3.org/1999/xlink" width="338px" height="718px" xmlns="http://www.w3.org/2000/svg">
  <defs>
    <filter x="17px" y="3076px" width="338px" height="718px" filterUnits="userSpaceOnUse" id="filter2852">
      <feOffset dx="1" dy="1" in="SourceAlpha" result="shadowOffsetInner" />
      <feGaussianBlur stdDeviation="2" in="shadowOffsetInner" result="shadowGaussian" />
      <feComposite in2="shadowGaussian" operator="atop" in="SourceAlpha" result="shadowComposite" />
      <feColorMatrix type="matrix" values="0 0 0 0 0  0 0 0 0 0.301960784313725  0 0 0 0 0.454901960784314  0 0 0 0.0588235294117647 0  " in="shadowComposite" />
    </filter>
    <g id="widget2853">
      <path d="M 22 3089  A 8 8 0 0 1 30 3081 L 340 3081  A 8 8 0 0 1 348 3089 L 348 3779  A 8 8 0 0 1 340 3787 L 30 3787  A 8 8 0 0 1 22 3779 L 22 3089  Z " fill-rule="nonzero" fill="#ffffff" stroke="none" fill-opacity="0.6" />
      <path d="M 21 3089  A 9 9 0 0 1 30 3080 L 340 3080  A 9 9 0 0 1 349 3089 L 349 3779  A 9 9 0 0 1 340 3788 L 30 3788  A 9 9 0 0 1 21 3779 L 21 3089  Z " stroke-width="2" stroke="#ffffff" fill="none" stroke-opacity="0.898039215686275" />
    </g>
  </defs>
  <g transform="matrix(1 0 0 1 -17 -3076 )">
    <use xlink:href="#widget2853" filter="url(#filter2852)" />
    <use xlink:href="#widget2853" />
  </g>
</svg>