<?xml version="1.0" encoding="utf-8"?>
<svg version="1.1" xmlns:xlink="http://www.w3.org/1999/xlink" width="676px" height="707px" xmlns="http://www.w3.org/2000/svg">
  <defs>
    <filter x="45px" y="2805px" width="676px" height="707px" filterUnits="userSpaceOnUse" id="filter12621">
      <feOffset dx="1" dy="1" in="SourceAlpha" result="shadowOffsetInner" />
      <feGaussianBlur stdDeviation="2" in="shadowOffsetInner" result="shadowGaussian" />
      <feComposite in2="shadowGaussian" operator="atop" in="SourceAlpha" result="shadowComposite" />
      <feColorMatrix type="matrix" values="0 0 0 0 0  0 0 0 0 0.301960784313725  0 0 0 0 0.454901960784314  0 0 0 0.0588235294117647 0  " in="shadowComposite" />
    </filter>
    <g id="widget12622">
      <path d="M 50 2818  A 8 8 0 0 1 58 2810 L 706 2810  A 8 8 0 0 1 714 2818 L 714 3497  A 8 8 0 0 1 706 3505 L 58 3505  A 8 8 0 0 1 50 3497 L 50 2818  Z " fill-rule="nonzero" fill="#ffffff" stroke="none" fill-opacity="0.6" />
      <path d="M 49 2818  A 9 9 0 0 1 58 2809 L 706 2809  A 9 9 0 0 1 715 2818 L 715 3497  A 9 9 0 0 1 706 3506 L 58 3506  A 9 9 0 0 1 49 3497 L 49 2818  Z " stroke-width="2" stroke="#ffffff" fill="none" stroke-opacity="0.898039215686275" />
    </g>
  </defs>
  <g transform="matrix(1 0 0 1 -45 -2805 )">
    <use xlink:href="#widget12622" filter="url(#filter12621)" />
    <use xlink:href="#widget12622" />
  </g>
</svg>