<?xml version="1.0" encoding="utf-8"?>
<svg version="1.1" xmlns:xlink="http://www.w3.org/1999/xlink" width="676px" height="1012px" xmlns="http://www.w3.org/2000/svg">
  <defs>
    <filter x="47px" y="10064px" width="676px" height="1012px" filterUnits="userSpaceOnUse" id="filter2229">
      <feOffset dx="1" dy="1" in="SourceAlpha" result="shadowOffsetInner" />
      <feGaussianBlur stdDeviation="2" in="shadowOffsetInner" result="shadowGaussian" />
      <feComposite in2="shadowGaussian" operator="atop" in="SourceAlpha" result="shadowComposite" />
      <feColorMatrix type="matrix" values="0 0 0 0 0  0 0 0 0 0.301960784313725  0 0 0 0 0.454901960784314  0 0 0 0.0588235294117647 0  " in="shadowComposite" />
    </filter>
    <g id="widget2230">
      <path d="M 52 10077  A 8 8 0 0 1 60 10069 L 708 10069  A 8 8 0 0 1 716 10077 L 716 11061  A 8 8 0 0 1 708 11069 L 60 11069  A 8 8 0 0 1 52 11061 L 52 10077  Z " fill-rule="nonzero" fill="#ffffff" stroke="none" fill-opacity="0.6" />
      <path d="M 51 10077  A 9 9 0 0 1 60 10068 L 708 10068  A 9 9 0 0 1 717 10077 L 717 11061  A 9 9 0 0 1 708 11070 L 60 11070  A 9 9 0 0 1 51 11061 L 51 10077  Z " stroke-width="2" stroke="#ffffff" fill="none" stroke-opacity="0.898039215686275" />
    </g>
  </defs>
  <g transform="matrix(1 0 0 1 -47 -10064 )">
    <use xlink:href="#widget2230" filter="url(#filter2229)" />
    <use xlink:href="#widget2230" />
  </g>
</svg>