<?xml version="1.0" encoding="utf-8"?>
<svg version="1.1" xmlns:xlink="http://www.w3.org/1999/xlink" width="388px" height="940px" xmlns="http://www.w3.org/2000/svg">
  <defs>
    <filter x="47px" y="9277px" width="388px" height="940px" filterUnits="userSpaceOnUse" id="filter2263">
      <feOffset dx="1" dy="1" in="SourceAlpha" result="shadowOffsetInner" />
      <feGaussianBlur stdDeviation="2" in="shadowOffsetInner" result="shadowGaussian" />
      <feComposite in2="shadowGaussian" operator="atop" in="SourceAlpha" result="shadowComposite" />
      <feColorMatrix type="matrix" values="0 0 0 0 0  0 0 0 0 0.301960784313725  0 0 0 0 0.454901960784314  0 0 0 0.0588235294117647 0  " in="shadowComposite" />
    </filter>
    <g id="widget2264">
      <path d="M 52 9290  A 8 8 0 0 1 60 9282 L 420 9282  A 8 8 0 0 1 428 9290 L 428 10202  A 8 8 0 0 1 420 10210 L 60 10210  A 8 8 0 0 1 52 10202 L 52 9290  Z " fill-rule="nonzero" fill="#ffffff" stroke="none" fill-opacity="0.6" />
      <path d="M 51 9290  A 9 9 0 0 1 60 9281 L 420 9281  A 9 9 0 0 1 429 9290 L 429 10202  A 9 9 0 0 1 420 10211 L 60 10211  A 9 9 0 0 1 51 10202 L 51 9290  Z " stroke-width="2" stroke="#ffffff" fill="none" stroke-opacity="0.898039215686275" />
    </g>
  </defs>
  <g transform="matrix(1 0 0 1 -47 -9277 )">
    <use xlink:href="#widget2264" filter="url(#filter2263)" />
    <use xlink:href="#widget2264" />
  </g>
</svg>