<?xml version="1.0" encoding="utf-8"?>
<svg version="1.1" xmlns:xlink="http://www.w3.org/1999/xlink" width="338px" height="578px" xmlns="http://www.w3.org/2000/svg">
  <defs>
    <filter x="17px" y="8927px" width="338px" height="578px" filterUnits="userSpaceOnUse" id="filter2112">
      <feOffset dx="1" dy="1" in="SourceAlpha" result="shadowOffsetInner" />
      <feGaussianBlur stdDeviation="2" in="shadowOffsetInner" result="shadowGaussian" />
      <feComposite in2="shadowGaussian" operator="atop" in="SourceAlpha" result="shadowComposite" />
      <feColorMatrix type="matrix" values="0 0 0 0 0  0 0 0 0 0.301960784313725  0 0 0 0 0.454901960784314  0 0 0 0.0588235294117647 0  " in="shadowComposite" />
    </filter>
    <g id="widget2113">
      <path d="M 22 8940  A 8 8 0 0 1 30 8932 L 340 8932  A 8 8 0 0 1 348 8940 L 348 9490  A 8 8 0 0 1 340 9498 L 30 9498  A 8 8 0 0 1 22 9490 L 22 8940  Z " fill-rule="nonzero" fill="#ffffff" stroke="none" fill-opacity="0.6" />
      <path d="M 21 8940  A 9 9 0 0 1 30 8931 L 340 8931  A 9 9 0 0 1 349 8940 L 349 9490  A 9 9 0 0 1 340 9499 L 30 9499  A 9 9 0 0 1 21 9490 L 21 8940  Z " stroke-width="2" stroke="#ffffff" fill="none" stroke-opacity="0.898039215686275" />
    </g>
  </defs>
  <g transform="matrix(1 0 0 1 -17 -8927 )">
    <use xlink:href="#widget2113" filter="url(#filter2112)" />
    <use xlink:href="#widget2113" />
  </g>
</svg>