<?xml version="1.0" encoding="utf-8"?>
<svg version="1.1" xmlns:xlink="http://www.w3.org/1999/xlink" width="898px" height="1010px" xmlns="http://www.w3.org/2000/svg">
  <defs>
    <filter x="48px" y="10185px" width="898px" height="1010px" filterUnits="userSpaceOnUse" id="filter2194">
      <feOffset dx="1" dy="1" in="SourceAlpha" result="shadowOffsetInner" />
      <feGaussianBlur stdDeviation="2" in="shadowOffsetInner" result="shadowGaussian" />
      <feComposite in2="shadowGaussian" operator="atop" in="SourceAlpha" result="shadowComposite" />
      <feColorMatrix type="matrix" values="0 0 0 0 0  0 0 0 0 0.301960784313725  0 0 0 0 0.454901960784314  0 0 0 0.0588235294117647 0  " in="shadowComposite" />
    </filter>
    <g id="widget2195">
      <path d="M 53 10198  A 8 8 0 0 1 61 10190 L 931 10190  A 8 8 0 0 1 939 10198 L 939 11180  A 8 8 0 0 1 931 11188 L 61 11188  A 8 8 0 0 1 53 11180 L 53 10198  Z " fill-rule="nonzero" fill="#ffffff" stroke="none" fill-opacity="0.6" />
      <path d="M 52 10198  A 9 9 0 0 1 61 10189 L 931 10189  A 9 9 0 0 1 940 10198 L 940 11180  A 9 9 0 0 1 931 11189 L 61 11189  A 9 9 0 0 1 52 11180 L 52 10198  Z " stroke-width="2" stroke="#ffffff" fill="none" stroke-opacity="0.898039215686275" />
    </g>
  </defs>
  <g transform="matrix(1 0 0 1 -48 -10185 )">
    <use xlink:href="#widget2195" filter="url(#filter2194)" />
    <use xlink:href="#widget2195" />
  </g>
</svg>