<?xml version="1.0" encoding="utf-8"?>
<svg version="1.1" xmlns:xlink="http://www.w3.org/1999/xlink" width="388px" height="588px" xmlns="http://www.w3.org/2000/svg">
  <defs>
    <filter x="47px" y="9326px" width="388px" height="588px" filterUnits="userSpaceOnUse" id="filter17734">
      <feOffset dx="1" dy="1" in="SourceAlpha" result="shadowOffsetInner" />
      <feGaussianBlur stdDeviation="2" in="shadowOffsetInner" result="shadowGaussian" />
      <feComposite in2="shadowGaussian" operator="atop" in="SourceAlpha" result="shadowComposite" />
      <feColorMatrix type="matrix" values="0 0 0 0 0  0 0 0 0 0.301960784313725  0 0 0 0 0.454901960784314  0 0 0 0.0588235294117647 0  " in="shadowComposite" />
    </filter>
    <g id="widget17735">
      <path d="M 52 9339  A 8 8 0 0 1 60 9331 L 420 9331  A 8 8 0 0 1 428 9339 L 428 9899  A 8 8 0 0 1 420 9907 L 60 9907  A 8 8 0 0 1 52 9899 L 52 9339  Z " fill-rule="nonzero" fill="#ffffff" stroke="none" fill-opacity="0.6" />
      <path d="M 51 9339  A 9 9 0 0 1 60 9330 L 420 9330  A 9 9 0 0 1 429 9339 L 429 9899  A 9 9 0 0 1 420 9908 L 60 9908  A 9 9 0 0 1 51 9899 L 51 9339  Z " stroke-width="2" stroke="#ffffff" fill="none" stroke-opacity="0.898039215686275" />
    </g>
  </defs>
  <g transform="matrix(1 0 0 1 -47 -9326 )">
    <use xlink:href="#widget17735" filter="url(#filter17734)" />
    <use xlink:href="#widget17735" />
  </g>
</svg>