<?xml version="1.0" encoding="utf-8"?>
<svg version="1.1" xmlns:xlink="http://www.w3.org/1999/xlink" width="1108px" height="558px" xmlns="http://www.w3.org/2000/svg">
  <defs>
    <filter x="47px" y="11253px" width="1108px" height="558px" filterUnits="userSpaceOnUse" id="filter7483">
      <feOffset dx="1" dy="1" in="SourceAlpha" result="shadowOffsetInner" />
      <feGaussianBlur stdDeviation="2" in="shadowOffsetInner" result="shadowGaussian" />
      <feComposite in2="shadowGaussian" operator="atop" in="SourceAlpha" result="shadowComposite" />
      <feColorMatrix type="matrix" values="0 0 0 0 0  0 0 0 0 0.301960784313725  0 0 0 0 0.454901960784314  0 0 0 0.0588235294117647 0  " in="shadowComposite" />
    </filter>
    <g id="widget7484">
      <path d="M 52 11266  A 8 8 0 0 1 60 11258 L 1140 11258  A 8 8 0 0 1 1148 11266 L 1148 11796  A 8 8 0 0 1 1140 11804 L 60 11804  A 8 8 0 0 1 52 11796 L 52 11266  Z " fill-rule="nonzero" fill="#ffffff" stroke="none" fill-opacity="0.6" />
      <path d="M 51 11266  A 9 9 0 0 1 60 11257 L 1140 11257  A 9 9 0 0 1 1149 11266 L 1149 11796  A 9 9 0 0 1 1140 11805 L 60 11805  A 9 9 0 0 1 51 11796 L 51 11266  Z " stroke-width="2" stroke="#ffffff" fill="none" stroke-opacity="0.898039215686275" />
    </g>
  </defs>
  <g transform="matrix(1 0 0 1 -47 -11253 )">
    <use xlink:href="#widget7484" filter="url(#filter7483)" />
    <use xlink:href="#widget7484" />
  </g>
</svg>