<?xml version="1.0" encoding="utf-8"?>
<svg version="1.1" xmlns:xlink="http://www.w3.org/1999/xlink" width="388px" height="588px" xmlns="http://www.w3.org/2000/svg">
  <defs>
    <filter x="47px" y="9318px" width="388px" height="588px" filterUnits="userSpaceOnUse" id="filter12657">
      <feOffset dx="1" dy="1" in="SourceAlpha" result="shadowOffsetInner" />
      <feGaussianBlur stdDeviation="2" in="shadowOffsetInner" result="shadowGaussian" />
      <feComposite in2="shadowGaussian" operator="atop" in="SourceAlpha" result="shadowComposite" />
      <feColorMatrix type="matrix" values="0 0 0 0 0  0 0 0 0 0.301960784313725  0 0 0 0 0.454901960784314  0 0 0 0.0588235294117647 0  " in="shadowComposite" />
    </filter>
    <g id="widget12658">
      <path d="M 52 9331  A 8 8 0 0 1 60 9323 L 420 9323  A 8 8 0 0 1 428 9331 L 428 9891  A 8 8 0 0 1 420 9899 L 60 9899  A 8 8 0 0 1 52 9891 L 52 9331  Z " fill-rule="nonzero" fill="#ffffff" stroke="none" fill-opacity="0.6" />
      <path d="M 51 9331  A 9 9 0 0 1 60 9322 L 420 9322  A 9 9 0 0 1 429 9331 L 429 9891  A 9 9 0 0 1 420 9900 L 60 9900  A 9 9 0 0 1 51 9891 L 51 9331  Z " stroke-width="2" stroke="#ffffff" fill="none" stroke-opacity="0.898039215686275" />
    </g>
  </defs>
  <g transform="matrix(1 0 0 1 -47 -9318 )">
    <use xlink:href="#widget12658" filter="url(#filter12657)" />
    <use xlink:href="#widget12658" />
  </g>
</svg>