<?xml version="1.0" encoding="utf-8"?>
<svg version="1.1" xmlns:xlink="http://www.w3.org/1999/xlink" width="338px" height="567px" xmlns="http://www.w3.org/2000/svg">
  <defs>
    <filter x="17px" y="8889px" width="338px" height="567px" filterUnits="userSpaceOnUse" id="filter12694">
      <feOffset dx="1" dy="1" in="SourceAlpha" result="shadowOffsetInner" />
      <feGaussianBlur stdDeviation="2" in="shadowOffsetInner" result="shadowGaussian" />
      <feComposite in2="shadowGaussian" operator="atop" in="SourceAlpha" result="shadowComposite" />
      <feColorMatrix type="matrix" values="0 0 0 0 0  0 0 0 0 0.301960784313725  0 0 0 0 0.454901960784314  0 0 0 0.0588235294117647 0  " in="shadowComposite" />
    </filter>
    <g id="widget12695">
      <path d="M 22 8902  A 8 8 0 0 1 30 8894 L 340 8894  A 8 8 0 0 1 348 8902 L 348 9441  A 8 8 0 0 1 340 9449 L 30 9449  A 8 8 0 0 1 22 9441 L 22 8902  Z " fill-rule="nonzero" fill="#ffffff" stroke="none" fill-opacity="0.6" />
      <path d="M 21 8902  A 9 9 0 0 1 30 8893 L 340 8893  A 9 9 0 0 1 349 8902 L 349 9441  A 9 9 0 0 1 340 9450 L 30 9450  A 9 9 0 0 1 21 9441 L 21 8902  Z " stroke-width="2" stroke="#ffffff" fill="none" stroke-opacity="0.898039215686275" />
    </g>
  </defs>
  <g transform="matrix(1 0 0 1 -17 -8889 )">
    <use xlink:href="#widget12695" filter="url(#filter12694)" />
    <use xlink:href="#widget12695" />
  </g>
</svg>