<?xml version="1.0" encoding="utf-8"?>
<svg version="1.1" xmlns:xlink="http://www.w3.org/1999/xlink" width="898px" height="568px" xmlns="http://www.w3.org/2000/svg">
  <defs>
    <filter x="47px" y="10172px" width="898px" height="568px" filterUnits="userSpaceOnUse" id="filter667">
      <feOffset dx="1" dy="1" in="SourceAlpha" result="shadowOffsetInner" />
      <feGaussianBlur stdDeviation="2" in="shadowOffsetInner" result="shadowGaussian" />
      <feComposite in2="shadowGaussian" operator="atop" in="SourceAlpha" result="shadowComposite" />
      <feColorMatrix type="matrix" values="0 0 0 0 0  0 0 0 0 0.301960784313725  0 0 0 0 0.454901960784314  0 0 0 0.0588235294117647 0  " in="shadowComposite" />
    </filter>
    <g id="widget668">
      <path d="M 52 10185  A 8 8 0 0 1 60 10177 L 930 10177  A 8 8 0 0 1 938 10185 L 938 10725  A 8 8 0 0 1 930 10733 L 60 10733  A 8 8 0 0 1 52 10725 L 52 10185  Z " fill-rule="nonzero" fill="#ffffff" stroke="none" fill-opacity="0.6" />
      <path d="M 51 10185  A 9 9 0 0 1 60 10176 L 930 10176  A 9 9 0 0 1 939 10185 L 939 10725  A 9 9 0 0 1 930 10734 L 60 10734  A 9 9 0 0 1 51 10725 L 51 10185  Z " stroke-width="2" stroke="#ffffff" fill="none" stroke-opacity="0.898039215686275" />
    </g>
  </defs>
  <g transform="matrix(1 0 0 1 -47 -10172 )">
    <use xlink:href="#widget668" filter="url(#filter667)" />
    <use xlink:href="#widget668" />
  </g>
</svg>