<?xml version="1.0" encoding="utf-8"?>
<svg version="1.1" xmlns:xlink="http://www.w3.org/1999/xlink" width="338px" height="567px" xmlns="http://www.w3.org/2000/svg">
  <defs>
    <filter x="17px" y="8900px" width="338px" height="567px" filterUnits="userSpaceOnUse" id="filter7617">
      <feOffset dx="1" dy="1" in="SourceAlpha" result="shadowOffsetInner" />
      <feGaussianBlur stdDeviation="2" in="shadowOffsetInner" result="shadowGaussian" />
      <feComposite in2="shadowGaussian" operator="atop" in="SourceAlpha" result="shadowComposite" />
      <feColorMatrix type="matrix" values="0 0 0 0 0  0 0 0 0 0.301960784313725  0 0 0 0 0.454901960784314  0 0 0 0.0588235294117647 0  " in="shadowComposite" />
    </filter>
    <g id="widget7618">
      <path d="M 22 8913  A 8 8 0 0 1 30 8905 L 340 8905  A 8 8 0 0 1 348 8913 L 348 9452  A 8 8 0 0 1 340 9460 L 30 9460  A 8 8 0 0 1 22 9452 L 22 8913  Z " fill-rule="nonzero" fill="#ffffff" stroke="none" fill-opacity="0.6" />
      <path d="M 21 8913  A 9 9 0 0 1 30 8904 L 340 8904  A 9 9 0 0 1 349 8913 L 349 9452  A 9 9 0 0 1 340 9461 L 30 9461  A 9 9 0 0 1 21 9452 L 21 8913  Z " stroke-width="2" stroke="#ffffff" fill="none" stroke-opacity="0.898039215686275" />
    </g>
  </defs>
  <g transform="matrix(1 0 0 1 -17 -8900 )">
    <use xlink:href="#widget7618" filter="url(#filter7617)" />
    <use xlink:href="#widget7618" />
  </g>
</svg>