<?xml version="1.0" encoding="utf-8"?>
<svg version="1.1" xmlns:xlink="http://www.w3.org/1999/xlink" width="898px" height="568px" xmlns="http://www.w3.org/2000/svg">
  <defs>
    <filter x="48px" y="10167px" width="898px" height="568px" filterUnits="userSpaceOnUse" id="filter228">
      <feOffset dx="1" dy="1" in="SourceAlpha" result="shadowOffsetInner" />
      <feGaussianBlur stdDeviation="2" in="shadowOffsetInner" result="shadowGaussian" />
      <feComposite in2="shadowGaussian" operator="atop" in="SourceAlpha" result="shadowComposite" />
      <feColorMatrix type="matrix" values="0 0 0 0 0  0 0 0 0 0.301960784313725  0 0 0 0 0.454901960784314  0 0 0 0.0588235294117647 0  " in="shadowComposite" />
    </filter>
    <g id="widget229">
      <path d="M 53 10180  A 8 8 0 0 1 61 10172 L 931 10172  A 8 8 0 0 1 939 10180 L 939 10720  A 8 8 0 0 1 931 10728 L 61 10728  A 8 8 0 0 1 53 10720 L 53 10180  Z " fill-rule="nonzero" fill="#ffffff" stroke="none" fill-opacity="0.6" />
      <path d="M 52 10180  A 9 9 0 0 1 61 10171 L 931 10171  A 9 9 0 0 1 940 10180 L 940 10720  A 9 9 0 0 1 931 10729 L 61 10729  A 9 9 0 0 1 52 10720 L 52 10180  Z " stroke-width="2" stroke="#ffffff" fill="none" stroke-opacity="0.898039215686275" />
    </g>
  </defs>
  <g transform="matrix(1 0 0 1 -48 -10167 )">
    <use xlink:href="#widget229" filter="url(#filter228)" />
    <use xlink:href="#widget229" />
  </g>
</svg>