<?xml version="1.0" encoding="utf-8"?>
<svg version="1.1" xmlns:xlink="http://www.w3.org/1999/xlink" width="1108px" height="558px" xmlns="http://www.w3.org/2000/svg">
  <defs>
    <filter x="47px" y="11300px" width="1108px" height="558px" filterUnits="userSpaceOnUse" id="filter295">
      <feOffset dx="1" dy="1" in="SourceAlpha" result="shadowOffsetInner" />
      <feGaussianBlur stdDeviation="2" in="shadowOffsetInner" result="shadowGaussian" />
      <feComposite in2="shadowGaussian" operator="atop" in="SourceAlpha" result="shadowComposite" />
      <feColorMatrix type="matrix" values="0 0 0 0 0  0 0 0 0 0.301960784313725  0 0 0 0 0.454901960784314  0 0 0 0.0588235294117647 0  " in="shadowComposite" />
    </filter>
    <g id="widget296">
      <path d="M 52 11313  A 8 8 0 0 1 60 11305 L 1140 11305  A 8 8 0 0 1 1148 11313 L 1148 11843  A 8 8 0 0 1 1140 11851 L 60 11851  A 8 8 0 0 1 52 11843 L 52 11313  Z " fill-rule="nonzero" fill="#ffffff" stroke="none" fill-opacity="0.6" />
      <path d="M 51 11313  A 9 9 0 0 1 60 11304 L 1140 11304  A 9 9 0 0 1 1149 11313 L 1149 11843  A 9 9 0 0 1 1140 11852 L 60 11852  A 9 9 0 0 1 51 11843 L 51 11313  Z " stroke-width="2" stroke="#ffffff" fill="none" stroke-opacity="0.898039215686275" />
    </g>
  </defs>
  <g transform="matrix(1 0 0 1 -47 -11300 )">
    <use xlink:href="#widget296" filter="url(#filter295)" />
    <use xlink:href="#widget296" />
  </g>
</svg>