<?xml version="1.0" encoding="utf-8"?>
<svg version="1.1" xmlns:xlink="http://www.w3.org/1999/xlink" width="1108px" height="986px" xmlns="http://www.w3.org/2000/svg">
  <defs>
    <filter x="47px" y="11271px" width="1108px" height="986px" filterUnits="userSpaceOnUse" id="filter2717">
      <feOffset dx="1" dy="1" in="SourceAlpha" result="shadowOffsetInner" />
      <feGaussianBlur stdDeviation="2" in="shadowOffsetInner" result="shadowGaussian" />
      <feComposite in2="shadowGaussian" operator="atop" in="SourceAlpha" result="shadowComposite" />
      <feColorMatrix type="matrix" values="0 0 0 0 0  0 0 0 0 0.301960784313725  0 0 0 0 0.454901960784314  0 0 0 0.0588235294117647 0  " in="shadowComposite" />
    </filter>
    <g id="widget2718">
      <path d="M 52 11284  A 8 8 0 0 1 60 11276 L 1140 11276  A 8 8 0 0 1 1148 11284 L 1148 12242  A 8 8 0 0 1 1140 12250 L 60 12250  A 8 8 0 0 1 52 12242 L 52 11284  Z " fill-rule="nonzero" fill="#ffffff" stroke="none" fill-opacity="0.6" />
      <path d="M 51 11284  A 9 9 0 0 1 60 11275 L 1140 11275  A 9 9 0 0 1 1149 11284 L 1149 12242  A 9 9 0 0 1 1140 12251 L 60 12251  A 9 9 0 0 1 51 12242 L 51 11284  Z " stroke-width="2" stroke="#ffffff" fill="none" stroke-opacity="0.898039215686275" />
    </g>
  </defs>
  <g transform="matrix(1 0 0 1 -47 -11271 )">
    <use xlink:href="#widget2718" filter="url(#filter2717)" />
    <use xlink:href="#widget2718" />
  </g>
</svg>