<?xml version="1.0" encoding="utf-8"?>
<svg version="1.1" xmlns:xlink="http://www.w3.org/1999/xlink" width="338px" height="896px" xmlns="http://www.w3.org/2000/svg">
  <defs>
    <filter x="17px" y="8977px" width="338px" height="896px" filterUnits="userSpaceOnUse" id="filter2316">
      <feOffset dx="1" dy="1" in="SourceAlpha" result="shadowOffsetInner" />
      <feGaussianBlur stdDeviation="2" in="shadowOffsetInner" result="shadowGaussian" />
      <feComposite in2="shadowGaussian" operator="atop" in="SourceAlpha" result="shadowComposite" />
      <feColorMatrix type="matrix" values="0 0 0 0 0  0 0 0 0 0.301960784313725  0 0 0 0 0.454901960784314  0 0 0 0.0588235294117647 0  " in="shadowComposite" />
    </filter>
    <g id="widget2317">
      <path d="M 22 8990  A 8 8 0 0 1 30 8982 L 340 8982  A 8 8 0 0 1 348 8990 L 348 9858  A 8 8 0 0 1 340 9866 L 30 9866  A 8 8 0 0 1 22 9858 L 22 8990  Z " fill-rule="nonzero" fill="#ffffff" stroke="none" fill-opacity="0.6" />
      <path d="M 21 8990  A 9 9 0 0 1 30 8981 L 340 8981  A 9 9 0 0 1 349 8990 L 349 9858  A 9 9 0 0 1 340 9867 L 30 9867  A 9 9 0 0 1 21 9858 L 21 8990  Z " stroke-width="2" stroke="#ffffff" fill="none" stroke-opacity="0.898039215686275" />
    </g>
  </defs>
  <g transform="matrix(1 0 0 1 -17 -8977 )">
    <use xlink:href="#widget2317" filter="url(#filter2316)" />
    <use xlink:href="#widget2317" />
  </g>
</svg>