<?xml version="1.0" encoding="utf-8"?>
<svg version="1.1" xmlns:xlink="http://www.w3.org/1999/xlink" width="338px" height="666px" xmlns="http://www.w3.org/2000/svg">
  <defs>
    <filter x="17px" y="1838px" width="338px" height="666px" filterUnits="userSpaceOnUse" id="filter7609">
      <feOffset dx="1" dy="1" in="SourceAlpha" result="shadowOffsetInner" />
      <feGaussianBlur stdDeviation="2" in="shadowOffsetInner" result="shadowGaussian" />
      <feComposite in2="shadowGaussian" operator="atop" in="SourceAlpha" result="shadowComposite" />
      <feColorMatrix type="matrix" values="0 0 0 0 0  0 0 0 0 0.301960784313725  0 0 0 0 0.454901960784314  0 0 0 0.0588235294117647 0  " in="shadowComposite" />
    </filter>
    <g id="widget7610">
      <path d="M 22 1851  A 8 8 0 0 1 30 1843 L 340 1843  A 8 8 0 0 1 348 1851 L 348 2489  A 8 8 0 0 1 340 2497 L 30 2497  A 8 8 0 0 1 22 2489 L 22 1851  Z " fill-rule="nonzero" fill="#ffffff" stroke="none" fill-opacity="0.6" />
      <path d="M 21 1851  A 9 9 0 0 1 30 1842 L 340 1842  A 9 9 0 0 1 349 1851 L 349 2489  A 9 9 0 0 1 340 2498 L 30 2498  A 9 9 0 0 1 21 2489 L 21 1851  Z " stroke-width="2" stroke="#ffffff" fill="none" stroke-opacity="0.898039215686275" />
    </g>
  </defs>
  <g transform="matrix(1 0 0 1 -17 -1838 )">
    <use xlink:href="#widget7610" filter="url(#filter7609)" />
    <use xlink:href="#widget7610" />
  </g>
</svg>