<?xml version="1.0" encoding="utf-8"?>
<svg version="1.1" xmlns:xlink="http://www.w3.org/1999/xlink" width="1108px" height="278px" xmlns="http://www.w3.org/2000/svg">
  <defs>
    <filter x="47px" y="1726px" width="1108px" height="278px" filterUnits="userSpaceOnUse" id="filter2709">
      <feOffset dx="1" dy="1" in="SourceAlpha" result="shadowOffsetInner" />
      <feGaussianBlur stdDeviation="2" in="shadowOffsetInner" result="shadowGaussian" />
      <feComposite in2="shadowGaussian" operator="atop" in="SourceAlpha" result="shadowComposite" />
      <feColorMatrix type="matrix" values="0 0 0 0 0  0 0 0 0 0.301960784313725  0 0 0 0 0.454901960784314  0 0 0 0.0588235294117647 0  " in="shadowComposite" />
    </filter>
    <g id="widget2710">
      <path d="M 52 1739  A 8 8 0 0 1 60 1731 L 1140 1731  A 8 8 0 0 1 1148 1739 L 1148 1989  A 8 8 0 0 1 1140 1997 L 60 1997  A 8 8 0 0 1 52 1989 L 52 1739  Z " fill-rule="nonzero" fill="#ffffff" stroke="none" fill-opacity="0.6" />
      <path d="M 51 1739  A 9 9 0 0 1 60 1730 L 1140 1730  A 9 9 0 0 1 1149 1739 L 1149 1989  A 9 9 0 0 1 1140 1998 L 60 1998  A 9 9 0 0 1 51 1989 L 51 1739  Z " stroke-width="2" stroke="#ffffff" fill="none" stroke-opacity="0.898039215686275" />
    </g>
  </defs>
  <g transform="matrix(1 0 0 1 -47 -1726 )">
    <use xlink:href="#widget2710" filter="url(#filter2709)" />
    <use xlink:href="#widget2710" />
  </g>
</svg>