<?xml version="1.0" encoding="utf-8"?>
<svg version="1.1" xmlns:xlink="http://www.w3.org/1999/xlink" width="388px" height="569px" xmlns="http://www.w3.org/2000/svg">
  <defs>
    <filter x="47px" y="1819px" width="388px" height="569px" filterUnits="userSpaceOnUse" id="filter107">
      <feOffset dx="1" dy="1" in="SourceAlpha" result="shadowOffsetInner" />
      <feGaussianBlur stdDeviation="2" in="shadowOffsetInner" result="shadowGaussian" />
      <feComposite in2="shadowGaussian" operator="atop" in="SourceAlpha" result="shadowComposite" />
      <feColorMatrix type="matrix" values="0 0 0 0 0  0 0 0 0 0.301960784313725  0 0 0 0 0.454901960784314  0 0 0 0.0588235294117647 0  " in="shadowComposite" />
    </filter>
    <g id="widget108">
      <path d="M 52 1832  A 8 8 0 0 1 60 1824 L 420 1824  A 8 8 0 0 1 428 1832 L 428 2373  A 8 8 0 0 1 420 2381 L 60 2381  A 8 8 0 0 1 52 2373 L 52 1832  Z " fill-rule="nonzero" fill="#ffffff" stroke="none" fill-opacity="0.6" />
      <path d="M 51 1832  A 9 9 0 0 1 60 1823 L 420 1823  A 9 9 0 0 1 429 1832 L 429 2373  A 9 9 0 0 1 420 2382 L 60 2382  A 9 9 0 0 1 51 2373 L 51 1832  Z " stroke-width="2" stroke="#ffffff" fill="none" stroke-opacity="0.898039215686275" />
    </g>
  </defs>
  <g transform="matrix(1 0 0 1 -47 -1819 )">
    <use xlink:href="#widget108" filter="url(#filter107)" />
    <use xlink:href="#widget108" />
  </g>
</svg>