<?xml version="1.0" encoding="utf-8"?>
<svg version="1.1" xmlns:xlink="http://www.w3.org/1999/xlink" width="676px" height="432px" xmlns="http://www.w3.org/2000/svg">
  <defs>
    <filter x="45px" y="1791px" width="676px" height="432px" filterUnits="userSpaceOnUse" id="filter200">
      <feOffset dx="1" dy="1" in="SourceAlpha" result="shadowOffsetInner" />
      <feGaussianBlur stdDeviation="2" in="shadowOffsetInner" result="shadowGaussian" />
      <feComposite in2="shadowGaussian" operator="atop" in="SourceAlpha" result="shadowComposite" />
      <feColorMatrix type="matrix" values="0 0 0 0 0  0 0 0 0 0.301960784313725  0 0 0 0 0.454901960784314  0 0 0 0.0588235294117647 0  " in="shadowComposite" />
    </filter>
    <g id="widget201">
      <path d="M 50 1804  A 8 8 0 0 1 58 1796 L 706 1796  A 8 8 0 0 1 714 1804 L 714 2208  A 8 8 0 0 1 706 2216 L 58 2216  A 8 8 0 0 1 50 2208 L 50 1804  Z " fill-rule="nonzero" fill="#ffffff" stroke="none" fill-opacity="0.6" />
      <path d="M 49 1804  A 9 9 0 0 1 58 1795 L 706 1795  A 9 9 0 0 1 715 1804 L 715 2208  A 9 9 0 0 1 706 2217 L 58 2217  A 9 9 0 0 1 49 2208 L 49 1804  Z " stroke-width="2" stroke="#ffffff" fill="none" stroke-opacity="0.898039215686275" />
    </g>
  </defs>
  <g transform="matrix(1 0 0 1 -45 -1791 )">
    <use xlink:href="#widget201" filter="url(#filter200)" />
    <use xlink:href="#widget201" />
  </g>
</svg>