<?xml version="1.0" encoding="utf-8"?>
<svg version="1.1" xmlns:xlink="http://www.w3.org/1999/xlink" width="388px" height="569px" xmlns="http://www.w3.org/2000/svg">
  <defs>
    <filter x="47px" y="1889px" width="388px" height="569px" filterUnits="userSpaceOnUse" id="filter715">
      <feOffset dx="1" dy="1" in="SourceAlpha" result="shadowOffsetInner" />
      <feGaussianBlur stdDeviation="2" in="shadowOffsetInner" result="shadowGaussian" />
      <feComposite in2="shadowGaussian" operator="atop" in="SourceAlpha" result="shadowComposite" />
      <feColorMatrix type="matrix" values="0 0 0 0 0  0 0 0 0 0.301960784313725  0 0 0 0 0.454901960784314  0 0 0 0.0588235294117647 0  " in="shadowComposite" />
    </filter>
    <g id="widget716">
      <path d="M 52 1902  A 8 8 0 0 1 60 1894 L 420 1894  A 8 8 0 0 1 428 1902 L 428 2443  A 8 8 0 0 1 420 2451 L 60 2451  A 8 8 0 0 1 52 2443 L 52 1902  Z " fill-rule="nonzero" fill="#ffffff" stroke="none" fill-opacity="0.6" />
      <path d="M 51 1902  A 9 9 0 0 1 60 1893 L 420 1893  A 9 9 0 0 1 429 1902 L 429 2443  A 9 9 0 0 1 420 2452 L 60 2452  A 9 9 0 0 1 51 2443 L 51 1902  Z " stroke-width="2" stroke="#ffffff" fill="none" stroke-opacity="0.898039215686275" />
    </g>
  </defs>
  <g transform="matrix(1 0 0 1 -47 -1889 )">
    <use xlink:href="#widget716" filter="url(#filter715)" />
    <use xlink:href="#widget716" />
  </g>
</svg>