<?xml version="1.0" encoding="utf-8"?>
<svg version="1.1" xmlns:xlink="http://www.w3.org/1999/xlink" width="338px" height="666px" xmlns="http://www.w3.org/2000/svg">
  <defs>
    <filter x="17px" y="1848px" width="338px" height="666px" filterUnits="userSpaceOnUse" id="filter2292">
      <feOffset dx="1" dy="1" in="SourceAlpha" result="shadowOffsetInner" />
      <feGaussianBlur stdDeviation="2" in="shadowOffsetInner" result="shadowGaussian" />
      <feComposite in2="shadowGaussian" operator="atop" in="SourceAlpha" result="shadowComposite" />
      <feColorMatrix type="matrix" values="0 0 0 0 0  0 0 0 0 0.301960784313725  0 0 0 0 0.454901960784314  0 0 0 0.0588235294117647 0  " in="shadowComposite" />
    </filter>
    <g id="widget2293">
      <path d="M 22 1861  A 8 8 0 0 1 30 1853 L 340 1853  A 8 8 0 0 1 348 1861 L 348 2499  A 8 8 0 0 1 340 2507 L 30 2507  A 8 8 0 0 1 22 2499 L 22 1861  Z " fill-rule="nonzero" fill="#ffffff" stroke="none" fill-opacity="0.6" />
      <path d="M 21 1861  A 9 9 0 0 1 30 1852 L 340 1852  A 9 9 0 0 1 349 1861 L 349 2499  A 9 9 0 0 1 340 2508 L 30 2508  A 9 9 0 0 1 21 2499 L 21 1861  Z " stroke-width="2" stroke="#ffffff" fill="none" stroke-opacity="0.898039215686275" />
    </g>
  </defs>
  <g transform="matrix(1 0 0 1 -17 -1848 )">
    <use xlink:href="#widget2293" filter="url(#filter2292)" />
    <use xlink:href="#widget2293" />
  </g>
</svg>