<?xml version="1.0" encoding="utf-8"?>
<svg version="1.1" xmlns:xlink="http://www.w3.org/1999/xlink" width="388px" height="618px" xmlns="http://www.w3.org/2000/svg">
  <defs>
    <filter x="47px" y="1799px" width="388px" height="618px" filterUnits="userSpaceOnUse" id="filter10947">
      <feOffset dx="1" dy="1" in="SourceAlpha" result="shadowOffsetInner" />
      <feGaussianBlur stdDeviation="2" in="shadowOffsetInner" result="shadowGaussian" />
      <feComposite in2="shadowGaussian" operator="atop" in="SourceAlpha" result="shadowComposite" />
      <feColorMatrix type="matrix" values="0 0 0 0 0  0 0 0 0 0.301960784313725  0 0 0 0 0.454901960784314  0 0 0 0.0588235294117647 0  " in="shadowComposite" />
    </filter>
    <g id="widget10948">
      <path d="M 52 1812  A 8 8 0 0 1 60 1804 L 420 1804  A 8 8 0 0 1 428 1812 L 428 2402  A 8 8 0 0 1 420 2410 L 60 2410  A 8 8 0 0 1 52 2402 L 52 1812  Z " fill-rule="nonzero" fill="#ffffff" stroke="none" fill-opacity="0.6" />
      <path d="M 51 1812  A 9 9 0 0 1 60 1803 L 420 1803  A 9 9 0 0 1 429 1812 L 429 2402  A 9 9 0 0 1 420 2411 L 60 2411  A 9 9 0 0 1 51 2402 L 51 1812  Z " stroke-width="2" stroke="#ffffff" fill="none" stroke-opacity="0.898039215686275" />
    </g>
  </defs>
  <g transform="matrix(1 0 0 1 -47 -1799 )">
    <use xlink:href="#widget10948" filter="url(#filter10947)" />
    <use xlink:href="#widget10948" />
  </g>
</svg>