<?xml version="1.0" encoding="utf-8"?>
<svg version="1.1" xmlns:xlink="http://www.w3.org/1999/xlink" width="1108px" height="278px" xmlns="http://www.w3.org/2000/svg">
  <defs>
    <filter x="47px" y="1746px" width="1108px" height="278px" filterUnits="userSpaceOnUse" id="filter17">
      <feOffset dx="1" dy="1" in="SourceAlpha" result="shadowOffsetInner" />
      <feGaussianBlur stdDeviation="2" in="shadowOffsetInner" result="shadowGaussian" />
      <feComposite in2="shadowGaussian" operator="atop" in="SourceAlpha" result="shadowComposite" />
      <feColorMatrix type="matrix" values="0 0 0 0 0  0 0 0 0 0.301960784313725  0 0 0 0 0.454901960784314  0 0 0 0.0588235294117647 0  " in="shadowComposite" />
    </filter>
    <g id="widget18">
      <path d="M 52 1759  A 8 8 0 0 1 60 1751 L 1140 1751  A 8 8 0 0 1 1148 1759 L 1148 2009  A 8 8 0 0 1 1140 2017 L 60 2017  A 8 8 0 0 1 52 2009 L 52 1759  Z " fill-rule="nonzero" fill="#ffffff" stroke="none" fill-opacity="0.6" />
      <path d="M 51 1759  A 9 9 0 0 1 60 1750 L 1140 1750  A 9 9 0 0 1 1149 1759 L 1149 2009  A 9 9 0 0 1 1140 2018 L 60 2018  A 9 9 0 0 1 51 2009 L 51 1759  Z " stroke-width="2" stroke="#ffffff" fill="none" stroke-opacity="0.898039215686275" />
    </g>
  </defs>
  <g transform="matrix(1 0 0 1 -47 -1746 )">
    <use xlink:href="#widget18" filter="url(#filter17)" />
    <use xlink:href="#widget18" />
  </g>
</svg>