<?xml version="1.0" encoding="utf-8"?>
<svg version="1.1" xmlns:xlink="http://www.w3.org/1999/xlink" width="676px" height="432px" xmlns="http://www.w3.org/2000/svg">
  <defs>
    <filter x="47px" y="1781px" width="676px" height="432px" filterUnits="userSpaceOnUse" id="filter7540">
      <feOffset dx="1" dy="1" in="SourceAlpha" result="shadowOffsetInner" />
      <feGaussianBlur stdDeviation="2" in="shadowOffsetInner" result="shadowGaussian" />
      <feComposite in2="shadowGaussian" operator="atop" in="SourceAlpha" result="shadowComposite" />
      <feColorMatrix type="matrix" values="0 0 0 0 0  0 0 0 0 0.301960784313725  0 0 0 0 0.454901960784314  0 0 0 0.0588235294117647 0  " in="shadowComposite" />
    </filter>
    <g id="widget7541">
      <path d="M 52 1794  A 8 8 0 0 1 60 1786 L 708 1786  A 8 8 0 0 1 716 1794 L 716 2198  A 8 8 0 0 1 708 2206 L 60 2206  A 8 8 0 0 1 52 2198 L 52 1794  Z " fill-rule="nonzero" fill="#ffffff" stroke="none" fill-opacity="0.6" />
      <path d="M 51 1794  A 9 9 0 0 1 60 1785 L 708 1785  A 9 9 0 0 1 717 1794 L 717 2198  A 9 9 0 0 1 708 2207 L 60 2207  A 9 9 0 0 1 51 2198 L 51 1794  Z " stroke-width="2" stroke="#ffffff" fill="none" stroke-opacity="0.898039215686275" />
    </g>
  </defs>
  <g transform="matrix(1 0 0 1 -47 -1781 )">
    <use xlink:href="#widget7541" filter="url(#filter7540)" />
    <use xlink:href="#widget7541" />
  </g>
</svg>