<?xml version="1.0" encoding="utf-8"?>
<svg version="1.1" xmlns:xlink="http://www.w3.org/1999/xlink" width="676px" height="432px" xmlns="http://www.w3.org/2000/svg">
  <defs>
    <filter x="47px" y="1791px" width="676px" height="432px" filterUnits="userSpaceOnUse" id="filter17694">
      <feOffset dx="1" dy="1" in="SourceAlpha" result="shadowOffsetInner" />
      <feGaussianBlur stdDeviation="2" in="shadowOffsetInner" result="shadowGaussian" />
      <feComposite in2="shadowGaussian" operator="atop" in="SourceAlpha" result="shadowComposite" />
      <feColorMatrix type="matrix" values="0 0 0 0 0  0 0 0 0 0.301960784313725  0 0 0 0 0.454901960784314  0 0 0 0.0588235294117647 0  " in="shadowComposite" />
    </filter>
    <g id="widget17695">
      <path d="M 52 1804  A 8 8 0 0 1 60 1796 L 708 1796  A 8 8 0 0 1 716 1804 L 716 2208  A 8 8 0 0 1 708 2216 L 60 2216  A 8 8 0 0 1 52 2208 L 52 1804  Z " fill-rule="nonzero" fill="#ffffff" stroke="none" fill-opacity="0.6" />
      <path d="M 51 1804  A 9 9 0 0 1 60 1795 L 708 1795  A 9 9 0 0 1 717 1804 L 717 2208  A 9 9 0 0 1 708 2217 L 60 2217  A 9 9 0 0 1 51 2208 L 51 1804  Z " stroke-width="2" stroke="#ffffff" fill="none" stroke-opacity="0.898039215686275" />
    </g>
  </defs>
  <g transform="matrix(1 0 0 1 -47 -1791 )">
    <use xlink:href="#widget17695" filter="url(#filter17694)" />
    <use xlink:href="#widget17695" />
  </g>
</svg>