<?xml version="1.0" encoding="utf-8"?>
<svg version="1.1" xmlns:xlink="http://www.w3.org/1999/xlink" width="908px" height="320px" xmlns="http://www.w3.org/2000/svg">
  <defs>
    <filter x="47px" y="1647px" width="908px" height="320px" filterUnits="userSpaceOnUse" id="filter312">
      <feOffset dx="1" dy="1" in="SourceAlpha" result="shadowOffsetInner" />
      <feGaussianBlur stdDeviation="2" in="shadowOffsetInner" result="shadowGaussian" />
      <feComposite in2="shadowGaussian" operator="atop" in="SourceAlpha" result="shadowComposite" />
      <feColorMatrix type="matrix" values="0 0 0 0 0  0 0 0 0 0.301960784313725  0 0 0 0 0.454901960784314  0 0 0 0.0588235294117647 0  " in="shadowComposite" />
    </filter>
    <g id="widget313">
      <path d="M 52 1660  A 8 8 0 0 1 60 1652 L 940 1652  A 8 8 0 0 1 948 1660 L 948 1952  A 8 8 0 0 1 940 1960 L 60 1960  A 8 8 0 0 1 52 1952 L 52 1660  Z " fill-rule="nonzero" fill="#ffffff" stroke="none" fill-opacity="0.6" />
      <path d="M 51 1660  A 9 9 0 0 1 60 1651 L 940 1651  A 9 9 0 0 1 949 1660 L 949 1952  A 9 9 0 0 1 940 1961 L 60 1961  A 9 9 0 0 1 51 1952 L 51 1660  Z " stroke-width="2" stroke="#ffffff" fill="none" stroke-opacity="0.898039215686275" />
    </g>
  </defs>
  <g transform="matrix(1 0 0 1 -47 -1647 )">
    <use xlink:href="#widget313" filter="url(#filter312)" />
    <use xlink:href="#widget313" />
  </g>
</svg>