<?xml version="1.0" encoding="utf-8"?>
<svg version="1.1" xmlns:xlink="http://www.w3.org/1999/xlink" width="338px" height="666px" xmlns="http://www.w3.org/2000/svg">
  <defs>
    <filter x="17px" y="1891px" width="338px" height="666px" filterUnits="userSpaceOnUse" id="filter742">
      <feOffset dx="1" dy="1" in="SourceAlpha" result="shadowOffsetInner" />
      <feGaussianBlur stdDeviation="2" in="shadowOffsetInner" result="shadowGaussian" />
      <feComposite in2="shadowGaussian" operator="atop" in="SourceAlpha" result="shadowComposite" />
      <feColorMatrix type="matrix" values="0 0 0 0 0  0 0 0 0 0.301960784313725  0 0 0 0 0.454901960784314  0 0 0 0.0588235294117647 0  " in="shadowComposite" />
    </filter>
    <g id="widget743">
      <path d="M 22 1904  A 8 8 0 0 1 30 1896 L 340 1896  A 8 8 0 0 1 348 1904 L 348 2542  A 8 8 0 0 1 340 2550 L 30 2550  A 8 8 0 0 1 22 2542 L 22 1904  Z " fill-rule="nonzero" fill="#ffffff" stroke="none" fill-opacity="0.6" />
      <path d="M 21 1904  A 9 9 0 0 1 30 1895 L 340 1895  A 9 9 0 0 1 349 1904 L 349 2542  A 9 9 0 0 1 340 2551 L 30 2551  A 9 9 0 0 1 21 2542 L 21 1904  Z " stroke-width="2" stroke="#ffffff" fill="none" stroke-opacity="0.898039215686275" />
    </g>
  </defs>
  <g transform="matrix(1 0 0 1 -17 -1891 )">
    <use xlink:href="#widget743" filter="url(#filter742)" />
    <use xlink:href="#widget743" />
  </g>
</svg>