<svg xmlns="http://www.w3.org/2000/svg" xmlns:xlink="http://www.w3.org/1999/xlink" fill="none" version="1.1" width="60" height="60" viewBox="0 0 60 60"><g><g><path d="M16,13Q15.90175,13,15.80397,13.00963055Q15.70619,13.0192611,15.60982,13.0384294Q15.51345,13.0575978,15.41943,13.0861193Q15.32541,13.114641,15.23463,13.152241Q15.14386,13.189841,15.05721,13.236157Q14.970554,13.282474,14.888859,13.337061Q14.807164,13.391648,14.731213,13.453979Q14.655262,13.516311,14.585786,13.585786Q14.516311,13.655262,14.453979,13.731213Q14.391648,13.807164,14.337061,13.888859Q14.282474,13.970554,14.236157,14.05721Q14.189841,14.14386,14.152241,14.23463Q14.114641,14.32541,14.0861193,14.41943Q14.0575978,14.51345,14.0384294,14.60982Q14.0192611,14.70619,14.00963055,14.80397Q14,14.90175,14,15Q14,15.09825,14.00963055,15.19603Q14.0192611,15.29381,14.0384294,15.39018Q14.0575978,15.48655,14.0861193,15.58057Q14.114641,15.67459,14.152241,15.76537Q14.189841,15.85614,14.236157,15.94279Q14.282474,16.02945,14.337061,16.11114Q14.391648,16.19284,14.453979,16.26879Q14.516311,16.34474,14.585786,16.41421Q14.655262,16.48369,14.731213,16.54602Q14.807164,16.60835,14.888859,16.66294Q14.970554,16.71753,15.05721,16.763840000000002Q15.14386,16.81016,15.23463,16.84776Q15.32541,16.88536,15.41943,16.91388Q15.51345,16.9424,15.60982,16.961570000000002Q15.70619,16.98074,15.80397,16.99037Q15.90175,17,16,17L44,17Q44.098299999999995,17,44.196,16.99037Q44.293800000000005,16.98074,44.3902,16.961570000000002Q44.4865,16.9424,44.580600000000004,16.91388Q44.6746,16.88536,44.7654,16.84776Q44.8561,16.81016,44.9428,16.763840000000002Q45.029399999999995,16.71753,45.1111,16.66294Q45.1928,16.60835,45.2688,16.54602Q45.3447,16.48369,45.4142,16.41421Q45.4837,16.34474,45.546,16.26879Q45.6084,16.19284,45.6629,16.11114Q45.7175,16.02945,45.7638,15.94279Q45.810199999999995,15.85614,45.8478,15.76537Q45.885400000000004,15.67459,45.9139,15.58057Q45.9424,15.48655,45.961600000000004,15.39018Q45.9807,15.29381,45.9904,15.19603Q46,15.09825,46,15Q46,14.90175,45.9904,14.80397Q45.9807,14.70619,45.961600000000004,14.60982Q45.9424,14.51345,45.9139,14.41943Q45.885400000000004,14.32541,45.8478,14.23463Q45.810199999999995,14.14386,45.7638,14.05721Q45.7175,13.970554,45.6629,13.888859Q45.6084,13.807164,45.546,13.731213Q45.4837,13.655262,45.4142,13.585786Q45.3447,13.516311,45.2688,13.453979Q45.1928,13.391648,45.1111,13.337061Q45.029399999999995,13.282474,44.9428,13.236157Q44.8561,13.189841,44.7654,13.152241Q44.6746,13.114641,44.580600000000004,13.0861193Q44.4865,13.0575978,44.3902,13.0384294Q44.293800000000005,13.0192611,44.196,13.00963055Q44.098299999999995,13,44,13L16,13ZM38.9293,34.1219Q38.9904,33.9957,39.0333,33.8622Q39.0762,33.7288,39.1001,33.590599999999995Q39.123999999999995,33.4525,39.1284,33.3123Q39.1327,33.172200000000004,39.1175,33.0329Q39.1023,32.8935,39.0678,32.7576Q39.0333,32.621700000000004,38.9801,32.492000000000004Q38.927,32.362300000000005,38.856300000000005,32.2412Q38.7856,32.1202,38.6987,32.0101L31.5693,22.986330000000002Q31.4289,22.80861,31.2523,22.66679Q31.0757,22.52497,30.8719,22.42623Q30.668,22.327489999999997,30.4473,22.27684Q30.2265,22.226190000000003,30,22.226190000000003Q29.7735,22.226190000000003,29.5527,22.27684Q29.332,22.327489999999997,29.1281,22.42623Q28.924300000000002,22.52497,28.747700000000002,22.66679Q28.5711,22.80861,28.4307,22.986330000000002L21.30134,32.0101Q21.21443,32.1202,21.143720000000002,32.2412Q21.07301,32.362300000000005,21.01987,32.492000000000004Q20.96674,32.621700000000004,20.93222,32.7576Q20.89771,32.8935,20.88248,33.0329Q20.86726,33.172200000000004,20.87163,33.3123Q20.876,33.4525,20.89988,33.590599999999995Q20.92376,33.7288,20.96667,33.8622Q21.00959,33.9957,21.070700000000002,34.1219Q21.13182,34.248000000000005,21.20994,34.3645Q21.28806,34.4809,21.38165,34.5852Q21.47525,34.6896,21.58249,34.7799Q21.68973,34.8702,21.80852,34.9447Q21.92732,35.0191,22.055329999999998,35.0763Q22.18335,35.1334,22.318080000000002,35.1721Q22.45282,35.210899999999995,22.59165,35.2304Q22.73047,35.25,22.87066,35.25L28,35.25L28,46Q28,46.0983,28.0096,46.196Q28.0193,46.2938,28.0384,46.3902Q28.0576,46.4865,28.086100000000002,46.5806Q28.1146,46.6746,28.1522,46.7654Q28.189799999999998,46.8561,28.2362,46.9428Q28.2825,47.0294,28.3371,47.1111Q28.3916,47.1928,28.454,47.2688Q28.5163,47.3447,28.5858,47.4142Q28.6553,47.4837,28.7312,47.546Q28.8072,47.6083,28.8889,47.6629Q28.970599999999997,47.7175,29.0572,47.7638Q29.143900000000002,47.8102,29.2346,47.8478Q29.325400000000002,47.8854,29.4194,47.9139Q29.5135,47.9424,29.6098,47.9616Q29.706200000000003,47.9807,29.804000000000002,47.9904Q29.901699999999998,48,30,48Q30.0983,48,30.196,47.9904Q30.2938,47.9807,30.3902,47.9616Q30.4865,47.9424,30.5806,47.9139Q30.6746,47.8854,30.7654,47.8478Q30.8561,47.8102,30.9428,47.7638Q31.0294,47.7175,31.1111,47.6629Q31.1928,47.6083,31.2688,47.546Q31.3447,47.4837,31.4142,47.4142Q31.4837,47.3447,31.546,47.2688Q31.6084,47.1928,31.6629,47.1111Q31.7175,47.0294,31.7638,46.9428Q31.8102,46.8561,31.8478,46.7654Q31.8854,46.6746,31.9139,46.5806Q31.9424,46.4865,31.9616,46.3902Q31.9807,46.2938,31.9904,46.196Q32,46.0983,32,46L32,35.25L37.1293,35.25Q37.2695,35.25,37.4084,35.2304Q37.547200000000004,35.210899999999995,37.6819,35.1721Q37.8167,35.1334,37.9447,35.0763Q38.0727,35.0191,38.191500000000005,34.9447Q38.3103,34.8702,38.417500000000004,34.7799Q38.5248,34.6896,38.618300000000005,34.5852Q38.7119,34.4809,38.790099999999995,34.3645Q38.8682,34.248000000000005,38.9293,34.1219Z" fill-rule="evenodd" fill="#FFFFFF" fill-opacity="1"/></g></g></svg>