<svg xmlns="http://www.w3.org/2000/svg" xmlns:xlink="http://www.w3.org/1999/xlink" fill="none" version="1.1" width="295.260009765625" height="121.09228515625" viewBox="0 0 295.260009765625 121.09228515625"><g><g><path d="M38.99993896484375,120.492236328125L53.33993896484375,120.492236328125L53.39993896484375,67.932236328125L21.11993896484375,67.932236328125L21.11993896484375,75.852236328125L28.37993896484375,75.852236328125L28.37993896484375,83.532236328125C28.37993896484375,96.312236328125,25.61993896484375,108.132236328125,18.35993896484375,120.492236328125L28.31993896484375,120.492236328125C33.47993896484375,108.55223632812499,35.99993896484375,96.972236328125,36.29993896484375,83.532236328125L36.47993896484375,75.852236328125L45.23993896484375,75.852236328125L45.23993896484375,112.572236328125L38.99993896484375,112.572236328125L38.99993896484375,120.492236328125ZM-0.00006103515625,102.31223632812501L6.53993896484375,102.31223632812501L6.53993896484375,120.492236328125L14.21993896484375,120.492236328125L14.21993896484375,100.03223632812501L21.95993896484375,103.75223632812501L21.95993896484375,96.072236328125L19.97993896484375,95.112236328125L23.15993896484375,84.852236328125L17.69993896484375,84.852236328125L15.17993896484375,92.83223632812499L14.21993896484375,92.352236328125L14.21993896484375,90.132236328125C16.07993896484375,84.672236328125,17.39993896484375,79.092236328125,18.29993896484375,73.272236328125L14.63993896484375,73.272236328125L14.63993896484375,66.192238328125L6.95993896484375,66.192238328125L6.95993896484375,73.272236328125L1.67993896484375,73.272236328125L1.67993896484375,80.83223632812499L9.23993896484375,80.83223632812499C7.25993896484375,88.092236328125,4.19993896484375,95.232236328125,-0.00006103515625,102.31223632812501ZM65.39993896484376,113.232236328125L65.39993896484376,121.092236328125C83.51993896484375,119.652236328125,99.41993896484375,113.892236328125,113.21993896484375,103.81223632812501L113.21993896484375,94.512236328125C98.51993896484375,105.072236328125,82.91993896484375,111.612236328125,65.39993896484376,113.232236328125ZM60.11993896484375,107.172236328125L69.83993896484375,107.172236328125C72.89993896484376,102.912236328125,75.65993896484375,98.292236328125,77.75993896484376,93.072236328125L68.93993896484375,93.072236328125C66.71993896484375,98.05223632812499,63.83993896484375,102.55223632812499,60.11993896484375,107.172236328125ZM61.19993896484375,89.892236328125L85.61993896484375,89.892236328125L85.61993896484375,102.072236328125L93.35993896484375,102.072236328125L93.35993896484375,89.892236328125L115.19993896484375,89.892236328125L115.19993896484375,82.212236328125L93.35993896484375,82.212236328125L93.35993896484375,76.872236328125L112.19993896484375,76.872236328125L112.19993896484375,69.312236328125L93.35993896484375,69.312236328125L93.35993896484375,65.292236328125L85.61993896484375,65.292236328125L85.61993896484375,82.212236328125L76.25993896484376,82.212236328125L76.25993896484376,68.292236328125L68.51993896484375,68.292236328125L68.51993896484375,82.212236328125L61.19993896484375,82.212236328125L61.19993896484375,89.892236328125ZM135.29993896484376,120.612236328125L155.21993896484375,120.612236328125L155.21993896484375,90.25223632812501C162.77993896484375,83.532236328125,168.41993896484374,75.852236328125,172.85993896484376,67.452236328125L125.63993896484375,67.452236328125L125.63993896484375,75.732236328125L158.45993896484376,75.732236328125C155.45993896484376,79.992236328125,151.61993896484375,84.012236328125,146.93993896484375,87.852236328125L146.93993896484375,112.33223632812499L135.29993896484376,112.33223632812499L135.29993896484376,120.612236328125ZM179.99993896484375,120.492236328125L187.37993896484375,120.492236328125C188.09993896484374,117.31223632812501,188.69993896484374,114.072236328125,189.05993896484375,110.77223632812499L192.23993896484376,110.77223632812499L192.23993896484376,120.55223632812499L198.23993896484376,120.55223632812499L198.23993896484376,110.77223632812499L201.17993896484376,110.77223632812499L201.17993896484376,120.492236328125L207.89993896484376,120.492236328125L207.89993896484376,87.612236328125L216.05993896484375,87.612236328125C218.75993896484374,83.472236328125,220.43993896484375,78.912236328125,221.15993896484375,74.052236328125L226.73993896484376,74.052236328125L226.55993896484375,80.712236328125L222.23993896484376,80.712236328125L222.23993896484376,87.612236328125L233.69993896484374,87.612236328125L234.11993896484375,66.852236328125L209.45993896484376,66.852236328125L209.45993896484376,74.052236328125L213.83993896484375,74.052236328125C212.93993896484375,78.672236328125,210.89993896484376,83.052236328125,207.89993896484376,87.25223632812501L207.89993896484376,77.772236328125L204.23993896484376,77.772236328125C205.85993896484376,74.232236328125,206.99993896484375,70.512236328125,207.77993896484375,66.492236328125L188.21993896484375,66.492236328125C186.77993896484375,70.812236328125,184.43993896484375,73.992236328125,181.19993896484374,76.152236328125L181.19993896484374,83.532236328125L183.05993896484375,82.812236328125L183.11993896484375,97.992236328125C183.11993896484375,105.672236328125,182.21993896484375,113.112236328125,179.99993896484375,120.492236328125ZM189.59993896484374,104.05223632812499C189.71993896484375,102.072236328125,189.77993896484375,100.03223632812501,189.77993896484375,97.992236328125L189.77993896484375,97.632236328125L192.71993896484375,97.632236328125L192.71993896484375,104.05223632812499L189.59993896484374,104.05223632812499ZM189.77993896484375,90.912236328125L189.77993896484375,84.492236328125L192.71993896484375,84.492236328125L192.71993896484375,90.912236328125L189.77993896484375,90.912236328125ZM189.77993896484375,77.772236328125C190.85993896484376,76.512236328125,191.81993896484374,75.132236328125,192.59993896484374,73.572236328125L198.83993896484375,73.572236328125C198.29993896484376,75.012236328125,197.63993896484374,76.392236328125,196.85993896484376,77.772236328125L189.77993896484375,77.772236328125ZM198.23993896484376,104.05223632812499L198.23993896484376,97.632236328125L201.17993896484376,97.632236328125L201.17993896484376,104.05223632812499L198.23993896484376,104.05223632812499ZM198.23993896484376,90.912236328125L198.23993896484376,84.492236328125L201.17993896484376,84.492236328125L201.17993896484376,90.912236328125L198.23993896484376,90.912236328125ZM208.13993896484374,104.592236328125L214.97993896484374,104.592236328125C215.39993896484376,102.972236328125,215.75993896484374,101.352236328125,216.05993896484375,99.672236328125L219.83993896484375,99.672236328125L219.83993896484375,106.152236328125L208.85993896484376,106.152236328125L208.85993896484376,113.232236328125L219.83993896484375,113.232236328125L219.83993896484375,120.492236328125L227.27993896484375,120.492236328125L227.27993896484375,113.232236328125L235.79993896484376,113.232236328125L235.79993896484376,106.152236328125L227.27993896484375,106.152236328125L227.27993896484375,99.672236328125L234.89993896484376,99.672236328125L234.89993896484376,92.712236328125L227.27993896484375,92.712236328125L227.27993896484375,88.212236328125L219.83993896484375,88.212236328125L219.83993896484375,92.712236328125L216.83993896484375,92.712236328125C216.89993896484376,91.632236328125,216.95993896484376,90.552236328125,216.95993896484376,89.412236328125L210.59993896484374,89.412236328125C210.53993896484374,94.692236328125,209.63993896484374,99.792236328125,208.13993896484374,104.592236328125ZM265.19993896484374,111.372236328125L265.19993896484374,119.652236328125C271.19993896484374,117.852236328125,276.6599389648438,115.212236328125,280.85993896484376,112.092236328125C284.45993896484373,116.172236328125,289.25993896484374,119.232236328125,295.25993896484374,121.092236328125L295.25993896484374,112.872236328125C291.53993896484377,111.372236328125,288.7199389648438,109.452236328125,286.61993896484375,107.292236328125C290.2799389648437,102.55223632812499,292.79993896484376,97.092236328125,294.35993896484376,90.972236328125L287.03993896484377,90.972236328125C286.07993896484373,94.572236328125,284.57993896484373,97.75223632812501,282.47993896484377,100.75223632812501C281.2199389648438,97.392236328125,280.67993896484376,93.492236328125,280.55993896484375,89.112236328125L295.19993896484374,89.112236328125L295.19993896484374,81.612236328125L280.55993896484375,81.612236328125L280.55993896484375,66.492236328125L272.87993896484375,66.492236328125L272.87993896484375,81.612236328125L260.57993896484373,81.612236328125L260.57993896484373,74.83223632812499C263.3999389648437,74.472236328125,266.1599389648438,73.992236328125,268.97993896484377,73.452236328125L268.97993896484377,65.952240328125C260.3399389648437,67.512236328125,251.81993896484374,68.352236328125,243.17993896484376,68.352236328125L243.17993896484376,75.852236328125C246.47993896484374,75.852236328125,249.71993896484375,75.792236328125,252.95993896484376,75.552236328125L252.95993896484376,81.612236328125L241.19993896484374,81.612236328125L241.19993896484374,89.112236328125L252.95993896484376,89.112236328125L252.95993896484376,96.792236328125L241.19993896484374,99.192236328125L241.19993896484374,106.932236328125L252.95993896484376,104.53223632812501L252.95993896484376,113.172236328125L244.97993896484374,113.172236328125L244.97993896484374,120.492236328125L260.57993896484373,120.492236328125L260.57993896484373,103.692236328125L269.99993896484375,101.77223632812499L269.99993896484375,94.032236328125L260.57993896484373,95.952236328125L260.57993896484373,89.112236328125L272.87993896484375,89.112236328125C272.99993896484375,95.292236328125,274.19993896484374,100.81223632812501,276.53993896484377,105.55223632812499C273.47993896484377,107.952236328125,269.45993896484373,109.992236328125,265.19993896484374,111.372236328125ZM283.61993896484375,67.692236328125L286.85993896484376,78.192236328125L294.23993896484376,78.192236328125L290.99993896484375,67.692236328125L283.61993896484375,67.692236328125Z" fill="#004CA4" fill-opacity="1"/></g><g><path d="M55.637446171875,8.07031L55.637446171875,12.4922L54.059326171875,12.4922L54.059326171875,0.367188L57.074946171875,0.367188Q58.934326171875,0.367188,59.785886171875,0.785156Q60.637446171875,1.20312,61.090576171875,2.00781Q61.543706171875,2.8125,61.543706171875,3.80469Q61.543706171875,4.96875,60.934326171875,5.97656Q60.324946171875,6.98438,59.235106171875,7.52734Q58.145266171875,8.07031,56.278076171875,8.07031L55.637446171875,8.07031ZM55.637446171875,6.85938L56.317136171875,6.85938Q57.778076171875,6.85938,58.489016171875,6.47998Q59.199946171875,6.10046,59.582766171875,5.38855Q59.965576171875,4.67651,59.965576171875,3.84705Q59.965576171875,2.79871,59.281986171875,2.18848Q58.598386171875,1.57812,56.582766171875,1.57812L55.637446171875,1.57812L55.637446171875,6.85938ZM70.418726171875,11.1562L70.418726171875,12.4922L63.871826171875,12.4922L63.871826171875,0.367188L70.293726171875,0.367188L70.293726171875,1.58594L65.449926171875,1.58594L65.449926171875,5.70312L69.809326171875,5.70312L69.809326171875,6.91406L65.449926171875,6.91406L65.449926171875,11.1562L70.418726171875,11.1562ZM74.629626171875,7.33594L74.629626171875,12.4922L73.051526171875,12.4922L73.051526171875,0.367188L76.293726171875,0.367188Q77.879626171875,0.367188,78.629626171875,0.691162Q79.379626171875,1.01514,79.789826171875,1.6709Q80.199926171875,2.32666,80.199926171875,3.08386Q80.199926171875,3.7865,79.926526171875,4.49695Q79.653126171875,5.20728,79.172626171875,5.7655Q78.692126171875,6.32361,77.785926171875,6.82324L81.293726171875,12.4922L79.418726171875,12.4922L76.207726171875,7.33594L74.629626171875,7.33594ZM74.629626171875,6.125L76.840526171875,6.125Q77.582726171875,5.71802,77.946026171875,5.29541Q78.309326171875,4.8728,78.496826171875,4.39551Q78.684326171875,3.91809,78.684326171875,3.44067Q78.684326171875,2.58765,78.063226171875,2.08289Q77.442126171875,1.57812,75.809326171875,1.57812L74.629626171875,1.57812L74.629626171875,6.125ZM82.715526171875,12.2344L82.715526171875,10.75Q84.590526171875,11.6484,86.121826171875,11.6484Q86.762426171875,11.6484,87.34842617187499,11.402Q87.934326171875,11.1555,88.23512617187501,10.694Q88.53592617187499,10.2323,88.53592617187499,9.69238Q88.53592617187499,9.05872,88.121826171875,8.50708Q87.70772617187501,7.95544,86.567126171875,7.29041L85.770226171875,6.8302L84.965526171875,6.36707Q82.840526171875,5.11035,82.840526171875,3.23999Q82.840526171875,1.87036,83.789826171875,0.935181Q84.739026171875,0,86.754626171875,0Q88.051526171875,0,89.262426171875,0.367188L89.262426171875,1.71875Q87.926526171875,1.21094,86.66092617187499,1.21094Q85.653126171875,1.21094,85.032026171875,1.74341Q84.410926171875,2.27588,84.410926171875,3.02747Q84.410926171875,3.77136,84.887426171875,4.26465Q85.364026171875,4.75793,86.106226171875,5.17297L86.715526171875,5.53845L87.47342617187499,5.99451L88.114026171875,6.37659Q90.106226171875,7.59558,90.106226171875,9.43872Q90.106226171875,10.8445,89.08272617187501,11.8519Q88.059326171875,12.8594,85.801526171875,12.8594Q85.082726171875,12.8594,84.430426171875,12.7383Q83.778126171875,12.6172,82.715526171875,12.2344ZM95.887426171875,12.8594Q93.824926171875,12.8594,92.73512617187501,11.1201Q91.64522617187501,9.38074,91.64522617187501,6.42578Q91.64522617187501,3.47864,92.73512617187501,1.73938Q93.824926171875,0,95.887426171875,0Q97.95772617187501,0,99.043726171875,1.73938Q100.129626171875,3.47864,100.129626171875,6.42578Q100.129626171875,9.38074,99.043726171875,11.1201Q97.95772617187501,12.8594,95.887426171875,12.8594ZM95.887426171875,11.6484Q97.028126171875,11.6484,97.789826171875,10.3535Q98.551526171875,9.05859,98.551526171875,6.42969Q98.551526171875,3.80078,97.789826171875,2.50586Q97.028126171875,1.21094,95.887426171875,1.21094Q94.746826171875,1.21094,93.98512617187501,2.50586Q93.22342617187499,3.80078,93.22342617187499,6.42969Q93.22342617187499,9.05859,93.98512617187501,10.3535Q94.746826171875,11.6484,95.887426171875,11.6484ZM103.129626171875,12.4922L101.676526171875,12.4922L101.676526171875,0.367188L103.09842617187499,0.367188L107.387426171875,8.4375L107.856226171875,9.64062L107.89522617187501,9.64062L107.856226171875,8.4375L107.856226171875,0.367188L109.309326171875,0.367188L109.309326171875,12.4922L107.856226171875,12.4922L103.684326171875,4.55469L103.09842617187499,3.28125L103.129626171875,4.53906L103.129626171875,12.4922ZM112.067126171875,12.4922L110.551526171875,12.4922L114.28592617187499,0.367188L115.887426171875,0.367188L119.645226171875,12.4922L117.981226171875,12.4922L117.153126171875,9.82812L112.887426171875,9.82812L112.067126171875,12.4922ZM113.262426171875,8.61719L116.801526171875,8.61719L115.340526171875,4.01599L114.996826171875,2.80176L114.692126171875,4.01611L113.262426171875,8.61719ZM128.153126171875,11.1562L128.153126171875,12.4922L121.606226171875,12.4922L121.606226171875,0.367188L123.184326171875,0.367188L123.184326171875,11.1562L128.153126171875,11.1562ZM140.442126171875,12.4922L140.442126171875,11.2812L143.106226171875,11.2812L143.106226171875,1.57812L140.442126171875,1.57812L140.442126171875,0.367188L147.34842617187502,0.367188L147.34842617187502,1.57812L144.684326171875,1.57812L144.684326171875,11.2812L147.34842617187502,11.2812L147.34842617187502,12.4922L140.442126171875,12.4922ZM151.137426171875,12.4922L149.684326171875,12.4922L149.684326171875,0.367188L151.106226171875,0.367188L155.395326171875,8.4375L155.864326171875,9.64062L155.903326171875,9.64062L155.864326171875,8.4375L155.864326171875,0.367188L157.31732617187498,0.367188L157.31732617187498,12.4922L155.864326171875,12.4922L151.692126171875,4.55469L151.106226171875,3.28125L151.137426171875,4.53906L151.137426171875,12.4922ZM160.07532617187502,12.4922L160.07532617187502,0.367188L166.739326171875,0.367188L166.739326171875,1.57812L161.653326171875,1.57812L161.653326171875,5.70312L166.254326171875,5.70312L166.254326171875,6.91406L161.653326171875,6.91406L161.653326171875,12.4922L160.07532617187502,12.4922ZM172.70032617187502,12.8594Q170.637326171875,12.8594,169.547326171875,11.1201Q168.457326171875,9.38074,168.457326171875,6.42578Q168.457326171875,3.47864,169.547326171875,1.73938Q170.637326171875,0,172.70032617187502,0Q174.770326171875,0,175.856326171875,1.73938Q176.94232617187498,3.47864,176.94232617187498,6.42578Q176.94232617187498,9.38074,175.856326171875,11.1201Q174.770326171875,12.8594,172.70032617187502,12.8594ZM172.70032617187502,11.6484Q173.840326171875,11.6484,174.602326171875,10.3535Q175.364326171875,9.05859,175.364326171875,6.42969Q175.364326171875,3.80078,174.602326171875,2.50586Q173.840326171875,1.21094,172.70032617187502,1.21094Q171.559326171875,1.21094,170.797326171875,2.50586Q170.036326171875,3.80078,170.036326171875,6.42969Q170.036326171875,9.05859,170.797326171875,10.3535Q171.559326171875,11.6484,172.70032617187502,11.6484ZM180.247326171875,7.33594L180.247326171875,12.4922L178.66832617187498,12.4922L178.66832617187498,0.367188L181.911326171875,0.367188Q183.497326171875,0.367188,184.247326171875,0.691162Q184.997326171875,1.01514,185.407326171875,1.6709Q185.817326171875,2.32666,185.817326171875,3.08386Q185.817326171875,3.7865,185.543326171875,4.49695Q185.270326171875,5.20728,184.789326171875,5.7655Q184.309326171875,6.32361,183.403326171875,6.82324L186.911326171875,12.4922L185.036326171875,12.4922L181.82532617187502,7.33594L180.247326171875,7.33594ZM180.247326171875,6.125L182.457326171875,6.125Q183.200326171875,5.71802,183.563326171875,5.29541Q183.926326171875,4.8728,184.114326171875,4.39551Q184.301326171875,3.91809,184.301326171875,3.44067Q184.301326171875,2.58765,183.680326171875,2.08289Q183.059326171875,1.57812,181.42632617187502,1.57812L180.247326171875,1.57812L180.247326171875,6.125ZM188.817326171875,12.4922L187.543326171875,12.4922L187.543326171875,0.367188L189.129326171875,0.367188L191.926326171875,8.35156L194.723326171875,0.367188L196.270326171875,0.367188L196.270326171875,12.4922L194.817326171875,12.4922L194.817326171875,4.76562L194.856326171875,3.70312L194.817326171875,3.70312L194.473326171875,4.76562L192.598326171875,10.0703L191.020326171875,10.0703L189.121326171875,4.76562L188.817326171875,3.70312L188.778326171875,3.70312L188.817326171875,4.76562L188.817326171875,12.4922ZM198.481326171875,12.4922L196.965326171875,12.4922L200.700326171875,0.367188L202.301326171875,0.367188L206.059326171875,12.4922L204.395326171875,12.4922L203.567326171875,9.82812L199.301326171875,9.82812L198.481326171875,12.4922ZM199.676326171875,8.61719L203.215326171875,8.61719L201.754326171875,4.01599L201.411326171875,2.80176L201.106326171875,4.01611L199.676326171875,8.61719ZM210.317326171875,12.4922L210.317326171875,1.70312L206.684326171875,1.70312L206.684326171875,0.367188L215.536326171875,0.367188L215.536326171875,1.70312L211.895326171875,1.70312L211.895326171875,12.4922L210.317326171875,12.4922ZM217.254326171875,12.4922L217.254326171875,11.2812L219.918326171875,11.2812L219.918326171875,1.57812L217.254326171875,1.57812L217.254326171875,0.367188L224.161326171875,0.367188L224.161326171875,1.57812L221.497326171875,1.57812L221.497326171875,11.2812L224.161326171875,11.2812L224.161326171875,12.4922L217.254326171875,12.4922ZM230.309326171875,12.8594Q228.247326171875,12.8594,227.157326171875,11.1201Q226.067326171875,9.38074,226.067326171875,6.42578Q226.067326171875,3.47864,227.157326171875,1.73938Q228.247326171875,0,230.309326171875,0Q232.379326171875,0,233.465326171875,1.73938Q234.551326171875,3.47864,234.551326171875,6.42578Q234.551326171875,9.38074,233.465326171875,11.1201Q232.379326171875,12.8594,230.309326171875,12.8594ZM230.309326171875,11.6484Q231.450326171875,11.6484,232.211326171875,10.3535Q232.973326171875,9.05859,232.973326171875,6.42969Q232.973326171875,3.80078,232.211326171875,2.50586Q231.450326171875,1.21094,230.309326171875,1.21094Q229.168326171875,1.21094,228.407326171875,2.50586Q227.645326171875,3.80078,227.645326171875,6.42969Q227.645326171875,9.05859,228.407326171875,10.3535Q229.168326171875,11.6484,230.309326171875,11.6484ZM237.551326171875,12.4922L236.098326171875,12.4922L236.098326171875,0.367188L237.520326171875,0.367188L241.809326171875,8.4375L242.278326171875,9.64062L242.317326171875,9.64062L242.278326171875,8.4375L242.278326171875,0.367188L243.731326171875,0.367188L243.731326171875,12.4922L242.278326171875,12.4922L238.106326171875,4.55469L237.520326171875,3.28125L237.551326171875,4.53906L237.551326171875,12.4922ZM97.97342617187499,32.4758Q97.199926171875,33.2888,96.44602617187499,33.5741Q95.692126171875,33.8594,94.817126171875,33.8594Q93.14522617187501,33.8594,92.125726171875,32.9141Q91.106226171875,31.9688,91.106226171875,30.5Q91.106226171875,28.4453,93.246826171875,26.6641Q92.606226171875,25.8594,92.282026171875,25.1602Q91.95772617187501,24.4609,91.95772617187501,23.8594Q91.95772617187501,23.1328,92.340526171875,22.4453Q92.72342617187499,21.7578,93.39522617187501,21.3828Q94.067126171875,21.0078,94.879626171875,21.0078Q95.95772617187501,21.0078,96.684326171875,21.5856Q97.41092617187499,22.1632,97.41092617187499,23.2406Q97.41092617187499,24.0291,96.969526171875,24.8176Q96.528126171875,25.6061,95.137426171875,26.66L97.903126171875,30.0676Q98.02022617187501,29.6774,98.055426171875,29.4276Q98.090526171875,29.1779,98.114026171875,28.5145Q98.137426171875,27.8511,98.137426171875,27.6949L98.137426171875,27.3125L99.590526171875,27.3125L99.590526171875,27.6793Q99.590526171875,28.1943,99.481226171875,29.1582Q99.371826171875,30.1219,98.824926171875,31.2067L100.684326171875,33.4922L98.824926171875,33.4922L97.97342617187499,32.4758ZM94.379626171875,25.7432Q95.168726171875,25.1884,95.629626171875,24.5281Q96.090526171875,23.8677,96.090526171875,23.3363Q96.090526171875,22.8284,95.766326171875,22.465Q95.442126171875,22.1016,94.754626171875,22.1016Q94.16092617187499,22.1016,93.78592617187499,22.5391Q93.41092617187499,22.9766,93.41092617187499,23.6094Q93.41092617187499,23.9609,93.504626171875,24.3242Q93.59842617187499,24.6875,94.20772617187501,25.5078Q94.262426171875,25.5863,94.379626171875,25.7432ZM97.168726171875,31.5055L94.004626171875,27.6168Q92.52022617187501,28.8982,92.52022617187501,30.3827Q92.52022617187501,31.3983,93.199926171875,32.0234Q93.879626171875,32.6484,94.84842617187499,32.6484Q95.364026171875,32.6484,95.887426171875,32.4684Q96.41092617187499,32.2883,97.168726171875,31.5055ZM118.426526171875,32.1562L118.426526171875,33.4922L111.879626171875,33.4922L111.879626171875,21.3672L118.301526171875,21.3672L118.301526171875,22.5859L113.45772617187501,22.5859L113.45772617187501,26.7031L117.817126171875,26.7031L117.817126171875,27.9141L113.45772617187501,27.9141L113.45772617187501,32.1562L118.426526171875,32.1562ZM121.910926171875,33.4922L120.270226171875,33.4922L123.821026171875,27.4297L120.614026171875,21.3672L122.403126171875,21.3672L124.723426171875,27.4297L127.098426171875,21.3672L128.746826171875,21.3672L125.545626171875,27.4297L129.121826171875,33.4922L127.301526171875,33.4922L124.643326171875,27.4297L121.910926171875,33.4922ZM132.449926171875,29.0703L132.449926171875,33.4922L130.871826171875,33.4922L130.871826171875,21.3672L133.887426171875,21.3672Q135.746826171875,21.3672,136.59842617187502,21.7852Q137.449926171875,22.2031,137.903126171875,23.0078Q138.356226171875,23.8125,138.356226171875,24.8047Q138.356226171875,25.9688,137.746826171875,26.9766Q137.137426171875,27.9844,136.04762617187498,28.5273Q134.95772617187498,29.0703,133.090526171875,29.0703L132.449926171875,29.0703ZM132.449926171875,27.8594L133.129626171875,27.8594Q134.590526171875,27.8594,135.301526171875,27.48Q136.012426171875,27.1005,136.39522617187498,26.3885Q136.778126171875,25.6765,136.778126171875,24.847Q136.778126171875,23.7987,136.094526171875,23.1885Q135.41092617187502,22.5781,133.39522617187498,22.5781L132.449926171875,22.5781L132.449926171875,27.8594ZM147.231226171875,32.1562L147.231226171875,33.4922L140.684326171875,33.4922L140.684326171875,21.3672L147.106226171875,21.3672L147.106226171875,22.5859L142.262426171875,22.5859L142.262426171875,26.7031L146.621826171875,26.7031L146.621826171875,27.9141L142.262426171875,27.9141L142.262426171875,32.1562L147.231226171875,32.1562ZM151.442126171875,28.3359L151.442126171875,33.4922L149.864026171875,33.4922L149.864026171875,21.3672L153.106226171875,21.3672Q154.69232617187498,21.3672,155.44232617187498,21.6912Q156.19232617187498,22.0151,156.602326171875,22.6709Q157.012326171875,23.3267,157.012326171875,24.0839Q157.012326171875,24.7865,156.739326171875,25.4969Q156.465326171875,26.2073,155.985326171875,26.7655Q155.504326171875,27.3236,154.598326171875,27.8232L158.106326171875,33.4922L156.231326171875,33.4922L153.02022617187498,28.3359L151.442126171875,28.3359ZM151.442126171875,27.125L153.653126171875,27.125Q154.395326171875,26.718,154.758326171875,26.2954Q155.121326171875,25.8728,155.309326171875,25.3955Q155.497326171875,24.9181,155.497326171875,24.4407Q155.497326171875,23.5876,154.875326171875,23.0829Q154.254326171875,22.5781,152.621826171875,22.5781L151.442126171875,22.5781L151.442126171875,27.125ZM159.645326171875,33.4922L159.645326171875,32.2812L162.309326171875,32.2812L162.309326171875,22.5781L159.645326171875,22.5781L159.645326171875,21.3672L166.55132617187502,21.3672L166.55132617187502,22.5781L163.887326171875,22.5781L163.887326171875,32.2812L166.55132617187502,32.2812L166.55132617187502,33.4922L159.645326171875,33.4922ZM176.036326171875,32.1562L176.036326171875,33.4922L169.489326171875,33.4922L169.489326171875,21.3672L175.911326171875,21.3672L175.911326171875,22.5859L171.06732617187498,22.5859L171.06732617187498,26.7031L175.42632617187502,26.7031L175.42632617187502,27.9141L171.06732617187498,27.9141L171.06732617187498,32.1562L176.036326171875,32.1562ZM179.94232617187498,33.4922L178.489326171875,33.4922L178.489326171875,21.3672L179.911326171875,21.3672L184.200326171875,29.4375L184.668326171875,30.6406L184.707326171875,30.6406L184.668326171875,29.4375L184.668326171875,21.3672L186.121326171875,21.3672L186.121326171875,33.4922L184.668326171875,33.4922L180.497326171875,25.5547L179.911326171875,24.2812L179.94232617187498,25.5391L179.94232617187498,33.4922ZM195.606326171875,33.3516Q194.247326171875,33.8594,193.168326171875,33.8594Q191.747326171875,33.8594,190.551326171875,33.0977Q189.356326171875,32.3359,188.692326171875,30.832Q188.028326171875,29.3281,188.028326171875,27.4297Q188.028326171875,25.5469,188.684326171875,24.0469Q189.340326171875,22.5469,190.536326171875,21.7734Q191.731326171875,21,193.168326171875,21Q194.247326171875,21,195.606326171875,21.5045L195.606326171875,22.942Q194.348326171875,22.2109,193.106326171875,22.2109Q192.168326171875,22.2109,191.391326171875,22.8521Q190.614326171875,23.4932,190.137326171875,24.7324Q189.661326171875,25.9716,189.661326171875,27.4258Q189.661326171875,28.9034,190.153326171875,30.1544Q190.645326171875,31.4053,191.411326171875,32.0269Q192.176326171875,32.6484,193.106326171875,32.6484Q194.340326171875,32.6484,195.606326171875,31.9219L195.606326171875,33.3516ZM204.840326171875,32.1562L204.840326171875,33.4922L198.293326171875,33.4922L198.293326171875,21.3672L204.715326171875,21.3672L204.715326171875,22.5859L199.871326171875,22.5859L199.871326171875,26.7031L204.231326171875,26.7031L204.231326171875,27.9141L199.871326171875,27.9141L199.871326171875,32.1562L204.840326171875,32.1562Z" fill="#3D3D3D" fill-opacity="1"/></g></g></svg>