<svg xmlns="http://www.w3.org/2000/svg" xmlns:xlink="http://www.w3.org/1999/xlink" fill="none" version="1.1" width="179.56005859375" height="53.5999755859375" viewBox="0 0 179.56005859375 53.5999755859375"><g><path d="M78.7967,7.35681C77.4192,7.35681,76.3026,8.475,76.3026,9.85419C76.3026,11.2336,77.4192,12.3516,78.7967,12.3516C80.174,12.3516,81.2907,11.2336,81.2907,9.85419C81.2907,8.475,80.174,7.35681,78.7967,7.35681ZM136.818,13.5989C138.158,13.5989,139.567,14.0142,140.587,14.722C142.243,15.8664,143.326,17.7816,143.326,19.9471L143.326,34.1117L139.451,34.1117L139.451,20.492C139.451,19.0689,137.288,17.6654,135.615,17.6654C133.913,17.6654,131.74,18.9909,131.74,20.4531L131.74,34.1117L127.868,34.1117L127.868,8.62463L131.74,7.35706L131.74,15.735C132.879,14.0521,134.635,13.5989,136.818,13.5989ZM74.0954,7.67163L58.2416,7.67163L58.2416,34.1116L62.1156,34.1116L62.1156,21.4115L72.3328,21.4115L72.3328,17.8922L62.1156,17.8922L62.1156,11.1908L72.8857,11.1908L74.0954,7.67163ZM179.56,14.7492L179.56,18.2685L174.301,18.2685L174.301,27.4765C174.308,28.1184,174.486,30.5353,176.452,30.5353L179.156,30.5353L179.156,34.1117L176.452,34.1117C174.827,34.1117,173.415,33.5554,172.367,32.5033C170.477,30.6046,170.432,27.7857,170.433,27.4704L170.433,8.5996L174.301,7.69421L174.301,14.7492L179.56,14.7492ZM116.042,12.0844C118.313,12.0844,120.391,12.9047,122,14.2638L124.875,11.3856C122.525,9.2949,119.433,8.02319,116.042,8.02319C108.693,8.02319,102.735,13.9888,102.735,21.3479C102.735,28.7069,108.693,34.6727,116.042,34.6727C119.433,34.6727,122.525,33.4008,124.875,31.3101L122,28.4318C120.391,29.791,118.313,30.6113,116.042,30.6113C110.933,30.6113,106.791,26.4639,106.791,21.3479C106.791,16.2318,110.933,12.0844,116.042,12.0844ZM93.3787,13.5988C94.7183,13.5988,95.9596,14.0142,96.9792,14.722C98.6354,15.8663,99.7185,17.7816,99.7185,19.9471L99.7185,34.1117L95.8435,34.1117L95.8435,20.492C95.8435,19.0689,93.681,17.6654,92.0073,17.6654C90.3054,17.6654,88.1324,18.9909,88.1324,20.4531L88.1324,34.1117L84.261,34.1117L84.261,14.5353L88.1324,13.2679L88.1324,16.3837C89.2718,14.7008,91.1951,13.5988,93.3787,13.5988ZM166.839,13.7516L162.965,14.4589L162.965,16.0512C161.221,14.6144,158.989,13.7516,156.555,13.7516C150.979,13.7516,146.46,18.2775,146.46,23.8599C146.46,29.4425,150.979,33.9683,156.555,33.9683C158.989,33.9683,161.221,33.1055,162.965,31.6688L162.965,34.1116L166.839,34.1116L166.839,13.7516ZM76.8596,34.1116L80.7337,34.1116L80.7337,14.7213L76.8596,14.7213L76.8596,34.1116ZM162.611,23.8599C162.611,20.5106,159.9,17.7953,156.555,17.7953C153.21,17.7953,150.498,20.5106,150.498,23.8599C150.498,27.2095,153.21,29.9248,156.555,29.9248C159.9,29.9248,162.611,27.2095,162.611,23.8599ZM10.8784,0C4.799,0,0.00278586,4.83342,0.00278586,10.902L0.00278586,10.902L0,39.35C0,39.5475,0.124528,39.7262,0.20302,39.9073L0.20302,39.9073C0.275522,40.0744,0.378878,40.2266,0.508002,40.3553L0.508002,40.3553L13.543,53.3673C13.543,53.3673,13.5645,53.3857,13.5744,53.3952L13.5744,53.3952C13.7154,53.5312,13.8972,53.5992,14.0789,53.6L14.0789,53.6L14.0851,53.6C14.2753,53.5992,14.465,53.5247,14.6078,53.3773L14.6078,53.3773C14.7676,53.2118,14.7992,52.9356,14.8062,52.778L14.8062,52.778C14.8114,52.6595,14.8282,52.247,14.8333,52.123L14.8333,52.123L14.8277,11.9013C14.8277,10.8956,15.8658,9.84195,16.8734,9.84195L16.8734,9.84195L34.6279,9.85777C35.2021,9.85777,35.595,10.3532,35.595,11.1464L35.595,11.1464L35.5896,15.16C35.5896,15.9396,35.3101,16.3107,34.68,16.3107L34.68,16.3107L22.5984,16.3066C21.9971,16.3066,21.7309,16.6297,21.7309,17.1956L21.7309,17.1956L21.7315,23.5348C21.7315,24.2856,22.2054,24.6377,22.7896,24.6377L22.7896,24.6377L29.8138,24.6442C30.5287,24.6442,30.7277,25.1457,30.7277,25.6856L30.7277,25.6856L30.7161,30.0039C30.7161,30.8734,30.377,31.1046,29.7411,31.1046L29.7411,31.1046L22.7531,31.0992C22.0246,31.0992,21.7931,31.5849,21.7931,32.0676L21.7931,32.0676L21.8004,42.2724C21.7982,42.6349,21.9589,42.9792,22.6414,42.9642L22.6414,42.9642L35.736,42.9599C41.8156,42.9599,47.0106,38.484,47.0106,32.4154L47.0106,32.4154L47.0143,11.1158C47.0143,5.04719,41.7966,0.0080513,35.7171,0.0080513L35.7171,0.0080513L35.717,0.000694078L10.8784,0Z" fill-rule="evenodd" fill="#1951AE" fill-opacity="1"/></g></svg>