<svg xmlns="http://www.w3.org/2000/svg" xmlns:xlink="http://www.w3.org/1999/xlink" fill="none" version="1.1" width="24.522327423095703" height="62.31425476074219" viewBox="0 0 24.522327423095703 62.31425476074219"><g transform="matrix(0,1,-1,0,24.522327423095703,-24.522327423095703)"><path d="M24.628195423095704,23.4522C24.423853823095705,23.7804,24.524247823095703,24.2121,24.852432423095703,24.4165C25.180615423095702,24.6208,25.612307423095704,24.5204,25.816647423095702,24.1922C25.816647423095702,24.1922,24.628195423095704,23.4522,24.628195423095704,23.4522C24.628195423095704,23.4522,24.628195423095704,23.4522,24.628195423095704,23.4522ZM49.2957274230957,1.58656C49.2957274230957,1.58656,49.0818274230957,0.920056,49.0818274230957,0.920056C49.0818274230957,0.920056,49.0818274230957,0.920056,49.0818274230957,0.920056C49.0818274230957,0.920056,49.2957274230957,1.58656,49.2957274230957,1.58656C49.2957274230957,1.58656,49.2957274230957,1.58656,49.2957274230957,1.58656ZM60.3677274230957,2.50539C60.3677274230957,2.50539,59.872727423095704,3.00037,59.872727423095704,3.00037C59.872727423095704,3.00037,60.3677274230957,2.50539,60.3677274230957,2.50539C60.3677274230957,2.50539,60.3677274230957,2.50539,60.3677274230957,2.50539ZM62.8255274230957,12.245C62.8255274230957,12.245,62.1269274230957,12.2013,62.1269274230957,12.2013C62.1269274230957,12.2013,62.8255274230957,12.245,62.8255274230957,12.245C62.8255274230957,12.245,62.8255274230957,12.245,62.8255274230957,12.245ZM59.3339274230957,20.2847C59.3339274230957,20.2847,58.881727423095704,19.7504,58.881727423095704,19.7504C58.881727423095704,19.7504,58.881727423095704,19.7504,58.881727423095704,19.7504C58.881727423095704,19.7504,59.3339274230957,20.2847,59.3339274230957,20.2847C59.3339274230957,20.2847,59.3339274230957,20.2847,59.3339274230957,20.2847ZM56.4396274230957,20.078C56.4396274230957,20.078,57.1077274230957,19.8692,57.1077274230957,19.8692C57.1077274230957,19.8692,57.1077274230957,19.8692,57.1077274230957,19.8692C57.1077274230957,19.8692,56.4396274230957,20.078,56.4396274230957,20.078C56.4396274230957,20.078,56.4396274230957,20.078,56.4396274230957,20.078ZM63.767227423095704,12.7503C63.767227423095704,12.7503,63.895427423095704,12.0621,63.895427423095704,12.0621C63.895427423095704,12.0621,63.767227423095704,12.7503,63.767227423095704,12.7503C63.767227423095704,12.7503,63.767227423095704,12.7503,63.767227423095704,12.7503ZM81.0412274230957,14.5191C81.0412274230957,14.5191,81.5878274230957,14.0818,81.5878274230957,14.0818C81.5878274230957,14.0818,81.5878274230957,14.0818,81.5878274230957,14.0818C81.5878274230957,14.0818,81.0412274230957,14.5191,81.0412274230957,14.5191C81.0412274230957,14.5191,81.0412274230957,14.5191,81.0412274230957,14.5191ZM85.1990274230957,17.8039C85.1990274230957,17.8039,85.55172742309571,17.1992,85.55172742309571,17.1992C85.55172742309571,17.1992,85.1990274230957,17.8039,85.1990274230957,17.8039C85.1990274230957,17.8039,85.1990274230957,17.8039,85.1990274230957,17.8039ZM84.94642742309571,18.8605C84.94642742309571,18.8605,85.1855274230957,19.5184,85.1855274230957,19.5184C85.1855274230957,19.5184,85.1855274230957,19.5184,85.1855274230957,19.5184C85.1855274230957,19.5184,84.94642742309571,18.8605,84.94642742309571,18.8605C84.94642742309571,18.8605,84.94642742309571,18.8605,84.94642742309571,18.8605ZM79.5502274230957,22.3604C79.4279274230957,22.7272,79.62612742309571,23.1236,79.9929274230957,23.2459C80.3597274230957,23.3682,80.75622742309571,23.1699,80.8783274230957,22.8032C80.8783274230957,22.8032,79.5502274230957,22.3604,79.5502274230957,22.3604C79.5502274230957,22.3604,79.5502274230957,22.3604,79.5502274230957,22.3604ZM25.816647423095702,24.1922C31.721187423095703,14.7091,38.7335274230957,5.71211,49.50962742309571,2.25307C49.50962742309571,2.25307,49.0818274230957,0.920056,49.0818274230957,0.920056C37.791827423095704,4.544,30.552057423095704,13.9381,24.628195423095704,23.4522C24.628195423095704,23.4522,25.816647423095702,24.1922,25.816647423095702,24.1922C25.816647423095702,24.1922,25.816647423095702,24.1922,25.816647423095702,24.1922ZM49.50962742309571,2.25307C50.98262742309571,1.78028,53.02332742309571,1.37547,54.992827423095704,1.40116C56.9825274230957,1.42711,58.7613274230957,1.8892,59.872727423095704,3.00037C59.872727423095704,3.00037,60.862527423095706,2.01041,60.862527423095706,2.01041C59.369527423095704,0.517234,57.141627423095706,0.0290709,55.011027423095705,0.00127807C52.86022742309571,-0.0267807,50.66712742309571,0.41117,49.0818274230957,0.920056C49.0818274230957,0.920056,49.50962742309571,2.25307,49.50962742309571,2.25307C49.50962742309571,2.25307,49.50962742309571,2.25307,49.50962742309571,2.25307ZM59.872727423095704,3.00037C60.8630274230957,3.99073,61.485527423095704,5.52504,61.8285274230957,7.24617C62.1687274230957,8.9535,62.2168274230957,10.7599,62.1269274230957,12.2013C62.1269274230957,12.2013,63.5242274230957,12.2886,63.5242274230957,12.2886C63.6196274230957,10.758,63.5709274230957,8.82624,63.201327423095705,6.97261C62.8348274230957,5.13279,62.135627423095706,3.28335,60.862527423095706,2.01041C60.862527423095706,2.01041,59.872727423095704,3.00037,59.872727423095704,3.00037C59.872727423095704,3.00037,59.872727423095704,3.00037,59.872727423095704,3.00037ZM62.1269274230957,12.2013C61.9514274230957,15.0071,60.9386274230957,18.01,58.881727423095704,19.7504C58.881727423095704,19.7504,59.78612742309571,20.8191,59.78612742309571,20.8191C62.249027423095704,18.7351,63.3363274230957,15.2928,63.5242274230957,12.2886C63.5242274230957,12.2886,62.1269274230957,12.2013,62.1269274230957,12.2013C62.1269274230957,12.2013,62.1269274230957,12.2013,62.1269274230957,12.2013ZM58.881727423095704,19.7504C58.418327423095704,20.1426,57.9563274230957,20.3574,57.6419274230957,20.3742C57.5053274230957,20.3815,57.4229274230957,20.3511,57.363327423095704,20.307C57.2992274230957,20.2595,57.194227423095704,20.1454,57.1077274230957,19.8692C57.1077274230957,19.8692,55.771527423095705,20.2868,55.771527423095705,20.2868C55.921327423095704,20.7659,56.1677274230957,21.1638,56.530327423095706,21.4322C56.897427423095706,21.7041,57.3168274230957,21.7936,57.716727423095705,21.7722C58.4749274230957,21.7316,59.224227423095705,21.2945,59.78612742309571,20.8191C59.78612742309571,20.8191,58.881727423095704,19.7504,58.881727423095704,19.7504C58.881727423095704,19.7504,58.881727423095704,19.7504,58.881727423095704,19.7504ZM57.1077274230957,19.8692C56.58942742309571,18.2107,57.3123274230957,16.4707,58.7157274230957,15.1647C60.1244274230957,13.8535,62.0542274230957,13.1436,63.639227423095704,13.4385C63.639227423095704,13.4385,63.895427423095704,12.0621,63.895427423095704,12.0621C61.7596274230957,11.6648,59.399527423095705,12.6158,57.76172742309571,14.1399C56.1184274230957,15.6693,55.0379274230957,17.9393,55.771527423095705,20.2868C55.771527423095705,20.2868,57.1077274230957,19.8692,57.1077274230957,19.8692C57.1077274230957,19.8692,57.1077274230957,19.8692,57.1077274230957,19.8692ZM63.639227423095704,13.4385C66.2891274230957,13.9315,68.7694274230957,15.2937,71.4221274230957,16.6122C74.0253274230957,17.906,76.7813274230957,19.1471,79.80082742309571,19.1471C79.80082742309571,19.1471,79.80082742309571,17.7471,79.80082742309571,17.7471C77.1442274230957,17.7471,74.65442742309571,16.6553,72.04512742309569,15.3585C69.4856274230957,14.0863,66.7873274230957,12.6002,63.895427423095704,12.0621C63.895427423095704,12.0621,63.639227423095704,13.4385,63.639227423095704,13.4385C63.639227423095704,13.4385,63.639227423095704,13.4385,63.639227423095704,13.4385ZM79.80082742309571,19.1471C79.93862742309571,19.1471,80.2205274230957,19.1727,80.6820274230957,19.1986C81.10812742309571,19.2226,81.63292742309571,19.242,82.1453274230957,19.2177C82.6428274230957,19.1942,83.1961274230957,19.1272,83.64662742309571,18.9425C84.1044274230957,18.7547,84.63562742309571,18.3545,84.63562742309571,17.6201C84.63562742309571,17.6201,83.2356274230957,17.6201,83.2356274230957,17.6201C83.2356274230957,17.6207,83.2359274230957,17.61,83.2418274230957,17.594C83.2479274230957,17.5783,83.2549274230957,17.5692,83.25632742309571,17.5675C83.2569274230957,17.567,83.2493274230957,17.576,83.2258274230957,17.5914C83.2020274230957,17.6069,83.16642742309571,17.6263,83.1155274230957,17.6472C82.89232742309571,17.7387,82.5339274230957,17.7978,82.0789274230957,17.8193C81.63902742309571,17.8401,81.17062742309571,17.8238,80.76062742309571,17.8008C80.3860274230957,17.7798,79.9884274230957,17.7471,79.80082742309571,17.7471C79.80082742309571,17.7471,79.80082742309571,19.1471,79.80082742309571,19.1471C79.80082742309571,19.1471,79.80082742309571,19.1471,79.80082742309571,19.1471ZM84.63562742309571,17.6201C84.63562742309571,17.0854,84.41552742309571,16.6357,84.1422274230957,16.276C83.87262742309571,15.9214,83.52262742309571,15.6162,83.1905274230957,15.3564C82.8738274230957,15.1085,82.48572742309571,14.8373,82.21782742309571,14.6366C81.9148274230957,14.4094,81.7079274230957,14.2317,81.5878274230957,14.0818C81.5878274230957,14.0818,80.4947274230957,14.9564,80.4947274230957,14.9564C80.73572742309571,15.2576,81.0709274230957,15.5263,81.3781274230957,15.7567C81.7208274230957,16.0135,82.0109274230957,16.2111,82.3275274230957,16.4589C82.6291274230957,16.6948,82.8671274230957,16.9124,83.0275274230957,17.1233C83.1841274230957,17.3292,83.2356274230957,17.4878,83.2356274230957,17.6201C83.2356274230957,17.6201,84.63562742309571,17.6201,84.63562742309571,17.6201C84.63562742309571,17.6201,84.63562742309571,17.6201,84.63562742309571,17.6201ZM81.5878274230957,14.0818C81.5223274230957,13.9999,81.4847274230957,13.9495,81.4665274230957,13.9228C81.45652742309571,13.9083,81.4607274230957,13.9131,81.47022742309571,13.9309C81.4750274230957,13.9397,81.4873274230957,13.9633,81.4999274230957,13.9974C81.5091274230957,14.0221,81.5385274230957,14.1037,81.54052742309571,14.2155C81.5424274230957,14.331,81.5116274230957,14.5939,81.2638274230957,14.7802C81.0443274230957,14.9452,80.8169274230957,14.9218,80.7492274230957,14.9118C80.6644274230957,14.8993,80.60392742309571,14.8735,80.58342742309571,14.8645C80.55682742309571,14.8528,80.5383274230957,14.8423,80.5313274230957,14.8382C80.5137274230957,14.8278,80.5227274230957,14.8314,80.57562742309571,14.8736C80.7736274230957,15.0307,81.1619274230957,15.3801,81.6676274230957,15.8323C82.1606274230957,16.2732,82.74422742309571,16.7925,83.30172742309571,17.2584C83.8493274230957,17.716,84.4088274230957,18.1533,84.84622742309571,18.4085C84.84622742309571,18.4085,85.55172742309571,17.1992,85.55172742309571,17.1992C85.2264274230957,17.0095,84.7467274230957,16.6413,84.1993274230957,16.1841C83.66202742309571,15.7351,83.09452742309571,15.2302,82.6008274230957,14.7888C82.1198274230957,14.3586,81.68612742309571,13.9675,81.4461274230957,13.7771C81.38982742309571,13.7324,81.3134274230957,13.6736,81.23752742309571,13.6294C81.2215274230957,13.62,81.10762742309569,13.5496,80.9539274230957,13.5269C80.8788274230957,13.5158,80.64592742309571,13.4932,80.4227274230957,13.661C80.1713274230957,13.8501,80.1385274230957,14.1177,80.14072742309571,14.24C80.14272742309569,14.3586,80.17412742309571,14.4489,80.1875274230957,14.4845C80.20402742309571,14.5295,80.2222274230957,14.566,80.2351274230957,14.59C80.2609274230957,14.638,80.2894274230957,14.6816,80.3121274230957,14.715C80.3597274230957,14.7841,80.4221274230957,14.8659,80.4947274230957,14.9564C80.4947274230957,14.9564,81.5878274230957,14.0818,81.5878274230957,14.0818C81.5878274230957,14.0818,81.5878274230957,14.0818,81.5878274230957,14.0818ZM84.84622742309571,18.4085C85.16202742309571,18.5927,85.4288274230957,18.7254,85.56712742309571,18.7992C85.6036274230957,18.8186,85.6285274230957,18.8326,85.6461274230957,18.843C85.6651274230957,18.8542,85.6649274230957,18.8552,85.6548274230957,18.8476C85.64922742309571,18.8432,85.6366274230957,18.8332,85.6203274230957,18.8177C85.6044274230957,18.8025,85.5795274230957,18.7765,85.5529274230957,18.7392C85.49942742309571,18.6638,85.42012742309569,18.5123,85.4392274230957,18.3079C85.4579274230957,18.1084,85.5590274230957,17.9794,85.6145274230957,17.9224C85.6677274230957,17.8679,85.7133274230957,17.8429,85.71612742309571,17.8414C85.72372742309571,17.8371,85.7198274230957,17.8399,85.6965274230957,17.8498C85.6744274230957,17.8592,85.6436274230957,17.8714,85.60052742309571,17.8874C85.51232742309571,17.9201,85.3994274230957,17.959,85.24602742309571,18.0121C85.09622742309571,18.064,84.91642742309571,18.1266,84.7070274230957,18.2027C84.7070274230957,18.2027,85.1855274230957,19.5184,85.1855274230957,19.5184C85.3843274230957,19.4461,85.5562274230957,19.3863,85.7044274230957,19.3349C85.8494274230957,19.2847,85.9810274230957,19.2394,86.0871274230957,19.2C86.18512742309571,19.1637,86.30412742309571,19.1172,86.40602742309571,19.0595C86.4570274230957,19.0306,86.5390274230957,18.9797,86.6171274230957,18.8996C86.69752742309569,18.817,86.8123274230957,18.6629,86.83332742309571,18.4379C86.8546274230957,18.208,86.7670274230957,18.0305,86.6939274230957,17.9277C86.6255274230957,17.8317,86.5477274230957,17.7676,86.5021274230957,17.7329C86.4111274230957,17.6639,86.30332742309571,17.6051,86.2265274230957,17.5642C86.0443274230957,17.4669,85.83762742309571,17.3661,85.55172742309571,17.1992C85.55172742309571,17.1992,84.84622742309571,18.4085,84.84622742309571,18.4085C84.84622742309571,18.4085,84.84622742309571,18.4085,84.84622742309571,18.4085ZM84.7070274230957,18.2027C83.8272274230957,18.5226,82.7347274230957,19.0327,81.7731274230957,19.7075C80.82732742309571,20.3713,79.9179274230957,21.2577,79.5502274230957,22.3604C79.5502274230957,22.3604,80.8783274230957,22.8032,80.8783274230957,22.8032C81.10562742309571,22.1217,81.7247274230957,21.452,82.5776274230957,20.8534C83.4145274230957,20.2659,84.39062742309571,19.8075,85.1855274230957,19.5184C85.1855274230957,19.5184,84.7070274230957,18.2027,84.7070274230957,18.2027C84.7070274230957,18.2027,84.7070274230957,18.2027,84.7070274230957,18.2027Z" fill="#004CA4" fill-opacity="1"/></g></svg>