<svg xmlns="http://www.w3.org/2000/svg" xmlns:xlink="http://www.w3.org/1999/xlink" fill="none" version="1.1" width="294.6600341796875" height="99.6722412109375" viewBox="0 0 294.6600341796875 99.6722412109375"><g><g><path d="M68.99981189453125,8.07031L68.99981189453125,12.4922L67.42169189453125,12.4922L67.42169189453125,0.367188L70.43731189453125,0.367188Q72.29669189453125,0.367188,73.14825189453126,0.785156Q73.99981189453125,1.20312,74.45294189453125,2.00781Q74.90607189453125,2.8125,74.90607189453125,3.80469Q74.90607189453125,4.96875,74.29669189453125,5.97656Q73.68731189453125,6.98438,72.59747189453125,7.52734Q71.50763189453124,8.07031,69.64044189453125,8.07031L68.99981189453125,8.07031ZM68.99981189453125,6.85938L69.67950189453126,6.85938Q71.14044189453125,6.85938,71.85138189453124,6.47998Q72.56231189453125,6.10046,72.94513189453124,5.38855Q73.32794189453125,4.67651,73.32794189453125,3.84705Q73.32794189453125,2.79871,72.64435189453125,2.18848Q71.96075189453126,1.57812,69.94513189453124,1.57812L68.99981189453125,1.57812L68.99981189453125,6.85938ZM78.39049189453125,7.33594L78.39049189453125,12.4922L76.81231189453125,12.4922L76.81231189453125,0.367188L80.05449189453125,0.367188Q81.64049189453125,0.367188,82.39049189453125,0.691162Q83.14049189453125,1.01514,83.55059189453125,1.6709Q83.96079189453125,2.32666,83.96079189453125,3.08386Q83.96079189453125,3.7865,83.68729189453126,4.49695Q83.41389189453125,5.20728,82.93339189453125,5.7655Q82.45289189453125,6.32361,81.54669189453125,6.82324L85.05449189453125,12.4922L83.17949189453125,12.4922L79.96859189453124,7.33594L78.39049189453125,7.33594ZM78.39049189453125,6.125L80.60139189453125,6.125Q81.34359189453124,5.71802,81.70689189453125,5.29541Q82.07009189453125,4.8728,82.25759189453125,4.39551Q82.44509189453125,3.91809,82.44509189453125,3.44067Q82.44509189453125,2.58765,81.82399189453125,2.08289Q81.20289189453125,1.57812,79.57009189453125,1.57812L78.39049189453125,1.57812L78.39049189453125,6.125ZM90.04669189453125,12.8594Q87.98419189453125,12.8594,86.89439189453125,11.1201Q85.80449189453125,9.38074,85.80449189453125,6.42578Q85.80449189453125,3.47864,86.89439189453125,1.73938Q87.98419189453125,0,90.04669189453125,0Q92.11699189453125,0,93.20289189453125,1.73938Q94.28889189453125,3.47864,94.28889189453125,6.42578Q94.28889189453125,9.38074,93.20289189453125,11.1201Q92.11699189453125,12.8594,90.04669189453125,12.8594ZM90.04669189453125,11.6484Q91.18729189453126,11.6484,91.94899189453125,10.3535Q92.71079189453125,9.05859,92.71079189453125,6.42969Q92.71079189453125,3.80078,91.94899189453125,2.50586Q91.18729189453126,1.21094,90.04669189453125,1.21094Q88.90609189453124,1.21094,88.14439189453125,2.50586Q87.38259189453125,3.80078,87.38259189453125,6.42969Q87.38259189453125,9.05859,88.14439189453125,10.3535Q88.90609189453124,11.6484,90.04669189453125,11.6484ZM95.71079189453125,12.2306L95.71079189453125,10.7487Q97.41389189453125,11.6484,98.56229189453126,11.6484Q99.16389189453125,11.6484,99.65999189453126,11.4137Q100.15609189453124,11.179,100.44899189453125,10.6273Q100.74199189453125,10.0757,100.74199189453125,8.26819L100.74199189453125,1.57812L98.01549189453125,1.57812L98.01549189453125,0.367188L102.32009189453126,0.367188L102.32009189453126,8.30469Q102.32009189453126,10.2422,101.87869189453124,11.0938Q101.43729189453126,11.9453,100.64049189453125,12.4023Q99.84359189453124,12.8594,98.60139189453125,12.8594Q97.21079189453125,12.8594,95.71079189453125,12.2306ZM112.58579189453124,11.1562L112.58579189453124,12.4922L106.03889189453125,12.4922L106.03889189453125,0.367188L112.46079189453124,0.367188L112.46079189453124,1.58594L107.61699189453125,1.58594L107.61699189453125,5.70312L111.97639189453125,5.70312L111.97639189453125,6.91406L107.61699189453125,6.91406L107.61699189453125,11.1562L112.58579189453124,11.1562ZM122.55449189453125,12.3516Q121.19509189453126,12.8594,120.11699189453125,12.8594Q118.69509189453126,12.8594,117.49979189453126,12.0977Q116.30449189453125,11.3359,115.64049189453125,9.83203Q114.97639189453125,8.32812,114.97639189453125,6.42969Q114.97639189453125,4.54688,115.63259189453126,3.04688Q116.28889189453125,1.54688,117.48419189453125,0.773438Q118.67949189453125,0,120.11699189453125,0Q121.19509189453126,0,122.55449189453125,0.504517L122.55449189453125,1.94202Q121.29669189453125,1.21094,120.05449189453125,1.21094Q119.11699189453125,1.21094,118.33969189453126,1.85205Q117.56229189453126,2.49316,117.08579189453124,3.73242Q116.60919189453125,4.97156,116.60919189453125,6.42578Q116.60919189453125,7.90344,117.10139189453125,9.15442Q117.59359189453124,10.4053,118.35919189453125,11.0269Q119.12479189453126,11.6484,120.05449189453125,11.6484Q121.28889189453125,11.6484,122.55449189453125,10.9219L122.55449189453125,12.3516ZM127.66389189453125,12.4922L127.66389189453125,1.70312L124.03109189453124,1.70312L124.03109189453124,0.367188L132.88259189453123,0.367188L132.88259189453123,1.70312L129.24199189453125,1.70312L129.24199189453125,12.4922L127.66389189453125,12.4922ZM149.74199189453125,11.4758Q148.96859189453124,12.2888,148.21469189453126,12.5741Q147.46079189453127,12.8594,146.58579189453127,12.8594Q144.91389189453125,12.8594,143.89439189453125,11.9141Q142.87479189453126,10.9688,142.87479189453126,9.5Q142.87479189453126,7.44531,145.01549189453124,5.66406Q144.37479189453126,4.85938,144.05059189453124,4.16016Q143.72639189453125,3.46094,143.72639189453125,2.85938Q143.72639189453125,2.13281,144.10919189453125,1.44531Q144.49199189453125,0.757812,145.16389189453125,0.382812Q145.83579189453127,0.0078125,146.64829189453127,0.0078125Q147.72639189453125,0.0078125,148.45289189453126,0.585571Q149.17949189453125,1.16321,149.17949189453125,2.2406Q149.17949189453125,3.02905,148.73809189453124,3.81763Q148.29669189453125,4.60608,146.90609189453124,5.66003L149.67169189453125,9.06763Q149.78889189453125,8.67737,149.82399189453125,8.42761Q149.85919189453125,8.17786,149.88259189453123,7.51453Q149.90609189453124,6.85107,149.90609189453124,6.69495L149.90609189453124,6.3125L151.35919189453125,6.3125L151.35919189453125,6.67932Q151.35919189453125,7.19434,151.24979189453126,8.1582Q151.14049189453124,9.12195,150.59359189453124,10.2067L152.45289189453126,12.4922L150.59359189453124,12.4922L149.74199189453125,11.4758ZM146.14829189453127,4.74316Q146.93729189453126,4.18835,147.39829189453127,3.52808Q147.85919189453125,2.86768,147.85919189453125,2.3363Q147.85919189453125,1.82837,147.53499189453123,1.46497Q147.21079189453127,1.10156,146.52329189453127,1.10156Q145.92949189453125,1.10156,145.55449189453125,1.53906Q145.17949189453125,1.97656,145.17949189453125,2.60938Q145.17949189453125,2.96094,145.27329189453127,3.32422Q145.36699189453125,3.6875,145.97639189453125,4.50781Q146.03109189453124,4.5863,146.14829189453127,4.74316ZM148.93729189453126,10.5055L145.77329189453127,6.61682Q144.28889189453125,7.89819,144.28889189453125,9.38269Q144.28889189453125,10.3983,144.96859189453124,11.0234Q145.64829189453127,11.6484,146.61699189453125,11.6484Q147.13259189453123,11.6484,147.65609189453124,11.4684Q148.17949189453125,11.2883,148.93729189453126,10.5055ZM170.56269189453127,12.4844Q169.28069189453123,12.8594,168.21069189453124,12.8594Q166.69509189453123,12.8594,165.51149189453125,12.1094Q164.32789189453126,11.3594,163.65609189453124,9.84766Q162.98419189453125,8.33594,162.98419189453125,6.42969Q162.98419189453125,4.54688,163.64049189453124,3.04688Q164.29669189453125,1.54688,165.49199189453125,0.773438Q166.68729189453126,0,168.11669189453124,0Q169.19469189453125,0,170.55469189453123,0.504517L170.55469189453123,1.94202Q169.29669189453125,1.21094,168.05469189453123,1.21094Q167.11699189453125,1.21094,166.33969189453126,1.85205Q165.56229189453126,2.49316,165.08969189453126,3.73242Q164.61699189453125,4.97156,164.61699189453125,6.44141Q164.61699189453125,8.41162,165.51549189453124,10.03Q166.41389189453125,11.6484,168.35169189453126,11.6484Q168.60169189453126,11.6484,168.98369189453126,11.6094L168.98369189453126,7.70312L167.77369189453125,7.70312L167.77369189453125,6.49219L170.56269189453127,6.49219L170.56269189453127,12.4844ZM173.43769189453127,12.4922L171.92169189453125,12.4922L175.65569189453123,0.367188L177.25769189453126,0.367188L181.01569189453124,12.4922L179.35169189453126,12.4922L178.52369189453125,9.82812L174.25769189453126,9.82812L173.43769189453127,12.4922ZM174.63269189453126,8.61719L178.17169189453125,8.61719L176.71069189453124,4.01599L176.36669189453124,2.80176L176.06269189453127,4.01611L174.63269189453126,8.61719ZM189.52369189453125,11.1562L189.52369189453125,12.4922L182.97669189453126,12.4922L182.97669189453126,0.367188L184.55469189453123,0.367188L184.55469189453123,11.1562L189.52369189453125,11.1562ZM199.12469189453125,11.1562L199.12469189453125,12.4922L192.57769189453126,12.4922L192.57769189453126,0.367188L194.15569189453123,0.367188L194.15569189453123,11.1562L199.12469189453125,11.1562ZM208.60169189453126,11.1562L208.60169189453126,12.4922L202.05469189453126,12.4922L202.05469189453126,0.367188L208.47669189453126,0.367188L208.47669189453126,1.58594L203.63269189453126,1.58594L203.63269189453126,5.70312L207.99169189453124,5.70312L207.99169189453124,6.91406L203.63269189453126,6.91406L203.63269189453126,11.1562L208.60169189453126,11.1562ZM212.81269189453124,7.33594L212.81269189453124,12.4922L211.23369189453126,12.4922L211.23369189453126,0.367188L214.47669189453126,0.367188Q216.06269189453124,0.367188,216.81269189453124,0.691162Q217.56269189453124,1.01514,217.97269189453124,1.6709Q218.38269189453126,2.32666,218.38269189453126,3.08386Q218.38269189453126,3.7865,218.10969189453124,4.49695Q217.83569189453124,5.20728,217.35569189453125,5.7655Q216.87469189453125,6.32361,215.96869189453125,6.82324L219.47669189453126,12.4922L217.60169189453126,12.4922L214.39069189453124,7.33594L212.81269189453124,7.33594ZM212.81269189453124,6.125L215.02369189453125,6.125Q215.76569189453124,5.71802,216.12869189453124,5.29541Q216.49169189453124,4.8728,216.67969189453126,4.39551Q216.86669189453124,3.91809,216.86669189453124,3.44067Q216.86669189453124,2.58765,216.24569189453126,2.08289Q215.62469189453125,1.57812,213.99169189453124,1.57812L212.81269189453124,1.57812L212.81269189453124,6.125ZM223.68769189453124,12.4922L223.68769189453124,6.88281L220.07769189453126,0.367188L221.86669189453124,0.367188L224.56269189453124,5.17969L227.24969189453125,0.367188L228.86669189453124,0.367188L225.26569189453124,6.88281L225.26569189453124,12.4922L223.68769189453124,12.4922Z" fill="#3D3D3D" fill-opacity="1"/></g><g><path d="M14.76,93.37223144531251L14.76,91.0922314453125L43.5,91.0922314453125L43.5,93.37223144531251L14.76,93.37223144531251ZM0,87.8522314453125C2.52,86.5922314453125,4.86,85.2122314453125,7.02,83.7122314453125L7.02,99.3122314453125L51.24,99.3122314453125L51.24,70.5122314453125L20.34,70.5122314453125C20.82,69.7922314453125,21.3,69.1322314453125,21.72,68.4122314453125L54.66,68.4122314453125L54.66,62.4722314453125L24.9,62.4722314453125C25.26,61.6922314453125,25.56,60.9722314453125,25.86,60.1922314453125L50.76,60.1922314453125L50.76,54.3722314453125L27.72,54.3722314453125L28.26,51.9122314453125C36.54,51.6122314453125,44.88,51.2522314453125,53.28,50.7722314453125L53.28,44.7722324453125C36.06,45.7322314453125,19.14,46.2122314453125,2.04,46.2122314453125L2.04,52.2722314453125C8.34,52.2722314453125,14.58,52.2122314453125,20.82,52.0922314453125C20.64,52.8722314453125,20.4,53.5922314453125,20.16,54.3722314453125L4.56,54.3722314453125L4.56,60.1922314453125L17.88,60.1922314453125C17.52,60.9722314453125,17.16,61.7522314453125,16.74,62.4722314453125L0.66,62.4722314453125L0.66,68.4122314453125L12.72,68.4122314453125C9.36,72.5522314453125,5.16,76.1522314453125,0,79.2722314453125L0,87.8522314453125ZM14.76,85.93223144531251L14.76,83.8322314453125L43.5,83.8322314453125L43.5,85.93223144531251L14.76,85.93223144531251ZM14.76,78.67223144531249L14.76,77.2322314453125C15.06,76.9922314453125,15.3,76.6922314453125,15.6,76.3922314453125L43.5,76.3922314453125L43.5,78.67223144531249L14.76,78.67223144531249ZM74.76,93.37223144531251L74.76,91.0922314453125L103.5,91.0922314453125L103.5,93.37223144531251L74.76,93.37223144531251ZM60,87.8522314453125C62.52,86.5922314453125,64.86,85.2122314453125,67.02,83.7122314453125L67.02,99.3122314453125L111.24,99.3122314453125L111.24,70.5122314453125L80.34,70.5122314453125C80.82,69.7922314453125,81.3,69.1322314453125,81.72,68.4122314453125L114.66,68.4122314453125L114.66,62.4722314453125L84.9,62.4722314453125C85.26,61.6922314453125,85.56,60.9722314453125,85.86,60.1922314453125L110.76,60.1922314453125L110.76,54.3722314453125L87.72,54.3722314453125L88.26,51.9122314453125C96.54,51.6122314453125,104.88,51.2522314453125,113.28,50.7722314453125L113.28,44.7722324453125C96.06,45.7322314453125,79.14,46.2122314453125,62.04,46.2122314453125L62.04,52.2722314453125C68.34,52.2722314453125,74.58,52.2122314453125,80.82,52.0922314453125C80.64,52.8722314453125,80.4,53.5922314453125,80.16,54.3722314453125L64.56,54.3722314453125L64.56,60.1922314453125L77.88,60.1922314453125C77.52,60.9722314453125,77.16,61.7522314453125,76.74,62.4722314453125L60.66,62.4722314453125L60.66,68.4122314453125L72.72,68.4122314453125C69.36,72.5522314453125,65.16,76.1522314453125,60,79.2722314453125L60,87.8522314453125ZM74.76,85.93223144531251L74.76,83.8322314453125L103.5,83.8322314453125L103.5,85.93223144531251L74.76,85.93223144531251ZM74.76,78.67223144531249L74.76,77.2322314453125C75.06,76.9922314453125,75.3,76.6922314453125,75.6,76.3922314453125L103.5,76.3922314453125L103.5,78.67223144531249L74.76,78.67223144531249ZM120.06,65.7722314453125L120.06,77.7122314453125C122.16,75.9122314453125,124.02,73.9322314453125,125.76,71.7722314453125L125.76,99.4922314453125L133.5,99.4922314453125L133.5,57.8522314453125C134.88,54.0722314453125,135.96,49.932231445312496,136.68,45.4922314453125L129.12,45.4922314453125C127.5,53.3522314453125,124.56,60.1922314453125,120.06,65.7722314453125ZM134.46,69.6122314453125L142.8,69.6122314453125C144.24,65.7122314453125,145.5,61.6922314453125,146.52,57.5522314453125L148.98,57.5522314453125L148.98,99.4922314453125L156.78,99.4922314453125L156.78,88.8122314453125L172.68,88.8122314453125L172.68,81.1322314453125L156.78,81.1322314453125L156.78,73.2722314453125L172.68,73.2722314453125L172.68,65.5922314453125L156.78,65.5922314453125L156.78,57.5522314453125L174.66,57.5522314453125L174.66,49.8122314453125L148.32,49.8122314453125C148.62,48.3722314453125,148.92,46.9322314453125,149.16,45.4922314453125L141.66,45.4922314453125C139.98,53.4722314453125,137.58,61.5122314453125,134.46,69.6122314453125ZM230.04,46.2122314453125L230.04,68.2922314453125L185.28,68.2922314453125L185.28,46.2122314453125L230.04,46.2122314453125ZM181.08,98.89223144531249L181.08,72.0722314453125L205.86,72.0722314453125L205.86,98.89223144531249L181.08,98.89223144531249ZM188.58,91.2722314453125L198.36,91.2722314453125L198.36,79.6922314453125L188.58,79.6922314453125L188.58,91.2722314453125ZM193.14,60.8522314453125L222.18,60.8522314453125L222.18,53.6522314453125L193.14,53.6522314453125L193.14,60.8522314453125ZM209.46,98.89223144531249L209.46,72.0722314453125L234.24,72.0722314453125L234.24,98.89223144531249L209.46,98.89223144531249ZM216.96,91.2722314453125L226.74,91.2722314453125L226.74,79.6922314453125L216.96,79.6922314453125L216.96,91.2722314453125ZM240.66,87.1322314453125L250.5,87.1322314453125C248.34,89.4722314453125,245.04,91.0922314453125,240.66,92.0522314453125L240.66,99.67223144531249C250.56,97.5122314453125,256.74,93.3122314453125,259.38,87.1322314453125L263.82,87.1322314453125L263.82,99.4922314453125L271.5,99.4922314453125L271.5,87.1322314453125L275.94,87.1322314453125C278.58,93.3122314453125,284.76,97.5122314453125,294.66,99.67223144531249L294.66,92.0522314453125C290.28,91.0922314453125,286.98,89.4722314453125,284.82,87.1322314453125L294.66,87.1322314453125L294.66,79.93223144531251L271.62,79.93223144531251L271.62,76.93223144531251L294.36,76.93223144531251L294.36,71.1122314453125L276.48,71.1122314453125L276.48,68.4722314453125L291.96,68.4722314453125L291.96,63.0722314453125L276.48,63.0722314453125L276.48,60.432231445312496L291.96,60.432231445312496L291.96,55.0322314453125L276.48,55.0322314453125L276.48,52.4522314453125L293.76,52.4522314453125L293.76,46.6322314453125L276.48,46.6322314453125L276.48,44.4122314453125L268.56,44.4122314453125L268.56,46.6322314453125L255.42,46.6322314453125L255.96,44.4122314453125L248.82,44.4122314453125C247.14,50.1722314453125,244.2,54.8522314453125,240.06,58.2722314453125L240.06,67.87223144531251C241.98,66.6722314453125,243.72,65.3522314453125,245.34,63.8522314453125L245.34,76.93223144531251L263.7,76.93223144531251L263.7,79.93223144531251L240.66,79.93223144531251L240.66,87.1322314453125ZM253.14,71.1122314453125L253.14,68.4722314453125L268.56,68.4722314453125L268.56,71.1122314453125L253.14,71.1122314453125ZM253.14,63.0722314453125L253.14,60.432231445312496L268.56,60.432231445312496L268.56,63.0722314453125L253.14,63.0722314453125ZM253.14,55.0322314453125L253.14,53.0522314453125C253.26,52.8722314453125,253.32,52.6322314453125,253.44,52.4522314453125L268.56,52.4522314453125L268.56,55.0322314453125L253.14,55.0322314453125Z" fill="#004CA4" fill-opacity="1"/></g></g></svg>