<?xml version="1.0" encoding="utf-8"?>
<svg version="1.1" xmlns:xlink="http://www.w3.org/1999/xlink" width="80px" height="60px" xmlns="http://www.w3.org/2000/svg">
  <g transform="matrix(1 0 0 1 -7 -2240 )">
    <path d="M 9 2268  A 26 26 0 0 1 35 2242 L 59 2242  A 26 26 0 0 1 85 2268 L 85 2272  A 26 26 0 0 1 59 2298 L 35 2298  A 26 26 0 0 1 9 2272 L 9 2268  Z " fill-rule="nonzero" fill="#004ca4" stroke="none" fill-opacity="0.898039215686275" />
    <path d="M 8 2268  A 27 27 0 0 1 35 2241 L 59 2241  A 27 27 0 0 1 86 2268 L 86 2272  A 27 27 0 0 1 59 2299 L 35 2299  A 27 27 0 0 1 8 2272 L 8 2268  Z " stroke-width="2" stroke="#000000" fill="none" stroke-opacity="0.0980392156862745" />
  </g>
</svg>