<?xml version="1.0" encoding="utf-8"?>
<svg version="1.1" xmlns:xlink="http://www.w3.org/1999/xlink" width="100px" height="60px" xmlns="http://www.w3.org/2000/svg">
  <g transform="matrix(1 0 0 1 -10 -2240 )">
    <path d="M 12 2270  A 28 28 0 0 1 40 2242 L 80 2242  A 28 28 0 0 1 108 2270 A 28 28 0 0 1 80 2298 L 40 2298  A 28 28 0 0 1 12 2270 Z " fill-rule="nonzero" fill="#004ca4" stroke="none" fill-opacity="0.898039215686275" />
    <path d="M 11 2270  A 29 29 0 0 1 40 2241 L 80 2241  A 29 29 0 0 1 109 2270 A 29 29 0 0 1 80 2299 L 40 2299  A 29 29 0 0 1 11 2270 Z " stroke-width="2" stroke="#000000" fill="none" stroke-opacity="0.0980392156862745" />
  </g>
</svg>