<?xml version="1.0" encoding="utf-8"?>
<svg version="1.1" xmlns:xlink="http://www.w3.org/1999/xlink" width="190px" height="60px" xmlns="http://www.w3.org/2000/svg">
  <g transform="matrix(1 0 0 1 -176 -2210 )">
    <path d="M 178 2240  A 28 28 0 0 1 206 2212 L 336 2212  A 28 28 0 0 1 364 2240 A 28 28 0 0 1 336 2268 L 206 2268  A 28 28 0 0 1 178 2240 Z " fill-rule="nonzero" fill="#004ca4" stroke="none" fill-opacity="0.898039215686275" />
    <path d="M 177 2240  A 29 29 0 0 1 206 2211 L 336 2211  A 29 29 0 0 1 365 2240 A 29 29 0 0 1 336 2269 L 206 2269  A 29 29 0 0 1 177 2240 Z " stroke-width="2" stroke="#000000" fill="none" stroke-opacity="0.0980392156862745" />
  </g>
</svg>