<svg xmlns="http://www.w3.org/2000/svg" xmlns:xlink="http://www.w3.org/1999/xlink" fill="none" version="1.1" width="20" height="20" viewBox="0 0 20 20"><defs><clipPath id="master_svg0_32_14985"><rect x="0" y="0" width="20" height="20" rx="0"/></clipPath></defs><g clip-path="url(#master_svg0_32_14985)"><g><path d="M12.5,1.25L12.5,3.75C12.49959,5.05828,13.5079,6.14563,14.8125,6.24375L15,6.25L17.5,6.25L17.5,17.5C17.5,18.1904,16.9404,18.75,16.25,18.75L3.75,18.75C3.059644,18.75,2.5,18.1904,2.5,17.5L2.5,2.5C2.499999809265,1.809644,3.059644,1.25,3.75,1.25L12.5,1.25ZM13.125,12.5L6.875,12.5C6.52982,12.5,6.25,12.7798,6.25,13.125C6.25,13.4702,6.52982,13.75,6.875,13.75L13.125,13.75C13.4702,13.75,13.75,13.4702,13.75,13.125C13.75,12.7798,13.4702,12.5,13.125,12.5ZM13.125,7.5L6.875,7.5C6.52982,7.5,6.25,7.77982,6.25,8.125C6.25,8.47018,6.52982,8.75,6.875,8.75L13.125,8.75C13.4702,8.75,13.75,8.47018,13.75,8.125C13.75,7.77982,13.4702,7.5,13.125,7.5ZM13.75,1.25L17.5,5L15,5C14.3663,4.9999199999999995,13.8329,4.52562,13.7588,3.89625L13.75,3.75L13.75,1.25Z" fill="#FFFFFF" fill-opacity="1"/></g></g></svg>