<svg xmlns="http://www.w3.org/2000/svg" xmlns:xlink="http://www.w3.org/1999/xlink" fill="none" version="1.1" width="109.36800384521484" height="25.760000228881836" viewBox="0 0 109.36800384521484 25.760000228881836"><g><path d="M1.904,19.012L5.516,19.012L5.516,9.8L19.74,9.8L19.74,19.012L23.352,19.012L23.352,6.216L14.476,6.216L14.476,4.088L25.228,4.088L25.228,0.532L0.028,0.532L0.028,4.088L10.78,4.088L10.78,6.216L1.904,6.216L1.904,19.012ZM0,25.76C10.052,23.688,14.644,19.068,14.644,11.2L11.06,11.2C11.06,17.668,6.916,20.552,0,22.12L0,25.76ZM13.328,21.84L25.228,25.76L25.228,22.12L13.328,18.2L13.328,21.84ZM28.868,6.608L28.868,25.06L52.388,25.06L52.388,6.608L41.832,6.608L42.336,4.368L53.452,4.368L53.452,0.784L27.804,0.784L27.804,4.368L38.584,4.368L38.08,6.608L28.868,6.608ZM32.452,21.532L32.452,10.192L34.888,10.192L34.888,21.532L32.452,21.532ZM38.416,21.532L38.416,19.628L42.84,19.628L42.84,21.532L38.416,21.532ZM38.416,16.828L38.416,14.868L42.84,14.868L42.84,16.828L38.416,16.828ZM38.416,12.068L38.416,10.192L42.84,10.192L42.84,12.068L38.416,12.068ZM46.368,21.532L46.368,10.192L48.804,10.192L48.804,21.532L46.368,21.532ZM70.056,25.48L77.504,25.48L78.036,11.256C79.1,11.956,80.248,12.544,81.508,13.076L81.508,8.82C77.756,7.056,75.488,4.256,74.312,0L70.532,0C71.512,4.452,73.668,8.008,77.028,10.556L60.228,10.556C63.588,8.008,65.744,4.452,66.724,0L62.944,0C61.768,4.256,59.5,7.056,55.748,8.82L55.748,13.076C57.148,12.516,58.408,11.844,59.528,11.06L59.528,14.14L64.092,14.14C63.112,18.06,60.592,20.72,56.588,21.84L56.588,25.592C62.636,24.164,66.36,20.16,67.704,14.14L74.256,14.14L73.92,21.924L70.056,21.924L70.056,25.48ZM93.912,25.48L97.636,25.48C98.7,22.008,99.148,18.34,99.148,14.616L99.148,11.228L103.88,11.228L103.88,25.48L107.408,25.48L107.408,11.228L109.368,11.228L109.368,7.7L99.148,7.7L99.148,4.312C102.536,4.228,106.204,4.004,108.584,3.64L108.584,0.112C105.168,0.587999,99.54,0.84,95.732,0.84L95.732,14.616C95.732,18.452,95.396,21.812,93.912,25.48ZM83.552,24.024L86.716,24.024C87.752,18.536,88.032,12.852,88.032,7.784L85.064,7.784C85.064,13.58,84.56,18.984,83.552,24.024ZM84.056,6.636L88.704,6.636L88.704,25.48L92.288,25.48L92.288,14.308L94.276,15.708L94.276,11.48L92.288,10.08L92.288,6.636L94.668,6.636L94.668,3.164L92.092,3.164L92.092,0.139999L88.396,0.139999L88.396,3.164L84.056,3.164L84.056,6.636Z" fill="#333333" fill-opacity="1"/></g></svg>