<?xml version="1.0" encoding="utf-8"?>
<svg version="1.1" xmlns:xlink="http://www.w3.org/1999/xlink" width="653px" height="91px" xmlns="http://www.w3.org/2000/svg">
  <defs>
    <filter x="46px" y="4400px" width="653px" height="91px" filterUnits="userSpaceOnUse" id="filter2001">
      <feOffset dx="1" dy="1" in="SourceAlpha" result="shadowOffsetInner" />
      <feGaussianBlur stdDeviation="2" in="shadowOffsetInner" result="shadowGaussian" />
      <feComposite in2="shadowGaussian" operator="atop" in="SourceAlpha" result="shadowComposite" />
      <feColorMatrix type="matrix" values="0 0 0 0 0  0 0 0 0 0.301960784313725  0 0 0 0 0.454901960784314  0 0 0 0.0588235294117647 0  " in="shadowComposite" />
    </filter>
    <g id="widget2002">
      <path d="M 50 4413  A 9 9 0 0 1 59 4404 L 684 4404  A 9 9 0 0 1 693 4413 L 693 4476  A 9 9 0 0 1 684 4485 L 59 4485  A 9 9 0 0 1 50 4476 L 50 4413  Z " fill-rule="nonzero" fill="#81d3f8" stroke="none" fill-opacity="0.6" />
      <path d="M 49.5 4413  A 9.5 9.5 0 0 1 59 4403.5 L 684 4403.5  A 9.5 9.5 0 0 1 693.5 4413 L 693.5 4476  A 9.5 9.5 0 0 1 684 4485.5 L 59 4485.5  A 9.5 9.5 0 0 1 49.5 4476 L 49.5 4413  Z " stroke-width="1" stroke-dasharray="9,4,2,4,2,4" stroke="#02a7f0" fill="none" stroke-dashoffset="0.5" />
    </g>
  </defs>
  <g transform="matrix(1 0 0 1 -46 -4400 )">
    <use xlink:href="#widget2002" filter="url(#filter2001)" />
    <use xlink:href="#widget2002" />
  </g>
</svg>