<?xml version="1.0" encoding="utf-8"?>
<svg version="1.1" xmlns:xlink="http://www.w3.org/1999/xlink" width="407px" height="91px" xmlns="http://www.w3.org/2000/svg">
  <defs>
    <filter x="39px" y="4398px" width="407px" height="91px" filterUnits="userSpaceOnUse" id="filter2030">
      <feOffset dx="1" dy="1" in="SourceAlpha" result="shadowOffsetInner" />
      <feGaussianBlur stdDeviation="2" in="shadowOffsetInner" result="shadowGaussian" />
      <feComposite in2="shadowGaussian" operator="atop" in="SourceAlpha" result="shadowComposite" />
      <feColorMatrix type="matrix" values="0 0 0 0 0  0 0 0 0 0.301960784313725  0 0 0 0 0.454901960784314  0 0 0 0.0588235294117647 0  " in="shadowComposite" />
    </filter>
    <g id="widget2031">
      <path d="M 43 4411  A 9 9 0 0 1 52 4402 L 431 4402  A 9 9 0 0 1 440 4411 L 440 4474  A 9 9 0 0 1 431 4483 L 52 4483  A 9 9 0 0 1 43 4474 L 43 4411  Z " fill-rule="nonzero" fill="#81d3f8" stroke="none" fill-opacity="0.6" />
      <path d="M 42.5 4411  A 9.5 9.5 0 0 1 52 4401.5 L 431 4401.5  A 9.5 9.5 0 0 1 440.5 4411 L 440.5 4474  A 9.5 9.5 0 0 1 431 4483.5 L 52 4483.5  A 9.5 9.5 0 0 1 42.5 4474 L 42.5 4411  Z " stroke-width="1" stroke-dasharray="9,4,2,4,2,4" stroke="#02a7f0" fill="none" stroke-dashoffset="0.5" />
    </g>
  </defs>
  <g transform="matrix(1 0 0 1 -39 -4398 )">
    <use xlink:href="#widget2031" filter="url(#filter2030)" />
    <use xlink:href="#widget2031" />
  </g>
</svg>