<?xml version="1.0" encoding="utf-8"?>
<svg version="1.1" xmlns:xlink="http://www.w3.org/1999/xlink" width="376px" height="140px" xmlns="http://www.w3.org/2000/svg">
  <defs>
    <filter x="53px" y="8204px" width="376px" height="140px" filterUnits="userSpaceOnUse" id="filter12655">
      <feOffset dx="1" dy="1" in="SourceAlpha" result="shadowOffsetInner" />
      <feGaussianBlur stdDeviation="2" in="shadowOffsetInner" result="shadowGaussian" />
      <feComposite in2="shadowGaussian" operator="atop" in="SourceAlpha" result="shadowComposite" />
      <feColorMatrix type="matrix" values="0 0 0 0 0  0 0 0 0 0.301960784313725  0 0 0 0 0.454901960784314  0 0 0 0.0588235294117647 0  " in="shadowComposite" />
    </filter>
    <g id="widget12656">
      <path d="M 57 8217  A 9 9 0 0 1 66 8208 L 414 8208  A 9 9 0 0 1 423 8217 L 423 8329  A 9 9 0 0 1 414 8338 L 66 8338  A 9 9 0 0 1 57 8329 L 57 8217  Z " fill-rule="nonzero" fill="#81d3f8" stroke="none" fill-opacity="0.6" />
      <path d="M 56.5 8217  A 9.5 9.5 0 0 1 66 8207.5 L 414 8207.5  A 9.5 9.5 0 0 1 423.5 8217 L 423.5 8329  A 9.5 9.5 0 0 1 414 8338.5 L 66 8338.5  A 9.5 9.5 0 0 1 56.5 8329 L 56.5 8217  Z " stroke-width="1" stroke-dasharray="9,4,2,4,2,4" stroke="#02a7f0" fill="none" stroke-dashoffset="0.5" />
    </g>
  </defs>
  <g transform="matrix(1 0 0 1 -53 -8204 )">
    <use xlink:href="#widget12656" filter="url(#filter12655)" />
    <use xlink:href="#widget12656" />
  </g>
</svg>