<?xml version="1.0" encoding="utf-8"?>
<svg version="1.1" xmlns:xlink="http://www.w3.org/1999/xlink" width="338px" height="140px" xmlns="http://www.w3.org/2000/svg">
  <defs>
    <filter x="17px" y="8180px" width="338px" height="140px" filterUnits="userSpaceOnUse" id="filter12692">
      <feOffset dx="1" dy="1" in="SourceAlpha" result="shadowOffsetInner" />
      <feGaussianBlur stdDeviation="2" in="shadowOffsetInner" result="shadowGaussian" />
      <feComposite in2="shadowGaussian" operator="atop" in="SourceAlpha" result="shadowComposite" />
      <feColorMatrix type="matrix" values="0 0 0 0 0  0 0 0 0 0.301960784313725  0 0 0 0 0.454901960784314  0 0 0 0.0588235294117647 0  " in="shadowComposite" />
    </filter>
    <g id="widget12693">
      <path d="M 21 8193  A 9 9 0 0 1 30 8184 L 340 8184  A 9 9 0 0 1 349 8193 L 349 8305  A 9 9 0 0 1 340 8314 L 30 8314  A 9 9 0 0 1 21 8305 L 21 8193  Z " fill-rule="nonzero" fill="#81d3f8" stroke="none" fill-opacity="0.6" />
      <path d="M 20.5 8193  A 9.5 9.5 0 0 1 30 8183.5 L 340 8183.5  A 9.5 9.5 0 0 1 349.5 8193 L 349.5 8305  A 9.5 9.5 0 0 1 340 8314.5 L 30 8314.5  A 9.5 9.5 0 0 1 20.5 8305 L 20.5 8193  Z " stroke-width="1" stroke-dasharray="9,4,2,4,2,4" stroke="#02a7f0" fill="none" stroke-dashoffset="0.5" />
    </g>
  </defs>
  <g transform="matrix(1 0 0 1 -17 -8180 )">
    <use xlink:href="#widget12693" filter="url(#filter12692)" />
    <use xlink:href="#widget12693" />
  </g>
</svg>