<?xml version="1.0" encoding="utf-8"?>
<svg version="1.1" xmlns:xlink="http://www.w3.org/1999/xlink" width="676px" height="117px" xmlns="http://www.w3.org/2000/svg">
  <defs>
    <filter x="47px" y="9102px" width="676px" height="117px" filterUnits="userSpaceOnUse" id="filter7546">
      <feOffset dx="1" dy="1" in="SourceAlpha" result="shadowOffsetInner" />
      <feGaussianBlur stdDeviation="2" in="shadowOffsetInner" result="shadowGaussian" />
      <feComposite in2="shadowGaussian" operator="atop" in="SourceAlpha" result="shadowComposite" />
      <feColorMatrix type="matrix" values="0 0 0 0 0  0 0 0 0 0.301960784313725  0 0 0 0 0.454901960784314  0 0 0 0.0588235294117647 0  " in="shadowComposite" />
    </filter>
    <g id="widget7547">
      <path d="M 51 9115  A 9 9 0 0 1 60 9106 L 708 9106  A 9 9 0 0 1 717 9115 L 717 9204  A 9 9 0 0 1 708 9213 L 60 9213  A 9 9 0 0 1 51 9204 L 51 9115  Z " fill-rule="nonzero" fill="#81d3f8" stroke="none" fill-opacity="0.6" />
      <path d="M 50.5 9115  A 9.5 9.5 0 0 1 60 9105.5 L 708 9105.5  A 9.5 9.5 0 0 1 717.5 9115 L 717.5 9204  A 9.5 9.5 0 0 1 708 9213.5 L 60 9213.5  A 9.5 9.5 0 0 1 50.5 9204 L 50.5 9115  Z " stroke-width="1" stroke-dasharray="9,4,2,4,2,4" stroke="#02a7f0" fill="none" stroke-dashoffset="0.5" />
    </g>
  </defs>
  <g transform="matrix(1 0 0 1 -47 -9102 )">
    <use xlink:href="#widget7547" filter="url(#filter7546)" />
    <use xlink:href="#widget7547" />
  </g>
</svg>