<?xml version="1.0" encoding="utf-8"?>
<svg version="1.1" xmlns:xlink="http://www.w3.org/1999/xlink" width="299px" height="194px" xmlns="http://www.w3.org/2000/svg">
  <defs>
    <filter x="657px" y="7707px" width="299px" height="194px" filterUnits="userSpaceOnUse" id="filter7514">
      <feOffset dx="1" dy="1" in="SourceAlpha" result="shadowOffsetInner" />
      <feGaussianBlur stdDeviation="2" in="shadowOffsetInner" result="shadowGaussian" />
      <feComposite in2="shadowGaussian" operator="atop" in="SourceAlpha" result="shadowComposite" />
      <feColorMatrix type="matrix" values="0 0 0 0 0  0 0 0 0 0.301960784313725  0 0 0 0 0.454901960784314  0 0 0 0.0588235294117647 0  " in="shadowComposite" />
    </filter>
    <g id="widget7515">
      <path d="M 661 7720  A 9 9 0 0 1 670 7711 L 941 7711  A 9 9 0 0 1 950 7720 L 950 7886  A 9 9 0 0 1 941 7895 L 670 7895  A 9 9 0 0 1 661 7886 L 661 7720  Z " fill-rule="nonzero" fill="#81d3f8" stroke="none" fill-opacity="0.6" />
      <path d="M 660.5 7720  A 9.5 9.5 0 0 1 670 7710.5 L 941 7710.5  A 9.5 9.5 0 0 1 950.5 7720 L 950.5 7886  A 9.5 9.5 0 0 1 941 7895.5 L 670 7895.5  A 9.5 9.5 0 0 1 660.5 7886 L 660.5 7720  Z " stroke-width="1" stroke-dasharray="9,4,2,4,2,4" stroke="#02a7f0" fill="none" stroke-dashoffset="0.5" />
    </g>
  </defs>
  <g transform="matrix(1 0 0 1 -657 -7707 )">
    <use xlink:href="#widget7515" filter="url(#filter7514)" />
    <use xlink:href="#widget7515" />
  </g>
</svg>