<svg xmlns="http://www.w3.org/2000/svg" xmlns:xlink="http://www.w3.org/1999/xlink" fill="none" version="1.1" width="35.2080078125" height="36.06787109375" viewBox="0 0 35.2080078125 36.06787109375"><g><g><path d="M29.11005859375,8.85C29.11005859375,3.2,25.66005859375,0,20.11005859375,0C13.61005859375,0,9.26005859375,3.4,8.06005859375,10.2L14.31005859375,10.2C15.11005859375,6.75,17.21005859375,5.55,19.46005859375,5.55C21.61005859375,5.55,22.86005859375,6.85,22.86005859375,9.15C22.86005859375,11.3,21.91005859375,12.6,19.86005859375,14.7L4.46005859375,30.35L3.31005859375,35.9L24.31005859375,35.9L25.46005859375,30.35L12.36005859375,30.35L23.76005859375,18.7C25.81005859375,16.6,29.11005859375,13.7,29.11005859375,8.85Z" fill="#004CA4" fill-opacity="1"/></g><g style="opacity:0.10000000149011612;"><path d="M8.856,31.171968749999998C8.856,28.291968750000002,8.304,27.21196875,6.264,26.37196875L4.248,25.555968749999998C3.048,25.07596875,2.832,24.64396875,2.832,23.25196875C2.832,22.50796875,2.976,21.93196875,3.288,21.57196875C3.552,21.28396875,3.888,21.09196875,4.44,21.09196875C5.016,21.09196875,5.4,21.28396875,5.64,21.59596875C6,22.05196875,6.048,22.65196875,6.048,23.41996875L8.736,23.41996875C8.736,21.78796875,8.424,20.56396875,7.536,19.69996875C6.84,19.02796975,5.832,18.66796875,4.464,18.66796875C3.24,18.66796875,2.28,19.05196975,1.536,19.69996875C0.6,20.53996875,0.144,21.78796875,0.144,23.32396875C0.144,25.96396875,0.792,26.89996875,2.52,27.619968749999998L4.56,28.45996875C5.88,28.98796875,6.168,29.44396875,6.168,31.26796875C6.168,32.17996875,6.072,32.75596875,5.712,33.16396875C5.448,33.47596875,5.04,33.64396875,4.416,33.64396875C3.816,33.64396875,3.408,33.45196875,3.168,33.187968749999996C2.784,32.75596875,2.688,32.17996875,2.688,31.26796875L0,31.26796875C0,33.06796875,0.288,34.12396875,1.104,34.93996875C1.824,35.659968750000004,2.928,36.06796875,4.416,36.06796875C5.928,36.06796875,7.056,35.61196875,7.752,34.93996875C8.616,34.09996875,8.856,32.92396875,8.856,31.171968749999998ZM17.472,21.23596875L17.472,18.81196975L9.048,18.81196975L9.048,21.23596875L11.904,21.23596875L11.904,35.89996875L14.592,35.89996875L14.592,21.23596875L17.472,21.23596875ZM25.392,35.89996875L25.392,33.47596875L20.904,33.47596875L20.904,28.50796875L24.768,28.50796875L24.768,26.08396875L20.904,26.08396875L20.904,21.23596875L25.392,21.23596875L25.392,18.81196975L18.216,18.81196975L18.216,35.89996875L25.392,35.89996875ZM35.208,23.99596875C35.208,20.41996875,33.912,18.81196975,30.816,18.81196975L26.52,18.81196975L26.52,35.89996875L29.208,35.89996875L29.208,29.227968750000002L30.816,29.227968750000002C34.056,29.227968750000002,35.208,27.45196875,35.208,23.99596875ZM32.52,24.01996875C32.52,25.53196875,32.304,26.80396875,30.864,26.80396875L29.208,26.80396875L29.208,21.23596875L30.864,21.23596875C32.304,21.23596875,32.52,22.50796875,32.52,24.01996875Z" fill="#004CA4" fill-opacity="1"/></g></g></svg>