<?xml version="1.0" encoding="utf-8"?>
<svg version="1.1" xmlns:xlink="http://www.w3.org/1999/xlink" width="350px" height="190px" xmlns="http://www.w3.org/2000/svg">
  <defs>
    <filter x="805px" y="7894px" width="350px" height="190px" filterUnits="userSpaceOnUse" id="filter15">
      <feOffset dx="1" dy="1" in="SourceAlpha" result="shadowOffsetInner" />
      <feGaussianBlur stdDeviation="2" in="shadowOffsetInner" result="shadowGaussian" />
      <feComposite in2="shadowGaussian" operator="atop" in="SourceAlpha" result="shadowComposite" />
      <feColorMatrix type="matrix" values="0 0 0 0 0  0 0 0 0 0.301960784313725  0 0 0 0 0.454901960784314  0 0 0 0.0588235294117647 0  " in="shadowComposite" />
    </filter>
    <g id="widget16">
      <path d="M 809 7907  A 9 9 0 0 1 818 7898 L 1140 7898  A 9 9 0 0 1 1149 7907 L 1149 8069  A 9 9 0 0 1 1140 8078 L 818 8078  A 9 9 0 0 1 809 8069 L 809 7907  Z " fill-rule="nonzero" fill="#81d3f8" stroke="none" fill-opacity="0.6" />
      <path d="M 808.5 7907  A 9.5 9.5 0 0 1 818 7897.5 L 1140 7897.5  A 9.5 9.5 0 0 1 1149.5 7907 L 1149.5 8069  A 9.5 9.5 0 0 1 1140 8078.5 L 818 8078.5  A 9.5 9.5 0 0 1 808.5 8069 L 808.5 7907  Z " stroke-width="1" stroke-dasharray="9,4,2,4,2,4" stroke="#02a7f0" fill="none" stroke-dashoffset="0.5" />
    </g>
  </defs>
  <g transform="matrix(1 0 0 1 -805 -7894 )">
    <use xlink:href="#widget16" filter="url(#filter15)" />
    <use xlink:href="#widget16" />
  </g>
</svg>