<?xml version="1.0" encoding="utf-8"?>
<svg version="1.1" xmlns:xlink="http://www.w3.org/1999/xlink" width="376px" height="140px" xmlns="http://www.w3.org/2000/svg">
  <defs>
    <filter x="53px" y="8294px" width="376px" height="140px" filterUnits="userSpaceOnUse" id="filter719">
      <feOffset dx="1" dy="1" in="SourceAlpha" result="shadowOffsetInner" />
      <feGaussianBlur stdDeviation="2" in="shadowOffsetInner" result="shadowGaussian" />
      <feComposite in2="shadowGaussian" operator="atop" in="SourceAlpha" result="shadowComposite" />
      <feColorMatrix type="matrix" values="0 0 0 0 0  0 0 0 0 0.301960784313725  0 0 0 0 0.454901960784314  0 0 0 0.0588235294117647 0  " in="shadowComposite" />
    </filter>
    <g id="widget720">
      <path d="M 57 8307  A 9 9 0 0 1 66 8298 L 414 8298  A 9 9 0 0 1 423 8307 L 423 8419  A 9 9 0 0 1 414 8428 L 66 8428  A 9 9 0 0 1 57 8419 L 57 8307  Z " fill-rule="nonzero" fill="#81d3f8" stroke="none" fill-opacity="0.6" />
      <path d="M 56.5 8307  A 9.5 9.5 0 0 1 66 8297.5 L 414 8297.5  A 9.5 9.5 0 0 1 423.5 8307 L 423.5 8419  A 9.5 9.5 0 0 1 414 8428.5 L 66 8428.5  A 9.5 9.5 0 0 1 56.5 8419 L 56.5 8307  Z " stroke-width="1" stroke-dasharray="9,4,2,4,2,4" stroke="#02a7f0" fill="none" stroke-dashoffset="0.5" />
    </g>
  </defs>
  <g transform="matrix(1 0 0 1 -53 -8294 )">
    <use xlink:href="#widget720" filter="url(#filter719)" />
    <use xlink:href="#widget720" />
  </g>
</svg>