<?xml version="1.0" encoding="utf-8"?>
<svg version="1.1" xmlns:xlink="http://www.w3.org/1999/xlink" width="299px" height="194px" xmlns="http://www.w3.org/2000/svg">
  <defs>
    <filter x="656px" y="7707px" width="299px" height="194px" filterUnits="userSpaceOnUse" id="filter665">
      <feOffset dx="1" dy="1" in="SourceAlpha" result="shadowOffsetInner" />
      <feGaussianBlur stdDeviation="2" in="shadowOffsetInner" result="shadowGaussian" />
      <feComposite in2="shadowGaussian" operator="atop" in="SourceAlpha" result="shadowComposite" />
      <feColorMatrix type="matrix" values="0 0 0 0 0  0 0 0 0 0.301960784313725  0 0 0 0 0.454901960784314  0 0 0 0.0588235294117647 0  " in="shadowComposite" />
    </filter>
    <g id="widget666">
      <path d="M 660 7720  A 9 9 0 0 1 669 7711 L 940 7711  A 9 9 0 0 1 949 7720 L 949 7886  A 9 9 0 0 1 940 7895 L 669 7895  A 9 9 0 0 1 660 7886 L 660 7720  Z " fill-rule="nonzero" fill="#81d3f8" stroke="none" fill-opacity="0.6" />
      <path d="M 659.5 7720  A 9.5 9.5 0 0 1 669 7710.5 L 940 7710.5  A 9.5 9.5 0 0 1 949.5 7720 L 949.5 7886  A 9.5 9.5 0 0 1 940 7895.5 L 669 7895.5  A 9.5 9.5 0 0 1 659.5 7886 L 659.5 7720  Z " stroke-width="1" stroke-dasharray="9,4,2,4,2,4" stroke="#02a7f0" fill="none" stroke-dashoffset="0.5" />
    </g>
  </defs>
  <g transform="matrix(1 0 0 1 -656 -7707 )">
    <use xlink:href="#widget666" filter="url(#filter665)" />
    <use xlink:href="#widget666" />
  </g>
</svg>