<?xml version="1.0" encoding="utf-8"?>
<svg version="1.1" xmlns:xlink="http://www.w3.org/1999/xlink" width="338px" height="91px" xmlns="http://www.w3.org/2000/svg">
  <defs>
    <filter x="17px" y="4548px" width="338px" height="91px" filterUnits="userSpaceOnUse" id="filter130">
      <feOffset dx="1" dy="1" in="SourceAlpha" result="shadowOffsetInner" />
      <feGaussianBlur stdDeviation="2" in="shadowOffsetInner" result="shadowGaussian" />
      <feComposite in2="shadowGaussian" operator="atop" in="SourceAlpha" result="shadowComposite" />
      <feColorMatrix type="matrix" values="0 0 0 0 0  0 0 0 0 0.301960784313725  0 0 0 0 0.454901960784314  0 0 0 0.0588235294117647 0  " in="shadowComposite" />
    </filter>
    <g id="widget131">
      <path d="M 21 4561  A 9 9 0 0 1 30 4552 L 340 4552  A 9 9 0 0 1 349 4561 L 349 4624  A 9 9 0 0 1 340 4633 L 30 4633  A 9 9 0 0 1 21 4624 L 21 4561  Z " fill-rule="nonzero" fill="#81d3f8" stroke="none" fill-opacity="0.6" />
      <path d="M 20.5 4561  A 9.5 9.5 0 0 1 30 4551.5 L 340 4551.5  A 9.5 9.5 0 0 1 349.5 4561 L 349.5 4624  A 9.5 9.5 0 0 1 340 4633.5 L 30 4633.5  A 9.5 9.5 0 0 1 20.5 4624 L 20.5 4561  Z " stroke-width="1" stroke-dasharray="9,4,2,4,2,4" stroke="#02a7f0" fill="none" stroke-dashoffset="0.5" />
    </g>
  </defs>
  <g transform="matrix(1 0 0 1 -17 -4548 )">
    <use xlink:href="#widget131" filter="url(#filter130)" />
    <use xlink:href="#widget131" />
  </g>
</svg>