<svg xmlns="http://www.w3.org/2000/svg" xmlns:xlink="http://www.w3.org/1999/xlink" fill="none" version="1.1" width="222.55091857910156" height="87.57974243164062" viewBox="0 0 222.55091857910156 87.57974243164062"><g><path d="M0.378099,83.758C-0.351691,84.9301,0.00685857,86.4719,1.17895,87.2017C2.35103,87.9314,3.8928,87.5729,4.62258,86.4008C4.62258,86.4008,0.378099,83.758,0.378099,83.758C0.378099,83.758,0.378099,83.758,0.378099,83.758ZM88.4764,5.66629C88.4764,5.66629,87.7123,3.28592,87.7123,3.28592C87.7123,3.28592,87.7123,3.28592,87.7123,3.28592C87.7123,3.28592,88.4764,5.66629,88.4764,5.66629C88.4764,5.66629,88.4764,5.66629,88.4764,5.66629ZM128.019,8.94783C128.019,8.94783,126.251,10.7156,126.251,10.7156C126.251,10.7156,128.019,8.94783,128.019,8.94783C128.019,8.94783,128.019,8.94783,128.019,8.94783ZM136.797,43.7321C136.797,43.7321,134.302,43.5761,134.302,43.5761C134.302,43.5761,136.797,43.7321,136.797,43.7321C136.797,43.7321,136.797,43.7321,136.797,43.7321ZM124.327,72.4455C124.327,72.4455,122.712,70.537,122.712,70.537C122.712,70.537,122.712,70.537,122.712,70.537C122.712,70.537,124.327,72.4455,124.327,72.4455C124.327,72.4455,124.327,72.4455,124.327,72.4455ZM113.99,71.7072C113.99,71.7072,116.376,70.9615,116.376,70.9615C116.376,70.9615,116.376,70.9615,116.376,70.9615C116.376,70.9615,113.99,71.7072,113.99,71.7072C113.99,71.7072,113.99,71.7072,113.99,71.7072ZM140.16,45.5369C140.16,45.5369,140.618,43.0791,140.618,43.0791C140.618,43.0791,140.16,45.5369,140.16,45.5369C140.16,45.5369,140.16,45.5369,140.16,45.5369ZM201.853,51.8539C201.853,51.8539,203.805,50.2921,203.805,50.2921C203.805,50.2921,203.805,50.2921,203.805,50.2921C203.805,50.2921,201.853,51.8539,201.853,51.8539C201.853,51.8539,201.853,51.8539,201.853,51.8539ZM216.702,63.5854C216.702,63.5854,217.962,61.4259,217.962,61.4259C217.962,61.4259,216.702,63.5854,216.702,63.5854C216.702,63.5854,216.702,63.5854,216.702,63.5854ZM215.8,67.3591C215.8,67.3591,216.654,69.7086,216.654,69.7086C216.654,69.7086,216.654,69.7086,216.654,69.7086C216.654,69.7086,215.8,67.3591,215.8,67.3591C215.8,67.3591,215.8,67.3591,215.8,67.3591ZM196.528,79.8587C196.091,81.1686,196.799,82.5844,198.109,83.021C199.419,83.4577,200.835,82.7498,201.271,81.44C201.271,81.44,196.528,79.8587,196.528,79.8587C196.528,79.8587,196.528,79.8587,196.528,79.8587ZM4.62258,86.4008C25.7102,52.5326,50.7541,20.4004,89.2405,8.04666C89.2405,8.04666,87.7123,3.28592,87.7123,3.28592C47.3909,16.2286,21.5347,49.779,0.378099,83.758C0.378099,83.758,4.62258,86.4008,4.62258,86.4008C4.62258,86.4008,4.62258,86.4008,4.62258,86.4008ZM89.2405,8.04666C94.5009,6.35813,101.789,4.91238,108.823,5.00413C115.929,5.09683,122.282,6.74715,126.251,10.7156C126.251,10.7156,129.786,7.18005,129.786,7.18005C124.454,1.84726,116.497,0.103825,108.888,0.00456455C101.207,-0.0956455,93.3744,1.46846,87.7123,3.28592C87.7123,3.28592,89.2405,8.04666,89.2405,8.04666C89.2405,8.04666,89.2405,8.04666,89.2405,8.04666ZM126.251,10.7156C129.788,14.2526,132.011,19.7323,133.236,25.8792C134.451,31.9768,134.623,38.4281,134.302,43.5761C134.302,43.5761,139.292,43.888,139.292,43.888C139.633,38.4216,139.459,31.5223,138.139,24.9022C136.83,18.3314,134.333,11.7262,129.786,7.18005C129.786,7.18005,126.251,10.7156,126.251,10.7156C126.251,10.7156,126.251,10.7156,126.251,10.7156ZM134.302,43.5761C133.675,53.5969,130.058,64.3213,122.712,70.537C122.712,70.537,125.942,74.354,125.942,74.354C134.738,66.9112,138.621,54.6173,139.292,43.888C139.292,43.888,134.302,43.5761,134.302,43.5761C134.302,43.5761,134.302,43.5761,134.302,43.5761ZM122.712,70.537C121.057,71.9378,119.407,72.705,118.284,72.7651C117.796,72.7912,117.502,72.6826,117.289,72.5251C117.06,72.3553,116.685,71.948,116.376,70.9615C116.376,70.9615,111.604,72.4528,111.604,72.4528C112.139,74.1639,113.019,75.585,114.314,76.5436C115.625,77.5145,117.123,77.8343,118.551,77.7579C121.259,77.613,123.935,76.0518,125.942,74.354C125.942,74.354,122.712,70.537,122.712,70.537C122.712,70.537,122.712,70.537,122.712,70.537ZM116.376,70.9615C114.525,65.0383,117.107,58.8241,122.119,54.1598C127.15,49.4768,134.042,46.9416,139.703,47.9947C139.703,47.9947,140.618,43.0791,140.618,43.0791C132.99,41.66,124.561,45.0563,118.712,50.4997C112.843,55.9618,108.984,64.0689,111.604,72.4528C111.604,72.4528,116.376,70.9615,116.376,70.9615C116.376,70.9615,116.376,70.9615,116.376,70.9615ZM139.703,47.9947C149.167,49.7554,158.025,54.6205,167.499,59.3293C176.796,63.95,186.639,68.3824,197.423,68.3824C197.423,68.3824,197.423,63.3825,197.423,63.3825C187.935,63.3825,179.043,59.4832,169.724,54.8518C160.583,50.3084,150.946,45.0007,140.618,43.0791C140.618,43.0791,139.703,47.9947,139.703,47.9947C139.703,47.9947,139.703,47.9947,139.703,47.9947ZM197.423,68.3824C197.915,68.3824,198.922,68.4738,200.57,68.5665C202.092,68.652,203.966,68.7214,205.796,68.6347C207.573,68.5506,209.549,68.3116,211.158,67.6518C212.793,66.9812,214.69,65.5517,214.69,62.929C214.69,62.929,209.69,62.929,209.69,62.929C209.69,62.9309,209.691,62.8928,209.712,62.8357C209.734,62.7796,209.759,62.747,209.764,62.7412C209.766,62.7392,209.739,62.7713,209.655,62.8263C209.57,62.8817,209.443,62.951,209.261,63.0257C208.464,63.3526,207.184,63.5634,205.559,63.6403C203.988,63.7147,202.315,63.6566,200.851,63.5743C199.513,63.4992,198.093,63.3825,197.423,63.3825C197.423,63.3825,197.423,68.3824,197.423,68.3824C197.423,68.3824,197.423,68.3824,197.423,68.3824ZM214.69,62.929C214.69,61.0193,213.904,59.4131,212.928,58.1287C211.965,56.8622,210.715,55.7723,209.529,54.8444C208.398,53.9591,207.012,52.9905,206.055,52.2735C204.973,51.4621,204.234,50.8276,203.805,50.2921C203.805,50.2921,199.901,53.4156,199.901,53.4156C200.762,54.4913,201.959,55.4512,203.056,56.274C204.28,57.1912,205.316,57.8967,206.447,58.7818C207.524,59.6244,208.374,60.4013,208.947,61.1546C209.506,61.89,209.69,62.4566,209.69,62.929C209.69,62.929,214.69,62.929,214.69,62.929C214.69,62.929,214.69,62.929,214.69,62.929ZM203.805,50.2921C203.571,49.9996,203.437,49.8197,203.372,49.7243C203.336,49.6725,203.351,49.6897,203.385,49.7533C203.402,49.7848,203.446,49.869,203.491,49.9906C203.524,50.0791,203.629,50.3703,203.636,50.7695C203.643,51.1822,203.533,52.1212,202.648,52.7865C201.864,53.3758,201.052,53.2923,200.81,53.2566C200.507,53.2119,200.291,53.1198,200.218,53.0876C200.123,53.0457,200.057,53.0083,200.032,52.9937C199.969,52.9565,200.001,52.9694,200.19,53.1199C200.897,53.681,202.284,54.9291,204.09,56.5441C205.851,58.1187,207.935,59.9734,209.926,61.6373C211.882,63.2714,213.88,64.8334,215.442,65.7448C215.442,65.7448,217.962,61.4259,217.962,61.4259C216.8,60.7481,215.087,59.4333,213.132,57.8002C211.213,56.1967,209.186,54.3937,207.423,52.8171C205.705,51.2807,204.156,49.884,203.299,49.204C203.098,49.0442,202.825,48.8344,202.554,48.6764C202.497,48.6428,202.09,48.3914,201.541,48.3103C201.273,48.2706,200.441,48.1901,199.644,48.7893C198.746,49.4645,198.629,50.4204,198.637,50.8573C198.644,51.2806,198.756,51.6032,198.804,51.7305C198.863,51.891,198.928,52.0215,198.974,52.107C199.066,52.2786,199.168,52.4344,199.249,52.5537C199.419,52.8005,199.642,53.0924,199.901,53.4156C199.901,53.4156,203.805,50.2921,203.805,50.2921C203.805,50.2921,203.805,50.2921,203.805,50.2921ZM215.442,65.7448C216.57,66.4026,217.523,66.8763,218.017,67.1399C218.147,67.2093,218.236,67.2592,218.299,67.2963C218.367,67.3365,218.366,67.3399,218.33,67.3127C218.31,67.2971,218.265,67.2616,218.207,67.2061C218.15,67.1519,218.061,67.059,217.966,66.9259C217.775,66.6563,217.492,66.1152,217.56,65.3852C217.627,64.6728,217.988,64.2122,218.186,64.0085C218.376,63.814,218.539,63.7247,218.549,63.7192C218.576,63.704,218.562,63.7138,218.479,63.7494C218.4,63.7829,218.29,63.8265,218.136,63.8836C217.821,64.0003,217.418,64.1392,216.87,64.3288C216.335,64.5143,215.693,64.7379,214.945,65.0096C214.945,65.0096,216.654,69.7086,216.654,69.7086C217.364,69.4503,217.978,69.2367,218.507,69.0533C219.025,68.874,219.495,68.7122,219.874,68.5716C220.224,68.4419,220.649,68.2758,221.013,68.0697C221.195,67.9666,221.488,67.7845,221.767,67.4987C222.054,67.2036,222.464,66.6533,222.539,65.8497C222.615,65.0284,222.302,64.3946,222.041,64.0276C221.797,63.6845,221.519,63.4558,221.356,63.3318C221.031,63.0854,220.646,62.8755,220.372,62.7294C219.721,62.3817,218.983,62.0219,217.962,61.4259C217.962,61.4259,215.442,65.7448,215.442,65.7448C215.442,65.7448,215.442,65.7448,215.442,65.7448ZM214.945,65.0096C211.803,66.1521,207.901,67.9739,204.467,70.3839C201.089,72.7545,197.841,75.9205,196.528,79.8587C196.528,79.8587,201.271,81.44,201.271,81.44C202.083,79.006,204.294,76.6143,207.34,74.4765C210.329,72.3782,213.815,70.741,216.654,69.7086C216.654,69.7086,214.945,65.0096,214.945,65.0096C214.945,65.0096,214.945,65.0096,214.945,65.0096Z" fill="#004CA4" fill-opacity="1"/></g></svg>