<svg xmlns="http://www.w3.org/2000/svg" xmlns:xlink="http://www.w3.org/1999/xlink" fill="none" version="1.1" width="184.21200561523438" height="26.040000915527344" viewBox="0 0 184.21200561523438 26.040000915527344"><g><path d="M0,25.172L25.704,25.172L25.704,21.588L14.728,21.588L14.728,15.652L23.492,15.652L23.492,12.124L14.728,12.124L14.728,6.692L24.836,6.692L24.836,3.108L14.812,3.108L13.916,0L10.108,0L11.004,3.108L0.868,3.108L0.868,6.692L10.976,6.692L10.976,12.124L2.212,12.124L2.212,15.652L10.976,15.652L10.976,21.588L0,21.588L0,25.172ZM28.028,14.896L28.028,18.116L33.74,18.116L31.584,21.056L36.792,22.288C34.58,22.568,31.948,22.652,28.812,22.652L28.812,25.9C35.252,25.9,39.872,25.2,43.26,23.772L52.892,26.04L52.892,22.82L47.124,21.448C48.272,20.496,49.168,19.376,49.924,18.116L53.676,18.116L53.676,14.896L40.74,14.896L41.86,13.356L52.08,13.356L52.08,5.544L45.78,5.544L45.78,4.284L53.172,4.284L53.172,0.896L28.532,0.896L28.532,4.284L35.924,4.284L35.924,5.544L29.624,5.544L29.624,13.356L37.212,13.356L36.092,14.896L28.028,14.896ZM33.18,10.304L33.18,8.568L36.064,8.568L36.064,10.304L33.18,10.304ZM37.576,19.18L38.36,18.116L45.612,18.116C44.856,19.068,43.96,19.852,42.924,20.468L37.576,19.18ZM39.368,5.544L39.368,4.284L42.336,4.284L42.336,5.544L39.368,5.544ZM39.424,10.304L39.424,8.568L42.28,8.568L42.28,10.304L39.424,10.304ZM45.64,10.304L45.64,8.568L48.524,8.568L48.524,10.304L45.64,10.304ZM79.52,0.700001L58.184,0.700001L58.184,13.16L63.588,13.16C61.908,14.7,59.556,15.904,56.252,16.8L56.252,20.328C58.436,19.852,60.452,19.152,62.216,18.284L62.216,19.376C62.216,21.56,61.432,23.66,58.772,25.76L63.616,25.76C65.268,23.8,65.856,21.672,65.856,19.376L65.856,17.64L63.392,17.64C65.548,16.38,67.172,14.84,68.096,13.16L69.608,13.16C70.588,14.952,72.352,16.576,74.704,17.864L72.128,17.864L72.128,25.76L75.768,25.76L75.768,18.396C77.448,19.208,79.38,19.88,81.452,20.328L81.452,16.8C78.148,15.904,75.796,14.7,74.116,13.16L79.52,13.16L79.52,0.700001ZM61.796,9.912L61.796,8.316L67.06,8.316L67.06,9.912L61.796,9.912ZM61.796,5.544L61.796,3.92L67.06,3.92L67.06,5.544L61.796,5.544ZM70.644,9.912L70.644,8.316L75.908,8.316L75.908,9.912L70.644,9.912ZM70.644,5.544L70.644,3.92L75.908,3.92L75.908,5.544L70.644,5.544ZM85.092,6.888L85.092,25.34L108.612,25.34L108.612,6.888L98.056,6.888L98.56,4.648L109.676,4.648L109.676,1.064L84.028,1.064L84.028,4.648L94.808,4.648L94.304,6.888L85.092,6.888ZM88.676,21.812L88.676,10.472L91.112,10.472L91.112,21.812L88.676,21.812ZM94.64,21.812L94.64,19.908L99.064,19.908L99.064,21.812L94.64,21.812ZM94.64,17.108L94.64,15.148L99.064,15.148L99.064,17.108L94.64,17.108ZM94.64,12.348L94.64,10.472L99.064,10.472L99.064,12.348L94.64,12.348ZM102.592,21.812L102.592,10.472L105.028,10.472L105.028,21.812L102.592,21.812ZM117.74,23.324C119.728,23.324,121.828,22.848,123.592,21.728L124.628,22.96L128.996,22.96L126.028,19.488C127.4,17.612,128.184,15.204,128.324,12.208L124.684,12.208C124.6,13.804,124.348,15.092,123.676,16.212L120.876,12.712C123.592,11.06,124.684,9.66,124.684,7.42C124.684,4.704,122.976,2.996,119.616,2.996C116.116,2.996,114.072,4.984,114.072,7.644C114.072,9.296,114.464,10.5,115.584,12.04C112.588,13.748,111.496,15.568,111.496,17.808C111.496,21,113.904,23.324,117.74,23.324ZM115.612,17.444C115.612,16.324,116.116,15.512,117.572,14.532L121.268,18.956C120.288,19.712,119.392,20.048,118.272,20.048C116.704,20.048,115.612,18.984,115.612,17.444ZM118.02,7.812C118.02,6.692,118.608,5.992,119.588,5.992C120.54,5.992,121.016,6.552,121.016,7.672C121.016,8.708,120.54,9.38,118.972,10.248C118.328,9.352,118.02,8.54,118.02,7.812ZM130.676,25.872L139.048,24.948L139.048,21.336L130.676,22.26L130.676,25.872ZM130.34,10.864L133.56,12.712L130.816,19.432L139.188,19.432L139.188,15.82L136.22,15.82L140.28,5.852L137.004,5.852L135.548,9.436L134.596,8.848L137.928,0.84L134.484,0.84L130.34,10.864ZM139.804,25.48L156.184,25.48L156.184,21.924L154.728,21.924L154.728,1.4L141.288,1.4L141.288,21.924L139.804,21.924L139.804,25.48ZM144.9,21.924L144.9,18.396L151.116,18.396L151.116,21.924L144.9,21.924ZM144.9,14.952L144.9,11.62L151.116,11.62L151.116,14.952L144.9,14.952ZM144.9,8.176L144.9,4.844L151.116,4.844L151.116,8.176L144.9,8.176ZM158.424,10.024L158.424,15.596C159.236,14.896,160.02,14.14,160.72,13.328L160.72,25.76L164.36,25.76L164.36,7.56C165.284,5.46,165.984,3.108,166.404,0.559999L162.848,0.559999C162.036,4.228,160.608,7.42,158.424,10.024ZM165.424,11.62L169.232,11.62C169.596,10.472,169.932,9.324,170.212,8.148L173.544,8.148L173.544,15.54L165.592,15.54L165.592,19.18L173.544,19.18L173.544,25.76L177.184,25.76L177.184,19.18L184.212,19.18L184.212,15.54L177.184,15.54L177.184,8.148L183.512,8.148L183.512,4.536L177.184,4.536L177.184,0.559999L173.544,0.559999L173.544,4.536L170.968,4.536C171.164,3.388,171.304,2.24,171.444,1.12L168,1.12C167.552,4.536,166.74,8.204,165.424,11.62Z" fill="#333333" fill-opacity="1"/></g></svg>