<svg xmlns="http://www.w3.org/2000/svg" xmlns:xlink="http://www.w3.org/1999/xlink" fill="none" version="1.1" width="193.31201171875" height="26.040000915527344" viewBox="0 0 193.31201171875 26.040000915527344"><g><path d="M0.756,25.76L6.552,25.76L6.552,15.904L8.596,15.372L8.596,11.48L6.552,12.012L6.552,7.84L8.596,7.84L8.596,4.312L6.552,4.312L6.552,0.42L2.912,0.42L2.912,4.312L0.28,4.312L0.28,7.84L2.912,7.84L2.912,12.964L0,13.72L0,17.612L2.912,16.856L2.912,22.372L0.756,22.372L0.756,25.76ZM7.588,25.76L11.676,25.76C11.956,25.172,12.208,24.612,12.432,24.108C14.28,25.312,16.1,25.48,18.788,25.48L25.592,25.48L25.592,22.008L19.852,22.008L19.852,20.02L24.836,20.02L24.836,17.052L19.852,17.052L19.852,15.288L25.452,15.288L25.452,12.096L9.212,12.096L9.212,15.288L16.268,15.288L16.268,21.868C15.036,21.728,14.28,21.392,13.552,20.832C13.944,19.264,14.084,17.808,14.308,15.988L10.752,15.988C10.64,19.348,9.8,22.456,7.588,25.76ZM10.724,11.004L23.94,11.004L23.94,0.672001L10.724,0.672001L10.724,11.004ZM14.308,8.428L14.308,7L20.356,7L20.356,8.428L14.308,8.428ZM14.308,4.62L14.308,3.22L20.356,3.22L20.356,4.62L14.308,4.62ZM29.036,25.76L33.684,25.76C35.98,22.064,36.904,18.592,37.072,14L44.912,14L44.912,25.76L48.524,25.76L48.524,14L53.312,14L53.312,10.472L48.524,10.472L48.524,0L44.912,0L44.912,10.472L37.1,10.472L37.1,4.228C38.444,4.032,39.732,3.808,41.02,3.556L41.02,0.0839996C37.24,0.812,33.572,1.26,29.4,1.512L29.4,4.984C30.8,4.9,32.144,4.816,33.46,4.676L33.46,10.472L28.112,10.472L28.112,14L33.432,14C33.208,18.06,32.144,21.924,29.036,25.76ZM69.664,25.76L69.776,25.76C70.028,25.844,70.28,25.956,70.532,26.04L70.532,25.76L74.144,25.76C75.068,24.276,75.74,22.68,76.272,21.308L78.036,25.76L81.676,25.76L78.316,17.388C79.548,13.832,80.304,10.528,80.668,6.944L81.9,6.944L81.9,3.304L74.732,3.304C74.872,2.352,74.984,1.372,75.096,0.336L71.484,0.336C71.064,4.312,70.364,7.364,69.384,10.584L69.384,8.288L64.288,6.328L64.288,9.8L69.048,11.62C68.964,11.872,68.908,12.096,68.824,12.32L72.044,12.32L73.864,17.92C72.912,20.132,71.652,22.568,70.532,24.416L70.532,22.148C68.628,21.42,67.172,20.496,65.94,19.432C67.48,17.304,68.236,14.812,68.684,11.928L65.268,11.928C64.848,13.916,64.316,15.652,63.224,17.136C62.104,15.652,61.32,13.916,60.9,11.928L57.484,11.928C57.932,14.812,58.912,17.304,60.508,19.432C59.276,20.496,57.82,21.42,55.916,22.148L55.916,26.04C58.996,24.948,61.32,23.52,63.224,21.784C64.96,23.352,67.004,24.668,69.692,25.732L69.664,25.76ZM56.196,5.768L69.972,5.768L69.972,2.24L65.156,2.24L65.156,0L61.516,0L61.516,2.24L56.196,2.24L56.196,5.768ZM56.224,11.76L61.88,9.8L61.88,6.328L56.224,8.288L56.224,11.76ZM74.032,7.28C74.06,7.168,74.088,7.056,74.088,6.944L77.336,6.944C77.028,9.464,76.496,11.62,75.852,13.692L74.032,7.28ZM84.56,17.164L88.312,17.164L90.496,11.508L86.716,11.508L84.56,17.164ZM83.832,21.896L94.864,21.896L94.864,25.76L98.56,25.76L98.56,21.896L109.592,21.896L109.592,18.536L98.56,18.536L98.56,17.108L94.864,17.108L94.864,18.536L83.832,18.536L83.832,21.896ZM84.56,5.824L86.716,10.612L90.58,10.612L88.396,5.824L84.56,5.824ZM84.868,4.956L93.828,4.956L91.952,7.28L90.664,6.832L90.664,10.136L94.584,11.536L93.268,13.188L90.384,13.188L90.384,16.408L103.824,16.408L102.424,10.584L99.652,10.584L103.46,5.824L99.344,5.824L96.852,9.016L95.172,8.428L98,4.956L108.556,4.956L108.556,1.624L98.56,1.624L98.56,0.280001L94.864,0.280001L94.864,1.624L84.868,1.624L84.868,4.956ZM97.58,13.188L99.428,10.892L99.96,13.188L97.58,13.188ZM103.292,10.612L107.156,10.612L109.312,5.824L105.476,5.824L103.292,10.612ZM103.376,11.508L105.532,17.164L109.312,17.164L107.156,11.508L103.376,11.508ZM112.476,3.164L112.476,25.368L123.256,25.368L123.256,10.696L126.952,10.696C127.512,9.436,127.932,8.12,128.268,6.748L133.28,6.748L133.28,22.12L130.536,22.12L130.536,25.76L136.892,25.76L136.892,3.164L128.912,3.164C129.024,2.212,129.108,1.26,129.136,0.280001L125.384,0.280001C125.244,3.556,124.544,6.72,123.256,9.8L123.256,3.164L119.336,3.164L119.7,0.42L116.032,0.42L115.668,3.164L112.476,3.164ZM115.976,21.924L115.976,15.764L119.756,15.764L119.756,21.924L115.976,21.924ZM115.976,12.404L115.976,6.608L119.756,6.608L119.756,12.404L115.976,12.404ZM125.664,11.34L127.428,18.172L131.124,18.172L129.36,11.34L125.664,11.34ZM157.724,25.76L164.668,25.76L164.668,4.564L157.024,4.564L157.024,0.280001L153.384,0.280001L153.384,4.564L150.248,4.564L150.248,8.26L153.384,8.26L153.384,9.772C153.384,15.848,152.292,20.412,148.624,25.76L153.216,25.76C156.044,20.58,157.024,15.54,157.024,9.772L157.024,8.26L161.028,8.26L161.028,22.064L157.724,22.064L157.724,25.76ZM139.832,22.708L150.024,21L150.024,17.108L146.72,17.668L146.72,5.516L149.576,5.516L149.576,1.876L140.196,1.876L140.196,5.516L143.08,5.516L143.08,18.284L139.832,18.816L139.832,22.708ZM168.672,25.76L172.2,25.76L172.2,23.128L177.352,23.128L177.352,25.76L180.88,25.76L180.88,10.584L168.672,10.584L168.672,25.76ZM168.112,9.24L181.776,9.24L179.9,2.688L176.344,2.688L177.268,5.88L173.656,5.88L176.68,0.448L172.452,0.448L169.428,5.88L168.112,5.88L168.112,9.24ZM172.2,20.132L172.2,18.508L177.352,18.508L177.352,20.132L172.2,20.132ZM172.2,15.512L172.2,13.804L177.352,13.804L177.352,15.512L172.2,15.512ZM182.728,25.536L193.312,25.536L193.312,21.924L186.34,21.924L186.34,19.964C188.692,19.404,190.932,18.592,193.032,17.528L193.032,13.832C190.82,14.924,188.58,15.82,186.34,16.464L186.34,13.16L182.728,13.16L182.728,25.536ZM182.728,12.404L193.312,12.404L193.312,8.876L186.34,8.876L186.34,7.42C188.692,6.888,190.932,6.104,193.032,5.04L193.032,1.456C190.82,2.492,188.58,3.36,186.34,3.976L186.34,0.559999L182.728,0.559999L182.728,12.404Z" fill="#333333" fill-opacity="1"/></g></svg>