<svg xmlns="http://www.w3.org/2000/svg" xmlns:xlink="http://www.w3.org/1999/xlink" fill="none" version="1.1" width="519.189208984375" height="65.86383056640625" viewBox="0 0 519.189208984375 65.86383056640625"><g><g transform="matrix(1,0,-0.06985185295343399,0.9975574016571045,0,0)"><path d="M18.932787109375,0.688499L21.838087109375,0.688499L21.838087109375,29.5419Q21.838087109375,31.041,21.411687109375,31.7458Q20.985387109375,32.4512,20.012787109375,32.7915Q19.025587109375,33.1177,17.312787109375,33.2167Q15.600487109375,33.3163,13.068717109375,33.3022Q12.990537109375,32.9197,12.802097109375,32.4129Q12.613657109375,31.9061,12.397097109375,31.3881Q12.181097109375,30.87,11.946537109375,30.4796Q13.282467109375,30.5297,14.503087109375,30.5437Q15.724287109375,30.5578,16.638387109375,30.5398Q17.552387109374997,30.5218,17.926487109375,30.5218Q18.472687109375002,30.4999,18.702687109375,30.2951Q18.932787109375,30.0898,18.932787109375,29.5498L18.932787109375,0.688499ZM27.616687109375,9.86118L30.217087109375,8.87568Q31.810687109375,11.4097,33.259687109375,14.2971Q34.708687109375,17.1838,35.807187109375,19.9479Q36.906387109375,22.7121,37.360287109375,24.8839L34.454987109375,26.0539Q34.043187109375,23.9102,33.015487109375,21.1213Q31.987887109375,18.3319,30.573687109375,15.3849Q29.160187109375,12.4374,27.616687109375,9.86118ZM9.500787109375,9.13218L12.511847109375,9.63506Q11.921787109375,12.2608,11.020657109375,15.1712Q10.120097109375,18.0816,8.854477109375,20.7591Q7.588847109375,23.436,5.950847109375,25.452Q5.6324771093749995,25.2034,5.168407109375,24.9339Q4.704907109375,24.6645,4.233537109375,24.4164Q3.762724109375,24.1678,3.394287109375,24.0114Q5.003597109375,22.1017,6.201157109375,19.5531Q7.399287109375,17.0038,8.232907109374999,14.2751Q9.066537109375,11.5459,9.500787109375,9.13218ZM61.419487109375,17.1456L64.091987109375,17.1456L64.091987109375,31.5501L61.419487109375,31.5501L61.419487109375,17.1456ZM53.531587109375,16.1601L72.117687109375,16.1601L72.117687109375,18.5377L53.531587109375,18.5377L53.531587109375,16.1601ZM51.949787109375,29.9329L72.909687109375,29.9329L72.909687109375,32.3392L51.949787109375,32.3392L51.949787109375,29.9329ZM54.373687109375,22.878L71.313887109375,22.878L71.313887109375,25.2135L54.373687109375,25.2135L54.373687109375,22.878ZM57.400987109375,4.02187L57.400987109375,10.6667L68.256187109375,10.6667L68.256187109375,4.02187L57.400987109375,4.02187ZM54.882687109375,1.68581L70.872887109375,1.68581L70.872887109375,13.0027L54.882687109375,13.0027L54.882687109375,1.68581ZM45.876487109375,3.15562L48.514687109375,3.15562L48.514687109375,33.2207L45.876487109375,33.2207L45.876487109375,3.15562ZM39.990487109375,10.3224L53.046687109375,10.3224L53.046687109375,12.8548L39.990487109375,12.8548L39.990487109375,10.3224ZM46.010987109375,11.2922L47.702987109375,12.0094Q47.155087109375,13.9095,46.372087109375,15.9609Q45.589687109375,18.0118,44.658687109375,20.0053Q43.727787109375,21.9982,42.707987109375,23.7352Q41.688187109375,25.4722,40.644187109375,26.7086Q40.437687109375,26.1495,40.020887109375,25.4346Q39.604687109375,24.7191,39.256487109375,24.2381Q40.236387109375,23.1581,41.220687109375,21.6371Q42.205687109375,20.1161,43.122487109375,18.3566Q44.039387109375,16.5971,44.782987109375,14.7786Q45.526687109375,12.96,46.010987109375,11.2922ZM51.219187109375,0.691875L53.115887109375,2.76975Q51.457687109375,3.42394,49.335287109375,3.98925Q47.212987109375,4.554,44.948987109375,4.97194Q42.684887109375,5.38987,40.582787109375,5.69981Q40.504687109375,5.25319,40.259387109375,4.65412Q40.014187109375,4.05506,39.779587109375,3.61406Q41.803487109375,3.26812,43.940387109375,2.82937Q46.077287109375,2.39006,47.989787109375,1.836Q49.902887109375,1.28194,51.219187109375,0.691875ZM48.398787109375,14.9496Q48.744687109375,15.2454,49.447787109375,15.9486Q50.150987109375,16.6511,50.976687109375,17.4729Q51.802487109375,18.2947,52.472987109375,19.0091Q53.143987109375,19.7229,53.417987109375,20.0548L51.805787109375,22.1822Q51.481787109375,21.6382,50.881687109375,20.8001Q50.281987109375,19.962,49.566487109375,19.0412Q48.850987109375,18.1198,48.208087109375,17.3109Q47.565187109375,16.5015,47.133187109375,16.0431L48.398787109375,14.9496ZM84.598487109375,9.27731L102.877987109375,9.27731L102.877987109375,11.5149L84.598487109375,11.5149L84.598487109375,9.27731ZM82.521687109375,18.3161L106.291287109375,18.3161L106.291287109375,20.6516L82.521687109375,20.6516L82.521687109375,18.3161ZM93.731787109375,19.2375L96.432287109375,19.2375L96.432287109375,30.173Q96.432287109375,31.3858,96.081887109375,32.0057Q95.731987109375,32.6255,94.730787109375,32.9242Q93.758187109375,33.2302,92.115687109375,33.2764Q90.473787109375,33.3225,88.015587109375,33.3225Q87.937987109375,32.7476,87.653387109375,32.0563Q87.368787109375,31.365,87.084687109375,30.7963Q88.415587109375,30.8323,89.594587109375,30.8503Q90.773587109375,30.8683,91.640387109375,30.8571Q92.507787109375,30.8464,92.853687109375,30.8464Q93.379587109375,30.8025,93.555687109375,30.6613Q93.731787109375,30.5207,93.731787109375,30.1387L93.731787109375,19.2375ZM105.500287109375,18.3161L105.976287109375,18.3161L106.438287109375,18.1597L108.382287109375,18.999Q106.999287109375,20.9413,105.510287109375,22.9117Q104.022287109375,24.8816,102.649087109375,26.2322L100.492987109375,25.1724Q101.716487109375,23.9642,103.085587109375,22.1794Q104.454287109375,20.394,105.500287109375,18.7301L105.500287109375,18.3161ZM102.040487109375,9.27731L102.713787109375,9.27731L103.316787109375,9.135L105.078287109375,10.4754Q103.840287109375,11.7416,102.240687109375,13.0219Q100.642087109375,14.3021,98.891587109375,15.4052Q97.141587109375,16.5082,95.437787109375,17.3205Q95.167287109375,16.9582,94.723487109375,16.4936Q94.279587109375,16.0284,93.959587109375,15.7438Q95.431087109375,15.0322,96.968387109375,14.0102Q98.506287109375,12.9881,99.853487109375,11.8862Q101.201187109375,10.7842,102.040487109375,9.81L102.040487109375,9.27731ZM79.868387109375,4.19569L108.477287109375,4.19569L108.477287109375,6.73594L79.868387109375,6.73594L79.868387109375,4.19569ZM78.556087109375,4.19569L81.186887109375,4.19569L81.186887109375,14.2149Q81.186887109375,16.3074,81.053587109375,18.7869Q80.920787109375,21.2664,80.550687109375,23.85Q80.180587109375,26.4336,79.465087109375,28.8922Q78.750187109375,31.3504,77.599787109375,33.4007Q77.387787109375,33.1661,76.954587109375,32.8753Q76.522087109375,32.5851,76.093487109375,32.3083Q75.664787109375,32.0321,75.337987109375,31.8898Q76.446087109375,29.9458,77.094087109375,27.6902Q77.742087109375,25.434,78.058787109375,23.0737Q78.376087109375,20.7135,78.466087109375,18.4432Q78.556087109375,16.173,78.556087109375,14.2009L78.556087109375,4.19569ZM87.604987109375,14.6689L89.213787109375,13.0922Q90.901787109375,13.7919,92.847487109375,14.6751Q94.793187109375,15.5582,96.604987109375,16.4334Q98.416787109375,17.3081,99.612687109375,18.0281L97.905487109375,19.8326Q96.765887109375,19.1346,95.010887109375,18.2166Q93.256487109375,17.2986,91.299487109375,16.3586Q89.342587109375,15.4187,87.604987109375,14.6689ZM91.185887109375,0.753187L93.793087109375,0Q94.428687109375,1.08788,95.104287109375,2.41312Q95.779787109375,3.73781,96.133587109375,4.62994L93.400487109375,5.55525Q93.066887109375,4.61925,92.423387109375,3.2445Q91.779887109375,1.86919,91.185887109375,0.753187ZM119.847287109375,29.988L138.879287109375,29.988L138.879287109375,32.0991L119.847287109375,32.0991L119.847287109375,29.988ZM113.880287109375,10.2802L143.186287109375,10.2802L143.186287109375,16.2472L140.450287109375,16.2472L140.450287109375,12.4194L116.482287109375,12.4194L116.482287109375,16.2472L113.880287109375,16.2472L113.880287109375,10.2802ZM119.675287109375,14.6554L138.761287109375,14.6554L138.761287109375,21.8919L119.675287109375,21.8919L119.675287109375,19.8231L136.130287109375,19.8231L136.130287109375,16.7242L119.675287109375,16.7242L119.675287109375,14.6554ZM119.810287109375,24.3832L140.660287109375,24.3832L140.660287109375,33.2488L137.988287109375,33.2488L137.988287109375,26.5022L119.810287109375,26.5022L119.810287109375,24.3832ZM117.837287109375,14.6554L120.552287109375,14.6554L120.552287109375,33.3146L117.837287109375,33.3146L117.837287109375,14.6554ZM126.091287109375,7.99087L128.495287109375,7.49418Q129.02728710937498,8.23443,129.494287109375,9.20193Q129.96228710937498,10.1689,130.134287109375,10.8731L127.609287109375,11.4637Q127.429287109375,10.7657,126.990287109375,9.79537Q126.551287109375,8.82506,126.091287109375,7.99087ZM116.186287109375,3.1095L127.646287109375,3.1095L127.646287109375,5.10806L116.186287109375,5.10806L116.186287109375,3.1095ZM131.192287109375,3.13144L144.084287109375,3.13144L144.084287109375,5.13L131.192287109375,5.13L131.192287109375,3.13144ZM116.237287109375,0.0438747L118.859287109375,0.533249Q118.084287109375,3.10275,116.821287109375,5.48719Q115.558287109375,7.87162,114.106287109375,9.51975Q113.865287109375,9.33525,113.443287109375,9.09Q113.021287109375,8.84475,112.575287109375,8.6175Q112.128287109375,8.38968,111.787287109375,8.24793Q113.283287109375,6.72018,114.426287109375,4.54612Q115.568287109375,2.37206,116.237287109375,0.0438747ZM131.465287109375,0.0877495L134.090287109375,0.570938Q133.493287109375,2.75119,132.459287109375,4.78631Q131.425287109375,6.82144,130.18928710937502,8.25356Q129.96228710937498,8.04712,129.554287109375,7.81987Q129.146287109375,7.59262,128.714287109375,7.35468Q128.281287109375,7.11618,127.955287109375,6.97387Q129.171287109375,5.68406,130.077287109375,3.86606Q130.983287109375,2.04806,131.465287109375,0.0877495ZM119.182287109375,4.59787L121.346287109375,3.90487Q122.042287109375,4.92075,122.741287109375,6.17062Q123.440287109375,7.4205,123.727287109375,8.29856L121.429287109375,9.10575Q121.149287109375,8.20575,120.506287109375,6.93506Q119.865287109375,5.66381,119.182287109375,4.59787ZM134.550287109375,4.7835L136.650287109375,3.93412Q137.505287109375,4.92019,138.362287109375,6.13631Q139.219287109375,7.35187,139.613287109375,8.22206L137.402287109375,9.22219Q137.028287109375,8.33006,136.213287109375,7.07512Q135.399287109375,5.81962,134.550287109375,4.7835ZM163.363287109375,10.9929L163.363287109375,15.6262L176.732287109375,15.6262L176.732287109375,10.9929L163.363287109375,10.9929ZM163.363287109375,4.194L163.363287109375,8.76937L176.732287109375,8.76937L176.732287109375,4.194L163.363287109375,4.194ZM160.887287109375,1.84387L179.328287109375,1.84387L179.328287109375,17.9758L160.887287109375,17.9758L160.887287109375,1.84387ZM160.450287109375,22.203L179.828287109375,22.203L179.828287109375,24.6651L160.450287109375,24.6651L160.450287109375,22.203ZM157.678287109375,29.6286L181.038287109375,29.6286L181.038287109375,32.1047L157.678287109375,32.1047L157.678287109375,29.6286ZM147.884287109375,2.6055L159.112287109375,2.6055L159.112287109375,5.14575L147.884287109375,5.14575L147.884287109375,2.6055ZM148.252287109375,13.0252L158.596287109375,13.0252L158.596287109375,15.5514L148.252287109375,15.5514L148.252287109375,13.0252ZM147.496287109375,26.8087Q148.962287109375,26.3908,150.820287109375,25.8261Q152.679287109375,25.2607,154.753287109375,24.57Q156.828287109375,23.8787,158.913287109375,23.1947L159.375287109375,25.7912Q156.446287109375,26.7694,153.502287109375,27.7695Q150.557287109375,28.7696,148.165287109375,29.5678L147.496287109375,26.8087ZM152.360287109375,3.61294L154.957287109375,3.61294L154.957287109375,25.9166L152.360287109375,26.4307L152.360287109375,3.61294ZM168.874287109375,2.96325L171.232287109375,2.96325L171.232287109375,16.8165L171.428287109375,16.8165L171.428287109375,30.7406L168.677287109375,30.7406L168.677287109375,16.8165L168.874287109375,16.8165L168.874287109375,2.96325ZM189.020287109375,10.1582L216.586287109375,10.1582L216.586287109375,12.7468L189.020287109375,12.7468L189.020287109375,10.1582ZM194.776287109375,28.935L212.257287109375,28.935L212.257287109375,31.4752L194.776287109375,31.4752L194.776287109375,28.935ZM211.801287109375,0.469687L214.081287109375,2.66794Q211.546287109375,3.26981,208.447287109375,3.76594Q205.347287109375,4.26206,201.947287109375,4.64737Q198.547287109375,5.03212,195.092287109375,5.31731Q191.637287109375,5.60194,188.369287109375,5.77631Q188.305287109375,5.25094,188.088287109375,4.56412Q187.872287109375,3.87675,187.652287109375,3.43012Q190.870287109375,3.24169,194.243287109375,2.94581Q197.617287109375,2.64994,200.851287109375,2.27194Q204.085287109375,1.89394,206.904287109375,1.43719Q209.723287109375,0.979874,211.801287109375,0.469687ZM193.454287109375,17.9032L213.945287109375,17.9032L213.945287109375,33.2601L211.110287109375,33.2601L211.110287109375,20.4216L196.154287109375,20.4216L196.154287109375,33.3163L193.454287109375,33.3163L193.454287109375,17.9032ZM187.652287109375,3.43012L190.422287109375,3.43012L190.422287109375,12.7597Q190.422287109375,14.9979,190.258287109375,17.667Q190.093287109375,20.3361,189.601287109375,23.1137Q189.108287109375,25.8907,188.152287109375,28.5328Q187.196287109375,31.1749,185.636287109375,33.3585Q185.423287109375,33.0598,185.002287109375,32.6981Q184.580287109375,32.337,184.151287109375,32.0074Q183.722287109375,31.6777,183.396287109375,31.5073Q184.850287109375,29.4519,185.706287109375,27.0692Q186.564287109375,24.6864,186.978287109375,22.1681Q187.392287109375,19.6492,187.522287109375,17.2423Q187.652287109375,14.8354,187.652287109375,12.7457L187.652287109375,3.43012ZM226.049287109375,28.6864L246.306287109375,28.6864L246.306287109375,31.311L226.049287109375,31.311L226.049287109375,28.6864ZM224.679287109375,18.1063L247.787287109375,18.1063L247.787287109375,33.1847L244.924287109375,33.1847L244.924287109375,20.6949L227.430287109375,20.6949L227.430287109375,33.2724L224.679287109375,33.2724L224.679287109375,18.1063ZM239.805287109375,5.66887L241.919287109375,4.25025Q243.679287109375,5.77631,245.547287109375,7.66237Q247.417287109375,9.54843,249.015287109375,11.4097Q250.613287109375,13.2705,251.540287109375,14.7746L249.220287109375,16.4554Q248.335287109375,14.9293,246.793287109375,13.0292Q245.253287109375,11.1291,243.415287109375,9.20137Q241.579287109375,7.27312,239.805287109375,5.66887ZM222.759287109375,15.066Q222.717287109375,14.7819,222.553287109375,14.292Q222.390287109375,13.8021,222.213287109375,13.2846Q222.036287109375,12.7665,221.866287109375,12.4121Q222.496287109375,12.2979,223.206287109375,11.7281Q223.916287109375,11.1577,224.816287109375,10.2859Q225.306287109375,9.83193,226.268287109375,8.81212Q227.231287109375,7.79231,228.429287109375,6.39056Q229.627287109375,4.98881,230.864287109375,3.35306Q232.102287109375,1.71675,233.164287109375,0.0450001L235.864287109375,1.215Q234.133287109375,3.60112,232.242287109375,5.84887Q230.351287109375,8.09662,228.403287109375,10.0637Q226.456287109375,12.0302,224.540287109375,13.6159L224.540287109375,13.6941L224.276287109375,13.8257Q224.013287109375,13.9567,223.649287109375,14.1699Q223.286287109375,14.3831,223.023287109375,14.6289Q222.759287109375,14.8742,222.759287109375,15.066ZM222.759287109375,15.066L222.731287109375,12.9527L224.746287109375,11.9211L247.765287109375,10.854Q247.801287109375,11.4069,247.879287109375,12.1196Q247.958287109375,12.8317,248.057287109375,13.2643Q242.644287109375,13.5681,238.732287109375,13.7852Q234.819287109375,14.0017,232.165287109375,14.1502Q229.511287109375,14.2982,227.813287109375,14.4174Q226.115287109375,14.5361,225.142287109375,14.6334Q224.168287109375,14.7302,223.653287109375,14.8303Q223.137287109375,14.9299,222.759287109375,15.066Z" fill="#FFFFFF" fill-opacity="1"/></g><g transform="matrix(1,0,-0.06985185295343399,0.9975574016571045,0.07090065396823775,0.002479273098288104)"><path d="M270.809871875,59.8030146484375L281.417271875,59.8030146484375C286.657071875,51.3682146484375,288.765771875,43.4446146484375,289.149171875,32.9650146484375L307.04117187500003,32.9650146484375L307.04117187500003,59.8030146484375L315.284271875,59.8030146484375L315.284271875,32.9650146484375L326.211171875,32.9650146484375L326.211171875,24.9136146484375L315.284271875,24.9136146484375L315.284271875,1.0150146484375L307.04117187500003,1.0150146484375L307.04117187500003,24.9136146484375L289.213071875,24.9136146484375L289.213071875,10.6639146484375C292.280271875,10.2166146484375,295.219671875,9.7054146484375,298.159071875,9.1303146484375L298.159071875,1.2067146484375C289.532571875,2.8681146484375,281.161671875,3.8905146484375,271.640571875,4.4656146484375L271.640571875,12.3892146484375C274.835571875,12.1975146484375,277.902771875,12.0058146484375,280.906071875,11.6863146484375L280.906071875,24.9136146484375L268.701171875,24.9136146484375L268.701171875,32.9650146484375L280.842171875,32.9650146484375C280.330971875,42.2305146484375,277.902771875,51.0487146484375,270.809871875,59.8030146484375ZM367.29887187500003,59.8030146484375L376.692171875,59.8030146484375C377.970171875,57.1831146484375,379.184171875,54.6271146484375,380.206171875,52.0711146484375L390.750171875,60.4420146484375L390.750171875,50.5375146484375L383.849171875,45.0421146484375C386.596171875,36.8629146484375,388.322171875,28.3642146484375,389.600171875,18.1402146484375L381.484171875,18.1402146484375L384.871171875,2.9320146484375L354.582771875,2.9320146484375L354.582771875,10.6639146484375L359.566971875,10.6639146484375L359.566971875,23.8912146484375C359.566971875,34.5625146484375,358.288971875,44.5309146484375,354.071571875,54.7549146484375L354.071571875,48.4288146484375L332.601171875,51.1126146484375L332.601171875,59.2918146484375L353.240871875,56.7358146484375C352.793571875,57.7582146484375,352.28237187499997,58.7806146484375,351.771171875,59.8030146484375L361.036671875,59.8030146484375C363.720471875,53.2213146484375,365.509671875,46.7674146484375,366.532071875,40.0579146484375L374.136171875,46.1284146484375C372.283171875,50.6014146484375,370.046171875,55.0744146484375,367.29887187500003,59.8030146484375ZM331.962171875,25.1692146484375L340.269171875,29.3866146484375L333.943071875,44.5948146484375L354.454971875,44.5948146484375L354.454971875,36.6712146484375L347.425971875,36.6712146484375L356.627571875,14.5618146484375L348.320571875,14.5618146484375L345.25337187499997,22.0381146484375L342.313971875,20.5684146484375L350.109771875,2.2930146484375L341.547171875,2.2930146484375L331.962171875,25.1692146484375ZM367.426671875,30.4090146484375C367.554471875,28.3003146484375,367.618371875,26.1277146484375,367.618371875,23.8912146484375L367.618371875,10.6639146484375L375.286171875,10.6639146484375L371.963171875,25.8082146484375L380.973171875,25.8082146484375C380.143171875,30.3451146484375,379.120171875,34.5625146484375,377.778171875,38.6521146484375L367.426671875,30.4090146484375ZM420.527171875,59.8030146484375L431.774171875,59.8030146484375C434.713171875,55.8412146484375,437.205171875,52.1350146484375,439.442171875,48.3010146484375L445.19317187499996,59.8030146484375L455.16117187500004,59.8030146484375L444.809171875,39.8023146484375C447.49317187500003,33.4762146484375,449.538171875,26.3833146484375,451.327171875,16.8622146484375L454.522171875,16.8622146484375L454.522171875,8.555214648437499L436.247171875,8.555214648437499C436.758171875,6.3187146484375,437.269171875,4.0822146484375,437.716171875,1.7818146484375L428.707171875,1.7818146484375C426.662171875,11.1112146484375,424.042171875,20.0572146484375,420.208171875,28.9393146484375L420.208171875,3.5710146484375L396.56517187500003,3.5710146484375L396.56517187500003,11.8141146484375L411.965171875,11.8141146484375L411.965171875,25.2970146484375L398.162171875,25.2970146484375L398.162171875,59.4835146484375L422.061171875,54.3076146484375L422.061171875,45.4255146484375L406.405171875,48.8122146484375L406.405171875,33.4762146484375L420.208171875,33.4762146484375L420.208171875,29.2588146484375L428.898171875,29.2588146484375L434.074171875,40.3135146484375C430.624171875,46.8952146484375,426.21417187500003,52.7101146484375,420.527171875,59.8030146484375ZM433.56317187499997,18.4597146484375C433.691171875,17.8846146484375,433.88217187500004,17.3734146484375,434.01017187499997,16.8622146484375L442.76517187499996,16.8622146484375C441.614171875,22.3576146484375,440.400171875,27.0862146484375,438.931171875,31.3675146484375L433.56317187499997,18.4597146484375ZM492.798171875,59.8030146484375L502.383171875,59.8030146484375C504.109171875,57.2470146484375,505.706171875,54.5632146484375,507.176171875,51.8155146484375L510.88217187500004,59.8030146484375L519.189171875,59.8030146484375L511.393171875,42.9334146484375C514.524171875,35.6488146484375,516.952171875,27.6613146484375,518.678171875,19.1626146484375L494.524171875,19.1626146484375L494.524171875,10.6000146484375C502.383171875,10.4083146484375,510.69017187500003,10.0249146484375,517.911171875,9.2581146484375L517.911171875,1.3984146484375C508.26217187500004,2.3569146484375,496.76017187499997,2.8042146484375,486.98317187500004,2.8042146484375L486.98317187500004,31.0480146484375C486.98317187500004,40.9525146484375,486.025171875,48.5566146484375,482.638171875,56.9275146484375L482.638171875,31.2397146484375L470.050171875,31.2397146484375L470.050171875,25.3609146484375L484.427171875,25.3609146484375L484.427171875,17.1817146484375L481.105171875,17.1817146484375L481.105171875,2.2930146484375L473.692171875,2.2930146484375L473.692171875,17.1817146484375L470.050171875,17.1817146484375L470.050171875,3.2515146484375L462.38217187500004,3.2515146484375L462.38217187500004,32.7733146484375C462.38217187500004,42.2944146484375,461.807171875,50.2180146484375,459.123171875,59.8030146484375L467.36617187499996,59.8030146484375C468.96417187500003,52.5184146484375,469.66617187500003,46.3201146484375,469.922171875,39.4189146484375L475.098171875,39.4189146484375L475.098171875,59.8030146484375L490.051171875,59.8030146484375C493.24617187499996,50.4736146484375,494.524171875,41.3998146484375,494.524171875,31.0480146484375L494.524171875,26.8945146484375L502.255171875,44.7226146484375C499.572171875,49.8346146484375,496.441171875,54.8827146484375,492.798171875,59.8030146484375ZM502.703171875,26.8306146484375L509.540171875,26.8306146484375C508.64517187499996,29.8339146484375,507.559171875,32.837214648437495,506.40917187499997,35.7766146484375L502.703171875,26.8306146484375Z" fill="#FFFFFF" fill-opacity="1"/></g><g transform="matrix(1,0,-0.06985185295343399,0.9975574016571045,2.6165858634756205,0.09149747678748099)"><path d="M10.785493671875,59.792975927734375C16.126213671875,59.792975927734375,19.553413671875,56.708475927734376,19.553413671875,51.65337592773437L19.553413671875,39.42971592773438L14.841013671875,39.42971592773438L14.841013671875,51.65337592773437C14.841013671875,54.13807592773438,13.070313671875,55.73747592773438,10.785493671875,55.73747592773438C8.529253671875,55.73747592773438,6.701413671875,54.13807592773438,6.701413671875,51.65337592773437L6.701413671875,39.42971592773438L1.989013671875,39.42971592773438L1.989013671875,51.65337592773437C1.989013671875,56.708475927734376,5.416213671875,59.792975927734375,10.785493671875,59.792975927734375ZM26.693413671875,65.93337592773437C27.036113671875,64.70527592773438,27.264613671875,62.07777592773438,27.264613671875,60.050075927734376L27.264613671875,58.30787592773437C28.435613671875,59.30747592773437,29.892113671875,59.792975927734375,31.605713671875,59.792975927734375C35.775513671875,59.792975927734375,38.631513671875,56.65137592773438,38.631513671875,51.739075927734376C38.631513671875,46.94099592773438,35.832613671875,43.62803592773437,31.605713671875,43.62803592773437C30.092013671875,43.62803592773437,28.521213671875,44.284915927734374,27.264613671875,45.42731592773438L27.264613671875,43.99931592773437L22.695013671875,43.99931592773437L22.695013671875,60.050075927734376C22.695013671875,61.963575927734375,22.580813671875,64.64817592773437,22.123813671875,65.93337592773437L26.693413671875,65.93337592773437ZM27.264613671875,48.85447592773438C28.064313671875,47.28371592773438,29.463713671875,46.94099592773438,30.491913671875,46.94099592773438C32.519613671875,46.94099592773438,34.261813671875,49.05447592773437,34.261813671875,51.739075927734376C34.261813671875,54.366575927734374,32.519613671875,56.50857592773437,30.491913671875,56.50857592773437C29.463713671875,56.50857592773437,28.064313671875,56.165875927734376,27.264613671875,54.59507592773437L27.264613671875,48.85447592773438ZM47.570813671875,65.93337592773437C52.797213671875,65.93337592773437,55.424813671875,63.73427592773437,55.424813671875,59.36457592773438L55.424813671875,43.99931592773437L50.969413671875,43.99931592773437L50.969413671875,44.941795927734375C49.798413671875,44.05643592773438,48.541813671875,43.62803592773437,47.228013671875,43.62803592773437C43.001213671875,43.62803592773437,40.202313671875,46.94099592773438,40.202313671875,51.739075927734376C40.202313671875,56.65137592773438,43.058313671875,59.792975927734375,47.228013671875,59.792975927734375C48.684613671875,59.792975927734375,49.912713671875,59.450275927734374,50.969413671875,58.76487592773438C50.969413671875,60.792575927734376,49.627113671875,61.992075927734376,47.028113671875,61.992075927734376C45.000413671875,61.992075927734376,42.944013671875,61.763675927734376,40.916313671875,61.306675927734375L40.916313671875,65.04807592773437C42.772713671875,65.61927592773438,45.257413671875,65.93337592773437,47.570813671875,65.93337592773437ZM44.572013671875,51.739075927734376C44.572013671875,49.05447592773437,46.314113671875,46.94099592773438,48.341913671875,46.94099592773438C49.370013671875,46.94099592773438,50.798013671875,47.312275927734376,51.597713671875,48.94017592773437L51.597713671875,54.22377592773438L51.454913671875,54.79497592773437C50.626713671875,56.19447592773437,49.284413671875,56.50857592773437,48.341913671875,56.50857592773437C46.314113671875,56.50857592773437,44.572013671875,54.366575927734374,44.572013671875,51.739075927734376ZM58.280813671875,43.99931592773437L58.280813671875,59.42167592773437L62.850413671875,59.42167592773437L62.850413671875,48.96877592773438C63.735713671875,47.94057592773437,65.078013671875,47.483675927734375,66.534613671875,47.483675927734375C67.020113671875,47.483675927734375,67.505613671875,47.54077592773437,68.048313671875,47.683575927734374L68.048313671875,44.17067592773437C67.619913671875,44.02787592773438,67.191513671875,43.97075592773437,66.706013671875,43.97075592773437C65.335113671875,43.97075592773437,63.850013671875,44.599075927734376,62.850413671875,45.655795927734374L62.850413671875,43.99931592773437L58.280813671875,43.99931592773437ZM75.930813671875,59.792975927734375C77.558813671875,59.792975927734375,78.958213671875,59.33607592773437,80.129213671875,58.393575927734375C80.214813671875,58.82197592773437,80.329113671875,59.16467592773438,80.471913671875,59.42167592773437L84.755913671875,59.42167592773437C84.384613671875,58.56487592773438,84.184713671875,57.36537592773438,84.184713671875,55.823175927734376L84.184713671875,43.99931592773437L79.615113671875,43.99931592773437L79.615113671875,44.970355927734374C78.472713671875,44.14211592773437,77.101813671875,43.62803592773437,75.816613671875,43.62803592773437C71.589713671875,43.62803592773437,68.790813671875,46.94099592773438,68.790813671875,51.739075927734376C68.790813671875,56.65137592773438,71.675413671875,59.792975927734375,75.930813671875,59.792975927734375ZM73.160513671875,51.739075927734376C73.160513671875,49.05447592773437,74.902713671875,46.94099592773438,76.930413671875,46.94099592773438C77.872913671875,46.94099592773438,79.129613671875,47.169475927734375,79.957813671875,48.51177592773438L79.957813671875,54.90927592773437C79.129613671875,56.25157592773438,77.844413671875,56.50857592773437,76.930413671875,56.50857592773437C74.902713671875,56.50857592773437,73.160513671875,54.366575927734374,73.160513671875,51.739075927734376ZM93.495213671875,59.792975927734375C95.180313671875,59.792975927734375,96.608313671875,59.33607592773437,97.807813671875,58.393575927734375C97.893513671875,58.82197592773437,98.007713671875,59.16467592773438,98.150513671875,59.42167592773437L102.435013671875,59.42167592773437C102.063013671875,58.56487592773438,101.863313671875,57.36537592773438,101.863313671875,55.85167592773438L101.863313671875,37.459075927734375L97.293713671875,37.459075927734375L97.293713671875,44.99891592773437C96.151313671875,44.113555927734375,94.780513671875,43.65659592773437,93.495213671875,43.65659592773437C89.268413671875,43.65659592773437,86.469513671875,46.969555927734376,86.469513671875,51.76767592773437C86.469513671875,56.537175927734374,89.182713671875,59.792975927734375,93.495213671875,59.792975927734375ZM90.839213671875,51.76767592773437C90.839213671875,49.082975927734374,92.581313671875,46.94099592773438,94.609113671875,46.94099592773438C95.637213671875,46.94099592773438,97.036713671875,47.28371592773438,97.836413671875,48.883075927734374L97.836413671875,54.623675927734375C97.036713671875,56.19447592773437,95.637213671875,56.537175927734374,94.609113671875,56.537175927734374C92.581313671875,56.537175927734374,90.839213671875,54.39517592773437,90.839213671875,51.76767592773437ZM118.742013671875,54.79497592773437C117.171013671875,55.96597592773438,115.401013671875,56.537175927734374,113.430013671875,56.537175927734374C110.631013671875,56.537175927734374,109.032013671875,55.309075927734376,108.603013671875,52.852875927734374L119.713013671875,52.852875927734374C119.742013671875,52.310275927734374,119.770013671875,51.910475927734375,119.770013671875,51.62487592773438C119.770013671875,46.455475927734376,116.772013671875,43.599475927734375,111.974013671875,43.599475927734375C107.147013671875,43.599475927734375,104.148013671875,46.455475927734376,104.148013671875,51.62487592773438C104.148013671875,56.85127592773438,107.347013671875,59.87867592773438,113.430013671875,59.87867592773438C115.229013671875,59.87867592773438,117.286013671875,59.47887592773438,118.742013671875,58.593475927734374L118.742013671875,54.79497592773437ZM108.746013671875,49.65417592773437C109.203013671875,47.826375927734375,110.374013671875,46.855315927734374,111.974013671875,46.855315927734374C113.687013671875,46.855315927734374,114.972013671875,47.74067592773437,115.458013671875,49.65417592773437L108.746013671875,49.65417592773437ZM135.079013671875,59.792975927734375C137.106013671875,59.792975927734375,139.248013671875,59.30747592773437,141.048013671875,58.16507592773438L142.104013671875,59.42167592773437L146.560013671875,59.42167592773437L143.532013671875,55.880275927734374C144.932013671875,53.966775927734375,145.731013671875,51.51057592773438,145.874013671875,48.45467592773437L142.162013671875,48.45467592773437C142.076013671875,50.082575927734375,141.819013671875,51.396375927734375,141.133013671875,52.53877592773438L138.277013671875,48.96877592773438C141.048013671875,47.28371592773438,142.162013671875,45.85571592773437,142.162013671875,43.570915927734376C142.162013671875,40.80059592773438,140.419013671875,39.05843592773437,136.992013671875,39.05843592773437C133.422013671875,39.05843592773437,131.337013671875,41.08619592773437,131.337013671875,43.79939592773437C131.337013671875,45.484435927734374,131.737013671875,46.71251592773437,132.880013671875,48.28327592773437C129.82401367187498,50.02547592773438,128.710013671875,51.88187592773438,128.710013671875,54.166675927734374C128.710013671875,57.422475927734375,131.166013671875,59.792975927734375,135.079013671875,59.792975927734375ZM132.908013671875,53.795375927734376C132.908013671875,52.652975927734374,133.422013671875,51.82477592773438,134.907013671875,50.82517592773438L138.677013671875,55.337675927734374C137.678013671875,56.10877592773437,136.764013671875,56.45147592773438,135.621013671875,56.45147592773438C134.022013671875,56.45147592773438,132.908013671875,55.366175927734375,132.908013671875,53.795375927734376ZM135.364013671875,43.97075592773437C135.364013671875,42.82835592773438,135.964013671875,42.11435592773437,136.964013671875,42.11435592773437C137.935013671875,42.11435592773437,138.420013671875,42.68555592773438,138.420013671875,43.82795592773437C138.420013671875,44.88467592773438,137.935013671875,45.57011592773438,136.335013671875,46.455475927734376C135.678013671875,45.54155592773438,135.364013671875,44.71331592773438,135.364013671875,43.97075592773437ZM156.013013671875,39.42971592773438L156.013013671875,59.42167592773437L160.725013671875,59.42167592773437L160.725013671875,51.31067592773437L162.782013671875,51.31067592773437C165.209013671875,53.795375927734376,166.438013671875,55.79457592773437,168.237013671875,59.42167592773437L172.578013671875,59.42167592773437C171.007013671875,56.023075927734375,169.379013671875,53.53837592773438,167.180013671875,51.11077592773437C170.122013671875,50.539575927734376,171.807013671875,48.483275927734375,171.807013671875,45.37019592773437C171.807013671875,41.60027592773437,169.294013671875,39.42971592773438,165.267013671875,39.42971592773438L156.013013671875,39.42971592773438ZM160.725013671875,48.026275927734375L160.725013671875,42.714115927734376L164.924013671875,42.714115927734376C166.837013671875,42.714115927734376,167.980013671875,43.85651592773438,167.980013671875,45.37019592773437C167.980013671875,46.855315927734374,166.866013671875,48.026275927734375,164.924013671875,48.026275927734375L160.725013671875,48.026275927734375ZM188.314013671875,54.79497592773437C186.744013671875,55.96597592773438,184.973013671875,56.537175927734374,183.002013671875,56.537175927734374C180.203013671875,56.537175927734374,178.604013671875,55.309075927734376,178.176013671875,52.852875927734374L189.285013671875,52.852875927734374C189.314013671875,52.310275927734374,189.343013671875,51.910475927734375,189.343013671875,51.62487592773438C189.343013671875,46.455475927734376,186.344013671875,43.599475927734375,181.546013671875,43.599475927734375C176.719013671875,43.599475927734375,173.720013671875,46.455475927734376,173.720013671875,51.62487592773438C173.720013671875,56.85127592773438,176.919013671875,59.87867592773438,183.002013671875,59.87867592773438C184.802013671875,59.87867592773438,186.858013671875,59.47887592773438,188.314013671875,58.593475927734374L188.314013671875,54.79497592773437ZM178.318013671875,49.65417592773437C178.775013671875,47.826375927734375,179.946013671875,46.855315927734374,181.546013671875,46.855315927734374C183.259013671875,46.855315927734374,184.545013671875,47.74067592773437,185.030013671875,49.65417592773437L178.318013671875,49.65417592773437ZM194.655013671875,59.42167592773437L201.652013671875,59.42167592773437L206.536013671875,43.99931592773437L201.938013671875,43.99931592773437L198.225013671875,56.62287592773437L198.082013671875,56.62287592773437L194.398013671875,43.99931592773437L189.771013671875,43.99931592773437L194.655013671875,59.42167592773437ZM208.478013671875,43.99931592773437L208.478013671875,59.42167592773437L213.047013671875,59.42167592773437L213.047013671875,43.99931592773437L208.478013671875,43.99931592773437ZM208.478013671875,42.028675927734376L213.047013671875,42.028675927734376L213.047013671875,37.459075927734375L208.478013671875,37.459075927734375L208.478013671875,42.028675927734376ZM222.472013671875,59.764475927734374C225.642013671875,59.62167592773437,227.870013671875,57.70807592773437,227.870013671875,54.88067592773437C227.870013671875,52.967175927734374,226.985013671875,51.82477592773438,225.528013671875,51.053675927734375C224.786013671875,50.68237592773438,223.843013671875,50.31107592773438,222.701013671875,49.939775927734374C221.101013671875,49.45427592773437,220.187013671875,48.85447592773438,220.302013671875,48.05487592773437C220.416013671875,47.369395927734374,221.130013671875,47.026675927734374,222.415013671875,47.026675927734374C223.643013671875,47.026675927734374,225.500013671875,47.59787592773438,226.728013671875,48.19767592773437L226.728013671875,44.51339592773437C225.557013671875,43.97075592773437,223.643013671875,43.62803592773437,221.930013671875,43.62803592773437C218.017013671875,43.62803592773437,215.875013671875,45.68435592773437,215.875013671875,48.226175927734374C215.875013671875,49.91127592773437,216.589013671875,50.882275927734376,217.960013671875,51.739075927734376C218.645013671875,52.16747592773437,219.559013671875,52.56727592773437,220.730013671875,52.88147592773437C222.815013671875,53.452675927734376,223.500013671875,53.93817592773438,223.300013671875,55.10917592773437C223.215013671875,55.566075927734374,222.729013671875,56.08017592773437,221.558013671875,56.165875927734376C219.873013671875,56.28007592773437,217.417013671875,55.42327592773438,215.846013671875,54.28087592773437L215.846013671875,58.393575927734375C217.588013671875,59.393175927734376,220.159013671875,59.87867592773438,222.472013671875,59.764475927734374ZM243.978013671875,54.79497592773437C242.407013671875,55.96597592773438,240.636013671875,56.537175927734374,238.666013671875,56.537175927734374C235.867013671875,56.537175927734374,234.267013671875,55.309075927734376,233.839013671875,52.852875927734374L244.949013671875,52.852875927734374C244.977013671875,52.310275927734374,245.006013671875,51.910475927734375,245.006013671875,51.62487592773438C245.006013671875,46.455475927734376,242.007013671875,43.599475927734375,237.209013671875,43.599475927734375C232.383013671875,43.599475927734375,229.384013671875,46.455475927734376,229.384013671875,51.62487592773438C229.384013671875,56.85127592773438,232.582013671875,59.87867592773438,238.666013671875,59.87867592773438C240.465013671875,59.87867592773438,242.521013671875,59.47887592773438,243.978013671875,58.593475927734374L243.978013671875,54.79497592773437ZM233.982013671875,49.65417592773437C234.439013671875,47.826375927734375,235.610013671875,46.855315927734374,237.209013671875,46.855315927734374C238.923013671875,46.855315927734374,240.208013671875,47.74067592773437,240.693013671875,49.65417592773437L233.982013671875,49.65417592773437Z" fill="#FFFFFF" fill-opacity="0.30000001192092896"/></g></g></svg>