<svg xmlns="http://www.w3.org/2000/svg" xmlns:xlink="http://www.w3.org/1999/xlink" fill="none" version="1.1" width="112" height="34" viewBox="0 0 112 34"><g><path d="M11.816,23.22L15.288,23.22L15.288,13.336L22.204,13.336L22.204,22.744C21.588,22.24,20.888,21.792,20.132,21.4C20.272,20.7,20.328,19.944,20.328,19.16L20.328,14.764L16.94,14.764L16.94,19.02C16.94,23.388,14.644,25.544,10.92,26.3L10.92,30.08C14.756,29.38,17.668,27.364,19.18,24.34C21.336,25.656,22.624,27.532,23.1,29.828L26.488,29.828C25.872,27.28,24.724,24.984,22.764,23.22L25.676,23.22L25.676,10.06L20.076,10.06L20.44,8.268L26.796,8.268L26.796,4.88L10.696,4.88L10.696,8.268L17.08,8.268L16.716,10.06L11.816,10.06L11.816,23.22ZM1.12,26.748L11.2,25.04L11.2,21.148L7.812,21.736L7.812,9.556L10.248,9.556L10.248,5.916L1.484,5.916L1.484,9.556L4.228,9.556L4.228,22.324L1.12,22.856L1.12,26.748ZM52.36,5.048L31.64,5.048L31.64,29.352L52.36,29.352L52.36,5.048ZM35.364,25.768L35.364,22.324L48.636,22.324L48.636,25.768L35.364,25.768ZM35.364,18.768L35.364,15.492L48.636,15.492L48.636,18.768L35.364,18.768ZM35.364,11.936L35.364,8.632L48.636,8.632L48.636,11.936L35.364,11.936ZM60.06,29.884L63.7,29.884L63.7,27.252L76.3,27.252L76.3,29.884L79.94,29.884L79.94,15.408L60.06,15.408L60.06,29.884ZM57.12,13.924L64.876,13.028L64.876,14.512L68.488,14.512L68.488,4.04L64.876,4.04L64.876,5.44L57.4,5.44L57.4,8.744L64.876,8.744L64.876,9.836L57.12,10.732L57.12,13.924ZM63.7,24.312L63.7,22.912L76.3,22.912L76.3,24.312L63.7,24.312ZM63.7,19.972L63.7,18.544L76.3,18.544L76.3,19.972L63.7,19.972ZM71.512,14.288L82.88,14.288L82.88,10.928L75.124,10.928L75.124,9.332C79.492,8.828,82.6,8.324,82.6,8.324L82.6,5.244C79.716,5.72,76.86,6.112,75.124,6.308L75.124,4.04L71.512,4.04L71.512,14.288ZM87.64,4.796L87.64,13.588L96.152,13.588L96.152,14.512L85.4,14.512L85.4,17.564L110.6,17.564L110.6,14.512L99.848,14.512L99.848,13.588L108.36,13.588L108.36,4.796L87.64,4.796ZM86.1,29.8L89.936,29.8C90.86,28.428,91.672,26.944,92.26,25.292L88.704,25.292C88.088,26.888,87.22,28.344,86.1,29.8ZM87.388,24.844L96.18,24.844L96.18,29.8L99.82,29.8L99.82,24.844L108.612,24.844L108.612,18.488L87.388,18.488L87.388,24.844ZM91.028,22.352L91.028,20.924L104.972,20.924L104.972,22.352L91.028,22.352ZM91.252,11.236L91.252,10.284L104.748,10.284L104.748,11.236L91.252,11.236ZM91.252,8.128L91.252,7.176L104.748,7.176L104.748,8.128L91.252,8.128ZM103.74,25.292C104.328,26.944,105.14,28.428,106.064,29.8L109.9,29.8C108.78,28.344,107.912,26.888,107.296,25.292L103.74,25.292Z" fill="#333333" fill-opacity="1"/></g></svg>