<svg xmlns="http://www.w3.org/2000/svg" xmlns:xlink="http://www.w3.org/1999/xlink" fill="none" version="1.1" width="9.82800006866455" height="10.080000877380371" viewBox="0 0 9.82800006866455 10.080000877380371"><g><path d="M0.728,0.28Q1.008,0,1.428,0L4.298,0Q4.704,0,4.984,0.294001L5.432,0.742001Q5.712,1.022,5.712,1.428L5.712,8.68Q5.712,8.89,5.642,9.051Q5.572,9.212,5.418,9.366L4.97,9.814Q4.69,10.08,4.284,10.08L1.414,10.08Q1.008,10.08,0.728,9.814L0.28,9.366Q0,9.086,0,8.68L0,1.414Q0,1.008,0.28,0.728001L0.728,0.28ZM3.878,8.82Q4.438,8.82,4.438,8.274L4.438,1.834Q4.438,1.274,3.878,1.274L1.834,1.274Q1.274,1.274,1.274,1.834L1.274,8.274Q1.274,8.82,1.834,8.82L3.878,8.82ZM9.002,8.246Q9.002,8.512,9.114,8.659Q9.226,8.806,9.422,8.806Q9.618,8.806,9.723,8.953Q9.828,9.1,9.828,9.366L9.828,9.52Q9.828,10.08,9.268,10.08L7.252,10.08Q6.692,10.08,6.692,9.52L6.692,9.366Q6.692,8.806,7.21,8.806Q7.728,8.806,7.728,8.246L7.728,1.82Q7.728,1.274,7.21,1.274Q6.692,1.274,6.692,0.7L6.692,0.546Q6.692,0,7.252,0L7.588,0Q7.994,0,8.274,0.266L8.722,0.714Q9.002,0.994,9.002,1.4L9.002,8.246Z" fill="#333333" fill-opacity="1"/></g></svg>