<svg xmlns="http://www.w3.org/2000/svg" xmlns:xlink="http://www.w3.org/1999/xlink" fill="none" version="1.1" width="21.447999954223633" height="2.197999954223633" viewBox="0 0 21.447999954223633 2.197999954223633"><g><path d="M1.092,0C0.784,0,0.518,0.0980005,0.322,0.322001C0.098,0.532001,0,0.798,0,1.106C0,1.414,0.098,1.666,0.322,1.89C0.518,2.086,0.784,2.198,1.092,2.198C1.4,2.198,1.652,2.086,1.876,1.89C2.086,1.666,2.198,1.414,2.198,1.106C2.198,0.798,2.086,0.532001,1.876,0.322001C1.652,0.0980005,1.4,0,1.092,0ZM4.942,0C4.634,0,4.368,0.0980005,4.172,0.322001C3.948,0.532001,3.85,0.798,3.85,1.106C3.85,1.414,3.948,1.666,4.172,1.89C4.368,2.086,4.634,2.198,4.942,2.198C5.25,2.198,5.502,2.086,5.726,1.89C5.936,1.666,6.048,1.414,6.048,1.106C6.048,0.798,5.936,0.532001,5.726,0.322001C5.502,0.0980005,5.25,0,4.942,0ZM8.792,0C8.484,0,8.218,0.0980005,8.022,0.322001C7.798,0.532001,7.7,0.798,7.7,1.106C7.7,1.414,7.798,1.666,8.022,1.89C8.218,2.086,8.484,2.198,8.792,2.198C9.1,2.198,9.352,2.086,9.576,1.89C9.786,1.666,9.898,1.414,9.898,1.106C9.898,0.798,9.786,0.532001,9.576,0.322001C9.352,0.0980005,9.1,0,8.792,0ZM12.642,0C12.334,0,12.068,0.0980005,11.872,0.322001C11.648,0.532001,11.55,0.798,11.55,1.106C11.55,1.414,11.648,1.666,11.872,1.89C12.068,2.086,12.334,2.198,12.642,2.198C12.95,2.198,13.202,2.086,13.426,1.89C13.636,1.666,13.748,1.414,13.748,1.106C13.748,0.798,13.636,0.532001,13.426,0.322001C13.202,0.0980005,12.95,0,12.642,0ZM16.492,0C16.184,0,15.918,0.0980005,15.722,0.322001C15.498,0.532001,15.4,0.798,15.4,1.106C15.4,1.414,15.498,1.666,15.722,1.89C15.918,2.086,16.184,2.198,16.492,2.198C16.8,2.198,17.052,2.086,17.276,1.89C17.486,1.666,17.598,1.414,17.598,1.106C17.598,0.798,17.486,0.532001,17.276,0.322001C17.052,0.0980005,16.8,0,16.492,0ZM20.342,0C20.034,0,19.768,0.0980005,19.572,0.322001C19.348,0.532001,19.25,0.798,19.25,1.106C19.25,1.414,19.348,1.666,19.572,1.89C19.768,2.086,20.034,2.198,20.342,2.198C20.65,2.198,20.902,2.086,21.126,1.89C21.336,1.666,21.448,1.414,21.448,1.106C21.448,0.798,21.336,0.532001,21.126,0.322001C20.902,0.0980005,20.65,0,20.342,0Z" fill="#666666" fill-opacity="1"/></g></svg>