<svg xmlns="http://www.w3.org/2000/svg" xmlns:xlink="http://www.w3.org/1999/xlink" fill="none" version="1.1" width="12.8100004196167" height="10.080000877380371" viewBox="0 0 12.8100004196167 10.080000877380371"><g><path d="M0.728,0.28Q1.008,0,1.428,0L4.298,0Q4.704,0,4.984,0.294001L5.432,0.742001Q5.712,1.022,5.712,1.428L5.712,8.68Q5.712,8.89,5.642,9.051Q5.572,9.212,5.418,9.366L4.97,9.814Q4.69,10.08,4.284,10.08L1.414,10.08Q1.008,10.08,0.728,9.814L0.28,9.366Q0,9.086,0,8.68L0,1.414Q0,1.008,0.28,0.728001L0.728,0.28ZM3.878,8.82Q4.438,8.82,4.438,8.274L4.438,1.834Q4.438,1.274,3.878,1.274L1.834,1.274Q1.274,1.274,1.274,1.834L1.274,8.274Q1.274,8.82,1.834,8.82L3.878,8.82ZM7.112,0.56Q7.112,0,7.672,0L11.396,0Q11.802,0,12.082,0.294001L12.53,0.742001Q12.81,1.022,12.81,1.428L12.81,4.298Q12.81,4.704,12.53,4.998L12.082,5.446Q11.802,5.726,11.396,5.726L8.946,5.726Q8.386,5.726,8.386,6.286L8.386,8.246Q8.386,8.806,8.946,8.806L12.25,8.806Q12.81,8.806,12.81,9.366L12.81,9.52Q12.81,10.08,12.25,10.08L8.512,10.08Q8.302,10.08,8.141,10.017Q7.98,9.954,7.826,9.814L7.42,9.464Q7.112,9.17,7.112,8.764L7.112,5.852Q7.112,5.642,7.182,5.481Q7.252,5.32,7.406,5.166L7.84,4.732Q8.12,4.452,8.526,4.452L10.99,4.452Q11.55,4.452,11.55,3.892L11.55,1.834Q11.55,1.274,10.99,1.274L7.672,1.274Q7.112,1.274,7.112,0.714L7.112,0.56Z" fill="#333333" fill-opacity="1"/></g></svg>