<?xml version="1.0" encoding="utf-8"?>
<svg version="1.1" xmlns:xlink="http://www.w3.org/1999/xlink" width="689px" height="117px" xmlns="http://www.w3.org/2000/svg">
  <defs>
    <filter x="46px" y="9112px" width="689px" height="117px" filterUnits="userSpaceOnUse" id="filter2013">
      <feOffset dx="1" dy="1" in="SourceAlpha" result="shadowOffsetInner" />
      <feGaussianBlur stdDeviation="2" in="shadowOffsetInner" result="shadowGaussian" />
      <feComposite in2="shadowGaussian" operator="atop" in="SourceAlpha" result="shadowComposite" />
      <feColorMatrix type="matrix" values="0 0 0 0 0  0 0 0 0 0.301960784313725  0 0 0 0 0.454901960784314  0 0 0 0.0588235294117647 0  " in="shadowComposite" />
    </filter>
    <g id="widget2014">
      <path d="M 50 9125  A 9 9 0 0 1 59 9116 L 720 9116  A 9 9 0 0 1 729 9125 L 729 9214  A 9 9 0 0 1 720 9223 L 59 9223  A 9 9 0 0 1 50 9214 L 50 9125  Z " fill-rule="nonzero" fill="#81d3f8" stroke="none" fill-opacity="0.6" />
      <path d="M 49.5 9125  A 9.5 9.5 0 0 1 59 9115.5 L 720 9115.5  A 9.5 9.5 0 0 1 729.5 9125 L 729.5 9214  A 9.5 9.5 0 0 1 720 9223.5 L 59 9223.5  A 9.5 9.5 0 0 1 49.5 9214 L 49.5 9125  Z " stroke-width="1" stroke-dasharray="9,4,2,4,2,4" stroke="#02a7f0" fill="none" stroke-dashoffset="0.5" />
    </g>
  </defs>
  <g transform="matrix(1 0 0 1 -46 -9112 )">
    <use xlink:href="#widget2014" filter="url(#filter2013)" />
    <use xlink:href="#widget2014" />
  </g>
</svg>