<svg xmlns="http://www.w3.org/2000/svg" xmlns:xlink="http://www.w3.org/1999/xlink" fill="none" version="1.1" width="47.2877197265625" height="37.470703125" viewBox="0 0 47.2877197265625 37.470703125"><g transform="matrix(0.0010227415477856994,0.9999143481254578,-0.9999143481254578,0.0010227415477856994,47.20106573453653,-47.245342649643135)" style="opacity:0.30000001192092896;"><g><path d="M83.71764640960694,47.24212931289673C84.16544640960694,47.316729312896726,84.58934640960693,47.01422931289673,84.66364640960694,46.56622931289673C84.73834640960693,46.118329312896726,84.43574640960694,45.694729312896726,83.98814640960694,45.62012931289673C83.98814640960694,45.62012931289673,83.71764640960694,47.24212931289673,83.71764640960694,47.24212931289673C83.71764640960694,47.24212931289673,83.71764640960694,47.24212931289673,83.71764640960694,47.24212931289673ZM67.54074640960692,37.485629312896734C67.54074640960692,37.485629312896734,68.36204640960693,37.44652931289673,68.36204640960693,37.44652931289673C68.36204640960693,37.44652931289673,67.54074640960692,37.485629312896734,67.54074640960692,37.485629312896734C67.54074640960692,37.485629312896734,67.54074640960692,37.485629312896734,67.54074640960692,37.485629312896734ZM70.96104640960694,29.358829312896727C70.96104640960694,29.358829312896727,70.45634640960694,28.70992931289673,70.45634640960694,28.70992931289673C70.45634640960694,28.70992931289673,70.96104640960694,29.358829312896727,70.96104640960694,29.358829312896727C70.96104640960694,29.358829312896727,70.96104640960694,29.358829312896727,70.96104640960694,29.358829312896727ZM77.04154640960694,35.08862931289673C77.04154640960694,35.08862931289673,77.50734640960694,35.76612931289673,77.50734640960694,35.76612931289673C77.50734640960694,35.76612931289673,77.04154640960694,35.08862931289673,77.04154640960694,35.08862931289673C77.04154640960694,35.08862931289673,77.04154640960694,35.08862931289673,77.04154640960694,35.08862931289673ZM64.44214640960693,34.065429312896725C64.44214640960693,34.065429312896725,64.75154640960693,33.30372931289673,64.75154640960693,33.30372931289673C64.75154640960693,33.30372931289673,64.44214640960693,34.065429312896725,64.44214640960693,34.065429312896725C64.44214640960693,34.065429312896725,64.44214640960693,34.065429312896725,64.44214640960693,34.065429312896725ZM54.15204640960693,22.401429312896727C54.15204640960693,22.401429312896727,54.904586409606935,22.070329312896728,54.904586409606935,22.070329312896728C54.904586409606935,22.070329312896728,54.15204640960693,22.401429312896727,54.15204640960693,22.401429312896727C54.15204640960693,22.401429312896727,54.15204640960693,22.401429312896727,54.15204640960693,22.401429312896727ZM50.86102040960694,7.7017493128967285C51.26715640960693,7.904829312896728,51.76101640960693,7.740219312896729,51.96409640960693,7.334089312896729C52.167186409606934,6.927956312896729,52.00257640960693,6.4340913128967285,51.59644640960693,6.231006012896729C51.59644640960693,6.231006012896729,50.86102040960694,7.7017493128967285,50.86102040960694,7.7017493128967285C50.86102040960694,7.7017493128967285,50.86102040960694,7.7017493128967285,50.86102040960694,7.7017493128967285ZM83.98814640960694,45.62012931289673C81.89814640960694,45.27182931289673,77.98024640960693,44.65092931289673,74.54964640960694,43.33772931289673C72.83444640960693,42.68132931289673,71.29664640960694,41.871929312896725,70.18174640960693,40.879429312896725C69.07834640960694,39.897429312896726,68.42514640960694,38.77222931289673,68.36204640960693,37.44652931289673C68.36204640960693,37.44652931289673,66.71954640960693,37.52482931289673,66.71954640960693,37.52482931289673C66.80914640960694,39.40792931289673,67.75284640960693,40.91892931289673,69.08844640960693,42.10772931289673C70.41244640960693,43.28642931289673,72.15584640960694,44.18222931289673,73.96184640960693,44.87352931289673C77.57364640960694,46.25582931289673,81.65904640960693,46.89872931289673,83.71764640960694,47.24212931289673C83.71764640960694,47.24212931289673,83.98814640960694,45.62012931289673,83.98814640960694,45.62012931289673C83.98814640960694,45.62012931289673,83.98814640960694,45.62012931289673,83.98814640960694,45.62012931289673ZM68.36204640960693,37.44652931289673C68.30504640960693,36.25022931289673,68.57834640960694,34.766229312896726,69.13774640960693,33.371329312896734C69.69894640960693,31.97212931289673,70.51304640960693,30.748929312896728,71.46584640960694,30.007829312896728C71.46584640960694,30.007829312896728,70.45634640960694,28.70992931289673,70.45634640960694,28.70992931289673C69.19964640960694,29.68732931289673,68.23994640960693,31.192329312896728,67.61154640960693,32.75922931289673C66.98144640960693,34.33052931289673,66.64934640960693,36.05072931289673,66.71954640960693,37.52482931289673C66.71954640960693,37.52482931289673,68.36204640960693,37.44652931289673,68.36204640960693,37.44652931289673C68.36204640960693,37.44652931289673,68.36204640960693,37.44652931289673,68.36204640960693,37.44652931289673ZM71.46584640960694,30.007829312896728C73.52794640960693,28.40402931289673,76.27054640960694,28.689829312896727,77.73434640960693,29.80722931289673C78.44534640960694,30.34992931289673,78.77014640960694,31.015529312896728,78.70004640960693,31.692829312896727C78.62744640960693,32.39402931289673,78.10784640960694,33.35772931289673,76.57574640960694,34.41102931289673C76.57574640960694,34.41102931289673,77.50734640960694,35.76612931289673,77.50734640960694,35.76612931289673C79.24524640960693,34.57122931289673,80.19374640960693,33.23332931289673,80.33564640960694,31.862029312896727C80.48004640960693,30.466829312896728,79.76564640960693,29.28912931289673,78.73204640960694,28.50012931289673C76.70674640960694,26.95412931289673,73.13904640960693,26.62332931289673,70.45634640960694,28.70992931289673C70.45634640960694,28.70992931289673,71.46584640960694,30.007829312896728,71.46584640960694,30.007829312896728C71.46584640960694,30.007829312896728,71.46584640960694,30.007829312896728,71.46584640960694,30.007829312896728ZM76.57574640960694,34.41102931289673C74.99324640960694,35.499029312896724,73.01904640960693,35.64082931289673,70.88984640960693,35.27462931289673C68.75974640960693,34.90822931289673,66.60484640960694,34.05662931289673,64.75154640960693,33.30372931289673C64.75154640960693,33.30372931289673,64.13264640960693,34.82712931289673,64.13264640960693,34.82712931289673C65.97034640960693,35.57372931289673,68.28114640960693,36.49442931289673,70.61114640960693,36.89522931289673C72.94204640960693,37.296129312896724,75.42194640960693,37.19972931289673,77.50734640960694,35.76612931289673C77.50734640960694,35.76612931289673,76.57574640960694,34.41102931289673,76.57574640960694,34.41102931289673C76.57574640960694,34.41102931289673,76.57574640960694,34.41102931289673,76.57574640960694,34.41102931289673ZM64.75154640960693,33.30372931289673C59.62169640960693,31.219729312896728,57.143416409606935,27.15852931289673,54.904586409606935,22.070329312896728C54.904586409606935,22.070329312896728,53.399486409606936,22.73252931289673,53.399486409606936,22.73252931289673C55.677796409606934,27.910529312896728,58.38095640960694,32.490529312896726,64.13264640960693,34.82712931289673C64.13264640960693,34.82712931289673,64.75154640960693,33.30372931289673,64.75154640960693,33.30372931289673C64.75154640960693,33.30372931289673,64.75154640960693,33.30372931289673,64.75154640960693,33.30372931289673ZM54.904586409606935,22.070329312896728C54.65154640960694,21.49522931289673,54.291626409606934,20.24982931289673,53.90060640960694,18.64092931289673C53.515596409606935,17.056729312896728,53.115706409606936,15.185699312896729,52.77527640960693,13.405619312896729C52.43436640960693,11.622969312896728,52.15600640960693,9.946629312896729,52.011366409606936,8.748429312896729C51.93815640960693,8.141979312896728,51.90340640960693,7.690859312896729,51.90548640960694,7.416969312896729C51.906686409606934,7.260879312896728,51.92037640960693,7.243549312896729,51.90490640960694,7.292879312896728C51.90195640960693,7.302259312896728,51.85218640960694,7.479889312896729,51.66193640960693,7.624119312896728C51.54922640960693,7.709569312896728,51.40049640960693,7.772009312896729,51.23012940960693,7.779379312896729C51.06850740960694,7.786369312896729,50.940840409606935,7.741659312896728,50.86102040960694,7.7017493128967285C50.86102040960694,7.7017493128967285,51.59644640960693,6.231006012896729,51.59644640960693,6.231006012896729C51.492246409606935,6.178906112896729,51.341836409606934,6.128647832896728,51.15905740960693,6.136553914896728C50.967534409606934,6.144841492896728,50.799241409606935,6.214657712896728,50.668523409606934,6.313756312896729C50.44226640960694,6.485286312896728,50.36270840960693,6.715317312896729,50.33591880960693,6.800723312896729C50.272752309606936,7.002098312896728,50.26250137960693,7.231299312896729,50.261179316606935,7.404409312896728C50.258242489606936,7.788919312896729,50.30417930960694,8.326839312896729,50.37885940960693,8.94548931289673C50.529989409606934,10.197469312896729,50.81614840960693,11.915499312896728,51.16019040960693,13.714499312896727C51.50472640960693,15.516089312896728,51.91023640960693,17.41402931289673,52.302756409606936,19.029229312896728C52.68927640960693,20.61972931289673,53.079016409606936,22.004229312896726,53.399486409606936,22.73252931289673C53.399486409606936,22.73252931289673,54.904586409606935,22.070329312896728,54.904586409606935,22.070329312896728C54.904586409606935,22.070329312896728,54.904586409606935,22.070329312896728,54.904586409606935,22.070329312896728Z" fill="#004CA4" fill-opacity="1"/></g><g><path d="M50.0433096484375,1.50852C49.6445096484375,1.2914,49.1451996484375,1.43868,48.9280796484375,1.83748C48.7109496484375,2.23628,48.8582296484375,2.73559,49.2570296484375,2.95271C49.2570296484375,2.95271,50.0433096484375,1.50852,50.0433096484375,1.50852C50.0433096484375,1.50852,50.0433096484375,1.50852,50.0433096484375,1.50852ZM55.7013996484375,5.62165C55.7013996484375,5.62165,55.1966496484375,6.27064,55.1966496484375,6.27064C55.1966496484375,6.27064,55.7013996484375,5.62165,55.7013996484375,5.62165C55.7013996484375,5.62165,55.7013996484375,5.62165,55.7013996484375,5.62165ZM53.0704196484375,3.54609C53.0704196484375,3.54609,53.6517996484375,2.96472,53.6517996484375,2.96472C53.6517996484375,2.96472,53.0704196484375,3.54609,53.0704196484375,3.54609C53.0704196484375,3.54609,53.0704196484375,3.54609,53.0704196484375,3.54609ZM50.1763596484375,0.915111C50.1763596484375,0.915111,50.818369648437496,0.401499,50.818369648437496,0.401499C50.818369648437496,0.401499,50.818369648437496,0.401499,50.818369648437496,0.401499C50.818369648437496,0.401499,50.1763596484375,0.915111,50.1763596484375,0.915111C50.1763596484375,0.915111,50.1763596484375,0.915111,50.1763596484375,0.915111ZM47.2493896484375,6.96637C47.2493896484375,7.42045,47.6174926484375,7.78855,48.0715696484375,7.78855C48.5256496484375,7.78855,48.8937496484375,7.42045,48.8937496484375,6.96637C48.8937496484375,6.96637,47.2493896484375,6.96637,47.2493896484375,6.96637C47.2493896484375,6.96637,47.2493896484375,6.96637,47.2493896484375,6.96637ZM49.2570296484375,2.95271C49.6408496484375,3.16168,51.2997796484375,4.12729,52.8129196484375,4.99515C53.5615596484375,5.42455,54.2712296484375,5.82805,54.7534196484375,6.09233C54.9874796484375,6.22062,55.1908596484375,6.32882,55.3194096484375,6.38851C55.3513796484375,6.40334,55.3968296484375,6.42373,55.4452696484375,6.44123C55.4672396484375,6.44919,55.5129896484375,6.4651,55.5702796484375,6.4774C55.5985596484375,6.48349,55.6502296484375,6.49322,55.7152396484375,6.49585C55.765429648437504,6.49789,55.9084896484375,6.50062,56.072959648437504,6.43094C56.2817596484375,6.34247,56.5048696484375,6.13916,56.5628096484375,5.81818C56.6076396484375,5.56995,56.5261096484375,5.38098,56.4971696484375,5.31938C56.4342896484375,5.18556,56.3483596484375,5.09999,56.3363196484375,5.08756C56.284949648437504,5.03438,56.2313496484375,4.99222,56.2061896484375,4.97265C56.2061896484375,4.97265,55.1966496484375,6.27064,55.1966496484375,6.27064C55.2132196484375,6.28353,55.1884596484375,6.26604,55.1537896484375,6.23013C55.1501096484375,6.22631,55.0694696484375,6.14755,55.0089596484375,6.01876C54.9811696484375,5.95963,54.900099648437504,5.77273,54.9445996484375,5.52608C55.0022496484375,5.20674,55.2243696484375,5.00458,55.431459648437496,4.91687C55.5941896484375,4.84791,55.7347796484375,4.85094,55.7818096484375,4.85284C55.8436696484375,4.85534,55.8914896484375,4.86455,55.9152296484375,4.86965C55.9633796484375,4.87997,55.9972796484375,4.89227,56.0046496484375,4.89494C56.0239596484375,4.90194,56.0295496484375,4.90526,56.0116296484375,4.89695C55.9406496484375,4.86399,55.7841096484375,4.7821,55.543769648437504,4.65039C55.0771996484375,4.39463,54.3801596484375,3.99841,53.6310496484375,3.56876C52.1486996484375,2.71854,50.4479796484375,1.72884,50.0433096484375,1.50852C50.0433096484375,1.50852,49.2570296484375,2.95271,49.2570296484375,2.95271C49.2570296484375,2.95271,49.2570296484375,2.95271,49.2570296484375,2.95271ZM56.2061896484375,4.97265C55.2398596484375,4.22108,54.3904496484375,3.70338,53.6517996484375,2.96472C53.6517996484375,2.96472,52.4890396484375,4.12745,52.4890396484375,4.12745C53.3190496484375,4.95746,54.4142296484375,5.6621,55.1966496484375,6.27064C55.1966496484375,6.27064,56.2061896484375,4.97265,56.2061896484375,4.97265C56.2061896484375,4.97265,56.2061896484375,4.97265,56.2061896484375,4.97265ZM53.6517996484375,2.96472C53.1503696484375,2.46329,52.5843796484375,2.02433,52.1034096484375,1.63034C51.6038196484375,1.22107,51.1700596484375,0.841113,50.818369648437496,0.401499C50.818369648437496,0.401499,49.5343396484375,1.42872,49.5343396484375,1.42872C50.0013096484375,2.01243,50.5506396484375,2.48399,51.0614096484375,2.90239C51.5908296484375,3.33607,52.0625596484375,3.70094,52.4890396484375,4.12745C52.4890396484375,4.12745,53.6517996484375,2.96472,53.6517996484375,2.96472C53.6517996484375,2.96472,53.6517996484375,2.96472,53.6517996484375,2.96472ZM50.818369648437496,0.401499C50.6878096484375,0.23829,50.4627796484375,0.046656,50.1319996484375,0.00708285C49.807379648437504,-0.0317503,49.5512096484375,0.0966774,49.3977696484375,0.207682C49.1234896484375,0.4061,48.9369696484375,0.719746,48.8156196484375,0.95214C48.5452696484375,1.46988,48.2864396484375,2.21983,48.0654366484375,2.97568C47.8403316484375,3.74556,47.6393236484375,4.57495,47.4940706484375,5.28182C47.3549346484375,5.9589,47.2493896484375,6.60517,47.2493896484375,6.96637C47.2493896484375,6.96637,48.8937496484375,6.96637,48.8937496484375,6.96637C48.8937496484375,6.79749,48.9615096484375,6.31001,49.1047696484375,5.6128C49.2419296484375,4.94535,49.4324196484375,4.15981,49.6437196484375,3.43715C49.8591096484375,2.70047,50.0815796484375,2.08028,50.2732296484375,1.71325C50.3828796484375,1.50327,50.422529648437504,1.49587,50.3615696484375,1.53997C50.3147896484375,1.57382,50.1620596484375,1.66676,49.9366796484375,1.6398C49.7051196484375,1.6121,49.5751096484375,1.47969,49.5343396484375,1.42872C49.5343396484375,1.42872,50.818369648437496,0.401499,50.818369648437496,0.401499C50.818369648437496,0.401499,50.818369648437496,0.401499,50.818369648437496,0.401499Z" fill="#004CA4" fill-opacity="1"/></g></g></svg>