<svg xmlns="http://www.w3.org/2000/svg" xmlns:xlink="http://www.w3.org/1999/xlink" fill="none" version="1.1" width="212.24000549316406" height="25.900001525878906" viewBox="0 0 212.24000549316406 25.900001525878906"><g><path d="M0.756,25.62L6.328,25.62L6.328,15.792L8.372,15.232L8.372,11.34L6.328,11.9L6.328,7.7L8.092,7.7L8.092,4.172L6.328,4.172L6.328,0.280001L2.688,0.280001L2.688,4.172L0.28,4.172L0.28,7.7L2.688,7.7L2.688,12.852L0,13.58L0,17.472L2.688,16.744L2.688,22.232L0.756,22.232L0.756,25.62ZM8.54,25.312L25.48,25.312L25.48,21.756L18.424,21.756L18.424,17.528L24.136,17.528L24.136,13.972L9.884,13.972L9.884,17.528L14.784,17.528L14.784,21.756L8.54,21.756L8.54,25.312ZM9.156,13.272Q13.552,12.264,15.904,10.528L15.904,6.832Q12.32,8.904,9.156,9.772L9.156,13.272ZM9.576,7.812L13.132,7.812L13.132,4.956L21.504,4.956L21.504,7.812L25.088,7.812L25.088,1.596L18.984,1.596L18.984,0L15.344,0L15.344,1.596L9.576,1.596L9.576,7.812ZM18.396,10.528Q21.028,12.264,25.424,13.272L25.424,9.772Q21.7,8.932,18.396,6.832L18.396,10.528ZM27.832,9.884L27.832,15.456C28.644,14.756,29.428,14,30.128,13.188L30.128,25.62L33.768,25.62L33.768,7.42C34.692,5.32,35.392,2.968,35.812,0.42L32.256,0.42C31.444,4.088,30.016,7.28,27.832,9.884ZM34.832,11.48L38.64,11.48C39.004,10.332,39.34,9.184,39.62,8.008L42.952,8.008L42.952,15.4L35,15.4L35,19.04L42.952,19.04L42.952,25.62L46.592,25.62L46.592,19.04L53.62,19.04L53.62,15.4L46.592,15.4L46.592,8.008L52.92,8.008L52.92,4.396L46.592,4.396L46.592,0.42L42.952,0.42L42.952,4.396L40.376,4.396C40.572,3.248,40.712,2.1,40.852,0.980001L37.408,0.980001C36.96,4.396,36.148,8.064,34.832,11.48ZM61.6,23.184C63.588,23.184,65.688,22.708,67.452,21.588L68.488,22.82L72.856,22.82L69.888,19.348C71.26,17.472,72.044,15.064,72.184,12.068L68.544,12.068C68.46,13.664,68.208,14.952,67.536,16.072L64.736,12.572C67.452,10.92,68.544,9.52,68.544,7.28C68.544,4.564,66.836,2.856,63.476,2.856C59.976,2.856,57.932,4.844,57.932,7.504C57.932,9.156,58.324,10.36,59.444,11.9C56.448,13.608,55.356,15.428,55.356,17.668C55.356,20.86,57.764,23.184,61.6,23.184ZM59.472,17.304C59.472,16.184,59.976,15.372,61.432,14.392L65.128,18.816C64.148,19.572,63.252,19.908,62.132,19.908C60.564,19.908,59.472,18.844,59.472,17.304ZM61.88,7.672C61.88,6.552,62.468,5.852,63.448,5.852C64.4,5.852,64.876,6.412,64.876,7.532C64.876,8.568,64.4,9.24,62.832,10.108C62.188,9.212,61.88,8.4,61.88,7.672ZM81.284,25.676L90.412,25.676L90.412,13.972L100.212,13.972L100.212,10.332L91.42,10.332C93.772,7.448,95.536,4.2,96.852,0.616001L77.336,0.616001L77.336,4.256L91.196,4.256C90.104,6.384,88.676,8.4,86.912,10.332L74.116,10.332L74.116,13.972L86.66,13.972L86.66,21.98L81.284,21.98L81.284,25.676ZM104.44,19.152L108.052,19.152L108.052,9.94L122.276,9.94L122.276,19.152L125.888,19.152L125.888,6.356L117.012,6.356L117.012,4.228L127.764,4.228L127.764,0.672001L102.564,0.672001L102.564,4.228L113.316,4.228L113.316,6.356L104.44,6.356L104.44,19.152ZM102.536,25.9C112.588,23.828,117.18,19.208,117.18,11.34L113.596,11.34C113.596,17.808,109.452,20.692,102.536,22.26L102.536,25.9ZM115.864,21.98L127.764,25.9L127.764,22.26L115.864,18.34L115.864,21.98ZM131.404,6.748L131.404,25.2L154.924,25.2L154.924,6.748L144.368,6.748L144.872,4.508L155.988,4.508L155.988,0.924002L130.34,0.924002L130.34,4.508L141.12,4.508L140.616,6.748L131.404,6.748ZM134.988,21.672L134.988,10.332L137.424,10.332L137.424,21.672L134.988,21.672ZM140.952,21.672L140.952,19.768L145.376,19.768L145.376,21.672L140.952,21.672ZM140.952,16.968L140.952,15.008L145.376,15.008L145.376,16.968L140.952,16.968ZM140.952,12.208L140.952,10.332L145.376,10.332L145.376,12.208L140.952,12.208ZM148.904,21.672L148.904,10.332L151.34,10.332L151.34,21.672L148.904,21.672ZM182.84,8.596L182.84,0.672001L160.02,0.672001L160.02,12.712C160.02,17.64,159.572,21.336,158.004,25.62L161.952,25.62C162.624,23.24,163.044,20.72,163.296,18.144L166.404,18.144L166.404,25.62L172.984,25.62L172.984,22.092L169.988,22.092L169.988,18.144L174.02,18.144C174.972,20.86,176.26,23.184,178.304,25.62L182.896,25.62C181.86,24.584,180.992,23.576,180.236,22.54L182,22.54L184.212,18.872L180.516,18.872L179.228,21.028C178.668,20.104,178.22,19.152,177.856,18.144L183.456,18.144L183.456,15.176L178.864,15.176L178.864,13.356L182.364,13.356L182.364,10.388L178.864,10.388L178.864,8.568L182.84,8.596ZM163.492,15.176C163.52,14.56,163.548,13.972,163.548,13.356L167.832,13.356L167.832,15.176L163.492,15.176ZM163.548,10.388L163.548,8.484L167.832,8.512L167.832,10.388L163.548,10.388ZM163.548,5.376L163.548,3.892L179.2,3.892L179.2,5.376L163.548,5.376ZM171.36,15.176L171.36,13.356L175.336,13.356L175.336,15.176L171.36,15.176ZM171.36,10.388L171.36,8.512L175.336,8.54L175.336,10.388L171.36,10.388ZM194.32,25.676L201.572,25.676L201.572,12.012L211.988,12.012L211.988,8.484L186.34,8.484L186.34,12.012L197.876,12.012L197.876,22.092L194.32,22.092L194.32,25.676ZM186.088,24.416L190.316,24.416C191.604,21.392,192.752,18.116,193.676,14.476L189.784,14.476C188.86,17.948,187.6,21.196,186.088,24.416ZM188.384,4.592L209.944,4.592L209.944,1.12L188.384,1.12L188.384,4.592ZM204.652,14.476C205.576,18.116,206.724,21.392,208.012,24.416L212.24,24.416C210.728,21.196,209.468,17.948,208.544,14.476L204.652,14.476Z" fill="#333333" fill-opacity="1"/></g></svg>