<svg xmlns="http://www.w3.org/2000/svg" xmlns:xlink="http://www.w3.org/1999/xlink" fill="none" version="1.1" width="109.1719970703125" height="25.676000595092773" viewBox="0 0 109.1719970703125 25.676000595092773"><g><path d="M10.5,25.592L15.428,25.592C16.716,23.856,17.808,22.232,18.788,20.552L21.308,25.592L25.676,25.592L21.14,16.828C22.316,14.056,23.212,10.948,23.996,6.776L25.396,6.776L25.396,3.136L17.388,3.136C17.612,2.156,17.836,1.176,18.032,0.167999L14.084,0.167999C13.188,4.256,12.04,8.176,10.36,12.068L10.36,0.952L0,0.952L0,4.564L6.748,4.564L6.748,10.472L0.7,10.472L0.7,25.452L11.172,23.184L11.172,19.292L4.312,20.776L4.312,14.056L10.36,14.056L10.36,12.208L14.168,12.208L16.436,17.052C14.924,19.936,12.992,22.484,10.5,25.592ZM16.212,7.476C16.268,7.224,16.352,7,16.408,6.776L20.244,6.776C19.74,9.184,19.208,11.256,18.564,13.132L16.212,7.476ZM42.168,25.592L46.368,25.592C47.124,24.472,47.824,23.296,48.468,22.092L50.092,25.592L53.732,25.592L50.316,18.2C51.688,15.008,52.752,11.508,53.508,7.784L42.924,7.784L42.924,4.032C46.368,3.948,50.008,3.78,53.172,3.444L53.172,0C48.944,0.42,43.904,0.615999,39.62,0.615999L39.62,12.992C39.62,17.332,39.2,20.664,37.716,24.332L37.716,13.076L32.2,13.076L32.2,10.5L38.5,10.5L38.5,6.916L37.044,6.916L37.044,0.391998L33.796,0.391998L33.796,6.916L32.2,6.916L32.2,0.811998L28.84,0.811998L28.84,13.748C28.84,17.92,28.588,21.392,27.412,25.592L31.024,25.592C31.724,22.4,32.032,19.684,32.144,16.66L34.412,16.66L34.412,25.592L40.964,25.592C42.364,21.504,42.924,17.528,42.924,12.992L42.924,11.172L46.312,18.984C45.136,21.224,43.764,23.436,42.168,25.592ZM46.508,11.144L49.504,11.144C49.112,12.46,48.636,13.776,48.132,15.064L46.508,11.144ZM80.472,14.224L67.032,14.224L67.032,25.312L80.472,25.312L80.472,14.224ZM55.496,10.416L59.08,12.376L56.084,18.984L65.128,18.984L65.128,15.372L61.796,15.372L65.996,6.104L62.44,6.104L61.124,8.988L60.088,8.4L63.784,0.391998L60.088,0.391998L55.496,10.416ZM55.972,25.424L65.128,24.5L65.128,20.888L55.972,21.812L55.972,25.424ZM66.108,5.964L71.932,5.964L71.932,8.68L66.416,8.68L66.416,12.208L81.088,12.208L81.088,8.68L75.572,8.68L75.572,5.964L81.396,5.964L81.396,2.436L75.572,2.436L75.572,0.279999L71.932,0.279999L71.932,2.436L66.108,2.436L66.108,5.964ZM70.644,21.756L70.644,17.78L76.86,17.78L76.86,21.756L70.644,21.756ZM107.408,0.671999L85.736,0.671999L85.736,13.104L94.78,13.104L94.78,14.756L83.972,14.756L83.972,18.228L89.348,18.228C88.368,20.104,86.604,21.392,83.972,22.036L83.972,25.676C89.012,24.444,91.952,21.98,92.932,18.228L94.78,18.228L94.78,25.592L98.364,25.592L98.364,18.228L100.212,18.228C101.192,21.98,104.132,24.444,109.172,25.676L109.172,22.036C106.54,21.392,104.776,20.104,103.796,18.228L109.172,18.228L109.172,14.756L98.364,14.756L98.364,13.104L107.408,13.104L107.408,0.671999ZM89.32,10.024L89.32,8.232L94.78,8.232L94.78,10.024L89.32,10.024ZM89.32,5.516L89.32,3.752L94.78,3.752L94.78,5.516L89.32,5.516ZM98.364,10.024L98.364,8.232L103.824,8.232L103.824,10.024L98.364,10.024ZM98.364,5.516L98.364,3.752L103.824,3.752L103.824,5.516L98.364,5.516Z" fill="#333333" fill-opacity="1"/></g></svg>