<svg xmlns="http://www.w3.org/2000/svg" xmlns:xlink="http://www.w3.org/1999/xlink" fill="none" version="1.1" width="259.05322265625" height="198.79837036132812" viewBox="0 0 259.05322265625 198.79837036132812"><g><g transform="matrix(1,0,-0.06985185295343399,0.9975574016571045,0,0)"><path d="M25.7971669921875,0.688499L28.7024669921875,0.688499L28.7024669921875,29.5419Q28.7024669921875,31.041,28.2760669921875,31.7458Q27.8497669921875,32.4512,26.8771669921875,32.7915Q25.8899669921875,33.1177,24.1771669921875,33.2167Q22.464866992187503,33.3163,19.9330969921875,33.3022Q19.854916992187498,32.9197,19.666476992187498,32.4129Q19.478036992187498,31.9061,19.2614769921875,31.3881Q19.0454769921875,30.87,18.8109169921875,30.4796Q20.1468469921875,30.5297,21.367466992187502,30.5437Q22.5886669921875,30.5578,23.5027669921875,30.5398Q24.416766992187497,30.5218,24.7908669921875,30.5218Q25.337066992187502,30.4999,25.5670669921875,30.2951Q25.7971669921875,30.0898,25.7971669921875,29.5498L25.7971669921875,0.688499ZM34.4810669921875,9.86118L37.0814669921875,8.87568Q38.675066992187496,11.4097,40.1240669921875,14.2971Q41.5730669921875,17.1838,42.6715669921875,19.9479Q43.7707669921875,22.7121,44.2246669921875,24.8839L41.3193669921875,26.0539Q40.9075669921875,23.9102,39.8798669921875,21.1213Q38.852266992187495,18.3319,37.4380669921875,15.3849Q36.0245669921875,12.4374,34.4810669921875,9.86118ZM16.3651669921875,9.13218L19.376226992187497,9.63506Q18.7861669921875,12.2608,17.8850369921875,15.1712Q16.9844769921875,18.0816,15.7188569921875,20.7591Q14.4532269921875,23.436,12.815226992187501,25.452Q12.4968569921875,25.2034,12.0327869921875,24.9339Q11.5692869921875,24.6645,11.0979169921875,24.4164Q10.6271039921875,24.1678,10.2586669921875,24.0114Q11.8679769921875,22.1017,13.0655369921875,19.5531Q14.263666992187499,17.0038,15.097286992187499,14.2751Q15.9309169921875,11.5459,16.3651669921875,9.13218ZM68.2838669921875,17.1456L70.9563669921875,17.1456L70.9563669921875,31.5501L68.2838669921875,31.5501L68.2838669921875,17.1456ZM60.3959669921875,16.1601L78.9820669921875,16.1601L78.9820669921875,18.5377L60.3959669921875,18.5377L60.3959669921875,16.1601ZM58.8141669921875,29.9329L79.7740669921875,29.9329L79.7740669921875,32.3392L58.8141669921875,32.3392L58.8141669921875,29.9329ZM61.2380669921875,22.878L78.1782669921875,22.878L78.1782669921875,25.2135L61.2380669921875,25.2135L61.2380669921875,22.878ZM64.2653669921875,4.02187L64.2653669921875,10.6667L75.1205669921875,10.6667L75.1205669921875,4.02187L64.2653669921875,4.02187ZM61.7470669921875,1.68581L77.7372669921875,1.68581L77.7372669921875,13.0027L61.7470669921875,13.0027L61.7470669921875,1.68581ZM52.7408669921875,3.15562L55.3790669921875,3.15562L55.3790669921875,33.2207L52.7408669921875,33.2207L52.7408669921875,3.15562ZM46.8548669921875,10.3224L59.9110669921875,10.3224L59.9110669921875,12.8548L46.8548669921875,12.8548L46.8548669921875,10.3224ZM52.8753669921875,11.2922L54.5673669921875,12.0094Q54.0194669921875,13.9095,53.2364669921875,15.9609Q52.4540669921875,18.0118,51.5230669921875,20.0053Q50.5921669921875,21.9982,49.5723669921875,23.7352Q48.5525669921875,25.4722,47.5085669921875,26.7086Q47.3020669921875,26.1495,46.8852669921875,25.4346Q46.4690669921875,24.7191,46.1208669921875,24.2381Q47.1007669921875,23.1581,48.0850669921875,21.6371Q49.0700669921875,20.1161,49.9868669921875,18.3566Q50.9037669921875,16.5971,51.6473669921875,14.7786Q52.3910669921875,12.96,52.8753669921875,11.2922ZM58.0835669921875,0.691875L59.9802669921875,2.76975Q58.3220669921875,3.42394,56.1996669921875,3.98925Q54.0773669921875,4.554,51.8133669921875,4.97194Q49.5492669921875,5.38987,47.4471669921875,5.69981Q47.3690669921875,5.25319,47.1237669921875,4.65412Q46.8785669921875,4.05506,46.6439669921875,3.61406Q48.6678669921875,3.26812,50.8047669921875,2.82937Q52.9416669921875,2.39006,54.8541669921875,1.836Q56.7672669921875,1.28194,58.0835669921875,0.691875ZM55.2631669921875,14.9496Q55.6090669921875,15.2454,56.3121669921875,15.9486Q57.0153669921875,16.6511,57.8410669921875,17.4729Q58.6668669921875,18.2947,59.3373669921875,19.0091Q60.0083669921875,19.7229,60.2823669921875,20.0548L58.6701669921875,22.1822Q58.3461669921875,21.6382,57.7460669921875,20.8001Q57.1463669921875,19.962,56.4308669921875,19.0412Q55.7153669921875,18.1198,55.0724669921875,17.3109Q54.4295669921875,16.5015,53.9975669921875,16.0431L55.2631669921875,14.9496ZM91.4628669921875,9.27731L109.7423669921875,9.27731L109.7423669921875,11.5149L91.4628669921875,11.5149L91.4628669921875,9.27731ZM89.3860669921875,18.3161L113.1556669921875,18.3161L113.1556669921875,20.6516L89.3860669921875,20.6516L89.3860669921875,18.3161ZM100.5961669921875,19.2375L103.2966669921875,19.2375L103.2966669921875,30.173Q103.2966669921875,31.3858,102.9462669921875,32.0057Q102.5963669921875,32.6255,101.5951669921875,32.9242Q100.6225669921875,33.2302,98.9800669921875,33.2764Q97.3381669921875,33.3225,94.8799669921875,33.3225Q94.8023669921875,32.7476,94.5177669921875,32.0563Q94.2331669921875,31.365,93.9490669921875,30.7963Q95.2799669921875,30.8323,96.4589669921875,30.8503Q97.6379669921875,30.8683,98.5047669921875,30.8571Q99.3721669921875,30.8464,99.7180669921875,30.8464Q100.2439669921875,30.8025,100.4200669921875,30.6613Q100.5961669921875,30.5207,100.5961669921875,30.1387L100.5961669921875,19.2375ZM112.3646669921875,18.3161L112.8406669921875,18.3161L113.3026669921875,18.1597L115.2466669921875,18.999Q113.8636669921875,20.9413,112.3746669921875,22.9117Q110.8866669921875,24.8816,109.5134669921875,26.2322L107.3573669921875,25.1724Q108.5808669921875,23.9642,109.9499669921875,22.1794Q111.3186669921875,20.394,112.3646669921875,18.7301L112.3646669921875,18.3161ZM108.9048669921875,9.27731L109.5781669921875,9.27731L110.1811669921875,9.135L111.9426669921875,10.4754Q110.7046669921875,11.7416,109.1050669921875,13.0219Q107.5064669921875,14.3021,105.7559669921875,15.4052Q104.0059669921875,16.5082,102.3021669921875,17.3205Q102.0316669921875,16.9582,101.5878669921875,16.4936Q101.1439669921875,16.0284,100.8239669921875,15.7438Q102.2954669921875,15.0322,103.8327669921875,14.0102Q105.3706669921875,12.9881,106.7178669921875,11.8862Q108.0655669921875,10.7842,108.9048669921875,9.81L108.9048669921875,9.27731ZM86.7327669921875,4.19569L115.3416669921875,4.19569L115.3416669921875,6.73594L86.7327669921875,6.73594L86.7327669921875,4.19569ZM85.4204669921875,4.19569L88.0512669921875,4.19569L88.0512669921875,14.2149Q88.0512669921875,16.3074,87.9179669921875,18.7869Q87.7851669921875,21.2664,87.4150669921875,23.85Q87.0449669921875,26.4336,86.3294669921875,28.8922Q85.6145669921875,31.3504,84.4641669921875,33.4007Q84.2521669921875,33.1661,83.8189669921875,32.8753Q83.3864669921875,32.5851,82.9578669921875,32.3083Q82.5291669921875,32.0321,82.2023669921875,31.8898Q83.3104669921875,29.9458,83.9584669921875,27.6902Q84.6064669921875,25.434,84.9231669921875,23.0737Q85.2404669921875,20.7135,85.3304669921875,18.4432Q85.4204669921875,16.173,85.4204669921875,14.2009L85.4204669921875,4.19569ZM94.4693669921875,14.6689L96.0781669921875,13.0922Q97.7661669921875,13.7919,99.7118669921875,14.6751Q101.6575669921875,15.5582,103.4693669921875,16.4334Q105.2811669921875,17.3081,106.4770669921875,18.0281L104.7698669921875,19.8326Q103.6302669921875,19.1346,101.8752669921875,18.2166Q100.1208669921875,17.2986,98.1638669921875,16.3586Q96.2069669921875,15.4187,94.4693669921875,14.6689ZM98.0502669921875,0.753187L100.6574669921875,0Q101.2930669921875,1.08788,101.9686669921875,2.41312Q102.6441669921875,3.73781,102.9979669921875,4.62994L100.2648669921875,5.55525Q99.9312669921875,4.61925,99.2877669921875,3.2445Q98.6442669921875,1.86919,98.0502669921875,0.753187ZM126.7116669921875,29.988L145.7436669921875,29.988L145.7436669921875,32.0991L126.7116669921875,32.0991L126.7116669921875,29.988ZM120.7446669921875,10.2802L150.0506669921875,10.2802L150.0506669921875,16.2472L147.3146669921875,16.2472L147.3146669921875,12.4194L123.3466669921875,12.4194L123.3466669921875,16.2472L120.7446669921875,16.2472L120.7446669921875,10.2802ZM126.5396669921875,14.6554L145.6256669921875,14.6554L145.6256669921875,21.8919L126.5396669921875,21.8919L126.5396669921875,19.8231L142.9946669921875,19.8231L142.9946669921875,16.7242L126.5396669921875,16.7242L126.5396669921875,14.6554ZM126.6746669921875,24.3832L147.5246669921875,24.3832L147.5246669921875,33.2488L144.8526669921875,33.2488L144.8526669921875,26.5022L126.6746669921875,26.5022L126.6746669921875,24.3832ZM124.7016669921875,14.6554L127.4166669921875,14.6554L127.4166669921875,33.3146L124.7016669921875,33.3146L124.7016669921875,14.6554ZM132.9556669921875,7.99087L135.3596669921875,7.49418Q135.89166699218748,8.23443,136.3586669921875,9.20193Q136.82666699218748,10.1689,136.9986669921875,10.8731L134.4736669921875,11.4637Q134.2936669921875,10.7657,133.8546669921875,9.79537Q133.41566699218748,8.82506,132.9556669921875,7.99087ZM123.0506669921875,3.1095L134.5106669921875,3.1095L134.5106669921875,5.10806L123.0506669921875,5.10806L123.0506669921875,3.1095ZM138.0566669921875,3.13144L150.9486669921875,3.13144L150.9486669921875,5.13L138.0566669921875,5.13L138.0566669921875,3.13144ZM123.1016669921875,0.0438747L125.7236669921875,0.533249Q124.9486669921875,3.10275,123.6856669921875,5.48719Q122.4226669921875,7.87162,120.9706669921875,9.51975Q120.7296669921875,9.33525,120.3076669921875,9.09Q119.8856669921875,8.84475,119.4396669921875,8.6175Q118.9926669921875,8.38968,118.6516669921875,8.24793Q120.1476669921875,6.72018,121.2906669921875,4.54612Q122.4326669921875,2.37206,123.1016669921875,0.0438747ZM138.3296669921875,0.0877495L140.9546669921875,0.570938Q140.3576669921875,2.75119,139.3236669921875,4.78631Q138.2896669921875,6.82144,137.05366699218752,8.25356Q136.82666699218748,8.04712,136.4186669921875,7.81987Q136.0106669921875,7.59262,135.5786669921875,7.35468Q135.1456669921875,7.11618,134.8196669921875,6.97387Q136.0356669921875,5.68406,136.9416669921875,3.86606Q137.8476669921875,2.04806,138.3296669921875,0.0877495ZM126.0466669921875,4.59787L128.2106669921875,3.90487Q128.9066669921875,4.92075,129.60566699218748,6.17062Q130.3046669921875,7.4205,130.5916669921875,8.29856L128.2936669921875,9.10575Q128.0136669921875,8.20575,127.3706669921875,6.93506Q126.7296669921875,5.66381,126.0466669921875,4.59787ZM141.4146669921875,4.7835L143.5146669921875,3.93412Q144.3696669921875,4.92019,145.2266669921875,6.13631Q146.0836669921875,7.35187,146.4776669921875,8.22206L144.2666669921875,9.22219Q143.8926669921875,8.33006,143.0776669921875,7.07512Q142.2636669921875,5.81962,141.4146669921875,4.7835ZM170.2276669921875,10.9929L170.2276669921875,15.6262L183.5966669921875,15.6262L183.5966669921875,10.9929L170.2276669921875,10.9929ZM170.2276669921875,4.194L170.2276669921875,8.76937L183.5966669921875,8.76937L183.5966669921875,4.194L170.2276669921875,4.194ZM167.7516669921875,1.84387L186.1926669921875,1.84387L186.1926669921875,17.9758L167.7516669921875,17.9758L167.7516669921875,1.84387ZM167.3146669921875,22.203L186.6926669921875,22.203L186.6926669921875,24.6651L167.3146669921875,24.6651L167.3146669921875,22.203ZM164.5426669921875,29.6286L187.9026669921875,29.6286L187.9026669921875,32.1047L164.5426669921875,32.1047L164.5426669921875,29.6286ZM154.7486669921875,2.6055L165.9766669921875,2.6055L165.9766669921875,5.14575L154.7486669921875,5.14575L154.7486669921875,2.6055ZM155.1166669921875,13.0252L165.4606669921875,13.0252L165.4606669921875,15.5514L155.1166669921875,15.5514L155.1166669921875,13.0252ZM154.3606669921875,26.8087Q155.8266669921875,26.3908,157.6846669921875,25.8261Q159.5436669921875,25.2607,161.6176669921875,24.57Q163.6926669921875,23.8787,165.7776669921875,23.1947L166.2396669921875,25.7912Q163.3106669921875,26.7694,160.3666669921875,27.7695Q157.4216669921875,28.7696,155.0296669921875,29.5678L154.3606669921875,26.8087ZM159.2246669921875,3.61294L161.8216669921875,3.61294L161.8216669921875,25.9166L159.2246669921875,26.4307L159.2246669921875,3.61294ZM175.7386669921875,2.96325L178.0966669921875,2.96325L178.0966669921875,16.8165L178.2926669921875,16.8165L178.2926669921875,30.7406L175.5416669921875,30.7406L175.5416669921875,16.8165L175.7386669921875,16.8165L175.7386669921875,2.96325ZM195.8846669921875,10.1582L223.4506669921875,10.1582L223.4506669921875,12.7468L195.8846669921875,12.7468L195.8846669921875,10.1582ZM201.6406669921875,28.935L219.1216669921875,28.935L219.1216669921875,31.4752L201.6406669921875,31.4752L201.6406669921875,28.935ZM218.6656669921875,0.469687L220.9456669921875,2.66794Q218.4106669921875,3.26981,215.3116669921875,3.76594Q212.2116669921875,4.26206,208.8116669921875,4.64737Q205.4116669921875,5.03212,201.9566669921875,5.31731Q198.5016669921875,5.60194,195.2336669921875,5.77631Q195.1696669921875,5.25094,194.9526669921875,4.56412Q194.7366669921875,3.87675,194.5166669921875,3.43012Q197.7346669921875,3.24169,201.1076669921875,2.94581Q204.4816669921875,2.64994,207.7156669921875,2.27194Q210.9496669921875,1.89394,213.7686669921875,1.43719Q216.5876669921875,0.979874,218.6656669921875,0.469687ZM200.3186669921875,17.9032L220.8096669921875,17.9032L220.8096669921875,33.2601L217.9746669921875,33.2601L217.9746669921875,20.4216L203.0186669921875,20.4216L203.0186669921875,33.3163L200.3186669921875,33.3163L200.3186669921875,17.9032ZM194.5166669921875,3.43012L197.2866669921875,3.43012L197.2866669921875,12.7597Q197.2866669921875,14.9979,197.1226669921875,17.667Q196.9576669921875,20.3361,196.4656669921875,23.1137Q195.9726669921875,25.8907,195.0166669921875,28.5328Q194.0606669921875,31.1749,192.5006669921875,33.3585Q192.2876669921875,33.0598,191.8666669921875,32.6981Q191.4446669921875,32.337,191.0156669921875,32.0074Q190.5866669921875,31.6777,190.2606669921875,31.5073Q191.7146669921875,29.4519,192.5706669921875,27.0692Q193.4286669921875,24.6864,193.8426669921875,22.1681Q194.2566669921875,19.6492,194.3866669921875,17.2423Q194.5166669921875,14.8354,194.5166669921875,12.7457L194.5166669921875,3.43012ZM232.9136669921875,28.6864L253.1706669921875,28.6864L253.1706669921875,31.311L232.9136669921875,31.311L232.9136669921875,28.6864ZM231.5436669921875,18.1063L254.6516669921875,18.1063L254.6516669921875,33.1847L251.7886669921875,33.1847L251.7886669921875,20.6949L234.2946669921875,20.6949L234.2946669921875,33.2724L231.5436669921875,33.2724L231.5436669921875,18.1063ZM246.6696669921875,5.66887L248.7836669921875,4.25025Q250.5436669921875,5.77631,252.4116669921875,7.66237Q254.2816669921875,9.54843,255.8796669921875,11.4097Q257.4776669921875,13.2705,258.40466699218746,14.7746L256.0846669921875,16.4554Q255.1996669921875,14.9293,253.6576669921875,13.0292Q252.1176669921875,11.1291,250.2796669921875,9.20137Q248.4436669921875,7.27312,246.6696669921875,5.66887ZM229.6236669921875,15.066Q229.5816669921875,14.7819,229.4176669921875,14.292Q229.2546669921875,13.8021,229.0776669921875,13.2846Q228.9006669921875,12.7665,228.7306669921875,12.4121Q229.3606669921875,12.2979,230.0706669921875,11.7281Q230.7806669921875,11.1577,231.6806669921875,10.2859Q232.1706669921875,9.83193,233.1326669921875,8.81212Q234.0956669921875,7.79231,235.2936669921875,6.39056Q236.4916669921875,4.98881,237.7286669921875,3.35306Q238.9666669921875,1.71675,240.0286669921875,0.0450001L242.7286669921875,1.215Q240.9976669921875,3.60112,239.1066669921875,5.84887Q237.2156669921875,8.09662,235.2676669921875,10.0637Q233.3206669921875,12.0302,231.4046669921875,13.6159L231.4046669921875,13.6941L231.1406669921875,13.8257Q230.8776669921875,13.9567,230.5136669921875,14.1699Q230.1506669921875,14.3831,229.8876669921875,14.6289Q229.6236669921875,14.8742,229.6236669921875,15.066ZM229.6236669921875,15.066L229.5956669921875,12.9527L231.6106669921875,11.9211L254.6296669921875,10.854Q254.6656669921875,11.4069,254.7436669921875,12.1196Q254.8226669921875,12.8317,254.9216669921875,13.2643Q249.5086669921875,13.5681,245.5966669921875,13.7852Q241.6836669921875,14.0017,239.0296669921875,14.1502Q236.3756669921875,14.2982,234.6776669921875,14.4174Q232.9796669921875,14.5361,232.0066669921875,14.6334Q231.0326669921875,14.7302,230.5176669921875,14.8303Q230.0016669921875,14.9299,229.6236669921875,15.066Z" fill="#FFFFFF" fill-opacity="1"/></g><g transform="matrix(1,0,-0.06985185295343399,0.9975574016571045,3.5634933016399373,0.1246091902430635)"><path d="M10.674007617187499,109.8030146484375L21.2814076171875,109.8030146484375C26.5212076171875,101.3682146484375,28.6299076171875,93.4446146484375,29.0133076171875,82.9650146484375L46.9053076171875,82.9650146484375L46.9053076171875,109.8030146484375L55.1484076171875,109.8030146484375L55.1484076171875,82.9650146484375L66.07530761718749,82.9650146484375L66.07530761718749,74.9136146484375L55.1484076171875,74.9136146484375L55.1484076171875,51.0150146484375L46.9053076171875,51.0150146484375L46.9053076171875,74.9136146484375L29.0772076171875,74.9136146484375L29.0772076171875,60.6639146484375C32.1444076171875,60.2166146484375,35.0838076171875,59.7054146484375,38.023207617187495,59.1303146484375L38.023207617187495,51.2067146484375C29.3967076171875,52.8681146484375,21.0258076171875,53.8905146484375,11.5047076171875,54.4656146484375L11.5047076171875,62.3892146484375C14.6997076171875,62.1975146484375,17.7669076171875,62.0058146484375,20.770207617187502,61.6863146484375L20.770207617187502,74.9136146484375L8.5653076171875,74.9136146484375L8.5653076171875,82.9650146484375L20.7063076171875,82.9650146484375C20.1951076171875,92.23051464843749,17.7669076171875,101.04871464843751,10.674007617187499,109.8030146484375ZM107.1630076171875,109.8030146484375L116.5563076171875,109.8030146484375C117.8343076171875,107.18311464843751,119.0483076171875,104.6271146484375,120.0703076171875,102.0711146484375L130.6143076171875,110.44201464843749L130.6143076171875,100.53751464843751L123.7133076171875,95.04211464843749C126.4603076171875,86.86291464843751,128.18630761718748,78.3642146484375,129.4643076171875,68.1402146484375L121.3483076171875,68.1402146484375L124.7353076171875,52.9320146484375L94.4469076171875,52.9320146484375L94.4469076171875,60.6639146484375L99.4311076171875,60.6639146484375L99.4311076171875,73.8912146484375C99.4311076171875,84.5625146484375,98.1531076171875,94.5309146484375,93.9357076171875,104.7549146484375L93.9357076171875,98.42881464843751L72.4653076171875,101.1126146484375L72.4653076171875,109.29181464843751L93.1050076171875,106.7358146484375C92.6577076171875,107.7582146484375,92.1465076171875,108.7806146484375,91.6353076171875,109.8030146484375L100.9008076171875,109.8030146484375C103.5846076171875,103.2213146484375,105.3738076171875,96.7674146484375,106.3962076171875,90.0579146484375L114.0003076171875,96.1284146484375C112.1473076171875,100.6014146484375,109.9103076171875,105.0744146484375,107.1630076171875,109.8030146484375ZM71.8263076171875,75.1692146484375L80.1333076171875,79.3866146484375L73.8072076171875,94.5948146484375L94.3191076171875,94.5948146484375L94.3191076171875,86.6712146484375L87.2901076171875,86.6712146484375L96.4917076171875,64.5618146484375L88.1847076171875,64.5618146484375L85.1175076171875,72.0381146484375L82.1781076171875,70.5684146484375L89.9739076171875,52.2930146484375L81.4113076171875,52.2930146484375L71.8263076171875,75.1692146484375ZM107.2908076171875,80.4090146484375C107.4186076171875,78.3003146484375,107.4825076171875,76.1277146484375,107.4825076171875,73.8912146484375L107.4825076171875,60.6639146484375L115.1503076171875,60.6639146484375L111.8273076171875,75.8082146484375L120.8373076171875,75.8082146484375C120.0073076171875,80.3451146484375,118.9843076171875,84.5625146484375,117.6423076171875,88.6521146484375L107.2908076171875,80.4090146484375ZM160.3913076171875,109.8030146484375L171.6383076171875,109.8030146484375C174.5773076171875,105.8412146484375,177.0693076171875,102.1350146484375,179.3063076171875,98.3010146484375L185.0573076171875,109.8030146484375L195.0253076171875,109.8030146484375L184.6733076171875,89.8023146484375C187.3573076171875,83.47621464843749,189.4023076171875,76.3833146484375,191.1913076171875,66.8622146484375L194.3863076171875,66.8622146484375L194.3863076171875,58.5552146484375L176.1113076171875,58.5552146484375C176.6223076171875,56.3187146484375,177.1333076171875,54.0822146484375,177.5803076171875,51.7818146484375L168.5713076171875,51.7818146484375C166.5263076171875,61.111214648437496,163.9063076171875,70.05721464843751,160.0723076171875,78.9393146484375L160.0723076171875,53.5710146484375L136.4293076171875,53.5710146484375L136.4293076171875,61.814114648437496L151.8293076171875,61.814114648437496L151.8293076171875,75.2970146484375L138.0263076171875,75.2970146484375L138.0263076171875,109.4835146484375L161.9253076171875,104.3076146484375L161.9253076171875,95.4255146484375L146.2693076171875,98.8122146484375L146.2693076171875,83.47621464843749L160.0723076171875,83.47621464843749L160.0723076171875,79.2588146484375L168.7623076171875,79.2588146484375L173.9383076171875,90.31351464843749C170.4883076171875,96.8952146484375,166.0783076171875,102.7101146484375,160.3913076171875,109.8030146484375ZM173.4273076171875,68.4597146484375C173.5553076171875,67.88461464843749,173.7463076171875,67.3734146484375,173.8743076171875,66.8622146484375L182.6293076171875,66.8622146484375C181.4783076171875,72.3576146484375,180.2643076171875,77.0862146484375,178.7953076171875,81.36751464843749L173.4273076171875,68.4597146484375ZM232.6623076171875,109.8030146484375L242.2473076171875,109.8030146484375C243.9733076171875,107.2470146484375,245.5703076171875,104.56321464843751,247.0403076171875,101.8155146484375L250.7463076171875,109.8030146484375L259.0533076171875,109.8030146484375L251.2573076171875,92.93341464843749C254.3883076171875,85.64881464843751,256.8163076171875,77.6613146484375,258.5423076171875,69.1626146484375L234.3883076171875,69.1626146484375L234.3883076171875,60.6000146484375C242.2473076171875,60.408314648437496,250.5543076171875,60.0249146484375,257.77530761718754,59.2581146484375L257.77530761718754,51.3984146484375C248.1263076171875,52.3569146484375,236.6243076171875,52.8042146484375,226.8473076171875,52.8042146484375L226.8473076171875,81.0480146484375C226.8473076171875,90.9525146484375,225.8893076171875,98.5566146484375,222.5023076171875,106.9275146484375L222.5023076171875,81.2397146484375L209.9143076171875,81.2397146484375L209.9143076171875,75.3609146484375L224.2913076171875,75.3609146484375L224.2913076171875,67.18171464843749L220.9693076171875,67.18171464843749L220.9693076171875,52.2930146484375L213.5563076171875,52.2930146484375L213.5563076171875,67.18171464843749L209.9143076171875,67.18171464843749L209.9143076171875,53.2515146484375L202.2463076171875,53.2515146484375L202.2463076171875,82.77331464843749C202.2463076171875,92.29441464843751,201.6713076171875,100.2180146484375,198.9873076171875,109.8030146484375L207.2303076171875,109.8030146484375C208.8283076171875,102.5184146484375,209.5303076171875,96.32011464843751,209.7863076171875,89.4189146484375L214.9623076171875,89.4189146484375L214.9623076171875,109.8030146484375L229.9153076171875,109.8030146484375C233.1103076171875,100.47361464843749,234.3883076171875,91.3998146484375,234.3883076171875,81.0480146484375L234.3883076171875,76.89451464843751L242.1193076171875,94.7226146484375C239.4363076171875,99.83461464843751,236.3053076171875,104.8827146484375,232.6623076171875,109.8030146484375ZM242.5673076171875,76.8306146484375L249.4043076171875,76.8306146484375C248.5093076171875,79.8339146484375,247.4233076171875,82.8372146484375,246.2733076171875,85.7766146484375L242.5673076171875,76.8306146484375Z" fill="#FFFFFF" fill-opacity="1"/></g><g transform="matrix(1,0,-0.06985185295343399,0.9975574016571045,9.169712038326225,0.32064895178336883)"><path d="M16.458271484375,157.86171215820312C22.816271484375,157.86171215820312,26.896271484375,154.18971215820312,26.896271484375,148.17171215820312L26.896271484375,133.61971215820313L21.286271484375,133.61971215820313L21.286271484375,148.17171215820312C21.286271484375,151.12971215820312,19.178271484375,153.03371215820312,16.458271484375,153.03371215820312C13.772271484375,153.03371215820312,11.596271484375,151.12971215820312,11.596271484375,148.17171215820312L11.596271484375,133.61971215820313L5.986271484375,133.61971215820313L5.986271484375,148.17171215820312C5.986271484375,154.18971215820312,10.066271484375001,157.86171215820312,16.458271484375,157.86171215820312ZM35.396271484375,165.17171215820312C35.804271484375,163.70971215820313,36.076271484375,160.58171215820312,36.076271484375,158.16771215820313L36.076271484375,156.09371215820312C37.470271484375,157.28371215820312,39.204271484375,157.86171215820312,41.244271484375,157.86171215820312C46.208271484375,157.86171215820312,49.608271484375,154.12171215820314,49.608271484375,148.27371215820312C49.608271484375,142.56171215820314,46.276271484375,138.61771215820312,41.244271484375,138.61771215820312C39.442271484375,138.61771215820312,37.572271484375,139.39971215820313,36.076271484375,140.75971215820311L36.076271484375,139.05971215820313L30.636271484375,139.05971215820313L30.636271484375,158.16771215820313C30.636271484375,160.44571215820312,30.500271484375,163.64171215820312,29.956271484375,165.17171215820312L35.396271484375,165.17171215820312ZM36.076271484375,144.83971215820313C37.028271484375,142.96971215820312,38.694271484375,142.56171215820314,39.918271484375,142.56171215820314C42.332271484375,142.56171215820314,44.406271484375,145.07771215820313,44.406271484375,148.27371215820312C44.406271484375,151.4017121582031,42.332271484375,153.95171215820312,39.918271484375,153.95171215820312C38.694271484375,153.95171215820312,37.028271484375,153.54371215820314,36.076271484375,151.67371215820313L36.076271484375,144.83971215820313ZM60.250271484375,165.17171215820312C66.472271484375,165.17171215820312,69.600271484375,162.55371215820313,69.600271484375,157.35171215820313L69.600271484375,139.05971215820313L64.296271484375,139.05971215820313L64.296271484375,140.1817121582031C62.902271484375,139.12771215820314,61.406271484375,138.61771215820312,59.842271484375,138.61771215820312C54.810271484375,138.61771215820312,51.478271484375,142.56171215820314,51.478271484375,148.27371215820312C51.478271484375,154.12171215820314,54.878271484375,157.86171215820312,59.842271484375,157.86171215820312C61.576271484375,157.86171215820312,63.038271484375,157.45371215820313,64.296271484375,156.63771215820313C64.296271484375,159.05171215820312,62.698271484375,160.4797121582031,59.604271484375,160.4797121582031C57.190271484375,160.4797121582031,54.742271484375,160.20771215820312,52.328271484375,159.6637121582031L52.328271484375,164.11771215820312C54.538271484375,164.79771215820313,57.496271484375,165.17171215820312,60.250271484375,165.17171215820312ZM56.680271484375,148.27371215820312C56.680271484375,145.07771215820313,58.754271484375,142.56171215820314,61.168271484375,142.56171215820314C62.392271484375,142.56171215820314,64.092271484375,143.00371215820311,65.044271484375,144.94171215820313L65.044271484375,151.23171215820312L64.874271484375,151.91171215820313C63.888271484375,153.57771215820313,62.290271484375,153.95171215820312,61.168271484375,153.95171215820312C58.754271484375,153.95171215820312,56.680271484375,151.4017121582031,56.680271484375,148.27371215820312ZM73.000271484375,139.05971215820313L73.000271484375,157.41971215820314L78.440271484375,157.41971215820314L78.440271484375,144.97571215820312C79.494271484375,143.75171215820313,81.092271484375,143.20771215820312,82.826271484375,143.20771215820312C83.404271484375,143.20771215820312,83.982271484375,143.27571215820313,84.628271484375,143.44571215820312L84.628271484375,139.26371215820313C84.118271484375,139.09371215820312,83.608271484375,139.02571215820313,83.030271484375,139.02571215820313C81.398271484375,139.02571215820313,79.630271484375,139.77371215820312,78.440271484375,141.03171215820313L78.440271484375,139.05971215820313L73.000271484375,139.05971215820313ZM94.012271484375,157.86171215820312C95.950271484375,157.86171215820312,97.616271484375,157.31771215820314,99.010271484375,156.19571215820312C99.112271484375,156.7057121582031,99.248271484375,157.11371215820313,99.418271484375,157.41971215820314L104.518271484375,157.41971215820314C104.076271484375,156.39971215820313,103.838271484375,154.97171215820313,103.838271484375,153.13571215820312L103.838271484375,139.05971215820313L98.398271484375,139.05971215820313L98.398271484375,140.21571215820313C97.038271484375,139.2297121582031,95.406271484375,138.61771215820312,93.876271484375,138.61771215820312C88.844271484375,138.61771215820312,85.512271484375,142.56171215820314,85.512271484375,148.27371215820312C85.512271484375,154.12171215820314,88.946271484375,157.86171215820312,94.012271484375,157.86171215820312ZM90.714271484375,148.27371215820312C90.714271484375,145.07771215820313,92.788271484375,142.56171215820314,95.202271484375,142.56171215820314C96.324271484375,142.56171215820314,97.820271484375,142.83371215820313,98.806271484375,144.4317121582031L98.806271484375,152.04771215820313C97.820271484375,153.64571215820314,96.290271484375,153.95171215820312,95.202271484375,153.95171215820312C92.788271484375,153.95171215820312,90.714271484375,151.4017121582031,90.714271484375,148.27371215820312ZM114.922271484375,157.86171215820312C116.928271484375,157.86171215820312,118.628271484375,157.31771215820314,120.056271484375,156.19571215820312C120.158271484375,156.7057121582031,120.294271484375,157.11371215820313,120.464271484375,157.41971215820314L125.564271484375,157.41971215820314C125.122271484375,156.39971215820313,124.884271484375,154.97171215820313,124.884271484375,153.16971215820314L124.884271484375,131.27371215820312L119.444271484375,131.27371215820312L119.444271484375,140.24971215820312C118.084271484375,139.19571215820312,116.452271484375,138.6517121582031,114.922271484375,138.6517121582031C109.890271484375,138.6517121582031,106.558271484375,142.59571215820313,106.558271484375,148.30771215820312C106.558271484375,153.9857121582031,109.788271484375,157.86171215820312,114.922271484375,157.86171215820312ZM111.760271484375,148.30771215820312C111.760271484375,145.11171215820312,113.834271484375,142.56171215820314,116.248271484375,142.56171215820314C117.472271484375,142.56171215820314,119.138271484375,142.96971215820312,120.090271484375,144.87371215820312L120.090271484375,151.70771215820312C119.138271484375,153.57771215820313,117.472271484375,153.9857121582031,116.248271484375,153.9857121582031C113.834271484375,153.9857121582031,111.760271484375,151.43571215820313,111.760271484375,148.30771215820312ZM144.978271484375,151.91171215820313C143.108271484375,153.30571215820314,141.000271484375,153.9857121582031,138.654271484375,153.9857121582031C135.322271484375,153.9857121582031,133.418271484375,152.52371215820312,132.908271484375,149.59971215820312L146.134271484375,149.59971215820312C146.168271484375,148.95371215820313,146.202271484375,148.47771215820313,146.202271484375,148.13771215820313C146.202271484375,141.98371215820313,142.632271484375,138.58371215820313,136.920271484375,138.58371215820313C131.174271484375,138.58371215820313,127.604271484375,141.98371215820313,127.604271484375,148.13771215820313C127.604271484375,154.35971215820314,131.412271484375,157.96371215820312,138.654271484375,157.96371215820312C140.796271484375,157.96371215820312,143.244271484375,157.48771215820312,144.978271484375,156.43371215820312L144.978271484375,151.91171215820313ZM133.078271484375,145.79171215820313C133.622271484375,143.61571215820314,135.016271484375,142.45971215820313,136.920271484375,142.45971215820313C138.960271484375,142.45971215820313,140.490271484375,143.51371215820313,141.068271484375,145.79171215820313L133.078271484375,145.79171215820313ZM12.310271484375,198.86171215820312C14.724271484375,198.86171215820312,17.274271484375,198.28371215820312,19.416271484375002,196.92371215820313L20.674271484374998,198.41971215820314L25.978271484375,198.41971215820314L22.374271484375,194.20371215820313C24.040271484375,191.9257121582031,24.992271484375,189.00171215820313,25.162271484375,185.36371215820313L20.742271484375,185.36371215820313C20.640271484375,187.30171215820312,20.334271484375,188.8657121582031,19.518271484375,190.22571215820312L16.118271484375,185.97571215820312C19.416271484375002,183.96971215820312,20.742271484375,182.26971215820313,20.742271484375,179.54971215820314C20.742271484375,176.25171215820313,18.668271484374998,174.17771215820312,14.588271484375,174.17771215820312C10.338271484375,174.17771215820312,7.856271484375,176.5917121582031,7.856271484375,179.82171215820313C7.856271484375,181.82771215820313,8.332271484375,183.28971215820312,9.692271484375,185.15971215820312C6.0542714843750005,187.23371215820313,4.728271484375,189.44371215820314,4.728271484375,192.1637121582031C4.728271484375,196.03971215820314,7.6522714843749995,198.86171215820312,12.310271484375,198.86171215820312ZM9.726271484375001,191.72171215820313C9.726271484375001,190.36171215820312,10.338271484375,189.37571215820313,12.106271484375,188.18571215820313L16.594271484375,193.55771215820312C15.404271484375,194.47571215820312,14.316271484375,194.88371215820314,12.956271484375,194.88371215820314C11.052271484375,194.88371215820314,9.726271484375001,193.5917121582031,9.726271484375001,191.72171215820313ZM12.650271484375,180.02571215820313C12.650271484375,178.66571215820312,13.364271484375,177.81571215820313,14.554271484375,177.81571215820313C15.710271484375,177.81571215820313,16.288271484375002,178.49571215820313,16.288271484375002,179.85571215820312C16.288271484375002,181.11371215820313,15.710271484375,181.92971215820313,13.806271484375,182.98371215820313C13.024271484375,181.89571215820314,12.650271484375,180.90971215820312,12.650271484375,180.02571215820313ZM37.232271484375,174.61971215820313L37.232271484375,198.41971215820314L42.842271484375,198.41971215820314L42.842271484375,188.76371215820313L45.290271484375,188.76371215820313C48.180271484375,191.72171215820313,49.642271484375,194.10171215820313,51.784271484375,198.41971215820314L56.952271484375,198.41971215820314C55.082271484375,194.37371215820312,53.144271484375,191.41571215820312,50.526271484375,188.52571215820313C54.028271484375,187.84571215820313,56.034271484375,185.39771215820312,56.034271484375,181.69171215820313C56.034271484375,177.20371215820313,53.042271484375,174.61971215820313,48.248271484375,174.61971215820313L37.232271484375,174.61971215820313ZM42.842271484375,184.8537121582031L42.842271484375,178.52971215820313L47.840271484375,178.52971215820313C50.118271484375,178.52971215820313,51.478271484375,179.8897121582031,51.478271484375,181.69171215820313C51.478271484375,183.45971215820313,50.152271484375,184.8537121582031,47.840271484375,184.8537121582031L42.842271484375,184.8537121582031ZM75.686271484375,192.91171215820313C73.816271484375,194.3057121582031,71.708271484375,194.9857121582031,69.362271484375,194.9857121582031C66.03027148437499,194.9857121582031,64.126271484375,193.52371215820312,63.616271484375,190.59971215820312L76.842271484375,190.59971215820312C76.876271484375,189.95371215820313,76.910271484375,189.47771215820313,76.910271484375,189.13771215820313C76.910271484375,182.98371215820313,73.340271484375,179.58371215820313,67.628271484375,179.58371215820313C61.882271484375,179.58371215820313,58.312271484375,182.98371215820313,58.312271484375,189.13771215820313C58.312271484375,195.35971215820314,62.120271484375,198.96371215820312,69.362271484375,198.96371215820312C71.504271484375,198.96371215820312,73.952271484375,198.48771215820312,75.686271484375,197.43371215820312L75.686271484375,192.91171215820313ZM63.786271484375,186.79171215820313C64.330271484375,184.6157121582031,65.72427148437501,183.45971215820313,67.628271484375,183.45971215820313C69.668271484375,183.45971215820313,71.198271484375,184.51371215820313,71.776271484375,186.79171215820313L63.786271484375,186.79171215820313ZM83.234271484375,198.41971215820314L91.564271484375,198.41971215820314L97.378271484375,180.05971215820313L91.904271484375,180.05971215820313L87.484271484375,195.08771215820312L87.314271484375,195.08771215820312L82.928271484375,180.05971215820313L77.420271484375,180.05971215820313L83.234271484375,198.41971215820314ZM99.690271484375,180.05971215820313L99.690271484375,198.41971215820314L105.130271484375,198.41971215820314L105.130271484375,180.05971215820313L99.690271484375,180.05971215820313ZM99.690271484375,177.71371215820312L105.130271484375,177.71371215820312L105.130271484375,172.27371215820312L99.690271484375,172.27371215820312L99.690271484375,177.71371215820312ZM116.350271484375,198.82771215820313C120.124271484375,198.65771215820314,122.776271484375,196.37971215820312,122.776271484375,193.01371215820313C122.776271484375,190.7357121582031,121.722271484375,189.37571215820313,119.988271484375,188.45771215820312C119.104271484375,188.01571215820312,117.982271484375,187.57371215820314,116.622271484375,187.13171215820313C114.718271484375,186.55371215820313,113.630271484375,185.83971215820313,113.766271484375,184.88771215820313C113.902271484375,184.07171215820313,114.752271484375,183.6637121582031,116.282271484375,183.6637121582031C117.744271484375,183.6637121582031,119.954271484375,184.34371215820312,121.416271484375,185.05771215820312L121.416271484375,180.67171215820312C120.022271484375,180.02571215820313,117.744271484375,179.61771215820312,115.704271484375,179.61771215820312C111.046271484375,179.61771215820312,108.496271484375,182.06571215820313,108.496271484375,185.0917121582031C108.496271484375,187.09771215820314,109.346271484375,188.25371215820311,110.978271484375,189.27371215820312C111.794271484375,189.78371215820312,112.882271484375,190.25971215820311,114.276271484375,190.63371215820314C116.758271484375,191.31371215820312,117.574271484375,191.89171215820312,117.336271484375,193.28571215820313C117.234271484375,193.8297121582031,116.656271484375,194.44171215820313,115.262271484375,194.54371215820314C113.256271484375,194.67971215820313,110.332271484375,193.65971215820312,108.462271484375,192.29971215820314L108.462271484375,197.19571215820312C110.536271484375,198.38571215820312,113.596271484375,198.96371215820312,116.350271484375,198.82771215820313ZM141.952271484375,192.91171215820313C140.082271484375,194.3057121582031,137.974271484375,194.9857121582031,135.628271484375,194.9857121582031C132.29627148437498,194.9857121582031,130.392271484375,193.52371215820312,129.882271484375,190.59971215820312L143.108271484375,190.59971215820312C143.142271484375,189.95371215820313,143.176271484375,189.47771215820313,143.176271484375,189.13771215820313C143.176271484375,182.98371215820313,139.606271484375,179.58371215820313,133.894271484375,179.58371215820313C128.14827148437502,179.58371215820313,124.578271484375,182.98371215820313,124.578271484375,189.13771215820313C124.578271484375,195.35971215820314,128.38627148437502,198.96371215820312,135.628271484375,198.96371215820312C137.770271484375,198.96371215820312,140.218271484375,198.48771215820312,141.952271484375,197.43371215820312L141.952271484375,192.91171215820313ZM130.052271484375,186.79171215820313C130.596271484375,184.6157121582031,131.990271484375,183.45971215820313,133.894271484375,183.45971215820313C135.934271484375,183.45971215820313,137.464271484375,184.51371215820313,138.042271484375,186.79171215820313L130.052271484375,186.79171215820313Z" fill="#FFFFFF" fill-opacity="0.5"/></g></g></svg>