<svg xmlns="http://www.w3.org/2000/svg" xmlns:xlink="http://www.w3.org/1999/xlink" fill="none" version="1.1" width="138.72201538085938" height="69.65103912353516" viewBox="0 0 138.72201538085938 69.65103912353516"><g><path d="M0.655266,29.8721C-0.276594,30.891,-0.206084,32.4723,0.812746,33.4042C1.83157,34.336,3.41291,34.2654,4.34477,33.2467C4.34477,33.2467,0.655266,29.8721,0.655266,29.8721C0.655266,29.8721,0.655266,29.8721,0.655266,29.8721ZM28.4241,8.58863C28.4241,8.58863,27.2932,6.35906,27.2932,6.35906C27.2932,6.35906,27.2932,6.35906,27.2932,6.35906C27.2932,6.35906,28.4241,8.58863,28.4241,8.58863C28.4241,8.58863,28.4241,8.58863,28.4241,8.58863ZM46.0624,2.92797C46.0624,2.92797,47.2765,0.742581,47.2765,0.742581C47.2765,0.742581,46.0624,2.92797,46.0624,2.92797C46.0624,2.92797,46.0624,2.92797,46.0624,2.92797ZM38.2687,41.8963C38.2687,41.8963,40.6173,42.7532,40.6173,42.7532C40.6173,42.7532,38.2687,41.8963,38.2687,41.8963C38.2687,41.8963,38.2687,41.8963,38.2687,41.8963ZM55.0866,66.0154C55.0866,66.0154,54.493,63.587,54.493,63.587C54.493,63.587,55.0866,66.0154,55.0866,66.0154C55.0866,66.0154,55.0866,66.0154,55.0866,66.0154ZM123.424,33.118C123.424,33.118,121.9,31.1366,121.9,31.1366C121.9,31.1366,123.424,33.118,123.424,33.118C123.424,33.118,123.424,33.118,123.424,33.118ZM120.553,25.5706C120.553,25.5706,120.243,28.0513,120.243,28.0513C120.243,28.0513,120.553,25.5706,120.553,25.5706C120.553,25.5706,120.553,25.5706,120.553,25.5706ZM128.757,35.9074C128.757,35.9074,126.477,34.8815,126.477,34.8815C126.477,34.8815,128.757,35.9074,128.757,35.9074C128.757,35.9074,128.757,35.9074,128.757,35.9074ZM122.565,46.3263C122.565,47.707,123.685,48.8263,125.065,48.8263C126.446,48.8263,127.565,47.707,127.565,46.3263C127.565,46.3263,122.565,46.3263,122.565,46.3263C122.565,46.3263,122.565,46.3263,122.565,46.3263ZM4.34477,33.2467C12.3822,24.4591,19.4831,15.9272,29.5551,10.8182C29.5551,10.8182,27.2932,6.35906,27.2932,6.35906C16.2122,11.9798,8.41782,21.3851,0.655266,29.8721C0.655266,29.8721,4.34477,33.2467,4.34477,33.2467C4.34477,33.2467,4.34477,33.2467,4.34477,33.2467ZM29.5551,10.8182C31.288,9.93921,34.5834,8.09598,38.0058,6.67304C39.7084,5.96515,41.3159,5.41758,42.6535,5.15863C44.1109,4.87649,44.7221,5.04327,44.8482,5.11335C44.8482,5.11335,47.2765,0.742581,47.2765,0.742581C45.5287,-0.228439,43.4009,-0.078899,41.7032,0.249771C39.8856,0.601631,37.9219,1.29294,36.0862,2.0562C32.4319,3.57558,28.7822,5.60378,27.2932,6.35906C27.2932,6.35906,29.5551,10.8182,29.5551,10.8182C29.5551,10.8182,29.5551,10.8182,29.5551,10.8182ZM44.8482,5.11335C46.2198,5.87532,47.0453,7.44431,46.9838,10.4636C46.9224,13.4754,45.9569,17.2658,44.516,21.3088C43.0897,25.3108,41.2714,29.3629,39.6406,32.8559C38.0602,36.2411,36.5519,39.3078,35.9202,41.0394C35.9202,41.0394,40.6173,42.7532,40.6173,42.7532C41.1497,41.2938,42.4752,38.6039,44.1711,34.9711C45.8167,31.4466,47.7173,27.2201,49.2258,22.9874C50.7197,18.7957,51.9047,14.3954,51.9828,10.5655C52.0607,6.74304,51.0146,2.81934,47.2765,0.742581C47.2765,0.742581,44.8482,5.11335,44.8482,5.11335C44.8482,5.11335,44.8482,5.11335,44.8482,5.11335ZM35.9202,41.0392C34.3791,45.2631,33.3088,49.3553,32.9467,53.0619C32.5871,56.7419,32.9045,60.2589,34.3741,63.1544C35.8999,66.1607,38.5377,68.2355,42.2147,69.1357C45.783,70.0091,50.2626,69.7682,55.6802,68.444C55.6802,68.444,54.493,63.587,54.493,63.587C49.4718,64.8144,45.8813,64.8856,43.4035,64.2791C41.0344,63.6991,39.65,62.5019,38.8327,60.8915C37.9592,59.1703,37.6125,56.7262,37.923,53.548C38.2309,50.3965,39.1649,46.7337,40.6173,42.7532C40.6173,42.7532,35.9202,41.0392,35.9202,41.0392C35.9202,41.0392,35.9202,41.0392,35.9202,41.0392ZM55.6802,68.444C78.5425,62.8554,106.195,49.5257,124.949,35.0997C124.949,35.0997,121.9,31.1366,121.9,31.1366C103.692,45.1429,76.6723,58.1654,54.493,63.587C54.493,63.587,55.6802,68.444,55.6802,68.444C55.6802,68.444,55.6802,68.444,55.6802,68.444ZM124.949,35.0997C126.023,34.2736,127.61,33.3272,129.375,32.2891C131.045,31.3066,132.906,30.2241,134.222,29.2373C134.856,28.7628,135.583,28.1526,136.079,27.4353C136.334,27.0667,136.643,26.5078,136.73,25.7965C136.828,24.996,136.62,24.1879,136.109,23.5224C135.654,22.9291,135.068,22.5893,134.605,22.3874C134.126,22.1786,133.607,22.0428,133.093,21.9477C132.07,21.7581,130.76,21.676,129.167,21.676C129.167,21.676,129.167,26.676,129.167,26.676C130.637,26.676,131.598,26.7557,132.183,26.8641C132.322,26.8899,132.425,26.9147,132.499,26.9356C132.574,26.9568,132.606,26.9705,132.606,26.9704C132.605,26.97,132.592,26.9647,132.571,26.953C132.55,26.9414,132.517,26.922,132.476,26.8932C132.396,26.8365,132.27,26.7327,132.142,26.5662C131.84,26.173,131.708,25.6647,131.767,25.1884C131.792,24.9863,131.845,24.8354,131.885,24.7446C131.924,24.6543,131.959,24.603,131.966,24.592C131.976,24.5781,131.936,24.6369,131.794,24.7693C131.658,24.8952,131.471,25.0507,131.224,25.2361C130.185,26.0148,128.619,26.9328,126.839,27.9795C125.155,28.9706,123.271,30.0822,121.9,31.1366C121.9,31.1366,124.949,35.0997,124.949,35.0997C124.949,35.0997,124.949,35.0997,124.949,35.0997ZM129.167,21.676C127.059,21.676,121.207,21.5772,117.756,21.7047C116.899,21.7363,116.09,21.7847,115.492,21.8675C115.251,21.9009,114.795,21.9696,114.369,22.1466C114.257,22.1931,113.531,22.476,113.072,23.2621C112.778,23.7652,112.633,24.4145,112.783,25.0957C112.917,25.7068,113.238,26.1155,113.446,26.3317C113.825,26.7256,114.247,26.913,114.387,26.9744C114.592,27.0636,114.794,27.1295,114.963,27.1786C115.304,27.278,115.717,27.3684,116.176,27.4545C117.105,27.6291,118.44,27.8259,120.243,28.0513C120.243,28.0513,120.863,23.0899,120.863,23.0899C119.092,22.8685,117.877,22.6865,117.099,22.5404C116.704,22.4663,116.474,22.4108,116.36,22.3777C116.301,22.3605,116.322,22.3634,116.39,22.3929C116.393,22.3945,116.722,22.5252,117.05,22.8656C117.232,23.055,117.538,23.4376,117.666,24.0233C117.81,24.6791,117.67,25.3039,117.39,25.7831C116.959,26.5214,116.299,26.7593,116.288,26.7636C116.066,26.8561,115.955,26.8511,116.178,26.8202C116.508,26.7745,117.102,26.7322,117.941,26.7013C121.272,26.5783,126.877,26.676,129.167,26.676C129.167,26.676,129.167,21.676,129.167,21.676C129.167,21.676,129.167,21.676,129.167,21.676ZM120.243,28.0513C120.576,28.0929,121.103,28.1018,121.567,28.1064C122.102,28.1116,122.784,28.1109,123.549,28.1077C125.095,28.1013,126.992,28.0849,128.866,28.0844C130.743,28.0838,132.536,28.0995,133.849,28.1545C134.517,28.1825,134.991,28.2182,135.27,28.2554C135.43,28.2768,135.409,28.2841,135.3,28.2492C135.263,28.2372,135.031,28.1654,134.76,27.9779C134.546,27.83,133.722,27.1959,133.722,25.9808C133.722,25.9808,138.722,25.9808,138.722,25.9808C138.722,24.7238,137.871,24.05,137.602,23.8644C137.276,23.6393,136.964,23.5318,136.821,23.486C136.5,23.3836,136.169,23.3311,135.933,23.2995C135.419,23.2309,134.759,23.1882,134.058,23.1588C132.632,23.0991,130.747,23.0838,128.865,23.0844C126.981,23.0849,125.04,23.1014,123.529,23.1077C122.765,23.1109,122.114,23.1115,121.617,23.1066C121.051,23.101,120.849,23.0881,120.863,23.0899C120.863,23.0899,120.243,28.0513,120.243,28.0513C120.243,28.0513,120.243,28.0513,120.243,28.0513ZM133.722,25.9808C133.722,25.5073,133.903,25.3021,133.75,25.581C133.651,25.7618,133.471,26.0371,133.19,26.4146C132.63,27.1654,131.848,28.0849,130.971,29.0936C130.122,30.0706,129.182,31.1344,128.407,32.075C127.693,32.9433,126.881,33.9831,126.477,34.8815C126.477,34.8815,131.037,36.9333,131.037,36.9333C131.123,36.7407,131.491,36.1967,132.268,35.2523C132.986,34.3803,133.85,33.4025,134.745,32.3734C135.612,31.3757,136.512,30.324,137.199,29.4026C137.54,28.944,137.875,28.4579,138.134,27.9851C138.339,27.6104,138.722,26.8594,138.722,25.9808C138.722,25.9808,133.722,25.9808,133.722,25.9808C133.722,25.9808,133.722,25.9808,133.722,25.9808ZM126.477,34.8815C126.084,35.7553,125.671,36.5553,125.243,37.3797C124.825,38.185,124.38,39.0391,123.988,39.9207C123.178,41.7449,122.565,43.754,122.565,46.3263C122.565,46.3263,127.565,46.3263,127.565,46.3263C127.565,44.6331,127.948,43.3237,128.558,41.9504C128.876,41.2332,129.247,40.5187,129.681,39.6824C130.105,38.8652,130.579,37.9505,131.037,36.9333C131.037,36.9333,126.477,34.8815,126.477,34.8815C126.477,34.8815,126.477,34.8815,126.477,34.8815Z" fill="#004CA4" fill-opacity="1"/></g></svg>