<svg xmlns="http://www.w3.org/2000/svg" xmlns:xlink="http://www.w3.org/1999/xlink" fill="none" version="1.1" width="12.684000968933105" height="10.080000877380371" viewBox="0 0 12.684000968933105 10.080000877380371"><g><path d="M0.728,0.28Q1.008,0,1.428,0L4.298,0Q4.704,0,4.984,0.294001L5.432,0.742001Q5.712,1.022,5.712,1.428L5.712,8.68Q5.712,8.89,5.642,9.051Q5.572,9.212,5.418,9.366L4.97,9.814Q4.69,10.08,4.284,10.08L1.414,10.08Q1.008,10.08,0.728,9.814L0.28,9.366Q0,9.086,0,8.68L0,1.414Q0,1.008,0.28,0.728001L0.728,0.28ZM3.878,8.82Q4.438,8.82,4.438,8.274L4.438,1.834Q4.438,1.274,3.878,1.274L1.834,1.274Q1.274,1.274,1.274,1.834L1.274,8.274Q1.274,8.82,1.834,8.82L3.878,8.82ZM12.404,0.728001Q12.684,1.008,12.684,1.414L12.684,4.032Q12.684,4.438,12.404,4.732Q12.236,4.9,12.236,5.082Q12.236,5.25,12.376,5.39L12.404,5.418Q12.684,5.698,12.684,6.118L12.684,8.666Q12.684,9.072,12.404,9.352L11.956,9.8Q11.676,10.08,11.27,10.08L7.532,10.08Q6.972,10.08,6.972,9.52L6.972,9.38Q6.972,8.82,7.532,8.82L10.864,8.82Q11.424,8.82,11.424,8.26L11.424,6.272Q11.424,5.712,10.864,5.712L7.658,5.712Q7.098,5.712,7.098,5.152L7.098,4.998Q7.098,4.438,7.658,4.438L10.864,4.438Q11.424,4.438,11.424,3.878L11.424,1.834Q11.424,1.274,10.864,1.274L7.532,1.274Q6.972,1.274,6.972,0.714L6.972,0.56Q6.972,0,7.532,0L11.27,0Q11.676,0,11.956,0.28L12.404,0.728001Z" fill="#333333" fill-opacity="1"/></g></svg>