<svg xmlns="http://www.w3.org/2000/svg" xmlns:xlink="http://www.w3.org/1999/xlink" fill="none" version="1.1" width="42.400634765625" height="12" viewBox="0 0 42.400634765625 12"><g><g><path d="M18.91424,10.58611Q18.10972,10.58611,17.44861,10.1717Q16.7875,9.75729,16.39375,9.06519Q16,8.373090000000001,16,7.53273Q16,6.69236,16.39375,5.99813Q16.7875,5.30375,17.44861,4.89223Q18.10972,4.4805600000000005,18.91424,4.4805600000000005Q19.48785,4.4805600000000005,19.97031,4.68594Q20.45278,4.89132,20.79792,5.25347L20.79792,4.61667L22.13472,4.61667L22.13472,10.45L20.79792,10.45L20.79792,9.8132Q20.45278,10.17292,19.97031,10.37951Q19.48785,10.58611,18.91424,10.58611ZM19.10017,9.23229Q19.560760000000002,9.23229,19.9372,9.00185Q20.31378,8.77125,20.53633,8.38692Q20.75903,8.00258,20.75903,7.53349Q20.75903,7.06424,20.53678,6.6799Q20.31469,6.29557,19.93887,6.06497Q19.56319,5.83438,19.1026,5.83438Q18.64201,5.83438,18.26543,6.06497Q17.889,6.29542,17.6663,6.67975Q17.44375,7.06409,17.44375,7.53318Q17.44375,8.00243,17.66584,8.386759999999999Q17.88809,8.771090000000001,18.26376,9.00169Q18.63958,9.23229,19.10017,9.23229ZM24.24444,10.45L24.24444,5.84167L23.09722,5.84167L23.09722,4.61667L24.273609999999998,4.61667L24.273609999999998,3.08299Q24.273609999999998,2.06231,24.87031,1.531229Q25.467010000000002,1,26.329700000000003,1Q26.653100000000002,1,26.959400000000002,1.071702Q27.2656,1.143403,27.508699999999997,1.30139L27.1976,2.58472Q26.877299999999998,2.20312,26.450499999999998,2.20312Q26.1913,2.20312,25.96892,2.38299Q25.74653,2.56285,25.74653,3.05868L25.74653,4.61667L26.976399999999998,4.61667L26.976399999999998,5.84167L25.77569,5.84167L25.77569,10.45L24.24444,10.45ZM28.6194,10.45L28.6194,5.84167L27.4722,5.84167L27.4722,4.61667L28.648600000000002,4.61667L28.648600000000002,2.6722200000000003L30.121499999999997,2.6722200000000003L30.121499999999997,4.61667L31.351399999999998,4.61667L31.351399999999998,5.84167L30.1507,5.84167L30.1507,10.45L28.6194,10.45ZM34.9851,10.625Q34.0201,10.625,33.2776,10.21667Q32.5351,9.80833,32.1182,9.09618Q31.7014,8.38403,31.7014,7.475Q31.7014,6.60486,32.107299999999995,5.92188Q32.5132,5.23889,33.2035,4.84028Q33.8938,4.44167,34.732299999999995,4.44167Q35.583,4.44167,36.2611,4.832990000000001Q36.9392,5.22431,37.334199999999996,5.89757Q37.7292,6.57083,37.7292,7.42639L37.7292,7.97813L34.107600000000005,7.97813Q33.8622,7.97813,33.6288,7.95139Q33.3955,7.92465,33.1646,7.88577Q33.278800000000004,8.517710000000001,33.774699999999996,8.9224Q34.2705,9.32708,35.0167,9.32708Q35.5708,9.32708,36.021699999999996,9.09618Q36.4726,8.86528,36.7569,8.51285L37.106899999999996,9.94931Q36.6743,10.28229,36.1274,10.45365Q35.580600000000004,10.625,34.9851,10.625ZM33.1281,6.94271Q33.623999999999995,6.84063,34.107600000000005,6.84063L35.3642,6.84063Q35.6219,6.84063,35.8564,6.85885Q36.091,6.87708,36.3049,6.9184Q36.161500000000004,6.35451,35.737300000000005,6.01788Q35.313199999999995,5.68125,34.7177,5.68125Q34.1392,5.68125,33.7102,6.02882Q33.2813,6.37639,33.1281,6.94271ZM38.7792,10.45L38.7792,4.61667L40.1597,4.61667L40.1597,5.63507Q40.463499999999996,5.12708,40.9387,4.84271Q41.4139,4.55833,42.058,4.55833L42.4007,5.94375Q42.216,5.88542,41.980199999999996,5.88542Q41.2261,5.88542,40.768299999999996,6.37001Q40.3104,6.85445,40.3104,7.75102L40.3104,10.45L38.7792,10.45Z" fill="#00B859" fill-opacity="1"/></g><g><path d="M6,12Q6.14729,12,6.29441,11.9928Q6.44152,11.9855,6.5881,11.9711Q6.73469,11.9567,6.88038,11.9351Q7.02608,11.9134,7.17054,11.8847Q7.315,11.856,7.45788,11.8202Q7.60076,11.7844,7.74171,11.7416Q7.88266,11.6989,8.02134,11.6493Q8.16002,11.5996,8.2961,11.5433Q8.43218,11.4869,8.56533,11.4239Q8.69848,11.361,8.82838,11.2915Q8.95828,11.2221,9.08462,11.1464Q9.21095,11.0706,9.33342,10.9888Q9.45589,10.907,9.5742,10.8192Q9.6925,10.7315,9.80636,10.6381Q9.92022,10.5446,10.0294,10.4457Q10.1385,10.3468,10.2426,10.2426Q10.3468,10.1385,10.4457,10.0294Q10.5446,9.92022,10.6381,9.80636Q10.7315,9.6925,10.8192,9.57419Q10.907,9.45589,10.9888,9.33342Q11.0706,9.21095,11.1464,9.08462Q11.2221,8.95828,11.2915,8.82838Q11.361,8.69848,11.4239,8.56533Q11.4869,8.43218,11.5433,8.2961Q11.5996,8.16002,11.6493,8.02134Q11.6989,7.88266,11.7416,7.74171Q11.7844,7.60076,11.8202,7.45788Q11.856,7.315,11.8847,7.17054Q11.9134,7.02608,11.9351,6.88038Q11.9567,6.73469,11.9711,6.5881Q11.9855,6.44152,11.9928,6.29441Q12,6.14729,12,6Q12,5.85271,11.9928,5.70559Q11.9855,5.55848,11.9711,5.4119Q11.9567,5.26531,11.9351,5.11962Q11.9134,4.97392,11.8847,4.82946Q11.856,4.685,11.8202,4.54212Q11.7844,4.39924,11.7416,4.25829Q11.6989,4.11734,11.6493,3.97866Q11.5996,3.83998,11.5433,3.7039Q11.4869,3.56782,11.4239,3.43467Q11.361,3.30152,11.2915,3.17162Q11.2221,3.04172,11.1464,2.91538Q11.0706,2.78905,10.9888,2.66658Q10.907,2.54411,10.8192,2.4258Q10.7315,2.3075,10.6381,2.19364Q10.5446,2.07978,10.4457,1.97065Q10.3468,1.86151,10.2426,1.75736Q10.1385,1.65321,10.0294,1.55429Q9.92022,1.45538,9.80636,1.36194Q9.6925,1.2685,9.57419,1.18075Q9.45589,1.09301,9.33342,1.01118Q9.21095,0.929351,9.08462,0.853628Q8.95828,0.777905,8.82838,0.708472Q8.69848,0.63904,8.56533,0.576064Q8.43218,0.513089,8.2961,0.456723Q8.16002,0.400357,8.02134,0.350736Q7.88266,0.301114,7.74171,0.258358Q7.60076,0.215601,7.45788,0.179812Q7.315,0.144023,7.17054,0.115288Q7.02608,0.0865531,6.88038,0.0649409Q6.73469,0.0433288,6.5881,0.0288916Q6.44152,0.0144545,6.29441,0.00722726Q6.14729,0,6,0Q5.85271,0,5.70559,0.00722726Q5.55848,0.0144545,5.4119,0.0288916Q5.26531,0.0433288,5.11962,0.0649409Q4.97392,0.0865531,4.82946,0.115288Q4.685,0.144023,4.54212,0.179812Q4.39924,0.215601,4.25829,0.258358Q4.11734,0.301114,3.97866,0.350736Q3.83998,0.400357,3.7039,0.456723Q3.56782,0.513089,3.43467,0.576064Q3.30152,0.63904,3.17162,0.708472Q3.04172,0.777905,2.91538,0.853628Q2.78905,0.929351,2.66658,1.01118Q2.54411,1.09301,2.4258,1.18075Q2.3075,1.2685,2.19364,1.36194Q2.07978,1.45538,1.97065,1.55429Q1.86151,1.65321,1.75736,1.75736Q1.65321,1.86151,1.55429,1.97065Q1.45538,2.07978,1.36194,2.19364Q1.2685,2.3075,1.18075,2.4258Q1.09301,2.54411,1.01118,2.66658Q0.929351,2.78905,0.853628,2.91538Q0.777905,3.04172,0.708472,3.17162Q0.63904,3.30152,0.576064,3.43467Q0.513089,3.56782,0.456723,3.7039Q0.400357,3.83998,0.350736,3.97866Q0.301114,4.11734,0.258358,4.25829Q0.215601,4.39924,0.179812,4.54212Q0.144023,4.685,0.115288,4.82946Q0.0865531,4.97392,0.0649409,5.11962Q0.0433288,5.26532,0.0288916,5.4119Q0.0144545,5.55848,0.00722726,5.70559Q0,5.85271,0,6Q0,6.14729,0.00722726,6.29441Q0.0144545,6.44152,0.0288916,6.5881Q0.0433288,6.73469,0.0649409,6.88038Q0.0865531,7.02608,0.115288,7.17054Q0.144023,7.315,0.179812,7.45788Q0.215601,7.60076,0.258358,7.74171Q0.301114,7.88266,0.350736,8.02134Q0.400357,8.16002,0.456723,8.2961Q0.513089,8.43218,0.576064,8.56533Q0.63904,8.69848,0.708472,8.82838Q0.777905,8.95828,0.853628,9.08462Q0.929351,9.21095,1.01118,9.33342Q1.09301,9.45589,1.18075,9.5742Q1.2685,9.6925,1.36194,9.80636Q1.45538,9.92022,1.55429,10.0294Q1.65321,10.1385,1.75736,10.2426Q1.86151,10.3468,1.97065,10.4457Q2.07978,10.5446,2.19364,10.6381Q2.3075,10.7315,2.4258,10.8192Q2.54411,10.907,2.66658,10.9888Q2.78905,11.0706,2.91538,11.1464Q3.04172,11.2221,3.17162,11.2915Q3.30152,11.361,3.43467,11.4239Q3.56782,11.4869,3.7039,11.5433Q3.83998,11.5996,3.97866,11.6493Q4.11734,11.6989,4.25829,11.7416Q4.39924,11.7844,4.54212,11.8202Q4.685,11.856,4.82946,11.8847Q4.97392,11.9134,5.11962,11.9351Q5.26532,11.9567,5.4119,11.9711Q5.55848,11.9855,5.70559,11.9928Q5.85271,12,6,12ZM3.5,5Q3.59849,5,3.69509,4.98078Q3.79169,4.96157,3.88268,4.92388Q3.97368,4.88619,4.05557,4.83147Q4.13746,4.77675,4.20711,4.70711Q4.27675,4.63746,4.33147,4.55557Q4.38619,4.47368,4.42388,4.38268Q4.46157,4.29169,4.48078,4.19509Q4.5,4.09849,4.5,4Q4.5,3.90151,4.48078,3.80491Q4.46157,3.70831,4.42388,3.61732Q4.38619,3.52632,4.33147,3.44443Q4.27675,3.36254,4.20711,3.29289Q4.13746,3.22325,4.05557,3.16853Q3.97368,3.11381,3.88268,3.07612Q3.79169,3.03843,3.69509,3.01921Q3.59849,3,3.5,3Q3.40151,3,3.30491,3.01921Q3.20831,3.03843,3.11732,3.07612Q3.02632,3.11381,2.94443,3.16853Q2.86254,3.22325,2.79289,3.29289Q2.72325,3.36254,2.66853,3.44443Q2.61381,3.52632,2.57612,3.61732Q2.53843,3.70831,2.51921,3.80491Q2.5,3.90151,2.5,4Q2.5,4.09849,2.51921,4.19509Q2.53843,4.29169,2.57612,4.38268Q2.61381,4.47368,2.66853,4.55557Q2.72325,4.63746,2.79289,4.70711Q2.86254,4.77675,2.94443,4.83147Q3.02632,4.88619,3.11732,4.92388Q3.20831,4.96157,3.30491,4.98078Q3.40151,5,3.5,5ZM9.5,4Q9.5,4.09849,9.48078,4.19509Q9.46157,4.29169,9.42388,4.38268Q9.38619,4.47368,9.33147,4.55557Q9.27675,4.63746,9.20711,4.70711Q9.13746,4.77675,9.05557,4.83147Q8.97368,4.88619,8.88268,4.92388Q8.79169,4.96157,8.69509,4.98078Q8.59849,5,8.5,5Q8.40151,5,8.30491,4.98078Q8.20831,4.96157,8.11732,4.92388Q8.02632,4.88619,7.94443,4.83147Q7.86254,4.77675,7.79289,4.70711Q7.72325,4.63746,7.66853,4.55557Q7.61381,4.47368,7.57612,4.38268Q7.53843,4.29169,7.51921,4.19509Q7.5,4.09849,7.5,4Q7.5,3.90151,7.51921,3.80491Q7.53843,3.70831,7.57612,3.61732Q7.61381,3.52632,7.66853,3.44443Q7.72325,3.36254,7.79289,3.29289Q7.86254,3.22325,7.94443,3.16853Q8.02632,3.11381,8.11732,3.07612Q8.20831,3.03843,8.30491,3.01921Q8.40151,3,8.5,3Q8.59849,3,8.69509,3.01921Q8.79169,3.03843,8.88268,3.07612Q8.97368,3.11381,9.05557,3.16853Q9.13746,3.22325,9.20711,3.29289Q9.27675,3.36254,9.33147,3.44443Q9.38619,3.52632,9.42388,3.61732Q9.46157,3.70831,9.48078,3.80491Q9.5,3.90151,9.5,4ZM8.95222,6.44462C8.98965,6.18848,9.21262,6,9.47301,6C9.79688,6,10.0426,6.28514,9.9938,6.60411C9.86686,7.44341,9.47464,8.21828,8.8562,8.82884C8.09455,9.58437,7.07901,10,6,10C4.92099,10,3.90708,9.58437,3.1438,8.82884C2.52699,8.21828,2.13314,7.44341,2.0062,6.60411C1.95737,6.28675,2.20312,6.00161,2.52699,6.00161C2.78738,6.00161,3.00872,6.19009,3.04778,6.44462C3.26423,7.86549,4.50599,8.95771,6.00163,8.95771C7.49727,8.95771,8.7374,7.86549,8.95222,6.44462Z" fill-rule="evenodd" fill="#00B859" fill-opacity="1"/></g></g></svg>