<svg xmlns="http://www.w3.org/2000/svg" xmlns:xlink="http://www.w3.org/1999/xlink" fill="none" version="1.1" width="112" height="34" viewBox="0 0 112 34"><g><path d="M10.92,26.552L10.92,30.136C13.72,29.352,16.52,28.092,18.928,26.384C21.14,27.924,23.716,29.1,26.6,30.136L26.6,26.552C25.116,25.964,23.324,25.292,21.532,24.228C23.968,21.848,25.704,18.908,26.152,15.548L11.648,15.548C12.628,19.188,14.168,21.932,16.212,24.06C14.504,25.124,12.684,25.936,10.92,26.552ZM1.12,16.304L4.48,16.304L4.48,29.8L10.304,27.56L10.304,23.388L8.232,24.172L8.232,12.58L1.12,12.58L1.12,16.304ZM2.912,4.6L4.844,10.676L8.652,10.676L6.72,4.6L2.912,4.6ZM10.808,14.988L14.616,14.988C15.904,13,16.24,10.872,16.296,8.492L21.112,8.492L21.112,14.568L26.824,14.568L26.824,11.208L24.472,11.208L24.472,5.076L12.964,5.076L12.964,7.344C12.964,10.172,12.684,12.832,10.808,14.988ZM16.184,18.544L21.728,18.544C21,19.888,19.992,21.092,18.816,22.128C17.808,21.176,16.912,20,16.184,18.544ZM45.052,30.08L48.776,30.08L48.776,17.2L55.16,17.2L55.16,13.476L48.776,13.476L48.776,4.32L45.024,4.32L45.024,13.476L38.388,13.476L38.388,17.2L45.052,17.2L45.052,30.08ZM28.98,16.304L31.92,16.304L31.92,29.8L39.144,27.644L39.144,23.472L35.672,24.508L35.672,12.58L28.98,12.58L28.98,16.304ZM30.912,4.6L32.844,10.676L36.652,10.676L34.72,4.6L30.912,4.6ZM57.148,29.8L61.236,29.8C62.552,26.496,63.784,22.52,64.372,17.872L60.62,17.872C60.116,21.82,58.772,25.796,57.148,29.8ZM57.4,14.988L64.372,16.584L64.372,12.832L57.4,11.18L57.4,14.988ZM57.96,8.408L64.316,9.976L64.316,6.168L57.96,4.6L57.96,8.408ZM64.932,29.8L68.852,29.8C70,27.196,70.42,24.928,70.42,22.156L70.42,17.088L66.836,17.088L66.836,22.156C66.836,25.04,66.332,27.392,64.932,29.8ZM65.772,16.192L82.348,16.192L80.64,10.788L76.748,10.788L77.364,12.776L71.232,12.776L72.744,9.052L81.788,9.052L81.788,5.636L75.768,5.636L75.768,4.32L71.596,4.32L71.596,5.636L65.912,5.636L65.912,9.052L68.768,9.052L67.256,12.776L65.772,12.776L65.772,16.192ZM72.212,29.184L75.628,29.184L75.628,17.088L72.212,17.088L72.212,29.184ZM77.616,29.8L82.88,29.8L82.88,26.44L81.2,26.44L81.2,17.088L77.616,17.088L77.616,29.8ZM109.508,5.076L96.852,5.076L96.852,14.288L109.508,14.288L109.508,5.076ZM84.952,28.708L87.724,28.708C88.396,24.816,88.732,20.448,88.732,15.632L86.1,15.632C86.1,20.168,85.708,24.536,84.952,28.708ZM85.26,14.344L89.488,14.344L89.488,29.8L92.876,29.8L92.876,20.532L95.732,22.296L95.732,18.292L92.876,16.528L92.876,14.344L96.068,14.344L96.068,10.928L92.876,10.928L92.876,8.184C93.772,8.072,94.64,7.932,95.536,7.792L95.536,4.348C91.98,4.88,88.676,5.16,85.624,5.16L85.624,8.576C86.856,8.576,88.088,8.548,89.292,8.492L89.292,10.928L85.26,10.928L85.26,14.344ZM95.424,29.52L110.936,29.52L110.936,26.412L105,26.412L105,24.172L109.536,24.172L109.536,21.26L105,21.26L105,19.076L110.236,19.076L110.236,15.968L96.124,15.968L96.124,19.076L101.36,19.076L101.36,21.26L96.824,21.26L96.824,24.172L101.36,24.172L101.36,26.412L95.424,26.412L95.424,29.52ZM100.464,11.208L100.464,8.156L105.896,8.156L105.896,11.208L100.464,11.208Z" fill="#333333" fill-opacity="1"/></g></svg>