<svg xmlns="http://www.w3.org/2000/svg" xmlns:xlink="http://www.w3.org/1999/xlink" fill="none" version="1.1" width="109.76000213623047" height="25.81599998474121" viewBox="0 0 109.76000213623047 25.81599998474121"><g><path d="M9.8,22.232L9.8,25.816C12.6,25.032,15.4,23.772,17.808,22.064C20.02,23.604,22.596,24.78,25.48,25.816L25.48,22.232C23.996,21.644,22.204,20.972,20.412,19.908C22.848,17.528,24.584,14.588,25.032,11.228L10.528,11.228C11.508,14.868,13.048,17.612,15.092,19.74C13.384,20.804,11.564,21.616,9.8,22.232ZM0,11.984L3.36,11.984L3.36,25.48L9.184,23.24L9.184,19.068L7.112,19.852L7.112,8.26L0,8.26L0,11.984ZM1.792,0.279999L3.724,6.356L7.532,6.356L5.6,0.279999L1.792,0.279999ZM9.688,10.668L13.496,10.668C14.784,8.68,15.12,6.552,15.176,4.172L19.992,4.172L19.992,10.248L25.704,10.248L25.704,6.888L23.352,6.888L23.352,0.756001L11.844,0.756001L11.844,3.024C11.844,5.852,11.564,8.512,9.688,10.668ZM15.064,14.224L20.608,14.224C19.88,15.568,18.872,16.772,17.696,17.808C16.688,16.856,15.792,15.68,15.064,14.224ZM43.932,25.76L47.656,25.76L47.656,12.88L54.04,12.88L54.04,9.156L47.656,9.156L47.656,0L43.904,0L43.904,9.156L37.268,9.156L37.268,12.88L43.932,12.88L43.932,25.76ZM27.86,11.984L30.8,11.984L30.8,25.48L38.024,23.324L38.024,19.152L34.552,20.188L34.552,8.26L27.86,8.26L27.86,11.984ZM29.792,0.279999L31.724,6.356L35.532,6.356L33.6,0.279999L29.792,0.279999ZM67.452,16.66L70.784,16.66L70.784,4.284L77.392,4.284L77.392,16.66L80.724,16.66L80.724,0.756001L67.452,0.756001L67.452,16.66ZM55.972,25.76C58.548,24.024,60.396,21.476,61.488,18.088C62.608,21.476,64.456,24.024,67.032,25.76L67.032,20.944C65.548,19.628,64.232,17.612,63.644,14.336L66.444,14.336L66.444,10.92L63.168,10.92L63.168,6.356L66.192,6.356L66.192,2.94L63.168,2.94L63.168,0L59.584,0L59.584,2.94L56.56,2.94L56.56,6.356L59.584,6.356L59.584,10.92L56.28,10.92L56.28,14.336L59.388,14.336C58.8,17.612,57.456,19.628,55.972,20.944L55.972,25.76ZM67.536,25.48L72.072,25.48C73.136,23.828,73.976,22.064,74.564,20.16L74.564,25.48L81.76,25.48L81.76,22.008L77.812,22.008L77.812,17.92L75.152,17.92C75.516,16.128,75.712,14.252,75.712,12.292L75.712,5.6L72.464,5.6L72.464,12.292C72.464,17.528,70.952,21.532,67.536,25.48ZM93.464,25.48L109.76,25.48L109.76,21.952L97.076,21.952L97.076,11.62L103.936,11.62L103.936,16.408L100.408,16.408L100.408,19.768L107.52,19.768L107.52,8.12L93.464,8.12L93.464,25.48ZM84.084,25.48L88.424,25.48C89.852,22.988,90.72,20.272,91.252,17.444L87.416,17.444C86.8,20.216,85.708,22.876,84.084,25.48ZM84.504,15.876L91.476,16.968L91.476,13.524L84.504,12.432L84.504,15.876ZM84.7,5.292L90.048,5.292L90.048,7.084L93.632,7.084L93.632,5.292L100.128,5.292L100.128,7.084L103.712,7.084L103.712,5.292L109.06,5.292L109.06,1.708L103.712,1.708L103.712,0L100.128,0L100.128,1.708L93.632,1.708L93.632,0L90.048,0L90.048,1.708L84.7,1.708L84.7,5.292ZM85.344,11.088L91.476,12.208L91.476,8.68L85.344,7.56L85.344,11.088Z" fill="#333333" fill-opacity="1"/></g></svg>