<?xml version="1.0" encoding="utf-8"?>
<svg version="1.1" xmlns:xlink="http://www.w3.org/1999/xlink" width="475px" height="382px" xmlns="http://www.w3.org/2000/svg">
  <defs>
    <filter x="641px" y="5441px" width="475px" height="382px" filterUnits="userSpaceOnUse" id="filter12575">
      <feOffset dx="1" dy="1" in="SourceAlpha" result="shadowOffsetInner" />
      <feGaussianBlur stdDeviation="2" in="shadowOffsetInner" result="shadowGaussian" />
      <feComposite in2="shadowGaussian" operator="atop" in="SourceAlpha" result="shadowComposite" />
      <feColorMatrix type="matrix" values="0 0 0 0 0  0 0 0 0 0.301960784313725  0 0 0 0 0.454901960784314  0 0 0 0.0588235294117647 0  " in="shadowComposite" />
    </filter>
    <g id="widget12576">
      <path d="M 645 5460  A 15 15 0 0 1 660 5445 L 1095 5445  A 15 15 0 0 1 1110 5460 L 1110 5802  A 15 15 0 0 1 1095 5817 L 660 5817  A 15 15 0 0 1 645 5802 L 645 5460  Z " fill-rule="nonzero" fill="#81d3f8" stroke="none" fill-opacity="0.6" />
      <path d="M 644.5 5460  A 15.5 15.5 0 0 1 660 5444.5 L 1095 5444.5  A 15.5 15.5 0 0 1 1110.5 5460 L 1110.5 5802  A 15.5 15.5 0 0 1 1095 5817.5 L 660 5817.5  A 15.5 15.5 0 0 1 644.5 5802 L 644.5 5460  Z " stroke-width="1" stroke-dasharray="9,4,2,4,2,4" stroke="#02a7f0" fill="none" stroke-dashoffset="0.5" />
    </g>
  </defs>
  <g transform="matrix(1 0 0 1 -641 -5441 )">
    <use xlink:href="#widget12576" filter="url(#filter12575)" />
    <use xlink:href="#widget12576" />
  </g>
</svg>