<?xml version="1.0" encoding="utf-8"?>
<svg version="1.1" xmlns:xlink="http://www.w3.org/1999/xlink" width="388px" height="324px" xmlns="http://www.w3.org/2000/svg">
  <defs>
    <filter x="47px" y="6482px" width="388px" height="324px" filterUnits="userSpaceOnUse" id="filter12675">
      <feOffset dx="1" dy="1" in="SourceAlpha" result="shadowOffsetInner" />
      <feGaussianBlur stdDeviation="2" in="shadowOffsetInner" result="shadowGaussian" />
      <feComposite in2="shadowGaussian" operator="atop" in="SourceAlpha" result="shadowComposite" />
      <feColorMatrix type="matrix" values="0 0 0 0 0  0 0 0 0 0.301960784313725  0 0 0 0 0.454901960784314  0 0 0 0.0588235294117647 0  " in="shadowComposite" />
    </filter>
    <g id="widget12676">
      <path d="M 51 6501  A 15 15 0 0 1 66 6486 L 414 6486  A 15 15 0 0 1 429 6501 L 429 6785  A 15 15 0 0 1 414 6800 L 66 6800  A 15 15 0 0 1 51 6785 L 51 6501  Z " fill-rule="nonzero" fill="#81d3f8" stroke="none" fill-opacity="0.6" />
      <path d="M 50.5 6501  A 15.5 15.5 0 0 1 66 6485.5 L 414 6485.5  A 15.5 15.5 0 0 1 429.5 6501 L 429.5 6785  A 15.5 15.5 0 0 1 414 6800.5 L 66 6800.5  A 15.5 15.5 0 0 1 50.5 6785 L 50.5 6501  Z " stroke-width="1" stroke-dasharray="9,4,2,4,2,4" stroke="#02a7f0" fill="none" stroke-dashoffset="0.5" />
    </g>
  </defs>
  <g transform="matrix(1 0 0 1 -47 -6482 )">
    <use xlink:href="#widget12676" filter="url(#filter12675)" />
    <use xlink:href="#widget12676" />
  </g>
</svg>