<?xml version="1.0" encoding="utf-8"?>
<svg version="1.1" xmlns:xlink="http://www.w3.org/1999/xlink" width="338px" height="333px" xmlns="http://www.w3.org/2000/svg">
  <defs>
    <filter x="17px" y="6063px" width="338px" height="333px" filterUnits="userSpaceOnUse" id="filter17789">
      <feOffset dx="1" dy="1" in="SourceAlpha" result="shadowOffsetInner" />
      <feGaussianBlur stdDeviation="2" in="shadowOffsetInner" result="shadowGaussian" />
      <feComposite in2="shadowGaussian" operator="atop" in="SourceAlpha" result="shadowComposite" />
      <feColorMatrix type="matrix" values="0 0 0 0 0  0 0 0 0 0.301960784313725  0 0 0 0 0.454901960784314  0 0 0 0.0588235294117647 0  " in="shadowComposite" />
    </filter>
    <g id="widget17790">
      <path d="M 21 6082  A 15 15 0 0 1 36 6067 L 334 6067  A 15 15 0 0 1 349 6082 L 349 6375  A 15 15 0 0 1 334 6390 L 36 6390  A 15 15 0 0 1 21 6375 L 21 6082  Z " fill-rule="nonzero" fill="#81d3f8" stroke="none" fill-opacity="0.6" />
      <path d="M 20.5 6082  A 15.5 15.5 0 0 1 36 6066.5 L 334 6066.5  A 15.5 15.5 0 0 1 349.5 6082 L 349.5 6375  A 15.5 15.5 0 0 1 334 6390.5 L 36 6390.5  A 15.5 15.5 0 0 1 20.5 6375 L 20.5 6082  Z " stroke-width="1" stroke-dasharray="9,4,2,4,2,4" stroke="#02a7f0" fill="none" stroke-dashoffset="0.5" />
    </g>
  </defs>
  <g transform="matrix(1 0 0 1 -17 -6063 )">
    <use xlink:href="#widget17790" filter="url(#filter17789)" />
    <use xlink:href="#widget17790" />
  </g>
</svg>