<?xml version="1.0" encoding="utf-8"?>
<svg version="1.1" xmlns:xlink="http://www.w3.org/1999/xlink" width="475px" height="382px" xmlns="http://www.w3.org/2000/svg">
  <defs>
    <filter x="641px" y="5411px" width="475px" height="382px" filterUnits="userSpaceOnUse" id="filter17655">
      <feOffset dx="1" dy="1" in="SourceAlpha" result="shadowOffsetInner" />
      <feGaussianBlur stdDeviation="2" in="shadowOffsetInner" result="shadowGaussian" />
      <feComposite in2="shadowGaussian" operator="atop" in="SourceAlpha" result="shadowComposite" />
      <feColorMatrix type="matrix" values="0 0 0 0 0  0 0 0 0 0.301960784313725  0 0 0 0 0.454901960784314  0 0 0 0.0588235294117647 0  " in="shadowComposite" />
    </filter>
    <g id="widget17656">
      <path d="M 645 5430  A 15 15 0 0 1 660 5415 L 1095 5415  A 15 15 0 0 1 1110 5430 L 1110 5772  A 15 15 0 0 1 1095 5787 L 660 5787  A 15 15 0 0 1 645 5772 L 645 5430  Z " fill-rule="nonzero" fill="#81d3f8" stroke="none" fill-opacity="0.6" />
      <path d="M 644.5 5430  A 15.5 15.5 0 0 1 660 5414.5 L 1095 5414.5  A 15.5 15.5 0 0 1 1110.5 5430 L 1110.5 5772  A 15.5 15.5 0 0 1 1095 5787.5 L 660 5787.5  A 15.5 15.5 0 0 1 644.5 5772 L 644.5 5430  Z " stroke-width="1" stroke-dasharray="9,4,2,4,2,4" stroke="#02a7f0" fill="none" stroke-dashoffset="0.5" />
    </g>
  </defs>
  <g transform="matrix(1 0 0 1 -641 -5411 )">
    <use xlink:href="#widget17656" filter="url(#filter17655)" />
    <use xlink:href="#widget17656" />
  </g>
</svg>