<?xml version="1.0" encoding="utf-8"?>
<svg version="1.1" xmlns:xlink="http://www.w3.org/1999/xlink" width="111px" height="22px" xmlns="http://www.w3.org/2000/svg">
  <g transform="matrix(1 0 0 1 -953 -1431 )">
    <path d="M 954 1442  A 10 10 0 0 1 964 1432 L 1053 1432  A 10 10 0 0 1 1063 1442 A 10 10 0 0 1 1053 1452 L 964 1452  A 10 10 0 0 1 954 1442 Z " fill-rule="nonzero" fill="#ffffff" stroke="none" fill-opacity="0" />
    <path d="M 953.5 1442  A 10.5 10.5 0 0 1 964 1431.5 L 1053 1431.5  A 10.5 10.5 0 0 1 1063.5 1442 A 10.5 10.5 0 0 1 1053 1452.5 L 964 1452.5  A 10.5 10.5 0 0 1 953.5 1442 Z " stroke-width="1" stroke="#9f9f9f" fill="none" stroke-opacity="0.376470588235294" />
  </g>
</svg>