<svg xmlns="http://www.w3.org/2000/svg" xmlns:xlink="http://www.w3.org/1999/xlink" fill="none" version="1.1" width="234" height="44" viewBox="0 0 234 44"><defs><linearGradient x1="0.06886768341064453" y1="0.5" x2="1" y2="0.5" id="master_svg0_262_04213"><stop offset="0%" stop-color="#155BD4" stop-opacity="0"/><stop offset="100%" stop-color="#155BD4" stop-opacity="1"/></linearGradient></defs><g><g><g style="opacity:0.800000011920929;"><ellipse cx="22" cy="22" rx="22" ry="22" fill="#011D37" fill-opacity="1"/></g><g style="opacity:0.800000011920929;"><ellipse cx="54" cy="22" rx="22" ry="22" fill="#409EFF" fill-opacity="1"/></g></g><g><g style="opacity:0.800000011920929;"><ellipse cx="180" cy="22" rx="22" ry="22" fill="#12AA94" fill-opacity="1"/></g><g style="opacity:0.800000011920929;"><ellipse cx="212" cy="22" rx="22" ry="22" fill="#125AFF" fill-opacity="1"/></g></g><g transform="matrix(1,-2.2348338291067193e-8,2.2348338291067193e-8,1,-1.3409002974640316e-7,0.0000022571821673977865)" style="opacity:0.6000000238418579;"><path d="M125.66669999999999,16.778399999999998C112.1464,16.363799999999998,106.97057,12.37921,101,6L101,38C102.29842,37.064099999999996,103.48622,36.1352,104.63402,35.2376C110.05625,30.9974,114.5857,27.4554,125.66669999999999,27.1689L125.66669999999999,31.338L138.0001,22.1031L125.66669999999999,12.86816L125.66669999999999,16.778399999999998Z" fill-rule="evenodd" fill="url(#master_svg0_262_04213)" fill-opacity="1"/></g></g></svg>