<svg xmlns="http://www.w3.org/2000/svg" xmlns:xlink="http://www.w3.org/1999/xlink" fill="none" version="1.1" width="51.09716796875" height="12" viewBox="0 0 51.09716796875 12"><g><g><path d="M6,12Q6.14729,12,6.29441,11.9928Q6.44152,11.9855,6.5881,11.9711Q6.73469,11.9567,6.88038,11.9351Q7.02608,11.9134,7.17054,11.8847Q7.315,11.856,7.45788,11.8202Q7.60076,11.7844,7.74171,11.7416Q7.88266,11.6989,8.02134,11.6493Q8.16002,11.5996,8.2961,11.5433Q8.43218,11.4869,8.56533,11.4239Q8.69848,11.361,8.82838,11.2915Q8.95828,11.2221,9.08462,11.1464Q9.21095,11.0706,9.33342,10.9888Q9.45589,10.907,9.5742,10.8192Q9.6925,10.7315,9.80636,10.6381Q9.92022,10.5446,10.0294,10.4457Q10.1385,10.3468,10.2426,10.2426Q10.3468,10.1385,10.4457,10.0294Q10.5446,9.92022,10.6381,9.80636Q10.7315,9.6925,10.8192,9.57419Q10.907,9.45589,10.9888,9.33342Q11.0706,9.21095,11.1464,9.08462Q11.2221,8.95828,11.2915,8.82838Q11.361,8.69848,11.4239,8.56533Q11.4869,8.43218,11.5433,8.2961Q11.5996,8.16002,11.6493,8.02134Q11.6989,7.88266,11.7416,7.74171Q11.7844,7.60076,11.8202,7.45788Q11.856,7.315,11.8847,7.17054Q11.9134,7.02608,11.9351,6.88038Q11.9567,6.73469,11.9711,6.5881Q11.9855,6.44152,11.9928,6.29441Q12,6.14729,12,6Q12,5.85271,11.9928,5.70559Q11.9855,5.55848,11.9711,5.4119Q11.9567,5.26531,11.9351,5.11962Q11.9134,4.97392,11.8847,4.82946Q11.856,4.685,11.8202,4.54212Q11.7844,4.39924,11.7416,4.25829Q11.6989,4.11734,11.6493,3.97866Q11.5996,3.83998,11.5433,3.7039Q11.4869,3.56782,11.4239,3.43467Q11.361,3.30152,11.2915,3.17162Q11.2221,3.04172,11.1464,2.91538Q11.0706,2.78905,10.9888,2.66658Q10.907,2.54411,10.8192,2.4258Q10.7315,2.3075,10.6381,2.19364Q10.5446,2.07978,10.4457,1.97065Q10.3468,1.86151,10.2426,1.75736Q10.1385,1.65321,10.0294,1.55429Q9.92022,1.45538,9.80636,1.36194Q9.6925,1.2685,9.57419,1.18075Q9.45589,1.09301,9.33342,1.01118Q9.21095,0.929351,9.08462,0.853628Q8.95828,0.777905,8.82838,0.708472Q8.69848,0.63904,8.56533,0.576064Q8.43218,0.513089,8.2961,0.456723Q8.16002,0.400357,8.02134,0.350736Q7.88266,0.301114,7.74171,0.258358Q7.60076,0.215601,7.45788,0.179812Q7.315,0.144023,7.17054,0.115288Q7.02608,0.0865531,6.88038,0.0649409Q6.73469,0.0433288,6.5881,0.0288916Q6.44152,0.0144545,6.29441,0.00722726Q6.14729,0,6,0Q5.85271,0,5.70559,0.00722726Q5.55848,0.0144545,5.4119,0.0288916Q5.26531,0.0433288,5.11962,0.0649409Q4.97392,0.0865531,4.82946,0.115288Q4.685,0.144023,4.54212,0.179812Q4.39924,0.215601,4.25829,0.258358Q4.11734,0.301114,3.97866,0.350736Q3.83998,0.400357,3.7039,0.456723Q3.56782,0.513089,3.43467,0.576064Q3.30152,0.63904,3.17162,0.708472Q3.04172,0.777905,2.91538,0.853628Q2.78905,0.929351,2.66658,1.01118Q2.54411,1.09301,2.4258,1.18075Q2.3075,1.2685,2.19364,1.36194Q2.07978,1.45538,1.97065,1.55429Q1.86151,1.65321,1.75736,1.75736Q1.65321,1.86151,1.55429,1.97065Q1.45538,2.07978,1.36194,2.19364Q1.2685,2.3075,1.18075,2.4258Q1.09301,2.54411,1.01118,2.66658Q0.929351,2.78905,0.853628,2.91538Q0.777905,3.04172,0.708472,3.17162Q0.63904,3.30152,0.576064,3.43467Q0.513089,3.56782,0.456723,3.7039Q0.400357,3.83998,0.350736,3.97866Q0.301114,4.11734,0.258358,4.25829Q0.215601,4.39924,0.179812,4.54212Q0.144023,4.685,0.115288,4.82946Q0.0865531,4.97392,0.0649409,5.11962Q0.0433288,5.26532,0.0288916,5.4119Q0.0144545,5.55848,0.00722726,5.70559Q0,5.85271,0,6Q0,6.14729,0.00722726,6.29441Q0.0144545,6.44152,0.0288916,6.5881Q0.0433288,6.73469,0.0649409,6.88038Q0.0865531,7.02608,0.115288,7.17054Q0.144023,7.315,0.179812,7.45788Q0.215601,7.60076,0.258358,7.74171Q0.301114,7.88266,0.350736,8.02134Q0.400357,8.16002,0.456723,8.2961Q0.513089,8.43218,0.576064,8.56533Q0.63904,8.69848,0.708472,8.82838Q0.777905,8.95828,0.853628,9.08462Q0.929351,9.21095,1.01118,9.33342Q1.09301,9.45589,1.18075,9.5742Q1.2685,9.6925,1.36194,9.80636Q1.45538,9.92022,1.55429,10.0294Q1.65321,10.1385,1.75736,10.2426Q1.86151,10.3468,1.97065,10.4457Q2.07978,10.5446,2.19364,10.6381Q2.3075,10.7315,2.4258,10.8192Q2.54411,10.907,2.66658,10.9888Q2.78905,11.0706,2.91538,11.1464Q3.04172,11.2221,3.17162,11.2915Q3.30152,11.361,3.43467,11.4239Q3.56782,11.4869,3.7039,11.5433Q3.83998,11.5996,3.97866,11.6493Q4.11734,11.6989,4.25829,11.7416Q4.39924,11.7844,4.54212,11.8202Q4.685,11.856,4.82946,11.8847Q4.97392,11.9134,5.11962,11.9351Q5.26532,11.9567,5.4119,11.9711Q5.55848,11.9855,5.70559,11.9928Q5.85271,12,6,12ZM3.5,5.5Q3.59849,5.5,3.69509,5.48078Q3.79169,5.46157,3.88268,5.42388Q3.97368,5.38619,4.05557,5.33147Q4.13746,5.27675,4.20711,5.20711Q4.27675,5.13746,4.33147,5.05557Q4.38619,4.97368,4.42388,4.88268Q4.46157,4.79169,4.48078,4.69509Q4.5,4.59849,4.5,4.5Q4.5,4.40151,4.48078,4.30491Q4.46157,4.20831,4.42388,4.11732Q4.38619,4.02632,4.33147,3.94443Q4.27675,3.86254,4.20711,3.79289Q4.13746,3.72325,4.05557,3.66853Q3.97368,3.61381,3.88268,3.57612Q3.79169,3.53843,3.69509,3.51921Q3.59849,3.5,3.5,3.5Q3.40151,3.5,3.30491,3.51921Q3.20831,3.53843,3.11732,3.57612Q3.02632,3.61381,2.94443,3.66853Q2.86254,3.72325,2.79289,3.79289Q2.72325,3.86254,2.66853,3.94443Q2.61381,4.02632,2.57612,4.11732Q2.53843,4.20831,2.51921,4.30491Q2.5,4.40151,2.5,4.5Q2.5,4.59849,2.51921,4.69509Q2.53843,4.79169,2.57612,4.88268Q2.61381,4.97368,2.66853,5.05557Q2.72325,5.13746,2.79289,5.20711Q2.86254,5.27675,2.94443,5.33147Q3.02632,5.38619,3.11732,5.42388Q3.20831,5.46157,3.30491,5.48078Q3.40151,5.5,3.5,5.5ZM9.5,4.5Q9.5,4.59849,9.48078,4.69509Q9.46157,4.79169,9.42388,4.88268Q9.38619,4.97368,9.33147,5.05557Q9.27675,5.13746,9.20711,5.20711Q9.13746,5.27675,9.05557,5.33147Q8.97368,5.38619,8.88268,5.42388Q8.79169,5.46157,8.69509,5.48078Q8.59849,5.5,8.5,5.5Q8.40151,5.5,8.30491,5.48078Q8.20831,5.46157,8.11732,5.42388Q8.02632,5.38619,7.94443,5.33147Q7.86254,5.27675,7.79289,5.20711Q7.72325,5.13746,7.66853,5.05557Q7.61381,4.97368,7.57612,4.88268Q7.53843,4.79169,7.51921,4.69509Q7.5,4.59849,7.5,4.5Q7.5,4.40151,7.51921,4.30491Q7.53843,4.20831,7.57612,4.11732Q7.61381,4.02632,7.66853,3.94443Q7.72325,3.86254,7.79289,3.79289Q7.86254,3.72325,7.94443,3.66853Q8.02632,3.61381,8.11732,3.57612Q8.20831,3.53843,8.30491,3.51921Q8.40151,3.5,8.5,3.5Q8.59849,3.5,8.69509,3.51921Q8.79169,3.53843,8.88268,3.57612Q8.97368,3.61381,9.05557,3.66853Q9.13746,3.72325,9.20711,3.79289Q9.27675,3.86254,9.33147,3.94443Q9.38619,4.02632,9.42388,4.11732Q9.46157,4.20831,9.48078,4.30491Q9.5,4.40151,9.5,4.5ZM3.5,8Q3.45075,8,3.40245,8.00961Q3.35415,8.01921,3.30866,8.03806Q3.26316,8.05691,3.22221,8.08426Q3.18127,8.11162,3.14645,8.14645Q3.11162,8.18127,3.08426,8.22221Q3.05691,8.26316,3.03806,8.30866Q3.01921,8.35415,3.00961,8.40245Q3,8.45075,3,8.5Q3,8.54924,3.00961,8.59754Q3.01921,8.64584,3.03806,8.69134Q3.05691,8.73684,3.08426,8.77778Q3.11162,8.81873,3.14645,8.85355Q3.18127,8.88837,3.22221,8.91573Q3.26316,8.94309,3.30866,8.96194Q3.35415,8.98078,3.40245,8.99039Q3.45075,9,3.5,9L8.5,9Q8.54924,9,8.59754,8.99039Q8.64584,8.98078,8.69134,8.96194Q8.73684,8.94309,8.77778,8.91573Q8.81873,8.88837,8.85355,8.85355Q8.88837,8.81873,8.91573,8.77778Q8.94309,8.73684,8.96194,8.69134Q8.98078,8.64584,8.99039,8.59754Q9,8.54924,9,8.5Q9,8.45075,8.99039,8.40245Q8.98078,8.35415,8.96194,8.30866Q8.94309,8.26316,8.91573,8.22221Q8.88837,8.18127,8.85355,8.14645Q8.81873,8.11162,8.77778,8.08426Q8.73684,8.05691,8.69134,8.03806Q8.64584,8.01921,8.59754,8.00961Q8.54924,8,8.5,8L3.5,8Z" fill-rule="evenodd" fill="#E46A6A" fill-opacity="1"/></g><g><path d="M19.21319,10.58611Q18.64688,10.58611,18.16927,10.38316Q17.69167,10.18021,17.33681,9.82778L17.33681,10.45L16,10.45L16,1.116667L17.53125,1.116667L17.53125,5.06632Q17.8691,4.78681,18.29444,4.63368Q18.71979,4.4805600000000005,19.21319,4.4805600000000005Q20.02576,4.4805600000000005,20.68642,4.89132Q21.34722,5.30208,21.74097,5.99586Q22.13472,6.68948,22.13472,7.53197Q22.13472,8.374310000000001,21.74097,9.0658Q21.34722,9.75729,20.68642,10.1717Q20.02576,10.58611,19.21319,10.58611ZM19.03212,9.23229Q19.49271,9.23229,19.86914,9.00185Q20.245730000000002,8.77125,20.46827,8.38692Q20.69097,8.00258,20.69097,7.53349Q20.69097,7.06424,20.46873,6.6799Q20.24664,6.29557,19.87081,6.06497Q19.49514,5.83438,19.03455,5.83438Q18.57396,5.83438,18.19737,6.06497Q17.82094,6.29542,17.59824,6.67975Q17.37569,7.06409,17.37569,7.53318Q17.37569,8.00243,17.59779,8.386759999999999Q17.82003,8.771090000000001,18.1957,9.00169Q18.57153,9.23229,19.03212,9.23229ZM26.2059,10.625Q25.24097,10.625,24.498440000000002,10.21667Q23.7559,9.80833,23.33906,9.09618Q22.92222,8.38403,22.92222,7.475Q22.92222,6.60486,23.32812,5.92188Q23.73403,5.23889,24.42431,4.84028Q25.11458,4.44167,25.95312,4.44167Q26.803800000000003,4.44167,27.4819,4.832990000000001Q28.1601,5.22431,28.555,5.89757Q28.95,6.57083,28.95,7.42639L28.95,7.97813L25.32847,7.97813Q25.082990000000002,7.97813,24.84965,7.95139Q24.61632,7.92465,24.38542,7.88577Q24.499650000000003,8.517710000000001,24.99549,8.9224Q25.49132,9.32708,26.2375,9.32708Q26.7917,9.32708,27.2425,9.09618Q27.6934,8.86528,27.977800000000002,8.51285L28.3278,9.94931Q27.8951,10.28229,27.348300000000002,10.45365Q26.8014,10.625,26.2059,10.625ZM24.348959999999998,6.94271Q24.84479,6.84063,25.32847,6.84063L26.5851,6.84063Q26.8427,6.84063,27.0773,6.85885Q27.311799999999998,6.87708,27.5257,6.9184Q27.3823,6.35451,26.958199999999998,6.01788Q26.534,5.68125,25.93854,5.68125Q25.36007,5.68125,24.93108,6.02882Q24.50208,6.37639,24.348959999999998,6.94271ZM30.6806,10.45L30.6806,5.84167L29.5333,5.84167L29.5333,4.61667L30.709699999999998,4.61667L30.709699999999998,3.08299Q30.709699999999998,2.06231,31.3064,1.531229Q31.903100000000002,1,32.7658,1Q33.089200000000005,1,33.3955,1.071702Q33.7017,1.143403,33.9448,1.30139L33.633700000000005,2.58472Q33.313500000000005,2.20312,32.8866,2.20312Q32.6274,2.20312,32.405,2.38299Q32.1826,2.56285,32.1826,3.05868L32.1826,4.61667L33.4125,4.61667L33.4125,5.84167L32.2118,5.84167L32.2118,10.45L30.6806,10.45ZM36.8943,10.625Q36.0326,10.625,35.318799999999996,10.20907Q34.6051,9.79299,34.1837,9.0898Q33.7625,8.38646,33.7625,7.5347Q33.7625,6.67292,34.1833,5.97383Q34.6042,5.27459,35.317099999999996,4.8582Q36.0302,4.44167,36.8918,4.44167Q37.7632,4.44167,38.472,4.857749999999999Q39.181,5.27368,39.602199999999996,5.97201Q40.0236,6.67033,40.0236,7.53212Q40.0236,8.38403,39.6027,9.08813Q39.1819,9.79208,38.4738,10.20862Q37.7658,10.625,36.8943,10.625ZM36.8929,9.23958Q37.3622,9.23958,37.7425,9.0099Q38.1229,8.78021,38.3477,8.39223Q38.5726,8.004249999999999,38.5726,7.5306Q38.5726,7.05694,38.3464,6.67261Q38.1202,6.28828,37.7406,6.05768Q37.3609,5.82708,36.8925,5.82708Q36.424,5.82708,36.0446,6.05768Q35.6655,6.28828,35.4394,6.67261Q35.213499999999996,7.05694,35.213499999999996,7.5306Q35.213499999999996,8.004249999999999,35.4384,8.39223Q35.6632,8.78021,36.0434,9.0099Q36.4237,9.23958,36.8929,9.23958ZM41.1319,10.45L41.1319,4.61667L42.5125,4.61667L42.5125,5.63507Q42.8163,5.12708,43.2915,4.84271Q43.7667,4.55833,44.410799999999995,4.55833L44.7535,5.94375Q44.568799999999996,5.88542,44.333,5.88542Q43.578900000000004,5.88542,43.1211,6.37001Q42.6632,6.85445,42.6632,7.75102L42.6632,10.45L41.1319,10.45ZM48.3531,10.625Q47.3882,10.625,46.645700000000005,10.21667Q45.903099999999995,9.80833,45.4863,9.09618Q45.0694,8.38403,45.0694,7.475Q45.0694,6.60486,45.475300000000004,5.92188Q45.881299999999996,5.23889,46.5715,4.84028Q47.2618,4.44167,48.1003,4.44167Q48.951,4.44167,49.6292,4.832990000000001Q50.3073,5.22431,50.7023,5.89757Q51.0972,6.57083,51.0972,7.42639L51.0972,7.97813L47.4757,7.97813Q47.230199999999996,7.97813,46.9969,7.95139Q46.7635,7.92465,46.5326,7.88577Q46.6469,8.517710000000001,47.142700000000005,8.9224Q47.6385,9.32708,48.3847,9.32708Q48.9389,9.32708,49.3898,9.09618Q49.8406,8.86528,50.125,8.51285L50.475,9.94931Q50.0424,10.28229,49.4955,10.45365Q48.9486,10.625,48.3531,10.625ZM46.4962,6.94271Q46.992000000000004,6.84063,47.4757,6.84063L48.7323,6.84063Q48.9899,6.84063,49.2245,6.85885Q49.459,6.87708,49.6729,6.9184Q49.5295,6.35451,49.1054,6.01788Q48.6812,5.68125,48.0858,5.68125Q47.5073,5.68125,47.0783,6.02882Q46.6493,6.37639,46.4962,6.94271Z" fill="#E46A6A" fill-opacity="1"/></g></g></svg>