<svg xmlns="http://www.w3.org/2000/svg" xmlns:xlink="http://www.w3.org/1999/xlink" fill="none" version="1.1" width="196.30801391601562" height="13.067998886108398" viewBox="0 0 196.30801391601562 13.067998886108398"><g style="opacity:0.11999999731779099;"><path d="M5.166,12.834L8.658,12.834L10.818,2.466L10.962,2.466L10.962,12.834L13.824,12.834L13.824,0.234L8.658,0.234L6.948,9.252L6.912,9.432L6.876,9.252L5.166,0.234L0,0.234L0,12.834L2.862,12.834L2.862,2.466L3.024,2.466L5.166,12.834ZM24.39,12.834L27.558,12.834L23.904,0.234L18.954,0.234L15.3,12.834L18.45,12.834L19.404,9.27L23.436,9.27L24.39,12.834ZM19.98,7.11L21.402,1.836L21.438,1.836L22.86,7.11L19.98,7.11ZM33.57,13.05C36.054,12.942,37.602,11.412,37.602,9.252C37.602,7.722,36.936,6.732,35.838,6.084C35.28,5.778,34.578,5.49,33.696,5.238C32.238,4.734,31.554,4.212,31.554,3.51C31.554,2.736,32.22,2.286,33.444,2.286C34.398,2.286,35.802,2.574,36.738,2.988L36.738,0.666C35.874,0.288,34.506,0,33.264,0C33.03,0,32.868,0,32.76,0.0180006C30.24,0.126,28.746,1.62,28.746,3.618C28.746,4.986,29.268,5.832,30.294,6.408C30.798,6.714,31.5,7.002,32.418,7.29C34.002,7.776,34.686,8.586,34.686,9.522C34.686,10.188,34.038,10.818,32.976,10.818C31.68,10.818,29.952,10.188,28.638,9.378L28.638,12.024C29.898,12.726,31.338,13.068,32.958,13.068C33.228,13.068,33.444,13.068,33.57,13.05ZM45.954,13.068C47.448,13.068,48.564,12.906,49.59,12.42L49.59,9.936C48.744,10.458,47.61,10.8,46.512,10.8L46.116,10.782C44.676,10.692,43.362,10.008,42.588,8.784C42.21,8.19,42.012,7.488,42.012,6.696C42.012,3.726,43.704,2.268,46.206,2.268C47.25,2.268,48.384,2.484,49.59,2.934L49.59,0.702001C48.708,0.288,47.214,0,45.864,0C43.146,0,40.95,1.098,39.78,3.096C39.186,4.104,38.898,5.31,38.898,6.696C38.898,10.566,41.688,13.068,45.954,13.068ZM57.636,13.068C61.668,13.068,64.044,10.692,64.044,6.678C64.044,2.628,61.668,0,57.636,0C53.604,0,51.21,2.628,51.21,6.678C51.21,10.656,53.604,13.068,57.636,13.068ZM54.36,6.678C54.36,4.05,55.656,2.232,57.636,2.232C58.986,2.232,60.012,3.042,60.516,4.392C60.768,5.058,60.894,5.832,60.894,6.678C60.894,9.27,59.67,10.872,57.636,10.872C55.566,10.872,54.36,9.27,54.36,6.678ZM65.07,2.664L68.31,2.664L68.31,12.834L71.298,12.834L71.298,2.664L74.538,2.664L74.538,0.234L65.07,0.234L65.07,2.664ZM82.368,5.58L82.368,8.532L85.32,8.532L85.32,5.58L82.368,5.58ZM101.736,0.234L101.736,5.076L96.894,5.076L96.894,0.234L93.924,0.234L93.924,12.834L96.894,12.834L96.894,7.506L101.736,7.506L101.736,12.834L104.706,12.834L104.706,0.234L101.736,0.234ZM112.41,13.068C115.776,13.068,117.936,11.124,117.936,7.938L117.936,0.234L114.966,0.234L114.966,7.938C114.966,9.504,113.85,10.512,112.41,10.512C110.988,10.512,109.836,9.504,109.836,7.938L109.836,0.234L106.866,0.234L106.866,7.938C106.866,11.124,109.026,13.068,112.41,13.068ZM128.502,12.834L131.67,12.834L128.016,0.234L123.066,0.234L119.412,12.834L122.562,12.834L123.516,9.27L127.548,9.27L128.502,12.834ZM124.092,7.11L125.514,1.836L125.55,1.836L126.972,7.11L124.092,7.11ZM139.194,12.834L144.036,12.834L144.036,0.234L141.12,0.234L141.12,10.188L140.886,10.188L137.88,0.234L133.146,0.234L133.146,12.834L136.062,12.834L136.062,3.042L136.17,3.042L139.194,12.834ZM154.008,0.234L154.008,5.076L149.166,5.076L149.166,0.234L146.196,0.234L146.196,12.834L149.166,12.834L149.166,7.506L154.008,7.506L154.008,12.834L156.978,12.834L156.978,0.234L154.008,0.234ZM164.682,13.068C168.048,13.068,170.208,11.124,170.208,7.938L170.208,0.234L167.238,0.234L167.238,7.938C167.238,9.504,166.122,10.512,164.682,10.512C163.26,10.512,162.108,9.504,162.108,7.938L162.108,0.234L159.138,0.234L159.138,7.938C159.138,11.124,161.298,13.068,164.682,13.068ZM180.774,12.834L183.942,12.834L180.288,0.234L175.338,0.234L171.684,12.834L174.834,12.834L175.788,9.27L179.82,9.27L180.774,12.834ZM176.364,7.11L177.786,1.836L177.822,1.836L179.244,7.11L176.364,7.11ZM191.466,12.834L196.308,12.834L196.308,0.234L193.392,0.234L193.392,10.188L193.158,10.188L190.152,0.234L185.418,0.234L185.418,12.834L188.334,12.834L188.334,3.042L188.442,3.042L191.466,12.834Z" fill="#FFFFFF" fill-opacity="1"/></g></svg>