<?xml version="1.0" encoding="utf-8"?>
<svg version="1.1" xmlns:xlink="http://www.w3.org/1999/xlink" width="389px" height="343px" xmlns="http://www.w3.org/2000/svg">
  <defs>
    <filter x="564px" y="5039px" width="389px" height="343px" filterUnits="userSpaceOnUse" id="filter10902">
      <feOffset dx="1" dy="1" in="SourceAlpha" result="shadowOffsetInner" />
      <feGaussianBlur stdDeviation="2" in="shadowOffsetInner" result="shadowGaussian" />
      <feComposite in2="shadowGaussian" operator="atop" in="SourceAlpha" result="shadowComposite" />
      <feColorMatrix type="matrix" values="0 0 0 0 0  0 0 0 0 0.301960784313725  0 0 0 0 0.454901960784314  0 0 0 0.0588235294117647 0  " in="shadowComposite" />
    </filter>
    <g id="widget10903">
      <path d="M 568 5058  A 15 15 0 0 1 583 5043 L 932 5043  A 15 15 0 0 1 947 5058 L 947 5361  A 15 15 0 0 1 932 5376 L 583 5376  A 15 15 0 0 1 568 5361 L 568 5058  Z " fill-rule="nonzero" fill="#81d3f8" stroke="none" fill-opacity="0.6" />
      <path d="M 567.5 5058  A 15.5 15.5 0 0 1 583 5042.5 L 932 5042.5  A 15.5 15.5 0 0 1 947.5 5058 L 947.5 5361  A 15.5 15.5 0 0 1 932 5376.5 L 583 5376.5  A 15.5 15.5 0 0 1 567.5 5361 L 567.5 5058  Z " stroke-width="1" stroke-dasharray="9,4,2,4,2,4" stroke="#02a7f0" fill="none" stroke-dashoffset="0.5" />
    </g>
  </defs>
  <g transform="matrix(1 0 0 1 -564 -5039 )">
    <use xlink:href="#widget10903" filter="url(#filter10902)" />
    <use xlink:href="#widget10903" />
  </g>
</svg>