<svg xmlns="http://www.w3.org/2000/svg" xmlns:xlink="http://www.w3.org/1999/xlink" fill="none" version="1.1" width="109.78800201416016" height="25.81599998474121" viewBox="0 0 109.78800201416016 25.81599998474121"><g><path d="M7.252,25.48L11.172,25.48C13.524,20.86,14.308,16.604,14.448,11.928L16.604,11.928C16.436,16.604,15.512,20.86,13.468,25.48L17.36,25.48C19.264,20.86,19.908,16.604,19.992,11.928L21.532,11.928L21.532,21.98L19.684,21.98L19.684,25.48L25.032,25.48L25.032,8.4L18.312,8.4L24.22,0.559999L9.24,0.559999L9.24,4.088L17.08,4.088L13.832,8.4L9.52,8.4L9.52,11.928L11.004,11.928C10.808,16.604,9.688,20.86,7.252,25.48ZM0,22.876L8.624,21.196L8.624,17.304L6.188,17.78L6.188,9.352L8.512,9.352L8.512,5.712L6.188,5.712L6.188,0.279999L2.604,0.279999L2.604,5.712L0.056,5.712L0.056,9.352L2.604,9.352L2.604,18.48L0,18.984L0,22.876ZM30.268,0.476L30.268,9.268L38.78,9.268L38.78,10.192L28.028,10.192L28.028,13.244L53.228,13.244L53.228,10.192L42.476,10.192L42.476,9.268L50.988,9.268L50.988,0.476L30.268,0.476ZM28.728,25.48L32.564,25.48C33.488,24.108,34.3,22.624,34.888,20.972L31.332,20.972C30.716,22.568,29.848,24.024,28.728,25.48ZM30.016,20.524L38.808,20.524L38.808,25.48L42.448,25.48L42.448,20.524L51.24,20.524L51.24,14.168L30.016,14.168L30.016,20.524ZM33.656,18.032L33.656,16.604L47.6,16.604L47.6,18.032L33.656,18.032ZM33.88,6.916L33.88,5.964L47.376,5.964L47.376,6.916L33.88,6.916ZM33.88,3.808L33.88,2.856L47.376,2.856L47.376,3.808L33.88,3.808ZM46.368,20.972C46.956,22.624,47.768,24.108,48.692,25.48L52.528,25.48C51.408,24.024,50.54,22.568,49.924,20.972L46.368,20.972ZM65.548,22.232L65.548,25.816C68.348,25.032,71.148,23.772,73.556,22.064C75.768,23.604,78.344,24.78,81.228,25.816L81.228,22.232C79.744,21.644,77.952,20.972,76.16,19.908C78.596,17.528,80.332,14.588,80.78,11.228L66.276,11.228C67.256,14.868,68.796,17.612,70.84,19.74C69.132,20.804,67.312,21.616,65.548,22.232ZM55.748,11.984L59.108,11.984L59.108,25.48L64.932,23.24L64.932,19.068L62.86,19.852L62.86,8.26L55.748,8.26L55.748,11.984ZM57.54,0.279999L59.472,6.356L63.28,6.356L61.348,0.279999L57.54,0.279999ZM65.436,10.668L69.244,10.668C70.532,8.68,70.868,6.552,70.924,4.172L75.74,4.172L75.74,10.248L81.452,10.248L81.452,6.888L79.1,6.888L79.1,0.756001L67.592,0.756001L67.592,3.024C67.592,5.852,67.312,8.512,65.436,10.668ZM70.812,14.224L76.356,14.224C75.628,15.568,74.62,16.772,73.444,17.808C72.436,16.856,71.54,15.68,70.812,14.224ZM99.68,25.76L103.404,25.76L103.404,12.88L109.788,12.88L109.788,9.156L103.404,9.156L103.404,0L99.652,0L99.652,9.156L93.016,9.156L93.016,12.88L99.68,12.88L99.68,25.76ZM83.608,11.984L86.548,11.984L86.548,25.48L93.772,23.324L93.772,19.152L90.3,20.188L90.3,8.26L83.608,8.26L83.608,11.984ZM85.54,0.279999L87.472,6.356L91.28,6.356L89.348,0.279999L85.54,0.279999Z" fill="#333333" fill-opacity="1"/></g></svg>