<svg xmlns="http://www.w3.org/2000/svg" xmlns:xlink="http://www.w3.org/1999/xlink" fill="none" version="1.1" width="153" height="53.8411865234375" viewBox="0 0 153 53.8411865234375"><g><g><g><path d="M3.701200005722046,32.7426C5.455490005722046,34.2678,7.923940005722046,35.0304,11.105800005722045,35.0304C13.040700005722046,35.0304,14.778900005722045,34.6291,16.32100000572205,33.825C17.862300005722044,33.0217,19.059300005722047,31.8816,19.912600005722044,30.4056C20.765100005722047,28.9296,21.191800005722047,27.1915,21.191800005722047,25.1904L21.191800005722047,24.2556C21.191800005722047,22.3537,20.805900005722044,20.7301,20.035600005722046,19.3848C19.264500005722045,18.0403,18.141400005722044,17.0563,16.665400005722045,16.4328C17.944600005722045,15.744,18.928600005722046,14.8177,19.617400005722047,13.653C20.306200005722047,12.4891,20.650600005722048,11.1684,20.650600005722048,9.6924L20.650600005722048,8.9544C20.650600005722048,6.23226,19.797300005722047,4.059,18.092200005722045,2.4354C16.386300005722045,0.811798,14.040900005722046,0,11.056600005722046,0C8.006200005722047,0,5.620000005722046,0.795654,3.898000005722046,2.3862C2.176000005722046,3.97751,1.315000005722046,6.1992,1.315000005722046,9.0528L1.315000005722046,9.8892L7.219000005722046,9.8892L7.219000005722046,9.0528C7.219000005722046,7.93811,7.530340005722046,7.0602,8.153800005722047,6.4206C8.776490005722046,5.781,9.662090005722046,5.4612,10.810600005722046,5.4612C11.925300005722045,5.4612,12.803200005722045,5.81406,13.442800005722045,6.519C14.082400005722047,7.22471,14.402200005722046,8.20026,14.402200005722046,9.4464L14.402200005722046,10.1844C14.402200005722046,11.4636,14.057800005722045,12.4645,13.369000005722047,13.1856C12.680200005722046,13.9075,11.712300005722046,14.268,10.466200005722046,14.268L8.793400005722045,14.268L8.793400005722045,19.7292L10.515400005722046,19.7292C11.958300005722046,19.7292,13.056900005722046,20.1228,13.811800005722047,20.91C14.565900005722046,21.6972,14.943400005722046,22.8288,14.943400005722046,24.3048L14.943400005722046,25.1904C14.943400005722046,26.5357,14.590500005722046,27.6012,13.885600005722045,28.3884C13.179900005722047,29.1756,12.220500005722046,29.5692,11.007400005722046,29.5692C9.728200005722046,29.5692,8.751890005722046,29.2663,8.080000005722045,28.659C7.4073400057220455,28.0525,7.071400005722046,27.1584,7.071400005722046,25.9776L7.071400005722046,25.2396L1.069000005722046,25.2396L1.069000005722046,26.2728C1.069000005722046,29.0611,1.9461440057220458,31.2174,3.701200005722046,32.7426ZM28.596400005722046,32.103C30.252300005722045,34.0549,32.80300000572205,35.0312,36.24700000572204,35.0304C39.691000005722046,35.0304,42.24090000572205,34.0464,43.89760000572205,32.0784C45.55350000572204,30.1112,46.38220000572205,27.1915,46.38220000572205,23.3208L46.38220000572205,11.316C46.38220000572205,7.5768,45.55350000572204,4.75626,43.89760000572205,2.8536C42.24090000572205,0.951714,39.691000005722046,0,36.24700000572204,0C32.933700005722045,0,30.416800005722045,0.9594,28.694800005722048,2.8782C26.972800005722046,4.797,26.111800005722046,7.60986,26.111800005722046,11.316L26.111800005722046,23.3208C26.111800005722046,27.2245,26.939700005722045,30.1519,28.596400005722046,32.103ZM39.17440000572205,27.921C38.665500005722045,28.9219,37.689900005722045,29.4216,36.24700000572204,29.4216C34.836300005722045,29.4216,33.87690000572204,28.9219,33.36880000572204,27.921C32.85990000572205,26.9209,32.606200005722044,25.2073,32.606200005722044,22.7796L32.606200005722044,12.2508C32.606200005722044,9.82386,32.85220000572205,8.118,33.344200005722044,7.134C33.83620000572205,6.15,34.80330000572204,5.658,36.24700000572204,5.658C37.689900005722045,5.658,38.665500005722045,6.15,39.17440000572205,7.134C39.68250000572205,8.118,39.93700000572205,9.82386,39.93700000572205,12.2508L39.93700000572205,22.7796C39.93700000572205,25.2073,39.68250000572205,26.9209,39.17440000572205,27.921ZM59.075800005722044,23.7144L59.075800005722044,31.5864L64.68460000572205,31.5864L64.68460000572205,23.7144L72.50740000572205,23.7144L72.50740000572205,18.1056L64.68460000572205,18.1056L64.68460000572205,10.2336L59.075800005722044,10.2336L59.075800005722044,18.1056L51.203800005722044,18.1056L51.203800005722044,23.7144L59.075800005722044,23.7144Z" fill="#3D3D3D" fill-opacity="1"/></g><g><path d="M8.723,42.5051611328125L0,42.5051611328125L0,53.8021611328125L0.949,53.8021611328125L0.949,52.9311611328125L7.787,52.9311611328125L7.787,53.776161132812504L8.723,53.776161132812504L8.723,42.5051611328125ZM0.949,52.0211611328125L0.949,49.5771611328125L7.787,49.5771611328125L7.787,52.0211611328125L0.949,52.0211611328125ZM0.949,48.7191611328125L0.949,46.4311611328125L7.787,46.4311611328125L7.787,48.7191611328125L0.949,48.7191611328125ZM0.949,45.5731611328125L0.949,43.4151611328125L7.787,43.4151611328125L7.787,45.5731611328125L0.949,45.5731611328125ZM13.338,41.9071621328125L13.338,44.3641611328125L11.752,44.3641611328125L11.752,45.261161132812504L13.338,45.261161132812504C12.935,46.8991611328125,12.272,48.3681611328125,11.336,49.642161132812504L11.739,50.6561611328125C12.389,49.642161132812504,12.922,48.5241611328125,13.338,47.3021611328125L13.338,53.776161132812504L14.261,53.776161132812504L14.261,47.2631611328125C14.651,47.7571611328125,15.106,48.4071611328125,15.639,49.2261611328125L16.172,48.4331611328125C15.535,47.6401611328125,14.898,46.9121611328125,14.261,46.2621611328125L14.261,45.261161132812504L15.769,45.261161132812504L15.769,44.3641611328125L14.261,44.3641611328125L14.261,41.9071621328125L13.338,41.9071621328125ZM17.173,47.7831611328125C16.809,49.395161132812504,16.224,50.8511611328125,15.418,52.1641611328125L16.224,52.6841611328125C17.004,51.3581611328125,17.615,49.798161132812496,18.031,47.9781611328125L17.173,47.7831611328125ZM21.879,47.7181611328125L21.034,47.9911611328125C21.541,49.395161132812504,22.009,50.9941611328125,22.438,52.801161132812496L23.283,52.4241611328125C22.893,50.7601611328125,22.425,49.1871611328125,21.879,47.7181611328125ZM18.967,53.6461611328125C19.721,53.6461611328125,20.111,53.2561611328125,20.111,52.4891611328125L20.111,46.7041611328125L23.296,46.7041611328125L23.296,45.8071611328125L16.003,45.8071611328125L16.003,46.7041611328125L19.175,46.7041611328125L19.175,52.2551611328125C19.175,52.6321611328125,18.993,52.8271611328125,18.642,52.8271611328125C18.265,52.8271611328125,17.875,52.801161132812496,17.459,52.7751611328125L17.641,53.6461611328125L18.967,53.6461611328125ZM16.692,42.6481611328125L16.692,43.5321611328125L22.62,43.5321611328125L22.62,42.6481611328125L16.692,42.6481611328125ZM26.624,46.4051611328125L29.926,46.4051611328125L29.926,48.6801611328125L26.624,48.6801611328125L26.624,46.4051611328125ZM26.572,49.5381611328125L29.926,49.5381611328125L29.926,53.3471611328125L30.888,53.3471611328125L30.888,49.5381611328125L34.424,49.5381611328125L34.424,51.8001611328125C34.424,52.3461611328125,34.177,52.6191611328125,33.709,52.6191611328125C33.267,52.6191611328125,32.786,52.5931611328125,32.266,52.5671611328125L32.513,53.4901611328125L34.008,53.4901611328125C34.918,53.4901611328125,35.373,53.0351611328125,35.373,52.1251611328125L35.373,42.3881621328125L25.688,42.3881621328125L25.688,48.6281611328125C25.662,50.4091611328125,25.233,51.8781611328125,24.401,53.0351611328125L25.116,53.6721611328125C25.948,52.5801611328125,26.429,51.2021611328125,26.572,49.5381611328125ZM34.424,48.6801611328125L30.888,48.6801611328125L30.888,46.4051611328125L34.424,46.4051611328125L34.424,48.6801611328125ZM34.424,45.5341611328125L30.888,45.5341611328125L30.888,43.2981611328125L34.424,43.2981611328125L34.424,45.5341611328125ZM29.926,43.2981611328125L29.926,45.5341611328125L26.624,45.5341611328125L26.624,43.2981611328125L29.926,43.2981611328125ZM47.242,44.3901611328125L47.242,46.9251611328125L39.819,46.9251611328125L39.819,44.3901611328125L47.242,44.3901611328125ZM39.819,47.8351611328125L48.191,47.8351611328125L48.191,43.4671611328125L44.083,43.4671611328125C43.849,42.8431611328125,43.615,42.2841611328125,43.381,41.7901611328125L42.38,41.9461611328125C42.653,42.4141621328125,42.9,42.9211611328125,43.134,43.4671611328125L38.896,43.4671611328125L38.896,47.5361611328125C38.87,49.8631611328125,38.337,51.761161132812504,37.284,53.2171611328125L37.973,53.8411611328125C39.143,52.1641611328125,39.754,50.1621611328125,39.819,47.8351611328125ZM56.355,44.7671611328125L56.355,45.5341611328125L57.85,45.5341611328125L57.85,46.7561611328125L56.147,46.7561611328125L56.147,47.5361611328125L60.463,47.5361611328125L60.463,46.7561611328125L58.734,46.7561611328125L58.734,45.5341611328125L60.242,45.5341611328125L60.242,44.7671611328125L58.734,44.7671611328125L58.734,43.7401611328125L57.85,43.7401611328125L57.85,44.7671611328125L56.355,44.7671611328125ZM56.563,48.4591611328125L56.563,51.7741611328125L60.021,51.7741611328125L60.021,48.4591611328125L56.563,48.4591611328125ZM59.215,51.0071611328125L57.369,51.0071611328125L57.369,49.2391611328125L59.215,49.2391611328125L59.215,51.0071611328125ZM61.828,42.3881621328125L54.795,42.3881621328125L54.795,49.5641611328125C54.769,51.0071611328125,54.457,52.2031611328125,53.833,53.1521611328125L54.522,53.7891611328125C55.276,52.6971611328125,55.653,51.267161132812504,55.679,49.5121611328125L55.679,43.2331611328125L60.944,43.2331611328125L60.944,52.2551611328125C60.944,52.6841611328125,60.749,52.9051611328125,60.385,52.9051611328125C60.021,52.9051611328125,59.618,52.892161132812504,59.189,52.8661611328125L59.41,53.7241611328125L60.658,53.7241611328125C61.438,53.7241611328125,61.828,53.3341611328125,61.828,52.5671611328125L61.828,42.3881621328125ZM51.987,42.0241611328125L51.337,42.6611611328125C52.208,43.3501611328125,52.897,44.0001611328125,53.417,44.6241611328125L54.054,43.9741611328125C53.495,43.3241611328125,52.806,42.6741611328125,51.987,42.0241611328125ZM50.401,45.8461611328125L50.401,46.7431611328125L52.208,46.7431611328125L52.208,51.657161132812504C52.208,51.8651611328125,52.104,52.0341611328125,51.922,52.1901611328125L52.286,53.0221611328125C53.014,52.5021611328125,53.69,51.9171611328125,54.327,51.267161132812504L54.093,50.3441611328125C53.755,50.682161132812496,53.43,50.9811611328125,53.118,51.267161132812504L53.118,45.8461611328125L50.401,45.8461611328125ZM72.891,43.4021611328125L72.891,47.0031611328125L70.863,47.0031611328125L70.863,43.4021611328125L72.891,43.4021611328125ZM72.891,47.9001611328125L72.891,53.7631611328125L73.788,53.7631611328125L73.788,47.9001611328125L75.335,47.9001611328125L75.335,47.0031611328125L73.788,47.0031611328125L73.788,43.4021611328125L74.984,43.4021611328125L74.984,42.5181611328125L68.809,42.5181611328125L68.809,43.4021611328125L69.953,43.4021611328125L69.953,47.0031611328125L68.523,47.0031611328125L68.523,47.9001611328125L69.94,47.9001611328125C69.862,50.3051611328125,69.16,52.060161132812496,67.834,53.1781611328125L68.523,53.8021611328125C69.979,52.5411611328125,70.746,50.5781611328125,70.85,47.9001611328125L72.891,47.9001611328125ZM65.299,43.4801611328125C64.974,45.3651611328125,64.311,47.0421611328125,63.297,48.4981611328125L63.791,49.3041611328125C64.116,48.8621611328125,64.415,48.3941611328125,64.688,47.9001611328125L64.688,53.3341611328125L65.546,53.3341611328125L65.546,52.307161132812496L67.782,52.307161132812496L67.782,46.4181611328125L65.377,46.4181611328125C65.728,45.5081611328125,66.001,44.5201611328125,66.183,43.4801611328125L68.237,43.4801611328125L68.237,42.5701611328125L63.739,42.5701611328125L63.739,43.4801611328125L65.299,43.4801611328125ZM65.546,51.4881611328125L65.546,47.2501611328125L66.911,47.2501611328125L66.911,51.4881611328125L65.546,51.4881611328125Z" fill="#3D3D3D" fill-opacity="0.6000000238418579"/></g></g><g><g style="opacity:0.5;"><ellipse cx="114" cy="27" rx="16" ry="16" fill="#12AA94" fill-opacity="1"/></g><g style="opacity:0.5;"><ellipse cx="137" cy="27" rx="16" ry="16" fill="#1951AE" fill-opacity="1"/></g></g></g></svg>