<?xml version="1.0" encoding="utf-8"?>
<svg version="1.1" xmlns:xlink="http://www.w3.org/1999/xlink" width="475px" height="385px" xmlns="http://www.w3.org/2000/svg">
  <defs>
    <filter x="680px" y="5398px" width="475px" height="385px" filterUnits="userSpaceOnUse" id="filter2883">
      <feOffset dx="1" dy="1" in="SourceAlpha" result="shadowOffsetInner" />
      <feGaussianBlur stdDeviation="2" in="shadowOffsetInner" result="shadowGaussian" />
      <feComposite in2="shadowGaussian" operator="atop" in="SourceAlpha" result="shadowComposite" />
      <feColorMatrix type="matrix" values="0 0 0 0 0  0 0 0 0 0.301960784313725  0 0 0 0 0.454901960784314  0 0 0 0.0588235294117647 0  " in="shadowComposite" />
    </filter>
    <g id="widget2884">
      <path d="M 684 5417  A 15 15 0 0 1 699 5402 L 1134 5402  A 15 15 0 0 1 1149 5417 L 1149 5762  A 15 15 0 0 1 1134 5777 L 699 5777  A 15 15 0 0 1 684 5762 L 684 5417  Z " fill-rule="nonzero" fill="#81d3f8" stroke="none" fill-opacity="0.6" />
      <path d="M 683.5 5417  A 15.5 15.5 0 0 1 699 5401.5 L 1134 5401.5  A 15.5 15.5 0 0 1 1149.5 5417 L 1149.5 5762  A 15.5 15.5 0 0 1 1134 5777.5 L 699 5777.5  A 15.5 15.5 0 0 1 683.5 5762 L 683.5 5417  Z " stroke-width="1" stroke-dasharray="9,4,2,4,2,4" stroke="#02a7f0" fill="none" stroke-dashoffset="0.5" />
    </g>
  </defs>
  <g transform="matrix(1 0 0 1 -680 -5398 )">
    <use xlink:href="#widget2884" filter="url(#filter2883)" />
    <use xlink:href="#widget2884" />
  </g>
</svg>