<svg xmlns="http://www.w3.org/2000/svg" xmlns:xlink="http://www.w3.org/1999/xlink" fill="none" version="1.1" width="569" height="536" viewBox="0 0 569 536"><g style="opacity:0.05000000074505806;"><path d="M264.978,0.797701C320.998,1.90364,375.781,8.39833,425.518,34.1954C482.264,63.628,551.804,94.9698,566.489,157.181C581.159,219.328,528.163,275.21,495.338,329.982C469.768,372.65,435.134,405.126,398.039,438.269C356.002,475.829,321.201,539.955,264.978,535.808C208.177,531.62,189.666,455.54,145.451,419.642C104.935,386.748,42.8681,381.278,18.0817,335.355C-8.27311,286.526,-1.87381,226.697,12.3677,173.069C27.2385,117.072,51.8965,60.4096,99.7661,27.7644C147.022,-4.46206,207.79,-0.33132,264.978,0.797701C264.978,0.797701,264.978,0.797701,264.978,0.797701Z" fill-rule="evenodd" fill="#F0F5FF" fill-opacity="1"/></g></svg>