<svg xmlns="http://www.w3.org/2000/svg" xmlns:xlink="http://www.w3.org/1999/xlink" fill="none" version="1.1" width="24" height="24" viewBox="0 0 24 24"><g><g><path d="M7.0973241796875,2.49755859375C4.4525241796875,2.49755859375,2.4725341796875,4.45875859375,2.4725341796875,7.12733859375C2.4725341796875,10.74409859375,4.3364841796875,14.74785859375,7.1793541796875,17.415858593750002C9.447224179687499,19.54435859375,12.9919341796875,21.08325859375,16.4756341796875,21.46145859375L16.9087341796875,21.50195859375L17.9027341796875,21.50255859375C18.3258341796875,21.50255859375,18.6688341796875,21.16045859375,18.6688341796875,20.73845859375C18.6688341796875,20.31645859375,18.3258341796875,19.97435859375,17.9027341796875,19.97435859375L16.970534179687498,19.97435859375C13.7163341796875,19.69785859375,10.3227741796875,18.267958593750002,8.228754179687499,16.30275859375C5.6913641796875005,13.92105859375,4.0042041796875,10.312898593749999,4.0042041796875,7.12733859375C4.0042041796875,5.30612859375,5.2953041796875,4.02577859375,7.0973241796875,4.02577859375C8.8054541796875,4.02577859375,10.1904441796875,5.41403859375,10.1904441796875,7.12733859375C10.1904441796875,8.49763859375,9.2630241796875,9.596818593750001,7.8221541796875,9.95214859375C7.5944041796875,10.00821859375,7.4049541796875,10.16530859375,7.3080841796875,10.37844859375C7.2112041796875,10.59162859375,7.2176341796875,10.83733859375,7.3255441796875,11.04517859375C7.9757341796875,12.29881859375,8.880314179687499,13.49405859375,9.9444841796875,14.50235859375C11.1627041796875,15.65625859375,12.5430341796875,16.52475859375,13.9855341796875,17.03545859375C14.2003341796875,17.11155859375,14.4380341796875,17.08825859375,14.6339341796875,16.97175859375C14.8298341796875,16.855358593749997,14.9635341796875,16.65775859375,14.9985341796875,16.43295859375C15.2402341796875,14.88615859375,16.4210341796875,13.81895859375,17.9027341796875,13.81895859375C19.6106341796875,13.81895859375,20.9958341796875,15.20745859375,20.9958341796875,16.920558593750002C20.9958341796875,17.503258593749997,20.8360341796875,18.06425859375,20.5326341796875,18.55405859375C20.3235341796875,18.91335859375,20.4388341796875,19.37175859375,20.7919341796875,19.58925859375C21.1449341796875,19.80665859375,21.6074341796875,19.70435859375,21.8351341796875,19.35835859375C22.2893341796875,18.62495859375,22.5288341796875,17.78105859375,22.5275341796875,16.92045859375C22.5275341796875,14.36385859375,20.4571341796875,12.29073859375,17.9027341796875,12.29073859375C15.9717341796875,12.29073859375,14.3367341796875,13.49315859375,13.7005341796875,15.33045859375C12.7924341796875,14.84905859375,11.8519041796875,14.20185859375,10.9994841796875,13.39435859375C10.2666841796875,12.69985859375,9.6259141796875,11.91473859375,9.0927541796875,11.05815859375C10.7066141796875,10.39991859375,11.7223641796875,8.89318859375,11.7223641796875,7.12733859375C11.7221141796875,4.57040859375,9.6519241796875,2.49755859375,7.0973241796875,2.49755859375Z" fill="#004CA4" fill-opacity="1"/></g></g></svg>