<?xml version="1.0" encoding="utf-8"?>
<svg version="1.1" xmlns:xlink="http://www.w3.org/1999/xlink" width="475px" height="382px" xmlns="http://www.w3.org/2000/svg">
  <defs>
    <filter x="641px" y="5396px" width="475px" height="382px" filterUnits="userSpaceOnUse" id="filter5">
      <feOffset dx="1" dy="1" in="SourceAlpha" result="shadowOffsetInner" />
      <feGaussianBlur stdDeviation="2" in="shadowOffsetInner" result="shadowGaussian" />
      <feComposite in2="shadowGaussian" operator="atop" in="SourceAlpha" result="shadowComposite" />
      <feColorMatrix type="matrix" values="0 0 0 0 0  0 0 0 0 0.301960784313725  0 0 0 0 0.454901960784314  0 0 0 0.0588235294117647 0  " in="shadowComposite" />
    </filter>
    <g id="widget6">
      <path d="M 645 5415  A 15 15 0 0 1 660 5400 L 1095 5400  A 15 15 0 0 1 1110 5415 L 1110 5757  A 15 15 0 0 1 1095 5772 L 660 5772  A 15 15 0 0 1 645 5757 L 645 5415  Z " fill-rule="nonzero" fill="#81d3f8" stroke="none" fill-opacity="0.6" />
      <path d="M 644.5 5415  A 15.5 15.5 0 0 1 660 5399.5 L 1095 5399.5  A 15.5 15.5 0 0 1 1110.5 5415 L 1110.5 5757  A 15.5 15.5 0 0 1 1095 5772.5 L 660 5772.5  A 15.5 15.5 0 0 1 644.5 5757 L 644.5 5415  Z " stroke-width="1" stroke-dasharray="9,4,2,4,2,4" stroke="#02a7f0" fill="none" stroke-dashoffset="0.5" />
    </g>
  </defs>
  <g transform="matrix(1 0 0 1 -641 -5396 )">
    <use xlink:href="#widget6" filter="url(#filter5)" />
    <use xlink:href="#widget6" />
  </g>
</svg>