<?xml version="1.0" encoding="utf-8"?>
<svg version="1.1" xmlns:xlink="http://www.w3.org/1999/xlink" width="407px" height="91px" xmlns="http://www.w3.org/2000/svg">
  <defs>
    <filter x="539px" y="4989px" width="407px" height="91px" filterUnits="userSpaceOnUse" id="filter99">
      <feOffset dx="1" dy="1" in="SourceAlpha" result="shadowOffsetInner" />
      <feGaussianBlur stdDeviation="2" in="shadowOffsetInner" result="shadowGaussian" />
      <feComposite in2="shadowGaussian" operator="atop" in="SourceAlpha" result="shadowComposite" />
      <feColorMatrix type="matrix" values="0 0 0 0 0  0 0 0 0 0.301960784313725  0 0 0 0 0.454901960784314  0 0 0 0.0588235294117647 0  " in="shadowComposite" />
    </filter>
    <g id="widget100">
      <path d="M 543 5008  A 15 15 0 0 1 558 4993 L 925 4993  A 15 15 0 0 1 940 5008 L 940 5059  A 15 15 0 0 1 925 5074 L 558 5074  A 15 15 0 0 1 543 5059 L 543 5008  Z " fill-rule="nonzero" fill="#81d3f8" stroke="none" fill-opacity="0.6" />
      <path d="M 542.5 5008  A 15.5 15.5 0 0 1 558 4992.5 L 925 4992.5  A 15.5 15.5 0 0 1 940.5 5008 L 940.5 5059  A 15.5 15.5 0 0 1 925 5074.5 L 558 5074.5  A 15.5 15.5 0 0 1 542.5 5059 L 542.5 5008  Z " stroke-width="1" stroke-dasharray="9,4,2,4,2,4" stroke="#02a7f0" fill="none" stroke-dashoffset="0.5" />
    </g>
  </defs>
  <g transform="matrix(1 0 0 1 -539 -4989 )">
    <use xlink:href="#widget100" filter="url(#filter99)" />
    <use xlink:href="#widget100" />
  </g>
</svg>