<svg xmlns="http://www.w3.org/2000/svg" xmlns:xlink="http://www.w3.org/1999/xlink" fill="none" version="1.1" width="110.20800018310547" height="26.09600067138672" viewBox="0 0 110.20800018310547 26.09600067138672"><g><path d="M11.144,25.76L14.756,25.76L14.756,23.268L21.308,23.268L21.308,25.76L24.92,25.76L24.92,12.348L11.144,12.348L11.144,25.76ZM0,15.54L2.744,15.54C3.08,11.928,3.22,8.428,3.22,4.732L0.588,4.732C0.588,8.4,0.42,11.928,0,15.54ZM3.948,25.984L7.476,25.984L7.476,11.62L9.66,13.16L9.66,9.044L7.476,7.504L7.476,0.336L3.948,0.336L3.948,25.984ZM9.912,11.564L26.18,11.564L26.18,8.68L20.048,8.68L20.048,7.7L25.032,7.7L25.032,4.928L20.048,4.928L20.048,3.948L25.732,3.948L25.732,1.12L20.048,1.12L20.048,0L16.408,0L16.408,1.12L10.36,1.12L10.36,3.948L16.408,3.948L16.408,4.928L11.06,4.928L11.06,7.7L16.408,7.7L16.408,8.68L9.912,8.68L9.912,11.564ZM14.756,20.552L14.756,19.292L21.308,19.292L21.308,20.552L14.756,20.552ZM14.756,16.576L14.756,15.316L21.308,15.316L21.308,16.576L14.756,16.576ZM40.18,25.648L52.584,25.648L52.584,12.852L43.68,12.852L44.268,11.536L53.928,11.536L53.928,8.456L51.464,8.456L54.124,1.54L50.652,1.54L49.616,4.228L49.616,2.744L46.368,2.744L46.368,0.559999L42.84,0.559999L42.84,2.744L38.752,2.744L38.752,5.824L42.84,5.824L42.84,8.456L37.324,8.456L37.324,11.536L40.516,11.536L36.988,19.264L40.18,19.264L40.18,25.648ZM28.112,10.584L31.332,12.404L28.84,19.152L36.988,19.152L36.988,15.54L34.132,15.54L37.828,5.572L34.552,5.572L33.236,9.128L32.284,8.568L35.336,0.559999L31.892,0.559999L28.112,10.584ZM28.56,25.592L37.548,24.668L37.548,21.056L28.56,21.98L28.56,25.592ZM43.708,22.736L43.708,20.552L49.056,20.552L49.056,22.736L43.708,22.736ZM43.708,17.92L43.708,15.764L49.056,15.764L49.056,17.92L43.708,17.92ZM46.368,8.456L46.368,5.824L49,5.824L47.992,8.456L46.368,8.456ZM65.968,22.512L65.968,26.096C68.768,25.312,71.568,24.052,73.976,22.344C76.188,23.884,78.764,25.06,81.648,26.096L81.648,22.512C80.164,21.924,78.372,21.252,76.58,20.188C79.016,17.808,80.752,14.868,81.2,11.508L66.696,11.508C67.676,15.148,69.216,17.892,71.26,20.02C69.552,21.084,67.732,21.896,65.968,22.512ZM56.168,12.264L59.528,12.264L59.528,25.76L65.352,23.52L65.352,19.348L63.28,20.132L63.28,8.54L56.168,8.54L56.168,12.264ZM57.96,0.559999L59.892,6.636L63.7,6.636L61.768,0.559999L57.96,0.559999ZM65.856,10.948L69.664,10.948C70.952,8.96,71.288,6.832,71.344,4.452L76.16,4.452L76.16,10.528L81.872,10.528L81.872,7.168L79.52,7.168L79.52,1.036L68.012,1.036L68.012,3.304C68.012,6.132,67.732,8.792,65.856,10.948ZM71.232,14.504L76.776,14.504C76.048,15.848,75.04,17.052,73.864,18.088C72.856,17.136,71.96,15.96,71.232,14.504ZM100.1,26.04L103.824,26.04L103.824,13.16L110.208,13.16L110.208,9.436L103.824,9.436L103.824,0.280001L100.072,0.280001L100.072,9.436L93.436,9.436L93.436,13.16L100.1,13.16L100.1,26.04ZM84.028,12.264L86.968,12.264L86.968,25.76L94.192,23.604L94.192,19.432L90.72,20.468L90.72,8.54L84.028,8.54L84.028,12.264ZM85.96,0.559999L87.892,6.636L91.7,6.636L89.768,0.559999L85.96,0.559999Z" fill="#333333" fill-opacity="1"/></g></svg>