<svg xmlns="http://www.w3.org/2000/svg" xmlns:xlink="http://www.w3.org/1999/xlink" fill="none" version="1.1" width="688.2117309570312" height="674.5555419921875" viewBox="0 0 688.2117309570312 674.5555419921875"><g><path d="M375.258,7.11047L593.631,112.273C613.317,121.753,627.615,139.683,632.478,160.986L686.411,397.283C691.273,418.586,686.17,440.943,672.546,458.027L521.429,647.523C507.806,664.605,487.143,674.556,465.293,674.556L222.919,674.556C201.069,674.556,180.406,664.605,166.783,647.523L15.6652,458.027C2.04161,440.943,-3.06135,418.586,1.80079,397.283L55.7342,160.986C60.5964,139.683,74.8946,121.753,94.5812,112.273L312.953,7.11047C332.639,-2.37015,355.572,-2.37016,375.258,7.11047ZM338.986,61.1686L120.614,166.331Q118.188,167.499,116.509,169.605Q114.829,171.711,114.23,174.337L60.2965,410.633Q59.6972,413.26,60.2965,415.886Q60.8959,418.512,62.5752,420.617L213.692,610.113Q215.371,612.218,217.798,613.387Q220.225,614.555,222.919,614.556L465.293,614.556Q467.986,614.556,470.414,613.387Q472.841,612.218,474.519,610.114L625.635,420.619Q627.316,418.512,627.915,415.885Q628.515,413.259,627.915,410.634L573.982,174.337Q573.383,171.711,571.703,169.605Q570.024,167.499,567.598,166.331L349.225,61.1683Q346.799,60,344.106,60Q341.413,60,338.987,61.1683L338.986,61.1686Z" fill-rule="evenodd" fill="#000000" fill-opacity="0.05000000074505806"/></g></svg>