<svg xmlns="http://www.w3.org/2000/svg" xmlns:xlink="http://www.w3.org/1999/xlink" fill="none" version="1.1" width="24" height="24" viewBox="0 0 24 24"><g><g><path d="M15.1788,7.87805C11.7647,8.1211,9.038450000000001,10.45241,9.038450000000001,13.3719C9.038450000000001,13.6681,9.066510000000001,13.9582,9.12048,14.2407C8.569790000000001,14.2279,8.03049,14.1586,7.51218,14.0357L7.25513,13.9748L4.25324,15.204L4.15494,15.2521C3.81177,15.4494,3.66161,15.87,3.81919,16.2399L3.86823,16.3363C4.0695,16.672800000000002,4.49843,16.82,4.87575,16.6655L7.39936,15.6317L7.55667,15.6652C8.1265,15.7722,8.71288,15.8267,9.30767,15.8267C9.46455,15.8267,9.59141,15.818,9.71915,15.7996C10.81842,17.640700000000002,13.13,18.886699999999998,15.7692,18.886699999999998L16.1205,18.8794C16.5871,18.8598,17.0461,18.801099999999998,17.491799999999998,18.7051L17.7755,18.636699999999998L19.7325,19.8736L19.8376,19.9298C20.1962,20.0891,20.6293,19.9712,20.849,19.6371C21.0907,19.2695,20.9827,18.7793,20.6078,18.5424L18.0263,16.9107L17.6647,17.022399999999998L17.3626,17.1072C16.8536,17.2362,16.3178,17.3029,15.7692,17.3029C12.9115,17.3029,10.65384,15.5027,10.65384,13.3719C10.65384,11.24118,12.9115,9.44096,15.7692,9.44096C18.6269,9.44096,20.8846,11.24118,20.8846,13.3719C20.8846,14.1015,20.6235,14.8042,20.1305,15.4202C19.8552,15.7643,19.9164,16.2621,20.2674,16.5321C20.6183,16.8021,21.126,16.742,21.4014,16.3979C22.112,15.51,22.5,14.4658,22.5,13.3719C22.5,10.61051,20.0611,8.37532,16.907899999999998,7.93567C16.0856,5.05317,12.9434,3,9.307690000000001,3C5.02722,3,1.5,5.8325700000000005,1.5,9.41334C1.5,10.95889,2.165035,12.41402,3.34473,13.5585C3.66182,13.8661,4.173220000000001,13.8635,4.48696,13.5526C4.8007100000000005,13.2417,4.798,12.74025,4.48091,12.43263C3.59786,11.57594,3.11538,10.52026,3.11538,9.41334C3.11538,6.78486,5.85618,4.58384,9.307690000000001,4.58384C12.0311,4.58384,14.3535,5.96658,15.1788,7.87805ZM8.12308,7.48754Q8.123090000000001,7.53941,8.117899999999999,7.59103Q8.11271,7.64265,8.10239,7.69353Q8.09207,7.74441,8.07671,7.79404Q8.061350000000001,7.84368,8.04111,7.89161Q8.020859999999999,7.93953,7.99592,7.98528Q7.97098,8.031030000000001,7.94159,8.07416Q7.9122,8.11729,7.87863,8.15739Q7.84507,8.19749,7.80766,8.234169999999999Q7.77025,8.27085,7.72935,8.30375Q7.68846,8.33666,7.64447,8.36548Q7.60048,8.394300000000001,7.55382,8.41875Q7.50716,8.443200000000001,7.45828,8.463049999999999Q7.4094,8.48291,7.35878,8.497959999999999Q7.30815,8.513020000000001,7.25626,8.52314Q7.20437,8.53326,7.15172,8.538350000000001Q7.09907,8.54343,7.04616,8.54343Q6.99326,8.54343,6.9406,8.538350000000001Q6.88795,8.53326,6.83606,8.52314Q6.78417,8.513020000000001,6.73355,8.497959999999999Q6.68292,8.48291,6.63404,8.463049999999999Q6.58516,8.443200000000001,6.5385,8.41875Q6.49184,8.394300000000001,6.44785,8.36548Q6.40387,8.33666,6.36297,8.30375Q6.32207,8.27085,6.28466,8.234169999999999Q6.24725,8.19749,6.21369,8.15739Q6.18012,8.11729,6.15073,8.07416Q6.12134,8.031030000000001,6.0964,7.98528Q6.07146,7.93953,6.05121,7.89161Q6.03097,7.84368,6.01561,7.79405Q6.00025,7.74441,5.98993,7.69353Q5.97961,7.64265,5.97442,7.59103Q5.96924,7.53941,5.96924,7.48754Q5.96924,7.43566,5.97442,7.38404Q5.97961,7.33242,5.98993,7.28154Q6.00025,7.23066,6.01561,7.18103Q6.03097,7.13139,6.05121,7.08346Q6.07146,7.03554,6.0964,6.98979Q6.12134,6.94404,6.15073,6.90091Q6.18012,6.85778,6.21369,6.81768Q6.24725,6.77758,6.28466,6.7409099999999995Q6.32207,6.70423,6.36297,6.67132Q6.40387,6.63841,6.44785,6.60959Q6.49184,6.580769999999999,6.5385,6.5563199999999995Q6.58516,6.53187,6.63404,6.51202Q6.68292,6.49216,6.73355,6.47711Q6.78417,6.46205,6.83606,6.45193Q6.88795,6.44181,6.9406,6.43673Q6.99326,6.43164,7.04616,6.43164Q7.09907,6.43164,7.15172,6.43673Q7.20437,6.44181,7.25626,6.45193Q7.30815,6.46205,7.35878,6.47711Q7.4094,6.49216,7.45828,6.51202Q7.50716,6.53187,7.55382,6.5563199999999995Q7.60048,6.580769999999999,7.64447,6.60959Q7.68846,6.63841,7.72935,6.67132Q7.77025,6.70423,7.80766,6.7409099999999995Q7.84507,6.77758,7.87863,6.81768Q7.9122,6.85778,7.94159,6.90091Q7.97098,6.94404,7.99592,6.98979Q8.020859999999999,7.03554,8.04111,7.08346Q8.061350000000001,7.13139,8.07671,7.18103Q8.09207,7.23066,8.10239,7.28154Q8.11271,7.33242,8.117899999999999,7.38404Q8.123090000000001,7.43566,8.12308,7.48754ZM12.5385,7.48754Q12.5385,7.53941,12.5333,7.59103Q12.5281,7.64265,12.5178,7.69353Q12.5075,7.74441,12.4921,7.79404Q12.4768,7.84368,12.4565,7.89161Q12.4363,7.93953,12.4113,7.98528Q12.3864,8.031030000000001,12.357,8.07416Q12.3276,8.11729,12.294,8.15739Q12.2605,8.19749,12.2231,8.234169999999999Q12.1857,8.27085,12.1448,8.30375Q12.1039,8.33666,12.0599,8.36548Q12.0159,8.394300000000001,11.9692,8.41875Q11.9226,8.443200000000001,11.8737,8.463049999999999Q11.8248,8.48291,11.7742,8.497959999999999Q11.7236,8.513020000000001,11.6717,8.52314Q11.6198,8.53326,11.5671,8.538350000000001Q11.5145,8.54343,11.46157,8.54343Q11.40866,8.54343,11.35601,8.538350000000001Q11.30336,8.53326,11.25147,8.52314Q11.19958,8.513020000000001,11.14895,8.497959999999999Q11.09832,8.48291,11.04944,8.463049999999999Q11.00057,8.443200000000001,10.95391,8.41875Q10.90725,8.394300000000001,10.86326,8.36548Q10.81927,8.33666,10.77837,8.30375Q10.73748,8.27085,10.70007,8.234169999999999Q10.66266,8.19749,10.62909,8.15739Q10.59553,8.11729,10.56614,8.07416Q10.53674,8.031030000000001,10.5118,7.98528Q10.48687,7.93953,10.46662,7.89161Q10.44637,7.84368,10.43102,7.79405Q10.41566,7.74441,10.40534,7.69353Q10.39501,7.64265,10.38983,7.59103Q10.38464,7.53941,10.38464,7.48754Q10.38464,7.43566,10.38983,7.38404Q10.39501,7.33242,10.40534,7.28154Q10.41566,7.23066,10.43102,7.18103Q10.44637,7.13139,10.46662,7.08346Q10.48687,7.03554,10.5118,6.98979Q10.53674,6.94404,10.56614,6.90091Q10.59553,6.85778,10.62909,6.81768Q10.66266,6.77758,10.70007,6.7409099999999995Q10.73748,6.70423,10.77837,6.67132Q10.81927,6.63841,10.86326,6.60959Q10.90725,6.580769999999999,10.95391,6.5563199999999995Q11.00057,6.53187,11.04944,6.51202Q11.09832,6.49216,11.14895,6.47711Q11.19958,6.46205,11.25147,6.45193Q11.30336,6.44181,11.35601,6.43673Q11.40866,6.43164,11.46157,6.43164Q11.5145,6.43164,11.5671,6.43673Q11.6198,6.44181,11.6717,6.45193Q11.7236,6.46205,11.7742,6.47711Q11.8248,6.49216,11.8737,6.51202Q11.9226,6.53187,11.9692,6.5563199999999995Q12.0159,6.580769999999999,12.0599,6.60959Q12.1039,6.63841,12.1448,6.67132Q12.1857,6.70423,12.2231,6.7409099999999995Q12.2605,6.77758,12.294,6.81768Q12.3276,6.85778,12.357,6.90091Q12.3864,6.94404,12.4113,6.98979Q12.4363,7.03554,12.4565,7.08346Q12.4768,7.13139,12.4921,7.18103Q12.5075,7.23066,12.5178,7.28154Q12.5281,7.33242,12.5333,7.38404Q12.5385,7.43566,12.5385,7.48754ZM14.9078,12.23906Q14.9078,12.29093,14.9026,12.34256Q14.8974,12.39418,14.8871,12.44506Q14.8767,12.49593,14.8614,12.54557Q14.846,12.59521,14.8258,12.64313Q14.8055,12.69106,14.7806,12.7368Q14.7556,12.78255,14.7263,12.82568Q14.6969,12.86881,14.6633,12.90891Q14.6297,12.94901,14.5923,12.98569Q14.5549,13.0224,14.514,13.0553Q14.4731,13.0882,14.4291,13.117Q14.3851,13.1458,14.3385,13.1703Q14.2918,13.1947,14.2429,13.2146Q14.1941,13.2344,14.1434,13.2495Q14.0928,13.2645,14.0409,13.2747Q13.989,13.2848,13.9364,13.2899Q13.8837,13.295,13.8308,13.295Q13.7779,13.295,13.7253,13.2899Q13.6726,13.2848,13.6207,13.2747Q13.5688,13.2645,13.5182,13.2495Q13.4676,13.2344,13.4187,13.2146Q13.3698,13.1947,13.3232,13.1703Q13.2765,13.1458,13.2325,13.117Q13.1885,13.0882,13.1476,13.0553Q13.1067,13.0224,13.0693,12.98569Q13.0319,12.94901,12.9984,12.90891Q12.9648,12.86881,12.9354,12.82568Q12.906,12.78255,12.8811,12.7368Q12.8561,12.69106,12.8359,12.64313Q12.8156,12.59521,12.8003,12.54557Q12.7849,12.49593,12.7746,12.44506Q12.7643,12.39418,12.7591,12.34256Q12.7539,12.29093,12.7539,12.23906Q12.7539,12.18719,12.7591,12.13556Q12.7643,12.08394,12.7746,12.03307Q12.7849,11.98219,12.8003,11.93255Q12.8156,11.88291,12.8359,11.83499Q12.8561,11.78706,12.8811,11.74132Q12.906,11.69557,12.9354,11.65244Q12.9648,11.60931,12.9984,11.56921Q13.0319,11.52911,13.0693,11.49243Q13.1067,11.45575,13.1476,11.42284Q13.1885,11.38994,13.2325,11.36112Q13.2765,11.3323,13.3232,11.30785Q13.3698,11.28339,13.4187,11.26354Q13.4676,11.24369,13.5182,11.22863Q13.5688,11.21358,13.6207,11.20345Q13.6726,11.19334,13.7253,11.18825Q13.7779,11.18317,13.8308,11.18317Q13.8837,11.18317,13.9364,11.18825Q13.989,11.19334,14.0409,11.20345Q14.0928,11.21358,14.1434,11.22863Q14.1941,11.24369,14.2429,11.26354Q14.2918,11.28339,14.3385,11.30784Q14.3851,11.3323,14.4291,11.36112Q14.4731,11.38994,14.514,11.42284Q14.5549,11.45575,14.5923,11.49243Q14.6297,11.52911,14.6633,11.56921Q14.6969,11.60931,14.7263,11.65244Q14.7557,11.69557,14.7806,11.74132Q14.8055,11.78706,14.8258,11.83499Q14.846,11.88291,14.8614,11.93255Q14.8767,11.98219,14.8871,12.03306Q14.8974,12.08394,14.9026,12.13556Q14.9078,12.18719,14.9078,12.23906ZM18.7846,12.23906Q18.7846,12.29093,18.7794,12.34256Q18.7742,12.39418,18.7639,12.44506Q18.7536,12.49593,18.7382,12.54557Q18.7229,12.59521,18.7026,12.64313Q18.6824,12.69106,18.6574,12.7368Q18.6325,12.78255,18.6031,12.82568Q18.5737,12.86881,18.5401,12.90891Q18.5066,12.94901,18.4692,12.98569Q18.4317,13.0224,18.3909,13.0553Q18.35,13.0882,18.306,13.117Q18.262,13.1458,18.2153,13.1703Q18.1687,13.1947,18.1198,13.2146Q18.0709,13.2344,18.0203,13.2495Q17.9696,13.2645,17.9178,13.2747Q17.8659,13.2848,17.8132,13.2899Q17.7606,13.295,17.7077,13.295Q17.6548,13.295,17.6021,13.2899Q17.5495,13.2848,17.4976,13.2747Q17.445700000000002,13.2645,17.395,13.2495Q17.3444,13.2344,17.2955,13.2146Q17.2467,13.1947,17.2,13.1703Q17.1533,13.1458,17.1094,13.117Q17.0654,13.0882,17.0245,13.0553Q16.9836,13.0224,16.946199999999997,12.98569Q16.9088,12.94901,16.8752,12.90891Q16.8416,12.86881,16.8122,12.82568Q16.7828,12.78255,16.7579,12.7368Q16.733,12.69106,16.712699999999998,12.64313Q16.692500000000003,12.59521,16.6771,12.54557Q16.6618,12.49593,16.651400000000002,12.44506Q16.6411,12.39418,16.6359,12.34256Q16.630699999999997,12.29093,16.630699999999997,12.23906Q16.630699999999997,12.18719,16.6359,12.13556Q16.6411,12.08394,16.651400000000002,12.03307Q16.6618,11.98219,16.6771,11.93255Q16.692500000000003,11.88291,16.712699999999998,11.83499Q16.733,11.78706,16.7579,11.74132Q16.7828,11.69557,16.8122,11.65244Q16.8416,11.60931,16.8752,11.56921Q16.9088,11.52911,16.946199999999997,11.49243Q16.9836,11.45575,17.0245,11.42284Q17.0654,11.38994,17.1094,11.36112Q17.1533,11.3323,17.2,11.30785Q17.2467,11.28339,17.2955,11.26354Q17.3444,11.24369,17.395,11.22863Q17.445700000000002,11.21358,17.4976,11.20345Q17.5495,11.19334,17.6021,11.18825Q17.6548,11.18317,17.7077,11.18317Q17.7606,11.18317,17.8132,11.18825Q17.8659,11.19334,17.9178,11.20345Q17.9696,11.21358,18.0203,11.22863Q18.0709,11.24369,18.1198,11.26354Q18.1687,11.28339,18.2153,11.30784Q18.262,11.3323,18.306,11.36112Q18.35,11.38994,18.3909,11.42284Q18.4317,11.45575,18.4692,11.49243Q18.5066,11.52911,18.5401,11.56921Q18.5737,11.60931,18.6031,11.65244Q18.6325,11.69557,18.6574,11.74132Q18.6824,11.78706,18.7026,11.83499Q18.7229,11.88291,18.7382,11.93255Q18.7536,11.98219,18.7639,12.03306Q18.7742,12.08394,18.7794,12.13556Q18.7846,12.18719,18.7846,12.23906Z" fill-rule="evenodd" fill="#004CA4" fill-opacity="1"/></g></g></svg>