<svg xmlns="http://www.w3.org/2000/svg" xmlns:xlink="http://www.w3.org/1999/xlink" fill="none" version="1.1" width="24" height="24" viewBox="0 0 24 24"><g><g><path d="M17.9932,3L6.00675,3C3.79748,3,2,4.87035,2,7.16986L2,16.829900000000002C2,19.1296,3.7976799999999997,21,6.00675,21L17.993000000000002,21C20.2025,21,22,19.1296,22,16.8301L22,7.17007C22.0002,4.87035,20.2027,3,17.9932,3ZM17.993299999999998,4.66071C18.2864,4.66071,18.5639,4.72339,18.824,4.82349L12.7454,11.62284C12.3478,12.06754,11.65184,12.06752,11.25431,11.62281L5.176270000000001,4.82349C5.43638,4.72339,5.71387,4.66071,6.00677,4.66071L17.993299999999998,4.66071ZM8.15598,10.594660000000001L3.94659,5.88568C3.72875,6.26263,3.5958300000000003,6.698980000000001,3.5958300000000003,7.17006L3.5958300000000003,14.9624L8.15598,10.594660000000001ZM20.0536,5.88568L15.844,10.594660000000001L20.4044,14.9624L20.4044,7.17006C20.4044,6.69877,20.2714,6.26263,20.0536,5.88568ZM17.9932,19.3393L6.00675,19.3393C4.79427,19.3393,3.79807,18.400199999999998,3.63019,17.1857L9.24245,11.81018L10.50859,13.2266C11.30366,14.1161,12.6956,14.1161,13.4907,13.2267L14.7571,11.81018L20.3698,17.1857C20.2019,18.400199999999998,19.2055,19.3393,17.9932,19.3393Z" fill-rule="evenodd" fill="#004CA4" fill-opacity="1"/></g></g></svg>