<svg xmlns="http://www.w3.org/2000/svg" xmlns:xlink="http://www.w3.org/1999/xlink" fill="none" version="1.1" width="110.32000732421875" height="25.81599998474121" viewBox="0 0 110.32000732421875 25.81599998474121"><g><path d="M5.628,13.72L5.628,4.088L20.832,4.088L20.86,21.812L19.656,21.812L19.656,25.48L24.444,25.48L24.444,0.643999L2.016,0.643999L2.044,13.72C2.044,17.752,1.484,21.672,0,25.508L3.948,25.508C5.096,21.756,5.628,17.808,5.628,13.72ZM6.664,13.832L19.852,13.832L19.852,10.584L15.036,10.584L15.036,9.184L19.292,9.184L19.292,5.936L15.036,5.936L15.036,4.62L11.508,4.62L11.508,5.936L7.224,5.936L7.224,9.184L11.508,9.184L11.508,10.584L6.664,10.584L6.664,13.832ZM7.42,23.968L18.9,23.968L18.9,15.12L7.42,15.12L7.42,23.968ZM10.976,20.692L10.976,18.368L15.344,18.368L15.344,20.692L10.976,20.692ZM46.256,20.104L53.032,20.104L53.032,2.548L43.876,2.548L43.876,0L40.292,0L40.292,2.548L36.288,2.548L36.288,6.132L40.292,6.132L40.292,8.288C40.292,12.712,38.836,15.148,35.644,16.436L35.644,20.636C41.048,18.816,43.876,14.364,43.876,8.4L43.876,6.132L49.476,6.132L49.448,16.576L46.256,16.576L46.256,20.104ZM28,11.9L31.304,11.9C31.108,16.632,30.408,20.496,28.616,25.48L32.48,25.48C32.648,24.948,32.788,24.416,32.956,23.912C34.776,24.836,36.904,25.2,40.32,25.2L54.04,25.2L54.04,21.7L40.32,21.7C37.436,21.7,35.504,21.336,33.824,20.412C34.664,16.52,34.944,12.908,34.944,8.26L28,8.26L28,11.9ZM29.148,0.279999L31.08,6.356L34.86,6.356L32.928,0.279999L29.148,0.279999ZM66.08,22.232L66.08,25.816C68.88,25.032,71.68,23.772,74.088,22.064C76.3,23.604,78.876,24.78,81.76,25.816L81.76,22.232C80.276,21.644,78.484,20.972,76.692,19.908C79.128,17.528,80.864,14.588,81.312,11.228L66.808,11.228C67.788,14.868,69.328,17.612,71.372,19.74C69.664,20.804,67.844,21.616,66.08,22.232ZM56.28,11.984L59.64,11.984L59.64,25.48L65.464,23.24L65.464,19.068L63.392,19.852L63.392,8.26L56.28,8.26L56.28,11.984ZM58.072,0.279999L60.004,6.356L63.812,6.356L61.88,0.279999L58.072,0.279999ZM65.968,10.668L69.776,10.668C71.064,8.68,71.4,6.552,71.456,4.172L76.272,4.172L76.272,10.248L81.984,10.248L81.984,6.888L79.632,6.888L79.632,0.756001L68.124,0.756001L68.124,3.024C68.124,5.852,67.844,8.512,65.968,10.668ZM71.344,14.224L76.888,14.224C76.16,15.568,75.152,16.772,73.976,17.808C72.968,16.856,72.072,15.68,71.344,14.224ZM100.212,25.76L103.936,25.76L103.936,12.88L110.32,12.88L110.32,9.156L103.936,9.156L103.936,0L100.184,0L100.184,9.156L93.548,9.156L93.548,12.88L100.212,12.88L100.212,25.76ZM84.14,11.984L87.08,11.984L87.08,25.48L94.304,23.324L94.304,19.152L90.832,20.188L90.832,8.26L84.14,8.26L84.14,11.984ZM86.072,0.279999L88.004,6.356L91.812,6.356L89.88,0.279999L86.072,0.279999Z" fill="#333333" fill-opacity="1"/></g></svg>