<?xml version="1.0" encoding="utf-8"?>
<svg version="1.1" xmlns:xlink="http://www.w3.org/1999/xlink" width="345px" height="91px" xmlns="http://www.w3.org/2000/svg">
  <defs>
    <filter x="47px" y="3816px" width="345px" height="91px" filterUnits="userSpaceOnUse" id="filter7471">
      <feOffset dx="1" dy="1" in="SourceAlpha" result="shadowOffsetInner" />
      <feGaussianBlur stdDeviation="2" in="shadowOffsetInner" result="shadowGaussian" />
      <feComposite in2="shadowGaussian" operator="atop" in="SourceAlpha" result="shadowComposite" />
      <feColorMatrix type="matrix" values="0 0 0 0 0  0 0 0 0 0.301960784313725  0 0 0 0 0.454901960784314  0 0 0 0.0588235294117647 0  " in="shadowComposite" />
    </filter>
    <g id="widget7472">
      <path d="M 51 3829  A 9 9 0 0 1 60 3820 L 377 3820  A 9 9 0 0 1 386 3829 L 386 3892  A 9 9 0 0 1 377 3901 L 60 3901  A 9 9 0 0 1 51 3892 L 51 3829  Z " fill-rule="nonzero" fill="#81d3f8" stroke="none" fill-opacity="0.6" />
      <path d="M 50.5 3829  A 9.5 9.5 0 0 1 60 3819.5 L 377 3819.5  A 9.5 9.5 0 0 1 386.5 3829 L 386.5 3892  A 9.5 9.5 0 0 1 377 3901.5 L 60 3901.5  A 9.5 9.5 0 0 1 50.5 3892 L 50.5 3829  Z " stroke-width="1" stroke-dasharray="9,4,2,4,2,4" stroke="#02a7f0" fill="none" stroke-dashoffset="0.5" />
    </g>
  </defs>
  <g transform="matrix(1 0 0 1 -47 -3816 )">
    <use xlink:href="#widget7472" filter="url(#filter7471)" />
    <use xlink:href="#widget7472" />
  </g>
</svg>