<?xml version="1.0" encoding="utf-8"?>
<svg version="1.1" xmlns:xlink="http://www.w3.org/1999/xlink" width="407px" height="91px" xmlns="http://www.w3.org/2000/svg">
  <defs>
    <filter x="39px" y="4378px" width="407px" height="91px" filterUnits="userSpaceOnUse" id="filter7568">
      <feOffset dx="1" dy="1" in="SourceAlpha" result="shadowOffsetInner" />
      <feGaussianBlur stdDeviation="2" in="shadowOffsetInner" result="shadowGaussian" />
      <feComposite in2="shadowGaussian" operator="atop" in="SourceAlpha" result="shadowComposite" />
      <feColorMatrix type="matrix" values="0 0 0 0 0  0 0 0 0 0.301960784313725  0 0 0 0 0.454901960784314  0 0 0 0.0588235294117647 0  " in="shadowComposite" />
    </filter>
    <g id="widget7569">
      <path d="M 43 4391  A 9 9 0 0 1 52 4382 L 431 4382  A 9 9 0 0 1 440 4391 L 440 4454  A 9 9 0 0 1 431 4463 L 52 4463  A 9 9 0 0 1 43 4454 L 43 4391  Z " fill-rule="nonzero" fill="#81d3f8" stroke="none" fill-opacity="0.6" />
      <path d="M 42.5 4391  A 9.5 9.5 0 0 1 52 4381.5 L 431 4381.5  A 9.5 9.5 0 0 1 440.5 4391 L 440.5 4454  A 9.5 9.5 0 0 1 431 4463.5 L 52 4463.5  A 9.5 9.5 0 0 1 42.5 4454 L 42.5 4391  Z " stroke-width="1" stroke-dasharray="9,4,2,4,2,4" stroke="#02a7f0" fill="none" stroke-dashoffset="0.5" />
    </g>
  </defs>
  <g transform="matrix(1 0 0 1 -39 -4378 )">
    <use xlink:href="#widget7569" filter="url(#filter7568)" />
    <use xlink:href="#widget7569" />
  </g>
</svg>