<svg xmlns="http://www.w3.org/2000/svg" xmlns:xlink="http://www.w3.org/1999/xlink" fill="none" version="1.1" width="479.2560729980469" height="469.7461853027344" viewBox="0 0 479.2560729980469 469.7461853027344"><g><path d="M261.322,4.95158L413.392,78.1844C427.101,84.7864,437.058,97.2722,440.444,112.107L478.002,276.659C481.388,291.494,477.834,307.063,468.347,318.96L363.112,450.921C353.625,462.817,339.236,469.746,324.02,469.746L155.236,469.746C140.02,469.746,125.631,462.817,116.144,450.921L10.9089,318.96C1.42173,307.063,-2.13186,291.494,1.25403,276.659L38.8121,112.107C42.198,97.2722,52.155,84.7865,65.8643,78.1844L217.934,4.95158C231.643,-1.65052,247.613,-1.65053,261.322,4.95158ZM230.951,31.9807L78.8809,105.213Q74.7681,107.194,71.922,110.763Q69.0758,114.332,68.06,118.783L30.5019,283.335Q29.4861,287.785,30.5019,292.236Q31.5177,296.686,34.3639,300.256L139.599,432.216Q142.445,435.785,146.558,437.765Q150.671,439.746,155.236,439.746L324.02,439.746Q328.585,439.746,332.698,437.765Q336.811,435.785,339.657,432.217L444.892,300.256Q447.738,296.686,448.754,292.236Q449.77,287.785,448.754,283.335L411.196,118.783Q410.18,114.332,407.334,110.763Q404.488,107.194,400.376,105.213L248.305,31.9805Q244.193,30,239.628,30Q235.063,30,230.951,31.9805L230.951,31.9807Z" fill-rule="evenodd" fill="#C1F0FF" fill-opacity="1"/></g></svg>