<?xml version="1.0" encoding="utf-8"?>
<svg version="1.1" xmlns:xlink="http://www.w3.org/1999/xlink" width="654px" height="91px" xmlns="http://www.w3.org/2000/svg">
  <defs>
    <filter x="47px" y="4350px" width="654px" height="91px" filterUnits="userSpaceOnUse" id="filter12611">
      <feOffset dx="1" dy="1" in="SourceAlpha" result="shadowOffsetInner" />
      <feGaussianBlur stdDeviation="2" in="shadowOffsetInner" result="shadowGaussian" />
      <feComposite in2="shadowGaussian" operator="atop" in="SourceAlpha" result="shadowComposite" />
      <feColorMatrix type="matrix" values="0 0 0 0 0  0 0 0 0 0.301960784313725  0 0 0 0 0.454901960784314  0 0 0 0.0588235294117647 0  " in="shadowComposite" />
    </filter>
    <g id="widget12612">
      <path d="M 51 4363  A 9 9 0 0 1 60 4354 L 686 4354  A 9 9 0 0 1 695 4363 L 695 4426  A 9 9 0 0 1 686 4435 L 60 4435  A 9 9 0 0 1 51 4426 L 51 4363  Z " fill-rule="nonzero" fill="#81d3f8" stroke="none" fill-opacity="0.6" />
      <path d="M 50.5 4363  A 9.5 9.5 0 0 1 60 4353.5 L 686 4353.5  A 9.5 9.5 0 0 1 695.5 4363 L 695.5 4426  A 9.5 9.5 0 0 1 686 4435.5 L 60 4435.5  A 9.5 9.5 0 0 1 50.5 4426 L 50.5 4363  Z " stroke-width="1" stroke-dasharray="9,4,2,4,2,4" stroke="#02a7f0" fill="none" stroke-dashoffset="0.5" />
    </g>
  </defs>
  <g transform="matrix(1 0 0 1 -47 -4350 )">
    <use xlink:href="#widget12612" filter="url(#filter12611)" />
    <use xlink:href="#widget12612" />
  </g>
</svg>