<?xml version="1.0" encoding="utf-8"?>
<svg version="1.1" xmlns:xlink="http://www.w3.org/1999/xlink" width="345px" height="91px" xmlns="http://www.w3.org/2000/svg">
  <defs>
    <filter x="46px" y="3818px" width="345px" height="91px" filterUnits="userSpaceOnUse" id="filter630">
      <feOffset dx="1" dy="1" in="SourceAlpha" result="shadowOffsetInner" />
      <feGaussianBlur stdDeviation="2" in="shadowOffsetInner" result="shadowGaussian" />
      <feComposite in2="shadowGaussian" operator="atop" in="SourceAlpha" result="shadowComposite" />
      <feColorMatrix type="matrix" values="0 0 0 0 0  0 0 0 0 0.301960784313725  0 0 0 0 0.454901960784314  0 0 0 0.0588235294117647 0  " in="shadowComposite" />
    </filter>
    <g id="widget631">
      <path d="M 50 3831  A 9 9 0 0 1 59 3822 L 376 3822  A 9 9 0 0 1 385 3831 L 385 3894  A 9 9 0 0 1 376 3903 L 59 3903  A 9 9 0 0 1 50 3894 L 50 3831  Z " fill-rule="nonzero" fill="#81d3f8" stroke="none" fill-opacity="0.6" />
      <path d="M 49.5 3831  A 9.5 9.5 0 0 1 59 3821.5 L 376 3821.5  A 9.5 9.5 0 0 1 385.5 3831 L 385.5 3894  A 9.5 9.5 0 0 1 376 3903.5 L 59 3903.5  A 9.5 9.5 0 0 1 49.5 3894 L 49.5 3831  Z " stroke-width="1" stroke-dasharray="9,4,2,4,2,4" stroke="#02a7f0" fill="none" stroke-dashoffset="0.5" />
    </g>
  </defs>
  <g transform="matrix(1 0 0 1 -46 -3818 )">
    <use xlink:href="#widget631" filter="url(#filter630)" />
    <use xlink:href="#widget631" />
  </g>
</svg>