<?xml version="1.0" encoding="utf-8"?>
<svg version="1.1" xmlns:xlink="http://www.w3.org/1999/xlink" width="338px" height="91px" xmlns="http://www.w3.org/2000/svg">
  <defs>
    <filter x="17px" y="4561px" width="338px" height="91px" filterUnits="userSpaceOnUse" id="filter736">
      <feOffset dx="1" dy="1" in="SourceAlpha" result="shadowOffsetInner" />
      <feGaussianBlur stdDeviation="2" in="shadowOffsetInner" result="shadowGaussian" />
      <feComposite in2="shadowGaussian" operator="atop" in="SourceAlpha" result="shadowComposite" />
      <feColorMatrix type="matrix" values="0 0 0 0 0  0 0 0 0 0.301960784313725  0 0 0 0 0.454901960784314  0 0 0 0.0588235294117647 0  " in="shadowComposite" />
    </filter>
    <g id="widget737">
      <path d="M 21 4574  A 9 9 0 0 1 30 4565 L 340 4565  A 9 9 0 0 1 349 4574 L 349 4637  A 9 9 0 0 1 340 4646 L 30 4646  A 9 9 0 0 1 21 4637 L 21 4574  Z " fill-rule="nonzero" fill="#81d3f8" stroke="none" fill-opacity="0.6" />
      <path d="M 20.5 4574  A 9.5 9.5 0 0 1 30 4564.5 L 340 4564.5  A 9.5 9.5 0 0 1 349.5 4574 L 349.5 4637  A 9.5 9.5 0 0 1 340 4646.5 L 30 4646.5  A 9.5 9.5 0 0 1 20.5 4637 L 20.5 4574  Z " stroke-width="1" stroke-dasharray="9,4,2,4,2,4" stroke="#02a7f0" fill="none" stroke-dashoffset="0.5" />
    </g>
  </defs>
  <g transform="matrix(1 0 0 1 -17 -4561 )">
    <use xlink:href="#widget737" filter="url(#filter736)" />
    <use xlink:href="#widget737" />
  </g>
</svg>