<svg xmlns="http://www.w3.org/2000/svg" xmlns:xlink="http://www.w3.org/1999/xlink" fill="none" version="1.1" width="109.76000213623047" height="25.6200008392334" viewBox="0 0 109.76000213623047 25.6200008392334"><g><path d="M10.696,18.76L14.168,18.76L14.168,8.876L21.084,8.876L21.084,18.284C20.468,17.78,19.768,17.332,19.012,16.94C19.152,16.24,19.208,15.484,19.208,14.7L19.208,10.304L15.82,10.304L15.82,14.56C15.82,18.928,13.524,21.084,9.8,21.84L9.8,25.62C13.636,24.92,16.548,22.904,18.06,19.88C20.216,21.196,21.504,23.072,21.98,25.368L25.368,25.368C24.752,22.82,23.604,20.524,21.644,18.76L24.556,18.76L24.556,5.6L18.956,5.6L19.32,3.808L25.676,3.808L25.676,0.42L9.576,0.42L9.576,3.808L15.96,3.808L15.596,5.6L10.696,5.6L10.696,18.76ZM0,22.288L10.08,20.58L10.08,16.688L6.692,17.276L6.692,5.096L9.128,5.096L9.128,1.456L0.364,1.456L0.364,5.096L3.108,5.096L3.108,17.864L0,18.396L0,22.288ZM51.24,0.587999L30.52,0.587999L30.52,24.892L51.24,24.892L51.24,0.587999ZM34.244,21.308L34.244,17.864L47.516,17.864L47.516,21.308L34.244,21.308ZM34.244,14.308L34.244,11.032L47.516,11.032L47.516,14.308L34.244,14.308ZM34.244,7.476L34.244,4.172L47.516,4.172L47.516,7.476L34.244,7.476ZM81.144,8.904L66.136,8.904L66.136,25.368L81.144,25.368L81.144,8.904ZM56.168,17.192L59.08,16.464L59.08,21.952L56.924,21.952L56.924,25.34L62.72,25.34L62.72,15.568L65.24,14.952L65.24,11.06L62.72,11.676L62.72,7.42L64.96,7.42L64.96,3.892L62.72,3.892L62.72,0L59.08,0L59.08,3.892L56.448,3.892L56.448,7.42L59.08,7.42L59.08,12.572L56.168,13.3L56.168,17.192ZM65.52,5.348L67.984,5.348L67.984,7.728L71.568,7.728L71.568,5.348L75.712,5.348L75.712,7.728L79.296,7.728L79.296,5.348L81.76,5.348L81.76,1.876L79.296,1.876L79.296,0L75.712,0L75.712,1.876L71.568,1.876L71.568,0L67.984,0L67.984,1.876L65.52,1.876L65.52,5.348ZM69.496,22.064L69.496,18.676L71.54,18.676L71.54,22.064L69.496,22.064ZM69.496,15.596L69.496,12.208L71.54,12.208L71.54,15.596L69.496,15.596ZM75.18,22.064L75.18,18.676L77.784,18.676L77.784,22.064L75.18,22.064ZM75.18,15.596L75.18,12.208L77.784,12.208L77.784,15.596L75.18,15.596ZM96.04,25.06L109.76,25.06L109.76,21.56L96.04,21.56C93.156,21.56,91.224,21.196,89.544,20.272C90.384,16.38,90.664,12.768,90.664,8.12L83.72,8.12L83.72,11.76L87.024,11.76C86.828,16.492,86.128,20.356,84.336,25.34L88.2,25.34C88.368,24.808,88.508,24.276,88.676,23.772C90.496,24.696,92.624,25.06,96.04,25.06ZM84.868,0.139999L86.8,6.216L90.58,6.216L88.648,0.139999L84.868,0.139999ZM90.692,20.244L94.416,20.244C95.956,16.212,96.684,12.18,96.992,7.812L93.548,7.812C93.24,12.096,92.344,16.156,90.692,20.244ZM91.812,6.972L98.28,6.972L98.28,20.692L102.06,20.692L102.06,6.972L108.976,6.972L108.976,3.556L102.06,3.556L102.06,0L98.28,0L98.28,3.556L91.812,3.556L91.812,6.972ZM103.348,7.812C103.656,12.18,104.356,16.212,105.924,20.244L109.648,20.244C107.996,16.156,107.128,12.096,106.792,7.812L103.348,7.812ZM104.188,0.112L104.664,2.94L108.052,2.94L107.576,0.112L104.188,0.112Z" fill="#333333" fill-opacity="1"/></g></svg>