<svg xmlns="http://www.w3.org/2000/svg" xmlns:xlink="http://www.w3.org/1999/xlink" fill="none" version="1.1" width="35.2080078125" height="35.767822265625" viewBox="0 0 35.2080078125 35.767822265625"><g><g><path d="M26.710009765625,0L20.510009765625,0L12.410009765625,5.8L11.010009765625,12.95L19.110009765625,7.1L13.410009765625,35.6L19.610009765625,35.6L26.710009765625,0Z" fill="#004CA4" fill-opacity="1"/></g><g style="opacity:0.10000000149011612;"><path d="M8.856,30.871919921874998C8.856,27.991919921875002,8.304,26.911919921875,6.264,26.071919921875L4.248,25.255919921874998C3.048,24.775919921875,2.832,24.343919921875,2.832,22.951919921875C2.832,22.207919921875,2.976,21.631919921875,3.288,21.271919921875C3.552,20.983919921875,3.888,20.791919921875,4.44,20.791919921875C5.016,20.791919921875,5.4,20.983919921875,5.64,21.295919921875C6,21.751919921875,6.048,22.351919921875,6.048,23.119919921875L8.736,23.119919921875C8.736,21.487919921875,8.424,20.263919921875,7.536,19.399919921875C6.84,18.727920921875,5.832,18.367919921875,4.464,18.367919921875C3.24,18.367919921875,2.28,18.751920921875,1.536,19.399919921875C0.6,20.239919921875,0.144,21.487919921875,0.144,23.023919921875C0.144,25.663919921875,0.792,26.599919921875,2.52,27.319919921874998L4.56,28.159919921875C5.88,28.687919921875,6.168,29.143919921875,6.168,30.967919921875C6.168,31.879919921875,6.072,32.455919921875,5.712,32.863919921875C5.448,33.175919921875,5.04,33.343919921875,4.416,33.343919921875C3.816,33.343919921875,3.408,33.151919921875,3.168,32.887919921874996C2.784,32.455919921875,2.688,31.879919921875,2.688,30.967919921875L0,30.967919921875C0,32.767919921875,0.288,33.823919921875,1.104,34.639919921875C1.824,35.359919921875004,2.928,35.767919921875,4.416,35.767919921875C5.928,35.767919921875,7.056,35.311919921875,7.752,34.639919921875C8.616,33.799919921875,8.856,32.623919921875,8.856,30.871919921874998ZM17.472,20.935919921875L17.472,18.511920921875L9.048,18.511920921875L9.048,20.935919921875L11.904,20.935919921875L11.904,35.599919921875L14.592,35.599919921875L14.592,20.935919921875L17.472,20.935919921875ZM25.392,35.599919921875L25.392,33.175919921875L20.904,33.175919921875L20.904,28.207919921875L24.768,28.207919921875L24.768,25.783919921875L20.904,25.783919921875L20.904,20.935919921875L25.392,20.935919921875L25.392,18.511920921875L18.216,18.511920921875L18.216,35.599919921875L25.392,35.599919921875ZM35.208,23.695919921875C35.208,20.119919921875,33.912,18.511920921875,30.816,18.511920921875L26.52,18.511920921875L26.52,35.599919921875L29.208,35.599919921875L29.208,28.927919921875002L30.816,28.927919921875002C34.056,28.927919921875002,35.208,27.151919921875,35.208,23.695919921875ZM32.52,23.719919921875C32.52,25.231919921875,32.304,26.503919921875,30.864,26.503919921875L29.208,26.503919921875L29.208,20.935919921875L30.864,20.935919921875C32.304,20.935919921875,32.52,22.207919921875,32.52,23.719919921875Z" fill="#004CA4" fill-opacity="1"/></g></g></svg>