<?xml version="1.0" encoding="utf-8"?>
<svg version="1.1" xmlns:xlink="http://www.w3.org/1999/xlink" width="345px" height="91px" xmlns="http://www.w3.org/2000/svg">
  <defs>
    <filter x="47px" y="3806px" width="345px" height="91px" filterUnits="userSpaceOnUse" id="filter2165">
      <feOffset dx="1" dy="1" in="SourceAlpha" result="shadowOffsetInner" />
      <feGaussianBlur stdDeviation="2" in="shadowOffsetInner" result="shadowGaussian" />
      <feComposite in2="shadowGaussian" operator="atop" in="SourceAlpha" result="shadowComposite" />
      <feColorMatrix type="matrix" values="0 0 0 0 0  0 0 0 0 0.301960784313725  0 0 0 0 0.454901960784314  0 0 0 0.0588235294117647 0  " in="shadowComposite" />
    </filter>
    <g id="widget2166">
      <path d="M 51 3819  A 9 9 0 0 1 60 3810 L 377 3810  A 9 9 0 0 1 386 3819 L 386 3882  A 9 9 0 0 1 377 3891 L 60 3891  A 9 9 0 0 1 51 3882 L 51 3819  Z " fill-rule="nonzero" fill="#81d3f8" stroke="none" fill-opacity="0.6" />
      <path d="M 50.5 3819  A 9.5 9.5 0 0 1 60 3809.5 L 377 3809.5  A 9.5 9.5 0 0 1 386.5 3819 L 386.5 3882  A 9.5 9.5 0 0 1 377 3891.5 L 60 3891.5  A 9.5 9.5 0 0 1 50.5 3882 L 50.5 3819  Z " stroke-width="1" stroke-dasharray="9,4,2,4,2,4" stroke="#02a7f0" fill="none" stroke-dashoffset="0.5" />
    </g>
  </defs>
  <g transform="matrix(1 0 0 1 -47 -3806 )">
    <use xlink:href="#widget2166" filter="url(#filter2165)" />
    <use xlink:href="#widget2166" />
  </g>
</svg>