<?xml version="1.0" encoding="utf-8"?>
<svg version="1.1" xmlns:xlink="http://www.w3.org/1999/xlink" width="407px" height="91px" xmlns="http://www.w3.org/2000/svg">
  <defs>
    <filter x="38px" y="4387px" width="407px" height="91px" filterUnits="userSpaceOnUse" id="filter2265">
      <feOffset dx="1" dy="1" in="SourceAlpha" result="shadowOffsetInner" />
      <feGaussianBlur stdDeviation="2" in="shadowOffsetInner" result="shadowGaussian" />
      <feComposite in2="shadowGaussian" operator="atop" in="SourceAlpha" result="shadowComposite" />
      <feColorMatrix type="matrix" values="0 0 0 0 0  0 0 0 0 0.301960784313725  0 0 0 0 0.454901960784314  0 0 0 0.0588235294117647 0  " in="shadowComposite" />
    </filter>
    <g id="widget2266">
      <path d="M 42 4400  A 9 9 0 0 1 51 4391 L 430 4391  A 9 9 0 0 1 439 4400 L 439 4463  A 9 9 0 0 1 430 4472 L 51 4472  A 9 9 0 0 1 42 4463 L 42 4400  Z " fill-rule="nonzero" fill="#81d3f8" stroke="none" fill-opacity="0.6" />
      <path d="M 41.5 4400  A 9.5 9.5 0 0 1 51 4390.5 L 430 4390.5  A 9.5 9.5 0 0 1 439.5 4400 L 439.5 4463  A 9.5 9.5 0 0 1 430 4472.5 L 51 4472.5  A 9.5 9.5 0 0 1 41.5 4463 L 41.5 4400  Z " stroke-width="1" stroke-dasharray="9,4,2,4,2,4" stroke="#02a7f0" fill="none" stroke-dashoffset="0.5" />
    </g>
  </defs>
  <g transform="matrix(1 0 0 1 -38 -4387 )">
    <use xlink:href="#widget2266" filter="url(#filter2265)" />
    <use xlink:href="#widget2266" />
  </g>
</svg>