<svg xmlns="http://www.w3.org/2000/svg" xmlns:xlink="http://www.w3.org/1999/xlink" fill="none" version="1.1" width="438.91204833984375" height="96.46399688720703" viewBox="0 0 438.91204833984375 96.46399688720703"><defs><linearGradient x1="0.5" y1="0.26017525792121887" x2="0.5" y2="0.7817909717559814" id="master_svg0_20_7581"><stop offset="0%" stop-color="#004CA4" stop-opacity="1"/><stop offset="99.93674159049988%" stop-color="#004CA4" stop-opacity="0"/></linearGradient></defs><g><g><g style="opacity:0.07999999821186066;"><path d="M22.13999976348877,4.104002799987793Q28.52399976348877,4.104002799987793,33.773999763488774,5.238002799987793Q39.02399976348877,6.3720027999877935,42.76199976348877,9.564002799987794Q46.499999763488766,12.756002799987794,48.51599976348877,18.468002799987794Q50.53199976348877,24.180002799987793,50.53199976348877,33.25200279998779Q50.53199976348877,41.736002799987794,48.51599976348877,47.32200279998779Q46.499999763488766,52.90800279998779,42.76199976348877,56.26800279998779Q39.02399976348877,59.62800279998779,33.773999763488774,61.01400279998779Q28.52399976348877,62.400002799987796,22.13999976348877,62.400002799987796L2.1479997634887695,62.400002799987796L2.1479997634887695,4.104002799987793L22.13999976348877,4.104002799987793ZM21.46799976348877,51.480002799987794Q25.49999976348877,51.480002799987794,28.48199976348877,50.64000279998779Q31.46399976348877,49.800002799987794,33.43799976348877,47.70000279998779Q35.41199976348877,45.60000279998779,36.377999763488766,42.07200279998779Q37.34399976348877,38.544002799987794,37.34399976348877,33.25200279998779Q37.34399976348877,27.624002799987792,36.33599976348877,24.054002799987792Q35.32799976348877,20.484002799987792,33.35399976348877,18.426002799987792Q31.37999976348877,16.368002799987792,28.39799976348877,15.612002799987794Q25.41599976348877,14.856002799987793,21.46799976348877,14.856002799987793L14.91599976348877,14.856002799987793L14.91599976348877,51.480002799987794L21.46799976348877,51.480002799987794ZM94.63199976348876,51.312002799987795L94.63199976348876,62.400002799987796L57.83999976348877,62.400002799987796L57.83999976348877,4.104002799987793L93.45599976348878,4.104002799987793L93.45599976348878,15.192002799987794L70.60799976348876,15.192002799987794L70.60799976348876,27.204002799987794L91.77599976348877,27.204002799987794L91.77599976348877,37.87200279998779L70.60799976348876,37.87200279998779L70.60799976348876,51.312002799987795L94.63199976348876,51.312002799987795ZM115.96799976348876,63.24000279998779Q110.84399976348877,63.24000279998779,106.26599976348876,62.568002799987795Q101.68799976348878,61.89600279998779,98.99999976348877,61.14000279998779L98.99999976348877,49.968002799987794Q100.34399976348877,50.47200279998779,102.27599976348877,50.89200279998779Q104.20799976348877,51.312002799987795,106.39199976348877,51.60600279998779Q108.57599976348877,51.900002799987796,110.88599976348877,52.11000279998779Q113.19599976348877,52.32000279998779,115.46399976348877,52.32000279998779Q118.31999976348877,52.32000279998779,120.29399976348877,51.98400279998779Q122.26799976348877,51.64800279998779,123.48599976348876,50.80800279998779Q124.70399976348877,49.968002799987794,125.20799976348877,48.62400279998779Q125.71199976348876,47.28000279998779,125.71199976348876,45.348002799987796Q125.71199976348876,43.668002799987796,125.29199976348877,42.492002799987795Q124.87199976348877,41.31600279998779,123.73799976348877,40.39200279998779Q122.60399976348877,39.468002799987794,120.54599976348877,38.71200279998779Q118.48799976348877,37.95600279998779,115.12799976348877,37.11600279998779Q110.42399976348877,36.02400279998779,107.35799976348876,34.72200279998779Q104.29199976348877,33.42000279998779,102.44399976348878,31.53000279998779Q100.59599976348876,29.640002799987794,99.83999976348876,26.952002799987792Q99.08399976348878,24.264002799987793,99.08399976348878,20.316002799987793Q99.08399976348878,11.076002799987794,104.66999976348878,7.1700027999877936Q110.25599976348877,3.264002799987793,120.41999976348878,3.264002799987793Q125.37599976348876,3.264002799987793,129.19799976348878,3.894003799987793Q133.01999976348878,4.524002799987793,135.37199976348876,5.364002799987793L135.37199976348876,15.864002799987793Q134.27999976348877,15.528002799987792,132.59999976348877,15.150002799987792Q130.91999976348876,14.772002799987792,128.90399976348877,14.436002799987794Q126.88799976348876,14.100002799987793,124.82999976348877,13.932002799987792Q122.77199976348876,13.764002799987793,120.92399976348877,13.764002799987793Q115.96799976348876,13.764002799987793,113.74199976348876,15.024002799987793Q111.51599976348876,16.284002799987793,111.51599976348876,19.980002799987794Q111.51599976348876,21.40800279998779,111.85199976348876,22.416002799987794Q112.18799976348878,23.424002799987793,113.23799976348877,24.22200279998779Q114.28799976348877,25.020002799987793,116.26199976348877,25.692002799987794Q118.23599976348876,26.364002799987794,121.42799976348877,27.120002799987795Q126.63599976348877,28.380002799987793,129.95399976348875,29.934002799987795Q133.27199976348876,31.488002799987793,135.16199976348878,33.63000279998779Q137.05199976348877,35.772002799987796,137.72399976348876,38.67000279998779Q138.39599976348876,41.568002799987795,138.39599976348876,45.684002799987795Q138.39599976348876,54.25200279998779,133.18799976348876,58.74600279998779Q127.97999976348876,63.24000279998779,115.96799976348876,63.24000279998779ZM145.19999976348876,4.104002799987793L157.96799976348876,4.104002799987793L157.96799976348876,62.400002799987796L145.19999976348876,62.400002799987796L145.19999976348876,4.104002799987793ZM193.83599976348876,63.24000279998779Q187.11599976348876,63.24000279998779,181.78199976348876,61.980002799987794Q176.44799976348878,60.720002799987796,172.75199976348878,57.40200279998779Q169.05599976348876,54.08400279998779,167.08199976348877,48.24600279998779Q165.10799976348878,42.40800279998779,165.10799976348878,33.25200279998779Q165.10799976348878,24.852002799987794,167.12399976348877,19.098002799987793Q169.13999976348876,13.344002799987793,172.91999976348876,9.816002799987793Q176.69999976348876,6.288002799987793,182.07599976348877,4.776002799987793Q187.45199976348877,3.264002799987793,194.25599976348877,3.264002799987793Q196.35599976348877,3.264002799987793,198.58199976348877,3.432001799987793Q200.80799976348877,3.600001799987793,202.86599976348876,3.852003799987793Q204.92399976348878,4.104002799987793,206.77199976348876,4.482002799987793Q208.61999976348878,4.860002799987793,209.96399976348877,5.364002799987793L209.96399976348877,16.53600279998779Q206.68799976348876,15.360002799987793,202.86599976348876,14.772002799987792Q199.04399976348876,14.184002799987793,195.26399976348878,14.184002799987793Q191.06399976348877,14.184002799987793,187.99799976348876,15.066002799987793Q184.93199976348876,15.948002799987792,182.95799976348877,18.174002799987793Q180.98399976348878,20.400002799987792,180.01799976348877,24.054002799987792Q179.05199976348877,27.708002799987792,179.05199976348877,33.25200279998779Q179.05199976348877,39.04800279998779,179.89199976348877,42.78600279998779Q180.73199976348877,46.52400279998779,182.57999976348876,48.666002799987794Q184.42799976348877,50.80800279998779,187.40999976348877,51.64800279998779Q190.39199976348877,52.48800279998779,194.67599976348876,52.48800279998779Q196.43999976348877,52.48800279998779,197.95199976348877,52.40400279998779Q199.46399976348877,52.32000279998779,200.89199976348877,51.98400279998779L200.89199976348877,39.38400279998779L190.97999976348876,39.38400279998779L190.97999976348876,28.716002799987795L212.73599976348876,28.716002799987795L212.73599976348876,60.63600279998779Q209.45999976348878,61.72800279998779,204.37799976348876,62.48400279998779Q199.29599976348877,63.24000279998779,193.83599976348876,63.24000279998779ZM220.71599976348878,4.104002799987793L240.20399976348878,4.104002799987793L258.51599976348876,45.76800279998779L259.0199997634888,45.76800279998779L259.0199997634888,4.104002799987793L271.53599976348875,4.104002799987793L271.53599976348875,62.400002799987796L253.97999976348876,62.400002799987796L233.81999976348877,18.048002799987792L233.31599976348878,18.048002799987792L233.31599976348878,62.400002799987796L220.71599976348878,62.400002799987796L220.71599976348878,4.104002799987793ZM317.06399976348877,51.312002799987795L317.06399976348877,62.400002799987796L280.2719997634888,62.400002799987796L280.2719997634888,4.104002799987793L315.8879997634888,4.104002799987793L315.8879997634888,15.192002799987794L293.03999976348877,15.192002799987794L293.03999976348877,27.204002799987794L314.2079997634888,27.204002799987794L314.2079997634888,37.87200279998779L293.03999976348877,37.87200279998779L293.03999976348877,51.312002799987795L317.06399976348877,51.312002799987795ZM356.03999976348877,62.400002799987796L342.34799976348876,41.14800279998779L336.04799976348875,41.14800279998779L336.04799976348875,62.400002799987796L323.2799997634888,62.400002799987796L323.2799997634888,4.104002799987793L343.1039997634888,4.104002799987793Q348.9839997634888,4.104002799987793,353.22599976348874,5.112002799987793Q357.46799976348876,6.120002799987793,360.23999976348875,8.304002799987792Q363.01199976348875,10.488002799987793,364.31399976348877,14.016002799987794Q365.6159997634888,17.544002799987794,365.6159997634888,22.584002799987793Q365.6159997634888,29.892002799987793,362.9699997634888,34.00800279998779Q360.32399976348876,38.12400279998779,354.69599976348877,39.80400279998779L371.07599976348877,62.400002799987796L356.03999976348877,62.400002799987796ZM341.17199976348877,31.656002799987792Q344.3639997634888,31.656002799987792,346.63199976348875,31.278002799987792Q348.8999997634888,30.900002799987792,350.28599976348875,29.892002799987793Q351.67199976348877,28.884002799987794,352.30199976348877,27.120002799987795Q352.93199976348876,25.35600279998779,352.93199976348876,22.584002799987793Q352.93199976348876,19.980002799987794,352.30199976348877,18.342002799987792Q351.67199976348877,16.70400279998779,350.28599976348875,15.780002799987793Q348.8999997634888,14.856002799987793,346.63199976348875,14.520002799987793Q344.3639997634888,14.184002799987793,341.17199976348877,14.184002799987793L336.04799976348875,14.184002799987793L336.04799976348875,31.656002799987792L341.17199976348877,31.656002799987792Z" fill="url(#master_svg0_20_7581)" fill-opacity="1"/></g><g><path d="M22.176,89.33600643157959C35.64,89.33600643157959,44.28,81.56000643157958,44.28,68.81600643157958L44.28,38.00000643157959L32.4,38.00000643157959L32.4,68.81600643157958C32.4,75.08000643157959,27.936,79.11200643157959,22.176,79.11200643157959C16.488,79.11200643157959,11.88,75.08000643157959,11.88,68.81600643157958L11.88,38.00000643157959L0,38.00000643157959L0,68.81600643157958C0,81.56000643157958,8.64,89.33600643157959,22.176,89.33600643157959ZM53.136,88.40000643157958L65.016,88.40000643157958L65.016,38.00000643157959L53.136,38.00000643157959L53.136,88.40000643157958ZM92.448,36.05600643157959L74.016,90.34400643157959L82.656,90.34400643157959L101.088,36.05600643157959L92.448,36.05600643157959ZM132.12,89.33600643157959C145.584,89.33600643157959,154.224,81.56000643157958,154.224,68.81600643157958L154.224,38.00000643157959L142.344,38.00000643157959L142.344,68.81600643157958C142.344,75.08000643157959,137.88,79.11200643157959,132.12,79.11200643157959C126.432,79.11200643157959,121.824,75.08000643157959,121.824,68.81600643157958L121.824,38.00000643157959L109.944,38.00000643157959L109.944,68.81600643157958C109.944,81.56000643157958,118.584,89.33600643157959,132.12,89.33600643157959ZM195.912,88.40000643157958L209.736,88.40000643157958L192.168,63.41600643157959L210.024,38.00000643157959L196.416,38.00000643157959L184.968,54.48800643157959L184.68,54.48800643157959L173.232,38.00000643157959L159.624,38.00000643157959L177.552,63.41600643157959L159.984,88.40000643157958L173.736,88.40000643157958L184.68,72.34400643157959L184.968,72.34400643157959L195.912,88.40000643157958Z" fill="#004CA4" fill-opacity="1"/></g><g><path d="M254.16002197265624,87.24800850677491L254.16002197265624,96.4640085067749C261.3600219726562,94.4480085067749,268.5600219726563,91.2080085067749,274.7520219726563,86.81600850677489C280.44002197265627,90.7760085067749,287.06402197265623,93.8000085067749,294.48002197265623,96.4640085067749L294.48002197265623,87.24800850677491C290.66402197265626,85.73600850677491,286.05602197265625,84.0080085067749,281.44802197265625,81.27200850677491C287.71202197265626,75.1520085067749,292.17602197265626,67.5920085067749,293.32802197265624,58.9520085067749L256.03202197265625,58.9520085067749C258.55202197265623,68.3120085067749,262.51202197265627,75.3680085067749,267.76802197265624,80.8400085067749C263.37602197265625,83.57600850677491,258.69602197265624,85.6640085067749,254.16002197265624,87.24800850677491ZM228.96002197265625,60.896008506774905L237.60002197265624,60.896008506774905L237.60002197265624,95.6000085067749L252.57602197265624,89.8400085067749L252.57602197265624,79.1120085067749L247.24802197265626,81.1280085067749L247.24802197265626,51.3200085067749L228.96002197265625,51.3200085067749L228.96002197265625,60.896008506774905ZM233.56802197265625,30.8000055067749L238.53602197265624,46.4240085067749L248.32802197265624,46.4240085067749L243.36002197265626,30.8000055067749L233.56802197265625,30.8000055067749ZM253.87202197265626,57.512008506774905L263.66402197265626,57.512008506774905C266.97602197265627,52.4000085067749,267.84002197265625,46.9280085067749,267.98402197265625,40.808008506774904L280.36802197265627,40.808008506774904L280.36802197265627,56.432008506774906L295.05602197265625,56.432008506774906L295.05602197265625,47.792008506774906L289.00802197265625,47.792008506774906L289.00802197265625,32.024008506774905L259.41602197265627,32.024008506774905L259.41602197265627,37.8560085067749C259.41602197265627,45.128008506774904,258.69602197265624,51.96800850677491,253.87202197265626,57.512008506774905ZM267.69602197265624,66.6560085067749L281.95202197265627,66.6560085067749C280.08002197265625,70.1120085067749,277.48802197265627,73.2080085067749,274.46402197265627,75.8720085067749C271.8720219726562,73.4240085067749,269.56802197265625,70.4000085067749,267.69602197265624,66.6560085067749ZM341.92802197265627,96.3200085067749L351.50402197265623,96.3200085067749L351.50402197265623,63.2000085067749L367.9200219726563,63.2000085067749L367.9200219726563,53.6240085067749L351.50402197265623,53.6240085067749L351.50402197265623,30.080008506774902L341.85602197265627,30.080008506774902L341.85602197265627,53.6240085067749L324.79202197265624,53.6240085067749L324.79202197265624,63.2000085067749L341.92802197265627,63.2000085067749L341.92802197265627,96.3200085067749ZM300.60002197265624,60.896008506774905L308.16002197265624,60.896008506774905L308.16002197265624,95.6000085067749L326.73602197265626,90.0560085067749L326.73602197265626,79.32800850677489L317.80802197265626,81.99200850677491L317.80802197265626,51.3200085067749L300.60002197265624,51.3200085067749L300.60002197265624,60.896008506774905ZM305.56802197265625,30.8000055067749L310.5360219726563,46.4240085067749L320.32802197265624,46.4240085067749L315.3600219726562,30.8000055067749L305.56802197265625,30.8000055067749ZM399.60002197265624,88.6880085067749L408.3840219726562,88.6880085067749L408.3840219726562,56.792008506774906L413.78402197265626,56.792008506774906L413.78402197265626,95.6000085067749L422.8560219726562,95.6000085067749L422.8560219726562,56.792008506774906L428.40002197265625,56.792008506774906L428.40002197265625,88.6880085067749L437.18402197265624,88.6880085067749L437.18402197265624,47.5760085067749L422.9280219726562,47.5760085067749L422.9280219726562,41.024008506774905L438.91202197265625,41.024008506774905L438.91202197265625,31.808008506774904L397.9440219726563,31.808008506774904L397.9440219726563,41.024008506774905L413.71202197265626,41.024008506774905L413.71202197265626,47.5760085067749L399.60002197265624,47.5760085067749L399.60002197265624,88.6880085067749ZM374.0400219726563,77.2400085067749L382.46402197265627,77.2400085067749L382.46402197265627,36.9920085067749L374.0400219726563,36.9920085067749L374.0400219726563,77.2400085067749ZM378.3600219726562,95.6000085067749L388.6560219726563,95.6000085067749C393.55202197265623,84.3680085067749,395.49602197265625,73.9280085067749,395.49602197265625,61.1120085067749L395.49602197265625,30.8000055067749L386.56802197265625,30.8000055067749L386.56802197265625,61.1120085067749C386.56802197265625,74.0000085067749,383.9040219726562,84.3680085067749,378.3600219726562,95.6000085067749Z" fill="#004CA4" fill-opacity="1"/></g></g><g><g style="opacity:0.7783668041229248;"><path d="M25.84410144958496,14.3789C24.789001449584962,16.1484,23.44980144958496,17.6534,21.82650144958496,18.894L21.09600144958496,17.9584C22.699001449584962,16.7788,23.997601449584963,15.3552,24.99190144958496,13.6875C24.03820144958496,12.9146,22.98310144958496,12.1214,21.82650144958496,11.2876C22.47580144958496,9.45715,23.04390144958496,7.48437,23.53090144958496,5.34889L21.21770144958496,5.34889L21.21770144958496,4.27097L23.75410144958496,4.27097C24.03820144958496,2.88799,24.30200144958496,1.46433,24.525201449584962,0L25.60060144958496,0.122028C25.35710144958496,1.62704,25.09340144958496,3.01002,24.849901449584962,4.27097L28.46170144958496,4.27097L28.46170144958496,4.94213C28.238501449584962,8.21654,27.54860144958496,11.0435,26.37170144958496,13.4231C27.60950144958496,14.3993,28.62400144958496,15.2535,29.39510144958496,16.0263L28.64430144958496,16.8805C27.87330144958496,16.1077,26.939901449584962,15.2738,25.84410144958496,14.3789ZM6.729751449584961,8.39958C7.6225614495849605,7.05728,8.413921449584961,5.57261,9.083541449584962,3.94557L17.13920144958496,3.94557C16.81450144958496,5.0845,16.40870144958496,6.12173,15.88110144958496,7.05728L16.93630144958496,7.36235C17.484101449584962,6.14207,17.930601449584962,4.88112,18.255201449584963,3.62016L18.255201449584963,2.88799L9.48936144958496,2.88799C9.773441449584961,2.09481,10.037231449584961,1.26096,10.28073144958496,0.386422L9.225581449584961,0.162704C8.495091449584962,3.01002,7.358781449584961,5.55227,5.796351449584961,7.80979L6.729751449584961,8.39958ZM4.396221449584961,5.26754L4.396221449584961,18.833L3.300491449584961,18.833L3.300491449584961,7.05728C2.570011449584961,8.15553,1.738061449584961,9.17243,0.845245449584961,10.1487L0.48000144958496094,8.98939Q3.8585014495849608,5.0845,5.349911449584961,0.203384L6.364481449584961,0.671158C5.836911449584961,2.2982,5.167291449584961,3.84388,4.396221449584961,5.26754ZM65.41220144958496,18.5482C66.52820144958496,18.5482,67.09630144958496,18.0194,67.09630144958496,16.9619L67.09630144958496,12.1011C68.45590144958496,11.7553,69.75450144958496,11.3689,70.99230144958496,10.9418L70.99230144958496,9.82324C69.77480144958496,10.23,68.47620144958496,10.6164,67.09630144958496,10.9825L67.09630144958496,6.99626L72.49380144958496,6.99626C72.63590144958496,8.58262,72.83880144958496,9.9656,73.12290144958496,11.1452C73.32580144958496,11.9994,73.54900144958496,12.7722,73.81280144958497,13.5044C72.31120144958496,14.9891,70.52560144958495,16.128,68.47620144958496,16.9008L69.08490144958496,17.8364C71.01260144958496,17.0839,72.73730144958496,16.006,74.23890144958496,14.6027Q74.75630144958497,15.7924,75.39550144958496,16.6771C76.30860144958496,17.8974,77.16080144958497,18.5279,77.95220144958496,18.5279C78.84500144958496,18.5279,79.53490144958496,17.0839,80.02190144958496,14.2366L79.04790144958496,13.7078C78.70300144958496,16.1077,78.27690144958495,17.328,77.78990144958496,17.3483C77.34350144958496,17.3483,76.77530144958496,16.8398,76.08540144958496,15.8229C75.72020144958496,15.2535,75.37520144958496,14.5823,75.07080144958496,13.7891C76.36950144958496,12.4062,77.48550144958496,10.7384,78.41890144958496,8.80634L77.46520144958497,8.29789C76.67380144958496,9.92493,75.74050144958495,11.3689,74.66500144958496,12.6299C74.48240144958496,12.1011,74.32010144958497,11.5316,74.17800144958495,10.9215C73.91420144958497,9.86391,73.71130144958497,8.54195,73.56930144958496,6.99626L79.87990144958496,6.99626L79.87990144958496,5.93869L73.48810144958496,5.93869C73.36640144958496,4.31165,73.30550144958497,2.44056,73.30550144958497,0.305069L72.20980144958496,0.305069C72.20980144958496,2.37954,72.27060144958496,4.25063,72.41270144958496,5.93869L67.09630144958496,5.93869L67.09630144958496,2.50157C68.25300144958496,2.21684,69.32840144958496,1.89143,70.34300144958496,1.52535L69.95740144958496,0.488111C67.72540144958496,1.36264,65.14840144958497,1.97278,62.22640144958496,2.29819L62.44960144958496,3.35576C63.68740144958496,3.19306,64.86430144958496,2.98968,66.00060144958496,2.74563L66.00060144958496,5.93869L61.65830144958496,5.93869L61.65830144958496,6.99626L66.00060144958496,6.99626L66.00060144958496,11.2469C64.62080144958496,11.5723,63.15980144958496,11.857,61.61770144958496,12.1011L61.78000144958496,13.179C63.241001449584964,12.9349,64.64110144958497,12.6706,66.00060144958496,12.3655L66.00060144958496,16.6771C66.00060144958496,17.2669,65.67600144958496,17.572,65.02660144958496,17.572C64.37730144958496,17.572,63.66710144958496,17.5517,62.93660144958496,17.511L63.18010144958496,18.5482L65.41220144958496,18.5482ZM78.47980144958495,4.393L79.25090144958496,3.62015Q77.72910144958496,2.0643,75.53760144958495,0.569458L74.78680144958496,1.28129C76.32900144958496,2.37954,77.56670144958495,3.41677,78.47980144958495,4.393ZM97.24930144958496,7.89113L97.24930144958496,1.03723L85.07450144958496,1.03723L85.07450144958496,7.89113L97.24930144958496,7.89113ZM35.15790144958496,16.8805C35.15790144958496,18.0194,34.65060144958496,18.6093,33.65630144958496,18.6093L30.81550144958496,18.6093L30.531401449584962,17.5517C31.34310144958496,17.572,32.23590144958496,17.5924,33.20990144958496,17.5924C33.77800144958496,17.5924,34.06210144958496,17.2263,34.06210144958496,16.5348L34.06210144958496,10.0266L29.29370144958496,10.0266L29.29370144958496,8.92837L34.06210144958496,8.92837L34.06210144958496,6.20308C35.19840144958496,5.20652,36.27390144958496,3.98625,37.28840144958496,2.54225L29.92270144958496,2.54225L29.92270144958496,1.444L38.56680144958496,1.444L38.56680144958496,2.54225Q37.07540144958496,4.67774,35.15790144958496,6.56917L35.15790144958496,8.92837L39.45960144958496,8.92837L39.45960144958496,10.0266L35.15790144958496,10.0266L35.15790144958496,16.8805ZM96.15350144958497,4.02691L86.17020144958497,4.02691L86.17020144958497,1.99312L96.15350144958497,1.99312L96.15350144958497,4.02691ZM96.15350144958497,6.91491L86.17020144958497,6.91491L86.17020144958497,4.94212L96.15350144958497,4.94212L96.15350144958497,6.91491ZM23.023601449584962,10.9418C23.936701449584962,11.5723,24.76870144958496,12.1824,25.499201449584962,12.7519C26.53400144958496,10.6367,27.16310144958496,8.15552,27.386301449584963,5.34888L24.60640144958496,5.34888C24.09910144958496,7.58605,23.57150144958496,9.45715,23.023601449584962,10.9418ZM13.24330144958496,17.1856C13.24330144958496,18.1618,12.736001449584961,18.6702,11.762001449584961,18.6702L9.083541449584962,18.6702L8.84005144958496,17.633C9.732861449584961,17.6737,10.585101449584961,17.7144,11.396801449584961,17.7144C11.924301449584961,17.7144,12.188101449584961,17.45,12.188101449584961,16.9212L12.188101449584961,5.85733L13.24330144958496,5.85733L13.24330144958496,17.1856ZM17.76820144958496,16.6365L18.76250144958496,16.189C17.95080144958496,13.4231,16.99710144958496,10.7995,15.901401449584961,8.3589L14.90710144958496,8.68431C15.962301449584961,10.9825,16.91600144958496,13.6264,17.76820144958496,16.6365ZM6.952931449584961,16.2907C8.12983144958496,14.1349,9.103811449584962,11.6333,9.874881449584962,8.76566L8.880611449584961,8.50127C8.028371449584961,11.5113,7.034101449584961,13.9722,5.897791449584961,15.9043L6.952931449584961,16.2907ZM85.96730144958497,14.7857C85.17600144958496,16.3721,84.16140144958496,17.694,82.90330144958496,18.7313L82.17280144958497,17.8567C84.08020144958496,16.2704,85.35860144958497,14.1552,86.02820144958496,11.5113L87.08330144958497,11.6943C86.88040144958497,12.4672,86.63690144958495,13.1993,86.37310144958496,13.8705C87.24570144958496,15.4162,88.23990144958496,16.4127,89.37630144958496,16.8602C89.74150144958496,16.9822,90.20820144958496,17.1042,90.75610144958496,17.2059L90.75610144958496,10.6164L82.15250144958496,10.6164L82.15250144958496,9.61986L100.02920144958496,9.61986L100.02920144958496,10.6164L91.83150144958496,10.6164L91.83150144958496,13.2604L97.83770144958496,13.2604L97.83770144958496,14.2773L91.83150144958496,14.2773L91.83150144958496,17.3686C92.84610144958496,17.4703,94.08380144958497,17.5313,95.54480144958497,17.5313C97.24930144958496,17.5313,98.71030144958496,17.4907,99.88720144958496,17.45L99.58280144958496,18.5279C98.12180144958496,18.5279,96.80290144958497,18.5076,95.62600144958496,18.5076C92.29820144958497,18.4872,90.04590144958496,18.2228,88.86900144958496,17.694C87.77320144958496,17.2059,86.81950144958496,16.25,85.96730144958497,14.7857ZM44.59330144958496,18.6499C44.12660144958496,19.2194,43.51790144958496,19.6058,42.746801449584964,19.8092L42.746801449584964,18.9957C43.274401449584964,18.833,43.68020144958496,18.5482,43.96430144958496,18.1415C44.248301449584964,17.7754,44.37010144958496,17.3483,44.37010144958496,16.8602C44.28890144958496,16.8805,44.16720144958496,16.9009,43.96430144958496,16.9009Q43.538101449584964,16.9009,43.23380144958496,16.5958C43.03090144958496,16.3924,42.92940144958496,16.1484,42.92940144958496,15.8636C42.92940144958496,15.5382,43.01060144958496,15.2738,43.21350144958496,15.0908C43.41640144958496,14.8874,43.68020144958496,14.806,44.02510144958496,14.806C44.43100144958496,14.806,44.73530144958496,14.9687,44.978801449584964,15.2942C45.18170144958496,15.5992,45.303501449584964,16.0263,45.303501449584964,16.5551C45.303501449584964,17.3686,45.06000144958496,18.0601,44.59330144958496,18.6499Z" fill-rule="evenodd" fill="#004CA4" fill-opacity="1"/></g><g><path d="M120.03247151794433,10.9825L120.03247151794433,18.9753L117.90187151794433,18.9753L117.90187151794433,10.9825L112.09855151794433,10.9825L112.09855151794433,8.92836L117.90187151794433,8.92836L117.90187151794433,4.63706L115.46691151794434,4.63706C114.77700151794434,6.02004,113.94506151794434,7.1793,112.93049151794433,8.13518L111.57097151794433,6.46747Q114.00593151794433,4.05742,114.85817151794434,0L116.92787151794434,0.366083C116.76557151794434,1.15926,116.56267151794434,1.91177,116.31917151794434,2.60326L124.05017151794434,2.60326L124.05017151794434,4.63706L120.03247151794433,4.63706L120.03247151794433,8.92836L124.82117151794434,8.92836L124.82117151794434,10.9825L120.03247151794433,10.9825ZM161.69047151794433,4.71841L163.19207151794433,3.19307C162.25867151794432,2.13549,161.08177151794433,1.09826,159.70197151794434,0.0610199L158.26127151794435,1.444C159.76287151794435,2.58293,160.89917151794435,3.68118,161.69047151794433,4.71841ZM151.91007151794435,19.0973C154.18277151794433,18.2025,156.11037151794434,17.2059,157.69317151794434,16.1077C159.33677151794433,17.1449,161.36587151794433,18.1008,163.78057151794434,18.9956L164.87627151794433,16.9822C162.78627151794433,16.2907,160.98037151794432,15.5382,159.45847151794433,14.7043C160.89917151794435,13.362,161.87317151794434,11.8977,162.36017151794434,10.3113L162.36017151794434,8.5216L154.32477151794433,8.5216C154.50737151794434,7.95213,154.68997151794434,7.38267,154.89297151794435,6.77253L164.65307151794434,6.77253L164.65307151794434,4.75908L155.42047151794435,4.75908C155.76547151794432,3.37609,156.04957151794434,1.91176,156.29307151794433,0.345738L154.12187151794433,0.0813446C153.89867151794434,1.70838,153.59427151794432,3.2744,153.22907151794433,4.75908L150.42887151794434,4.75908L151.44337151794434,1.0779L149.33307151794435,0.732159L147.70977151794432,6.77253L152.64057151794435,6.77253C151.26077151794433,10.9418,149.21137151794434,14.2366,146.47207151794433,16.6771L147.58807151794434,18.6499C149.75927151794434,16.8805,151.56517151794435,14.5213,153.00587151794434,11.5926C153.65517151794432,12.7112,154.58857151794433,13.7688,155.82637151794432,14.7857C154.44657151794434,15.6195,152.76237151794433,16.3924,150.79407151794433,17.1042L151.91007151794435,19.0973ZM143.24577151794432,5.22685L143.24577151794432,3.59982L136.63077151794434,3.59982L136.63077151794434,2.82697L143.93567151794434,2.82697L143.93567151794434,1.15926L136.63077151794434,1.15926L136.63077151794434,0.122025L134.56107151794433,0.122025L134.56107151794433,1.15926L127.27647151794434,1.15926L127.27647151794434,2.82697L134.56107151794433,2.82697L134.56107151794433,3.59982L127.98667151794433,3.59982L127.98667151794433,5.22685L143.24577151794432,5.22685ZM111.95653151794434,3.23373L110.49555151794434,4.7184C109.72448151794434,3.78286,108.60846151794433,2.7863,107.16777151794433,1.72872L108.66933151794433,0.264389C109.96798151794434,1.26095,111.06371151794434,2.25751,111.95653151794434,3.23373ZM127.82437151794434,19.1177C129.16357151794435,18.2635,130.17807151794435,17.2873,130.86807151794434,16.2297C131.01007151794434,15.9856,131.15207151794434,15.7009,131.29417151794433,15.3755L133.48557151794432,15.3755C133.44497151794434,16.189,133.36387151794435,16.6975,133.20157151794433,16.9009C133.03917151794434,17.1042,132.63337151794434,17.2059,131.98407151794433,17.2059C131.65937151794435,17.1652,131.27387151794434,17.1246,130.78687151794435,17.0839L131.23327151794433,18.7923C131.67967151794434,18.833,132.08547151794434,18.8736,132.41017151794432,18.8736C133.52617151794433,18.8736,134.31757151794434,18.6092,134.78427151794435,18.1211C135.23067151794433,17.633,135.45387151794432,16.1077,135.49447151794433,13.5858L131.90287151794433,13.5858C131.98407151794433,13.2604,132.06517151794435,12.9146,132.14637151794435,12.5485L144.70667151794433,12.5485L144.70667151794433,10.8401L139.95857151794434,10.8401L140.52667151794435,9.82324L142.08917151794435,9.82324L142.08917151794435,5.91835L129.04177151794434,5.91835L129.04177151794434,9.82324L130.96947151794433,9.82324L131.41587151794434,10.8401L126.48507151794433,10.8401L126.48507151794433,12.5485L130.19837151794434,12.5485C130.11727151794435,12.8943,130.01577151794433,13.24,129.91437151794435,13.5858L127.11417151794433,13.5858L127.11417151794433,15.3755L129.08237151794432,15.3755C128.51427151794434,16.1687,127.68227151794434,16.8805,126.58657151794434,17.511L127.82437151794434,19.1177ZM108.91281151794433,18.4059C110.39408151794433,17.4296,111.79418151794434,16.3314,113.13340151794434,15.0704L112.54495151794434,12.8536C111.89563151794434,13.5044,111.26660151794434,14.0739,110.67815151794434,14.6027L110.67815151794434,6.14206L105.97057151794434,6.14206L105.97057151794434,8.17586L108.62873151794433,8.17586L108.62873151794433,15.3958C108.62873151794433,15.8229,108.44611151794433,16.189,108.10116151794433,16.4941L108.91281151794433,18.4059ZM131.01007151794434,8.27755L140.12087151794435,8.27755L140.12087151794435,7.4437L131.01007151794434,7.4437L131.01007151794434,8.27755ZM133.64797151794434,10.8401L137.72647151794433,10.8401L138.29467151794432,9.82324L133.20157151794433,9.82324L133.64797151794434,10.8401ZM154.54797151794435,10.4334C155.21757151794435,11.552,156.23217151794432,12.5892,157.59167151794435,13.5654C158.78887151794433,12.5892,159.66137151794433,11.5316,160.20927151794433,10.4334L154.54797151794435,10.4334ZM138.27427151794433,18.2635L138.27427151794433,18.9957L136.36697151794434,18.9957L136.36697151794434,13.362L143.38777151794434,13.362L143.38777151794434,18.9957L141.48037151794432,18.9957L141.48037151794432,18.2635L138.27427151794433,18.2635ZM138.27437151794433,16.5958L141.48037151794432,16.5958L141.48037151794432,15.0094L138.27437151794433,15.0094L138.27437151794433,16.5958Z" fill-rule="evenodd" fill="#004CA4" fill-opacity="1"/></g></g></g></svg>