<?xml version="1.0" encoding="utf-8"?>
<svg version="1.1" xmlns:xlink="http://www.w3.org/1999/xlink" width="366px" height="304px" xmlns="http://www.w3.org/2000/svg">
  <defs>
    <filter x="56px" y="1160px" width="366px" height="304px" filterUnits="userSpaceOnUse" id="filter2809">
      <feOffset dx="1" dy="1" in="SourceAlpha" result="shadowOffsetInner" />
      <feGaussianBlur stdDeviation="2" in="shadowOffsetInner" result="shadowGaussian" />
      <feComposite in2="shadowGaussian" operator="atop" in="SourceAlpha" result="shadowComposite" />
      <feColorMatrix type="matrix" values="0 0 0 0 0  0 0 0 0 0.301960784313725  0 0 0 0 0.454901960784314  0 0 0 0.0588235294117647 0  " in="shadowComposite" />
    </filter>
    <g id="widget2810">
      <path d="M 61 1173  A 8 8 0 0 1 69 1165 L 407 1165  A 8 8 0 0 1 415 1173 L 415 1449  A 8 8 0 0 1 407 1457 L 69 1457  A 8 8 0 0 1 61 1449 L 61 1173  Z " fill-rule="nonzero" fill="#ffffff" stroke="none" fill-opacity="0.6" />
      <path d="M 60 1173  A 9 9 0 0 1 69 1164 L 407 1164  A 9 9 0 0 1 416 1173 L 416 1449  A 9 9 0 0 1 407 1458 L 69 1458  A 9 9 0 0 1 60 1449 L 60 1173  Z " stroke-width="2" stroke="#ffffff" fill="none" stroke-opacity="0.898039215686275" />
    </g>
  </defs>
  <g transform="matrix(1 0 0 1 -56 -1160 )">
    <use xlink:href="#widget2810" filter="url(#filter2809)" />
    <use xlink:href="#widget2810" />
  </g>
</svg>