<?xml version="1.0" encoding="utf-8"?>
<svg version="1.1" xmlns:xlink="http://www.w3.org/1999/xlink" width="417px" height="273px" xmlns="http://www.w3.org/2000/svg">
  <defs>
    <filter x="56px" y="1295px" width="417px" height="273px" filterUnits="userSpaceOnUse" id="filter684">
      <feOffset dx="1" dy="1" in="SourceAlpha" result="shadowOffsetInner" />
      <feGaussianBlur stdDeviation="2" in="shadowOffsetInner" result="shadowGaussian" />
      <feComposite in2="shadowGaussian" operator="atop" in="SourceAlpha" result="shadowComposite" />
      <feColorMatrix type="matrix" values="0 0 0 0 0  0 0 0 0 0.301960784313725  0 0 0 0 0.454901960784314  0 0 0 0.0588235294117647 0  " in="shadowComposite" />
    </filter>
    <g id="widget685">
      <path d="M 61 1308  A 8 8 0 0 1 69 1300 L 458 1300  A 8 8 0 0 1 466 1308 L 466 1553  A 8 8 0 0 1 458 1561 L 69 1561  A 8 8 0 0 1 61 1553 L 61 1308  Z " fill-rule="nonzero" fill="#ffffff" stroke="none" fill-opacity="0.6" />
      <path d="M 60 1308  A 9 9 0 0 1 69 1299 L 458 1299  A 9 9 0 0 1 467 1308 L 467 1553  A 9 9 0 0 1 458 1562 L 69 1562  A 9 9 0 0 1 60 1553 L 60 1308  Z " stroke-width="2" stroke="#ffffff" fill="none" stroke-opacity="0.898039215686275" />
    </g>
  </defs>
  <g transform="matrix(1 0 0 1 -56 -1295 )">
    <use xlink:href="#widget685" filter="url(#filter684)" />
    <use xlink:href="#widget685" />
  </g>
</svg>