<?xml version="1.0" encoding="utf-8"?>
<svg version="1.1" xmlns:xlink="http://www.w3.org/1999/xlink" width="498px" height="258px" xmlns="http://www.w3.org/2000/svg">
  <defs>
    <filter x="56px" y="1266px" width="498px" height="258px" filterUnits="userSpaceOnUse" id="filter632">
      <feOffset dx="1" dy="1" in="SourceAlpha" result="shadowOffsetInner" />
      <feGaussianBlur stdDeviation="2" in="shadowOffsetInner" result="shadowGaussian" />
      <feComposite in2="shadowGaussian" operator="atop" in="SourceAlpha" result="shadowComposite" />
      <feColorMatrix type="matrix" values="0 0 0 0 0  0 0 0 0 0.301960784313725  0 0 0 0 0.454901960784314  0 0 0 0.0588235294117647 0  " in="shadowComposite" />
    </filter>
    <g id="widget633">
      <path d="M 61 1279  A 8 8 0 0 1 69 1271 L 539 1271  A 8 8 0 0 1 547 1279 L 547 1509  A 8 8 0 0 1 539 1517 L 69 1517  A 8 8 0 0 1 61 1509 L 61 1279  Z " fill-rule="nonzero" fill="#ffffff" stroke="none" fill-opacity="0.6" />
      <path d="M 60 1279  A 9 9 0 0 1 69 1270 L 539 1270  A 9 9 0 0 1 548 1279 L 548 1509  A 9 9 0 0 1 539 1518 L 69 1518  A 9 9 0 0 1 60 1509 L 60 1279  Z " stroke-width="2" stroke="#ffffff" fill="none" stroke-opacity="0.898039215686275" />
    </g>
  </defs>
  <g transform="matrix(1 0 0 1 -56 -1266 )">
    <use xlink:href="#widget633" filter="url(#filter632)" />
    <use xlink:href="#widget633" />
  </g>
</svg>