<?xml version="1.0" encoding="utf-8"?>
<svg version="1.1" xmlns:xlink="http://www.w3.org/1999/xlink" width="401px" height="273px" xmlns="http://www.w3.org/2000/svg">
  <defs>
    <filter x="56px" y="1245px" width="401px" height="273px" filterUnits="userSpaceOnUse" id="filter2219">
      <feOffset dx="1" dy="1" in="SourceAlpha" result="shadowOffsetInner" />
      <feGaussianBlur stdDeviation="2" in="shadowOffsetInner" result="shadowGaussian" />
      <feComposite in2="shadowGaussian" operator="atop" in="SourceAlpha" result="shadowComposite" />
      <feColorMatrix type="matrix" values="0 0 0 0 0  0 0 0 0 0.301960784313725  0 0 0 0 0.454901960784314  0 0 0 0.0588235294117647 0  " in="shadowComposite" />
    </filter>
    <g id="widget2220">
      <path d="M 61 1258  A 8 8 0 0 1 69 1250 L 442 1250  A 8 8 0 0 1 450 1258 L 450 1503  A 8 8 0 0 1 442 1511 L 69 1511  A 8 8 0 0 1 61 1503 L 61 1258  Z " fill-rule="nonzero" fill="#ffffff" stroke="none" fill-opacity="0.6" />
      <path d="M 60 1258  A 9 9 0 0 1 69 1249 L 442 1249  A 9 9 0 0 1 451 1258 L 451 1503  A 9 9 0 0 1 442 1512 L 69 1512  A 9 9 0 0 1 60 1503 L 60 1258  Z " stroke-width="2" stroke="#ffffff" fill="none" stroke-opacity="0.898039215686275" />
    </g>
  </defs>
  <g transform="matrix(1 0 0 1 -56 -1245 )">
    <use xlink:href="#widget2220" filter="url(#filter2219)" />
    <use xlink:href="#widget2220" />
  </g>
</svg>