<?xml version="1.0" encoding="utf-8"?>
<svg version="1.1" xmlns:xlink="http://www.w3.org/1999/xlink" width="366px" height="304px" xmlns="http://www.w3.org/2000/svg">
  <defs>
    <filter x="56px" y="1180px" width="366px" height="304px" filterUnits="userSpaceOnUse" id="filter2034">
      <feOffset dx="1" dy="1" in="SourceAlpha" result="shadowOffsetInner" />
      <feGaussianBlur stdDeviation="2" in="shadowOffsetInner" result="shadowGaussian" />
      <feComposite in2="shadowGaussian" operator="atop" in="SourceAlpha" result="shadowComposite" />
      <feColorMatrix type="matrix" values="0 0 0 0 0  0 0 0 0 0.301960784313725  0 0 0 0 0.454901960784314  0 0 0 0.0588235294117647 0  " in="shadowComposite" />
    </filter>
    <g id="widget2035">
      <path d="M 61 1193  A 8 8 0 0 1 69 1185 L 407 1185  A 8 8 0 0 1 415 1193 L 415 1469  A 8 8 0 0 1 407 1477 L 69 1477  A 8 8 0 0 1 61 1469 L 61 1193  Z " fill-rule="nonzero" fill="#ffffff" stroke="none" fill-opacity="0.6" />
      <path d="M 60 1193  A 9 9 0 0 1 69 1184 L 407 1184  A 9 9 0 0 1 416 1193 L 416 1469  A 9 9 0 0 1 407 1478 L 69 1478  A 9 9 0 0 1 60 1469 L 60 1193  Z " stroke-width="2" stroke="#ffffff" fill="none" stroke-opacity="0.898039215686275" />
    </g>
  </defs>
  <g transform="matrix(1 0 0 1 -56 -1180 )">
    <use xlink:href="#widget2035" filter="url(#filter2034)" />
    <use xlink:href="#widget2035" />
  </g>
</svg>