<?xml version="1.0" encoding="utf-8"?>
<svg version="1.1" xmlns:xlink="http://www.w3.org/1999/xlink" width="401px" height="273px" xmlns="http://www.w3.org/2000/svg">
  <defs>
    <filter x="56px" y="1285px" width="401px" height="273px" filterUnits="userSpaceOnUse" id="filter7538">
      <feOffset dx="1" dy="1" in="SourceAlpha" result="shadowOffsetInner" />
      <feGaussianBlur stdDeviation="2" in="shadowOffsetInner" result="shadowGaussian" />
      <feComposite in2="shadowGaussian" operator="atop" in="SourceAlpha" result="shadowComposite" />
      <feColorMatrix type="matrix" values="0 0 0 0 0  0 0 0 0 0.301960784313725  0 0 0 0 0.454901960784314  0 0 0 0.0588235294117647 0  " in="shadowComposite" />
    </filter>
    <g id="widget7539">
      <path d="M 61 1298  A 8 8 0 0 1 69 1290 L 442 1290  A 8 8 0 0 1 450 1298 L 450 1543  A 8 8 0 0 1 442 1551 L 69 1551  A 8 8 0 0 1 61 1543 L 61 1298  Z " fill-rule="nonzero" fill="#ffffff" stroke="none" fill-opacity="0.6" />
      <path d="M 60 1298  A 9 9 0 0 1 69 1289 L 442 1289  A 9 9 0 0 1 451 1298 L 451 1543  A 9 9 0 0 1 442 1552 L 69 1552  A 9 9 0 0 1 60 1543 L 60 1298  Z " stroke-width="2" stroke="#ffffff" fill="none" stroke-opacity="0.898039215686275" />
    </g>
  </defs>
  <g transform="matrix(1 0 0 1 -56 -1285 )">
    <use xlink:href="#widget7539" filter="url(#filter7538)" />
    <use xlink:href="#widget7539" />
  </g>
</svg>