<?xml version="1.0" encoding="utf-8"?>
<svg version="1.1" xmlns:xlink="http://www.w3.org/1999/xlink" width="667px" height="196px" xmlns="http://www.w3.org/2000/svg">
  <defs>
    <filter x="56px" y="1048px" width="667px" height="196px" filterUnits="userSpaceOnUse" id="filter72">
      <feOffset dx="1" dy="1" in="SourceAlpha" result="shadowOffsetInner" />
      <feGaussianBlur stdDeviation="2" in="shadowOffsetInner" result="shadowGaussian" />
      <feComposite in2="shadowGaussian" operator="atop" in="SourceAlpha" result="shadowComposite" />
      <feColorMatrix type="matrix" values="0 0 0 0 0  0 0 0 0 0.301960784313725  0 0 0 0 0.454901960784314  0 0 0 0.0588235294117647 0  " in="shadowComposite" />
    </filter>
    <g id="widget73">
      <path d="M 61 1061  A 8 8 0 0 1 69 1053 L 708 1053  A 8 8 0 0 1 716 1061 L 716 1229  A 8 8 0 0 1 708 1237 L 69 1237  A 8 8 0 0 1 61 1229 L 61 1061  Z " fill-rule="nonzero" fill="#ffffff" stroke="none" fill-opacity="0.6" />
      <path d="M 60 1061  A 9 9 0 0 1 69 1052 L 708 1052  A 9 9 0 0 1 717 1061 L 717 1229  A 9 9 0 0 1 708 1238 L 69 1238  A 9 9 0 0 1 60 1229 L 60 1061  Z " stroke-width="2" stroke="#ffffff" fill="none" stroke-opacity="0.898039215686275" />
    </g>
  </defs>
  <g transform="matrix(1 0 0 1 -56 -1048 )">
    <use xlink:href="#widget73" filter="url(#filter72)" />
    <use xlink:href="#widget73" />
  </g>
</svg>