<?xml version="1.0" encoding="utf-8"?>
<svg version="1.1" xmlns:xlink="http://www.w3.org/1999/xlink" width="338px" height="301px" xmlns="http://www.w3.org/2000/svg">
  <defs>
    <filter x="17px" y="1254px" width="338px" height="301px" filterUnits="userSpaceOnUse" id="filter393">
      <feOffset dx="1" dy="1" in="SourceAlpha" result="shadowOffsetInner" />
      <feGaussianBlur stdDeviation="2" in="shadowOffsetInner" result="shadowGaussian" />
      <feComposite in2="shadowGaussian" operator="atop" in="SourceAlpha" result="shadowComposite" />
      <feColorMatrix type="matrix" values="0 0 0 0 0  0 0 0 0 0.301960784313725  0 0 0 0 0.454901960784314  0 0 0 0.0588235294117647 0  " in="shadowComposite" />
    </filter>
    <g id="widget394">
      <path d="M 22 1267  A 8 8 0 0 1 30 1259 L 340 1259  A 8 8 0 0 1 348 1267 L 348 1540  A 8 8 0 0 1 340 1548 L 30 1548  A 8 8 0 0 1 22 1540 L 22 1267  Z " fill-rule="nonzero" fill="#ffffff" stroke="none" fill-opacity="0.6" />
      <path d="M 21 1267  A 9 9 0 0 1 30 1258 L 340 1258  A 9 9 0 0 1 349 1267 L 349 1540  A 9 9 0 0 1 340 1549 L 30 1549  A 9 9 0 0 1 21 1540 L 21 1267  Z " stroke-width="2" stroke="#ffffff" fill="none" stroke-opacity="0.898039215686275" />
    </g>
  </defs>
  <g transform="matrix(1 0 0 1 -17 -1254 )">
    <use xlink:href="#widget394" filter="url(#filter393)" />
    <use xlink:href="#widget394" />
  </g>
</svg>