<?xml version="1.0" encoding="utf-8"?>
<svg version="1.1" xmlns:xlink="http://www.w3.org/1999/xlink" width="366px" height="276px" xmlns="http://www.w3.org/2000/svg">
  <defs>
    <filter x="56px" y="876px" width="366px" height="276px" filterUnits="userSpaceOnUse" id="filter2032">
      <feOffset dx="1" dy="1" in="SourceAlpha" result="shadowOffsetInner" />
      <feGaussianBlur stdDeviation="2" in="shadowOffsetInner" result="shadowGaussian" />
      <feComposite in2="shadowGaussian" operator="atop" in="SourceAlpha" result="shadowComposite" />
      <feColorMatrix type="matrix" values="0 0 0 0 0  0 0 0 0 0.301960784313725  0 0 0 0 0.454901960784314  0 0 0 0.0588235294117647 0  " in="shadowComposite" />
    </filter>
    <g id="widget2033">
      <path d="M 61 889  A 8 8 0 0 1 69 881 L 407 881  A 8 8 0 0 1 415 889 L 415 1137  A 8 8 0 0 1 407 1145 L 69 1145  A 8 8 0 0 1 61 1137 L 61 889  Z " fill-rule="nonzero" fill="#ffffff" stroke="none" fill-opacity="0.6" />
      <path d="M 60 889  A 9 9 0 0 1 69 880 L 407 880  A 9 9 0 0 1 416 889 L 416 1137  A 9 9 0 0 1 407 1146 L 69 1146  A 9 9 0 0 1 60 1137 L 60 889  Z " stroke-width="2" stroke="#ffffff" fill="none" stroke-opacity="0.898039215686275" />
    </g>
  </defs>
  <g transform="matrix(1 0 0 1 -56 -876 )">
    <use xlink:href="#widget2033" filter="url(#filter2032)" />
    <use xlink:href="#widget2033" />
  </g>
</svg>