<?xml version="1.0" encoding="utf-8"?>
<svg version="1.1" xmlns:xlink="http://www.w3.org/1999/xlink" width="498px" height="258px" xmlns="http://www.w3.org/2000/svg">
  <defs>
    <filter x="57px" y="1246px" width="498px" height="258px" filterUnits="userSpaceOnUse" id="filter10843">
      <feOffset dx="1" dy="1" in="SourceAlpha" result="shadowOffsetInner" />
      <feGaussianBlur stdDeviation="2" in="shadowOffsetInner" result="shadowGaussian" />
      <feComposite in2="shadowGaussian" operator="atop" in="SourceAlpha" result="shadowComposite" />
      <feColorMatrix type="matrix" values="0 0 0 0 0  0 0 0 0 0.301960784313725  0 0 0 0 0.454901960784314  0 0 0 0.0588235294117647 0  " in="shadowComposite" />
    </filter>
    <g id="widget10844">
      <path d="M 62 1259  A 8 8 0 0 1 70 1251 L 540 1251  A 8 8 0 0 1 548 1259 L 548 1489  A 8 8 0 0 1 540 1497 L 70 1497  A 8 8 0 0 1 62 1489 L 62 1259  Z " fill-rule="nonzero" fill="#ffffff" stroke="none" fill-opacity="0.6" />
      <path d="M 61 1259  A 9 9 0 0 1 70 1250 L 540 1250  A 9 9 0 0 1 549 1259 L 549 1489  A 9 9 0 0 1 540 1498 L 70 1498  A 9 9 0 0 1 61 1489 L 61 1259  Z " stroke-width="2" stroke="#ffffff" fill="none" stroke-opacity="0.898039215686275" />
    </g>
  </defs>
  <g transform="matrix(1 0 0 1 -57 -1246 )">
    <use xlink:href="#widget10844" filter="url(#filter10843)" />
    <use xlink:href="#widget10844" />
  </g>
</svg>