<?xml version="1.0" encoding="utf-8"?>
<svg version="1.1" xmlns:xlink="http://www.w3.org/1999/xlink" width="667px" height="186px" xmlns="http://www.w3.org/2000/svg">
  <defs>
    <filter x="56px" y="1048px" width="667px" height="186px" filterUnits="userSpaceOnUse" id="filter7536">
      <feOffset dx="1" dy="1" in="SourceAlpha" result="shadowOffsetInner" />
      <feGaussianBlur stdDeviation="2" in="shadowOffsetInner" result="shadowGaussian" />
      <feComposite in2="shadowGaussian" operator="atop" in="SourceAlpha" result="shadowComposite" />
      <feColorMatrix type="matrix" values="0 0 0 0 0  0 0 0 0 0.301960784313725  0 0 0 0 0.454901960784314  0 0 0 0.0588235294117647 0  " in="shadowComposite" />
    </filter>
    <g id="widget7537">
      <path d="M 61 1061  A 8 8 0 0 1 69 1053 L 708 1053  A 8 8 0 0 1 716 1061 L 716 1219  A 8 8 0 0 1 708 1227 L 69 1227  A 8 8 0 0 1 61 1219 L 61 1061  Z " fill-rule="nonzero" fill="#ffffff" stroke="none" fill-opacity="0.6" />
      <path d="M 60 1061  A 9 9 0 0 1 69 1052 L 708 1052  A 9 9 0 0 1 717 1061 L 717 1219  A 9 9 0 0 1 708 1228 L 69 1228  A 9 9 0 0 1 60 1219 L 60 1061  Z " stroke-width="2" stroke="#ffffff" fill="none" stroke-opacity="0.898039215686275" />
    </g>
  </defs>
  <g transform="matrix(1 0 0 1 -56 -1048 )">
    <use xlink:href="#widget7537" filter="url(#filter7536)" />
    <use xlink:href="#widget7537" />
  </g>
</svg>